<svg xmlns="http://www.w3.org/2000/svg" xmlns:xlink="http://www.w3.org/1999/xlink" viewBox="0 0 1024 1024" width="16" height="16" style="border-color: rgba(187,187,187,1);border-width: 0px;border-style: solid" filter="none">
    <defs><linearGradient id="1,1,rs,1,f000f000,f0rsf000,f000,ku6vcvrkrs,00i3kprsrs" x1="0" x2="100%" y1="0" y2="0" gradientTransform="null" gradientUnits="userSpaceOnUse"><stop stop-color="#3f76fd" stop-opacity="1" offset="0.75"></stop><stop stop-color="#a6beff" stop-opacity="1" offset="0"></stop></linearGradient></defs>
    <g>
    <path d="M853.64224 76.7488H155.25888c-49.03424 0-88.75008 40.14592-88.75008 89.18528l-0.41472 766.18752c-0.00512 13.45024 16.256 20.18816 25.76384 10.68032l148.16256-148.16256a15.09376 15.09376 0 0 1 10.6752-4.41856h602.94656c57.34912 0 104.26368-46.9248 104.26368-104.2688V181.02784c0-57.35424-46.91456-104.27904-104.26368-104.27904z m-299.33056 544.1792a15.09376 15.09376 0 0 1-15.08864 15.08864H472.73472a15.09376 15.09376 0 0 1-15.09376-15.08864v-60.5696a15.09376 15.09376 0 0 1 15.09376-15.08864h66.4832a15.09376 15.09376 0 0 1 15.08864 15.08864v60.5696h0.00512z m39.45984-199.94112c-35.16928 24.76032-51.65056 48.84992-49.39776 72.30464 0.05632 0.4608 0.08704 0.9216 0.08704 1.3824a15.08864 15.08864 0 0 1-15.09376 15.08864h-48.73216a15.08352 15.08352 0 0 1-15.08864-15.08864v-6.60992c-1.32608-40.61184 15.6672-72.77056 50.92352-96.41984 0.24064-0.16384 0.49152-0.33792 0.72704-0.51712 32.6144-24.86784 48.2816-48.45056 46.99136-70.74816-2.62144-27.33056-18.0992-42.40896-46.4384-45.29152a16.45568 16.45568 0 0 0-1.81248-0.08192c-31.42144 0.3584-52.42368 19.4816-62.98112 57.3696a15.13472 15.13472 0 0 1-17.4592 10.85952L374.1696 331.23328a15.11424 15.11424 0 0 1-11.70944-18.61632c20.54144-80.15872 76.60032-118.99392 168.17152-116.5312 81.30048 5.25312 126.0032 41.89696 134.08256 109.88544 0.0512 0.38912 0.08192 0.78848 0.10752 1.1776 2.3808 44.47744-21.2992 82.41152-71.05024 113.83808z" fill="url(#1,1,rs,1,f000f000,f0rsf000,f000,ku6vcvrkrs,00i3kprsrs)" p-id="11461" stroke="none"></path>
    </g>
  </svg>