<svg xmlns="http://www.w3.org/2000/svg" xmlns:xlink="http://www.w3.org/1999/xlink" viewBox="0 0 1024 1024" width="14" height="14" style="border-color: rgba(187,187,187,1);border-width: 0px;border-style: solid" filter="none">
    
    <g>
    <path d="M1017.709714 635.026286a229.632 229.632 0 0 0-30.500571-69.010286 23.405714 23.405714 0 0 0-31.085714-7.021714c-10.752 6.473143-26.550857 100.315429-155.355429 197.376-121.453714 91.684571-263.826286 103.533714-270.628571 113.810285a21.028571 21.028571 0 0 0 6.802285 29.622858c68.352 41.545143 150.820571 57.197714 233.874286 44.251428l30.500571 19.382857c1.133714 1.097143 2.267429 1.645714 2.852572 2.194286l36.132571 22.637714c6.802286 4.315429 14.116571 6.473143 22.052572 6.473143 6.765714 0 13.531429-1.609143 19.2-4.864 12.982857-6.473143 20.882286-19.382857 20.882285-33.974857v-60.379429c76.288-48.566857 121.490286-124.598857 121.490286-205.494857a198.4 198.4 0 0 0-6.217143-55.003428z" fill="#10D542" p-id="17444"></path><path d="M468.114286 0C209.846857 0 0 179.931429 0 401.225143c0 128.146286 71.241143 248.612571 191.488 323.84v107.410286c0 16.896 9.435429 32.182857 24.502857 39.789714 6.656 3.803429 14.445714 5.449143 22.235429 5.449143 8.923429 0 17.810286-2.742857 25.6-7.643429l56.210285-36.498286c1.682286-1.097143 2.816-1.645714 3.913143-2.742857l55.113143-35.986285c30.061714 4.900571 60.123429 7.643429 89.051429 7.643428 257.718857 0 468.114286-179.931429 468.114285-401.261714S725.833143 0 468.114286 0z m227.108571 491.739429c-34.523429 82.870857-124.123429 139.008-223.780571 139.008-99.072 0-189.220571-55.588571-223.744-139.008-7.789714-18.541714 1.682286-39.241143 20.041143-46.884572a37.193143 37.193143 0 0 1 47.872 19.638857c23.369143 56.137143 85.723429 94.317714 155.830857 94.317715 70.144 0 132.498286-37.668571 155.867428-94.354286a36.717714 36.717714 0 0 1 47.872-19.602286 35.474286 35.474286 0 0 1 20.041143 46.884572z" fill="#40EB6B" p-id="17445"></path>
    </g>
  </svg>