<svg id="图层_1" data-name="图层 1" xmlns="http://www.w3.org/2000/svg" viewBox="0 0 15 15"><defs><style>.cls-1{fill:#a5b1ce;fill-rule:evenodd;}</style></defs><title>应用中心-顶部icon</title><path class="cls-1" d="M3,1.5A1.5,1.5,0,0,0,1.5,3V6.75A1.5,1.5,0,0,0,3,8.25H6.75a1.5,1.5,0,0,0,1.5-1.5V3a1.5,1.5,0,0,0-1.5-1.5ZM3,9.75a1.5,1.5,0,0,0-1.5,1.5V15A1.5,1.5,0,0,0,3,16.5H6.75A1.5,1.5,0,0,0,8.25,15V11.25a1.5,1.5,0,0,0-1.5-1.5Zm6.75,1.5a1.5,1.5,0,0,1,1.5-1.5H15a1.5,1.5,0,0,1,1.5,1.5V15A1.5,1.5,0,0,1,15,16.5H11.25A1.5,1.5,0,0,1,9.75,15Zm1.5-9.75A1.5,1.5,0,0,0,9.75,3V6.75a1.5,1.5,0,0,0,1.5,1.5H15a1.5,1.5,0,0,0,1.5-1.5V3A1.5,1.5,0,0,0,15,1.5Zm0,1.5H15V6.75H11.25Z" transform="translate(-1.5 -1.5)"/></svg>