<svg id="图层_1" data-name="图层 1" xmlns="http://www.w3.org/2000/svg" xmlns:xlink="http://www.w3.org/1999/xlink" viewBox="0 0 200.18 165.93"><defs><style>.cls-1{fill:url(#未命名的渐变);}.cls-2{fill:#fff;}</style><linearGradient id="未命名的渐变" x1="155.62" y1="5.03" x2="51.27" y2="185.77" gradientTransform="matrix(1, 0, 0, -1, 0, 168)" gradientUnits="userSpaceOnUse"><stop offset="0" stop-color="#3d5afe"/><stop offset="1" stop-color="#3f76fc"/></linearGradient></defs><title>慧贸贸客户端</title><path class="cls-1" d="M171.48,133.57H28.19A28,28,0,0,1,0,105.76H0V28.19A28,28,0,0,1,27.81,0H172a28,28,0,0,1,28.18,27.82h0v77.56a28.4,28.4,0,0,1-28.61,28.19h-.09Zm-23.12,32.36H51.3a6.93,6.93,0,1,1,0-13.86h97.53a7.1,7.1,0,0,1,6.93,6.93,7.22,7.22,0,0,1-7.4,6.93Z"/><rect class="cls-2" x="37.22" y="61.17" width="104.58" height="16" rx="8" transform="translate(-23.59 67.07) rotate(-36.63)"/><rect class="cls-2" x="73.05" y="77.08" width="83.21" height="16" rx="8" transform="translate(-28.12 85.21) rotate(-36.63)"/></svg>
