<svg id="图层_1" data-name="图层 1" xmlns="http://www.w3.org/2000/svg" viewBox="0 0 18 18"><defs><style>.cls-1{}</style></defs><title>应用市场</title><path class="cls-1" d="M16.14,2.59A2,2,0,0,1,16.79,4V14.93a2,2,0,0,1-.65,1.46,2.22,2.22,0,0,1-1.55.6H3a2.24,2.24,0,0,1-1.55-.6,2,2,0,0,1-.64-1.46V4a2,2,0,0,1,.64-1.45A2.24,2.24,0,0,1,3,2H14.59A2.22,2.22,0,0,1,16.14,2.59ZM6.27,10.42A.89.89,0,0,0,6,9.76a1,1,0,0,0-.74-.26,1.1,1.1,0,0,0-.78.26.64.64,0,0,0-.2.66v2.36a.83.83,0,0,0,.28.65,1,1,0,0,0,.71.27A1,1,0,0,0,6,13.43a.92.92,0,0,0,.29-.65V10.42ZM9.66,6.2a.83.83,0,0,0-.28-.65,1,1,0,0,0-.71-.27A1,1,0,0,0,8,5.55a.92.92,0,0,0-.29.65v6.58a.92.92,0,0,0,.29.65.93.93,0,0,0,.69.27,1,1,0,0,0,.71-.27.83.83,0,0,0,.28-.65Zm3.51,3.19a.86.86,0,0,0-.34-.66,1.19,1.19,0,0,0-.75-.25.93.93,0,0,0-.69.25.74.74,0,0,0-.19.66v3.39a.84.84,0,0,0,.29.65,1,1,0,0,0,.7.27.93.93,0,0,0,.69-.27.88.88,0,0,0,.29-.65V9.39Z"/></svg>
