<svg id="图层_1" data-name="图层 1" xmlns="http://www.w3.org/2000/svg" viewBox="0 0 18 18"><defs><style>.cls-1{}</style></defs><title>应用市场</title><path class="cls-1" d="M15.33,2.15H3.67a2.1,2.1,0,0,0-2.17,2V15.11a2.1,2.1,0,0,0,2.17,2H15.33a2.1,2.1,0,0,0,2.17-2V4.19A2.11,2.11,0,0,0,15.33,2.15ZM15,13.49H13.11a2,2,0,0,1-3.53,0H4.31a.79.79,0,1,1,0-1.57H9.59a2,2,0,0,1,3.52,0H15a.81.81,0,0,1,.84.79A.8.8,0,0,1,15,13.49Zm0-6.12H9.46a2,2,0,0,1-3.53,0H4.31a.79.79,0,1,1,0-1.57H5.94a2,2,0,0,1,3.52,0H15a.79.79,0,1,1,0,1.57Z"/></svg>
