<svg id="图层_1" data-name="图层 1" xmlns="http://www.w3.org/2000/svg" viewBox="0 0 18 18"><defs><style>.cls-1{}</style></defs><title>应用市场</title><path class="cls-1" d="M14.16,1.36H3.88A2.39,2.39,0,0,0,1.56,3.84v11a2.39,2.39,0,0,0,2.32,2.48H14.24a2.43,2.43,0,0,0,2.32-2.48v-11A2.5,2.5,0,0,0,14.16,1.36ZM5,13.68A.64.64,0,0,1,4.38,13,.6.6,0,0,1,5,12.4a.64.64,0,1,1,0,1.28ZM5,10a.64.64,0,0,1-.66-.64A.6.6,0,0,1,5,8.72.64.64,0,1,1,5,10ZM5,6.24a.64.64,0,0,1-.66-.64A.6.6,0,0,1,5,5a.66.66,0,0,1,.67.72C5.71,6.08,5.46,6.24,5,6.24Zm7.88,7.44H7.7A.64.64,0,0,1,7,13a.6.6,0,0,1,.67-.64h5.22a.64.64,0,0,1,.66.64.6.6,0,0,1-.66.64Zm0-3.68H7.7A.64.64,0,0,1,7,9.36a.6.6,0,0,1,.67-.64h5.22a.64.64,0,0,1,.66.64A.6.6,0,0,1,12.92,10Zm0-3.76H7.7A.64.64,0,0,1,7,5.6.6.6,0,0,1,7.7,5h5.22a.64.64,0,0,1,.66.64A.6.6,0,0,1,12.92,6.24Z"/></svg>
