<svg id="图层_1" data-name="图层 1" xmlns="http://www.w3.org/2000/svg" viewBox="0 0 18 18"><defs><style>.cls-1{}</style></defs><title>分享-未点击</title><path class="cls-1" d="M7.51,3.72V8.54a.6.6,0,0,1-.6.6H2.09a.61.61,0,0,1-.6-.61V3.72a.6.6,0,0,1,.6-.6H6.91A.6.6,0,0,1,7.51,3.72Zm-.6,6.61H2.09a.61.61,0,0,0-.6.6v4.82a.6.6,0,0,0,.6.6H6.91a.6.6,0,0,0,.6-.6V10.93A.61.61,0,0,0,6.91,10.33Zm7.21,0H9.3a.6.6,0,0,0-.6.6v4.82a.6.6,0,0,0,.6.6h4.82a.6.6,0,0,0,.6-.6V10.93A.6.6,0,0,0,14.12,10.33Zm-.48-.68L17,6.25A1,1,0,0,0,17,4.8l-3.4-3.4a1,1,0,0,0-.72-.3,1,1,0,0,0-.73.3L8.79,4.8a1,1,0,0,0,0,1.45l3.4,3.4a1,1,0,0,0,1.45,0ZM13,2,16.45,5.4a.2.2,0,0,1,0,.25L13,9.05a.17.17,0,0,1-.12,0,.16.16,0,0,1-.13,0l-3.4-3.4a.18.18,0,0,1,0-.25h0L12.79,2a.17.17,0,0,1,.12-.05A.2.2,0,0,1,13,2Z"/></svg>
