<svg id="图层_1" data-name="图层 1" xmlns="http://www.w3.org/2000/svg" viewBox="0 0 510.24 510.42"><defs><style>.cls-1{}</style></defs><title>认证中心-正常状态</title><path class="cls-1" d="M-65.67-208.86l-48.71-47.78v-60.27c-.06-21.46,6.34-60.2-15-60.26h-120l-30-45.14c-15.12-15.12-42.3-18.87-57.43-3.75l-32.59,48.95h-90.09c-21.4.06-46.06,16.91-46.12,38.37v78.9l-47.66,51a39.1,39.1,0,0,0,0,55l47.66,51.71v78.9c.06,21.46,9.71,37.69,31.11,37.76h90l47.6,48.82a38.74,38.74,0,0,0,54.79,0l47.66-48.82h75c21.4-.07,44.95-23.74,45-45.2V-106l48.7-47.84a39.11,39.11,0,0,0,.07-55ZM-309.13-62.69-446.69-259.9h98.27l38.92,117.45,39.67-117.45h98.26Z" transform="translate(564.62 435.7)"/></svg>
