<svg id="图层_1" data-name="图层 1" xmlns="http://www.w3.org/2000/svg" viewBox="0 0 150 150"><defs><style></style></defs><title>报关icon</title><path class="cls-1" d="M-130.12-174.67h-125a12.5,12.5,0,0,0-12.5,12.5v125a12.5,12.5,0,0,0,12.5,12.5h125a12.5,12.5,0,0,0,12.5-12.5v-125A12.5,12.5,0,0,0-130.12-174.67ZM-153.49-95.8a46,46,0,0,1-1.92-13.44s-.36-1.4-.73-.12c0,0-.25,7.22,0,7.68,0,0-1.76,0-2.33-8.41,0,0-.09-1.39-.37,0,0,0,0,7.26-1.14,3a38.24,38.24,0,0,1-1.14-6.56s-.66.37-1,2.38c0,0-1.18.16-1.59-5.11,0,0-.37-1.28-.78-.05a11,11,0,0,0-.32,2.94s-1.71-.25-1.48-5.61c0,0-1,.57-.82,2.46,0,0,0,1.24-.83,0,0,0-2.21-2.12-4.54-1.28,0,0-.61-.16-2.32,1.81l-5.66,6.39s1.85,3.93,5.73,2.26a3.91,3.91,0,0,0,2-1.08s.11-2.78,1.64-3.24a4,4,0,0,1,3.73,1.71,3.91,3.91,0,0,1-.16,4.7S-169.75-98.81-181-103c0,0,1.44,5.87-5.62,7.9l-.45.57,10,9a3.21,3.21,0,0,0,4.34.09s6.71-4.47,12.53-.41c0,0,8.4,6,4.7,18.4,0,0-4.06,13.1-17.82,10.66,0,0-12.42-3.31-9.7-14.7l1.55-3.52s1.28-2-1.23-3.92l-10-9.58s-2,5.73-10.16,5.86c0,0,.62,10.73-10.36,8.93l-15,15.68-.61-.52,13.51-17.33s-2.58-11.18,7.53-11l.62-.66s-2.42-7.37,4.47-10.32l-30-29.22s-1.8-1.56.16-4.63a3.9,3.9,0,0,1,4.75.66L-198-104.15l.71-.82s.52-6.71,7.42-7.32a7.07,7.07,0,0,0-1.08-5s-2.05-3.93,0-7.12a4.13,4.13,0,0,1,5.32-1.44s3.45,1.6,1.65,4a8.54,8.54,0,0,1-2.22,1.56s-.57,6,2.95,5.56l6-7a3,3,0,0,0-.73-4.18s-2.16-1.28.53-2c0,0,1,.16,1.14-.77,0,0,.25-.57-2-.57,0,0-3.52.41-3.31-.94l3.15-.57s1.14-.57-.37-.62l-3.56-.21a2.91,2.91,0,0,1-2.53-1.13l3.92-.16s1.08-.05.82-1c0,0,0-.41-1.27-.41l-7.83-.32s-.57-.87,1.64-1l4.06-.11s1-.16-.16-.87c0,0,.21-.16-1.55-.37l-7.58-.41s-1.85-1.14-.11-1.39l8.15-.32s1-.46,0-1.07H-198.6s-.73.32-1.55-1.08c0,0-.32-.82,1.18-1.14l18.52-.37s6.14-.09,7.16,6.14a22.29,22.29,0,0,1,.25,4.63s.66,2,2,1.49c0,0,1.23.11,2.87-2.12,0,0,.37-1.35.57-2.38,0,0,.16-2.94,4.13-2.58a9,9,0,0,1,4.18,4,3.11,3.11,0,0,1-.57,4,4.39,4.39,0,0,1-3.44,1.81,3.25,3.25,0,0,0-2.38,3.19s.16,3.77,4,3.24c0,0,2.87-2,5-.77,0,0,3.56,1.55,3.56,8l1.4,20.31S-152.6-92.81-153.49-95.8Z" transform="translate(267.62 174.67)"/></svg>
