<svg id="图层_1" data-name="图层 1" xmlns="http://www.w3.org/2000/svg" viewBox="0 0 150 150"><defs><style></style></defs><title>报价icon</title><path class="cls-1" d="M244-1.06a6.15,6.15,0,0,0-4.79,6,6.14,6.14,0,0,0,1.19,3.66,1,1,0,0,0,.82.42,1,1,0,0,0,.61-.2,1.06,1.06,0,0,0,.22-1.45A4,4,0,0,1,241.26,5a4,4,0,0,1,3.16-4,1.05,1.05,0,0,0,.81-1.23A1.05,1.05,0,0,0,244-1.06Z" transform="translate(-145.34 83.39)"/><path class="cls-1" d="M219.54-15.49h0a2.67,2.67,0,0,0,2.7-2.65,2.68,2.68,0,0,0-2.7-2.66h-7l7-6.87a2.62,2.62,0,0,0,.05-3.71l-.05-.05a2.74,2.74,0,0,0-3.81,0l-9.9,9.75-9.9-9.75a2.74,2.74,0,0,0-3.81,0,2.61,2.61,0,0,0-.05,3.71.12.12,0,0,0,.05.05l7,6.87h-6.52a2.7,2.7,0,0,0-2.71,2.66h0a2.68,2.68,0,0,0,2.71,2.65h10.79v5.32h-10.8a2.68,2.68,0,0,0-2.7,2.65,2.68,2.68,0,0,0,2.69,2.67h10.81V1.33a2.7,2.7,0,0,0,5.4,0h0V-4.86h10.79a2.68,2.68,0,0,0,2.7-2.66h0a2.66,2.66,0,0,0-2.69-2.65h-10.8v-5.32Z" transform="translate(-145.34 83.39)"/><path class="cls-1" d="M282.84-83.39h-125a12.49,12.49,0,0,0-12.5,12.5v125a12.5,12.5,0,0,0,12.5,12.5h125a12.5,12.5,0,0,0,12.5-12.5v-125A12.5,12.5,0,0,0,282.84-83.39ZM263.18,33.44a1,1,0,0,1-1,1H228.27a1,1,0,0,1-1-1v-3a3,3,0,0,1,3-3c4.11,0,10.93-3.43,10.93-7.07v-1c0-1.7,0-1.93-2.44-4.41a10.23,10.23,0,0,1-.61-14.91,9.89,9.89,0,0,1,14.15,0,10.25,10.25,0,0,1-.62,14.91c-2.43,2.48-2.43,2.7-2.43,4.13v1.31c0,3.64,6.82,7.06,10.93,7.06a3,3,0,0,1,3,3Zm0-9.8a4.91,4.91,0,0,0-2.53-1.37c-4-1.28-6.49-1.93-5.17-4,5.79-4.28,6-9.22,5.17-13.83C259.09-8.2,246.54-8.37,245.92-8.39c-7.86,0-13.56,3.4-15.46,8.92-3,8.6,2.34,15.68,4.48,17.72s-3.86,3.93-7.68,4.77c-5.44,1.53-5.81,8.17-5.65,11.46h-40a4.11,4.11,0,0,1-4.14-4.06V-47.13a4.1,4.1,0,0,1,4.14-4.14h77.47a4.1,4.1,0,0,1,4.14,4.14Z" transform="translate(-145.34 83.39)"/></svg>
