<svg id="图层_1" data-name="图层 1" xmlns="http://www.w3.org/2000/svg" viewBox="0 0 150 150"><defs><style></style></defs><title>保税icon</title><path class="cls-1" d="M-10.12-150.51h-125a12.5,12.5,0,0,0-12.5,12.5V-13a12.5,12.5,0,0,0,12.5,12.5h125A12.5,12.5,0,0,0,2.38-13V-138A12.5,12.5,0,0,0-10.12-150.51ZM-103.88-39.67l-10.33-2V-67.79l10.33-2.49Zm28.19,5.79-10.75-2.27V-74.53h0l10.75-2.62Zm0-69.94-13.43,3.25v9.78l13.43-3.14V-81L-89.12-77.8v41.18l-12-2.43V-74.86l-13.09,3.15V-84.92L-101.12-88v-9.64l-13.09,3.16v-13.12l38.52-9.35Zm6.07-13.31L-53-113.25v13.16l-16.65-3.85ZM-58.25-36.2l-11.37,2.3h0V-72.71l11.37,2.63ZM-31-67.29l-13-3v22.8l3.31-.57V-66l9.69,2.24v22.11l-24.11,4.87v-36l-14.45-3.27h0v-24.2l38.57,9ZM-31-95l-14.5-3.36h0v-13.21l14.5,3.44Z" transform="translate(147.62 150.51)"/><polygon class="cls-1" points="104.71 71.57 104.71 65.1 91.6 61.98 91.6 68.44 104.71 71.57"/></svg>
