<svg id="图层_1" data-name="图层 1" xmlns="http://www.w3.org/2000/svg" viewBox="0 0 18 18"><defs><style>.cls-1{}</style></defs><title>分享-未点击</title><path class="cls-1" d="M11.39,14a.47.47,0,0,1-.48.48H7.11A.48.48,0,0,1,6.63,14a.49.49,0,0,1,.48-.48h3.8a.48.48,0,0,1,.48.48Zm-.47.71H7.12a.48.48,0,0,0-.46.5.68.68,0,0,0,0,.14.49.49,0,0,0,.48.32.75.75,0,0,1,.65.4,1,1,0,0,0,.87.54h.69a1,1,0,0,0,.87-.54.71.71,0,0,1,.65-.4.48.48,0,0,0,.18-.93l-.14,0Z"/><path class="cls-1" d="M10.94,12.3C11.24,9.61,14,9,14,5.85a5,5,0,0,0-10,0C4,9,6.79,9.61,7.08,12.3a.48.48,0,0,0,0,1h3.8a.48.48,0,0,0,.48-.48h0A.49.49,0,0,0,10.94,12.3ZM7.71,2.64A3.43,3.43,0,0,0,5.68,5a.35.35,0,0,1-.35.27H5.24A.36.36,0,0,1,5,4.81,4.2,4.2,0,0,1,7.45,2h0a.36.36,0,0,1,.47.2A.37.37,0,0,1,7.71,2.64Z"/></svg>
