<svg id="图层_1" data-name="图层 1" xmlns="http://www.w3.org/2000/svg" viewBox="0 0 1100 177.49"><defs><style>.cls-1,.cls-14,.cls-20,.cls-21{fill:#3d5afe;}.cls-12,.cls-15,.cls-2,.cls-22{fill:#fff;}.cls-17,.cls-3{fill:none;}.cls-3{stroke:#24285b;stroke-miterlimit:10;stroke-width:2px;}.cls-22,.cls-4{opacity:0.08;}.cls-11,.cls-12,.cls-14,.cls-15,.cls-16,.cls-18,.cls-20,.cls-21,.cls-22,.cls-23,.cls-4,.cls-5,.cls-8{isolation:isolate;}.cls-5,.cls-6{fill:#e6e6e6;}.cls-5{opacity:0.45;}.cls-7{fill:#f4a28c;}.cls-8{fill:#ce8172;opacity:0.31;}.cls-9{fill:#24285b;}.cls-10{fill:#ffd200;}.cls-11,.cls-16,.cls-18,.cls-23,.cls-24{fill:#a5a5a5;}.cls-11{opacity:0.19;}.cls-12{opacity:0.46;}.cls-13{fill:#c9c9c9;}.cls-14{opacity:0.54;}.cls-15,.cls-16{opacity:0.2;}.cls-17{stroke:#a5a5a5;stroke-linecap:round;stroke-linejoin:round;stroke-width:4px;}.cls-18{opacity:0.4;}.cls-19{fill:#d88b7c;}.cls-20{opacity:0.58;}.cls-21{opacity:0.73;}.cls-23{opacity:0.39;}</style></defs><title>业务合作_状态 1</title><rect class="cls-1" width="1100" height="177.49" rx="88.74"/><circle class="cls-2" cx="221.48" cy="88.74" r="67.53"/><circle class="cls-2" cx="386.33" cy="88.74" r="67.53"/><circle class="cls-2" cx="713.31" cy="88.74" r="67.53"/><circle class="cls-2" cx="878.52" cy="88.74" r="67.53"/><circle class="cls-2" cx="547.52" cy="88.74" r="67.53"/><path class="cls-3" d="M376.5-250.41v-1a1.3,1.3,0,0,1,1.3-1.3H379a1.3,1.3,0,0,1,1.29,1.3v1" transform="translate(472.89 338.02)"/><path class="cls-1" d="M392.16-272.1a22,22,0,0,1,2.12,6.77,4,4,0,0,0,2.82,3.22l6.25,1.84-.49,1.65-5.34-.64a11.24,11.24,0,0,1-9.59-8.2,7.16,7.16,0,0,1,.09-4.44,2.27,2.27,0,0,1,3-1.27A2.24,2.24,0,0,1,392.16-272.1Z" transform="translate(472.89 338.02)"/><path class="cls-4" d="M392.16-272.1a22,22,0,0,1,2.12,6.77,4,4,0,0,0,2.82,3.22l6.25,1.84-.49,1.65-5.34-.64a11.24,11.24,0,0,1-9.59-8.2,7.16,7.16,0,0,1,.09-4.44,2.27,2.27,0,0,1,3-1.27A2.24,2.24,0,0,1,392.16-272.1Z" transform="translate(472.89 338.02)"/><rect class="cls-1" x="906.44" y="53.18" width="1.27" height="20.58"/><ellipse class="cls-5" cx="881.04" cy="112.07" rx="47.6" ry="3.05"/><path class="cls-1" d="M397.46-245a1.24,1.24,0,0,0,1.1.55c.67-.11,1,.49.44.79s-2.23-.08-2.23-.08l-.23-1.19Z" transform="translate(472.89 338.02)"/><path class="cls-1" d="M378.18-239.6a1.25,1.25,0,0,0,0,1.23c.4.53,0,1.1-.5.76s-1-2-1-2l.95-.77Z" transform="translate(472.89 338.02)"/><rect class="cls-6" x="847.58" y="100.81" width="17" height="10.67"/><rect class="cls-6" x="864.58" y="94.47" width="17" height="17"/><rect class="cls-6" x="881.59" y="84.78" width="17" height="26.7"/><rect class="cls-6" x="898.45" y="74.53" width="17" height="36.94"/><path class="cls-7" d="M386.92-280.12a7.28,7.28,0,0,1,.12,1.92.57.57,0,0,1-.64.5h0a1.27,1.27,0,0,1-1.1-.85l-.45-1a1,1,0,0,1,.32-1.15A1.11,1.11,0,0,1,386.92-280.12Z" transform="translate(472.89 338.02)"/><polygon class="cls-7" points="857.78 58.67 857.61 62.45 859.71 62.4 858.99 59.67 857.78 58.67"/><path class="cls-7" d="M385.8-279s-.06-.44-.39-.37-.25.71.21.72Z" transform="translate(472.89 338.02)"/><path class="cls-7" d="M387-279.4l.37.42a.18.18,0,0,1,0,.26l-.07,0-.43.13Z" transform="translate(472.89 338.02)"/><path class="cls-8" d="M386.28-277.76a1.39,1.39,0,0,1-.72-.32,2.18,2.18,0,0,0,.95,1.28Z" transform="translate(472.89 338.02)"/><rect class="cls-9" x="903.84" y="71.56" width="6.6" height="2.97"/><rect class="cls-10" x="893.53" y="53.18" width="12.9" height="9.51"/><circle class="cls-9" cx="899.99" cy="57.93" r="2.6"/><path class="cls-2" d="M427.21-281.7c.08,0,.11,0,.11.11v.18a.85.85,0,0,1,.68.52c0,.08,0,.13-.08.18l-.18.08c-.08,0-.12,0-.17-.07a.46.46,0,0,0-.47-.27c-.32,0-.46.09-.46.3s.12.22.25.25l.28,0a2,2,0,0,1,.49.09.94.94,0,0,1,.22.12.72.72,0,0,1,.19.52c0,.4-.27.67-.74.74v.2c0,.09,0,.12-.11.12H427c-.08,0-.11,0-.11-.12v-.19a.83.83,0,0,1-.74-.57.12.12,0,0,1,.06-.16h0l.18-.06c.09,0,.13,0,.17.08a.46.46,0,0,0,.49.29c.34,0,.51-.1.51-.32a.24.24,0,0,0-.16-.23,1.53,1.53,0,0,0-.36-.07,1.71,1.71,0,0,1-.5-.1.57.57,0,0,1-.21-.13.63.63,0,0,1-.2-.5.72.72,0,0,1,.72-.73v-.18c0-.08,0-.11.11-.11Z" transform="translate(472.89 338.02)"/><rect class="cls-1" x="903.84" y="103.43" width="6.6" height="8.04"/><rect class="cls-11" x="902.15" y="77.96" width="1.87" height="21.83"/><rect class="cls-11" x="906.41" y="77.96" width="1.87" height="21.83"/><rect class="cls-11" x="910.68" y="77.96" width="1.87" height="21.83"/><rect class="cls-11" x="894.94" y="84.78" width="3.51" height="26.7"/><rect class="cls-11" x="878.01" y="94.52" width="3.51" height="16.96"/><rect class="cls-11" x="860.94" y="101.02" width="3.51" height="10.46"/><path class="cls-9" d="M380.94-256.91s-.83,3.61,1.62,4.31c1.14.33,3.86.09,6.42-.25a6.06,6.06,0,0,1,6.77,5l.44,2.79h1.25v-5.06a6.71,6.71,0,0,0-6.61-6.7Z" transform="translate(472.89 338.02)"/><path class="cls-9" d="M382.24-255l-.6,3.92a23,23,0,0,1-3.51,9.18l-1.07,1.65,1.33.86.59-.57a28,28,0,0,0,7.22-11.56l.89-2.75Z" transform="translate(472.89 338.02)"/><path class="cls-9" d="M384.87-278.75l-.41-1.55s-.66-.42-.18-.91.87-.09,1.26-.78a.68.68,0,0,1,.9-.36.65.65,0,0,1,.38.41c.15.46,1.21.31,1,1s-1.17.71-1.44.72C385.2-280.2,386.22-278.63,384.87-278.75Z" transform="translate(472.89 338.02)"/><path class="cls-1" d="M385.06-275.65l.42-.08a6.27,6.27,0,0,1,5.41,1.55,6,6,0,0,1,1.44,2.06c1.48,3.44-2.88,15.33-2.88,15.33l-8.51-.12S375.19-274.62,385.06-275.65Z" transform="translate(472.89 338.02)"/><path class="cls-4" d="M387.85-272.47a6.76,6.76,0,0,1-3.1,5.69c-3.3,2.18.46,10,.46,10l-4.27-.12a42.7,42.7,0,0,1-1.55-7.68C379.31-267.25,380.48-272.56,387.85-272.47Z" transform="translate(472.89 338.02)"/><path class="cls-1" d="M384-275.47a3.37,3.37,0,0,1,2.21.22,2.92,2.92,0,0,1,1.65,2.78c.12,3.24-11.81,1.21-9,18.39l-1.89.47S370.6-272.5,384-275.47Z" transform="translate(472.89 338.02)"/><path class="cls-12" d="M384-275.47a3.37,3.37,0,0,1,2.21.22,2.92,2.92,0,0,1,1.65,2.78c.12,3.24-11.81,1.21-9,18.39l-1.89.47S370.6-272.5,384-275.47Z" transform="translate(472.89 338.02)"/><path class="cls-7" d="M377.37-253.72s.14,1.63.89,1.67,1.69-.32.58-2Z" transform="translate(472.89 338.02)"/><path class="cls-7" d="M403.27-260a2.39,2.39,0,0,1,1.67,1c.42.81-2,.18-2,.18Z" transform="translate(472.89 338.02)"/><rect class="cls-10" x="846.81" y="87.23" width="9.28" height="6.04"/><path class="cls-4" d="M373.92-247.95a12.05,12.05,0,0,0,9.28,2.1v1.11h-9.28Z" transform="translate(472.89 338.02)"/><circle class="cls-12" cx="908.56" cy="108.01" r="0.55"/><path class="cls-4" d="M433.52-281.7s-.23,6.39-10.21,6.37h10.24Z" transform="translate(472.89 338.02)"/><rect class="cls-13" x="349.76" y="65.55" width="75.57" height="48.64"/><rect class="cls-2" x="355.08" y="71.2" width="64.15" height="38.89"/><polyline class="cls-3" points="374.43 66.06 387.16 55.56 399 66.06"/><path class="cls-1" d="M-86.19-256.66a.41.41,0,0,1-.08.48.22.22,0,0,0,0,.19.55.55,0,0,0,.27.12c.14,0,.3-.14.39.08.28,0,.49-.3.79-.15.07,0,.23-.09.35-.14v-.26c.07-.38.14-.4.44-.16.12-.11.17-.2,0-.34s-.09-.2.07-.24a2.23,2.23,0,0,1,.36-.05l.45,0v-.11a.74.74,0,0,0-.25-.05,3.1,3.1,0,0,1-.51.11,1.24,1.24,0,0,1-.53-.18c-.09-.06,0-.53.12-.6l.59-.47c-.12,0-.23-.12-.31-.09a1,1,0,0,0-.4.22c-.1.08-.16.2-.26.29s-.25.15-.34.24-.15.32,0,.47a.2.2,0,0,1,.1.26.19.19,0,0,1-.12.1.39.39,0,0,0-.23.35c0,.15,0,.36-.28.31-.32.41-.31,0-.4-.16l0-.1c-.09-.14-.15-.35-.28-.41s-.27.13-.42.2A.32.32,0,0,1-87-257a1.37,1.37,0,0,1-.13-.45.39.39,0,0,1,.12-.3,1.59,1.59,0,0,1,.66-.37,1.29,1.29,0,0,0,.47-.41c.2-.22.38-.46.55-.67l-.37.09a2.09,2.09,0,0,1,.28-.22l.32-.07c.11-.06.29-.26.43-.24s.42-.13.65-.08.25-.1.42-.19l-.09.2a1.12,1.12,0,0,1,.31-.1,3.13,3.13,0,0,1,.53.12l-.06.09c.38.09.75.16,1.12.27a3.2,3.2,0,0,1,.6.26c.17.08.18.2,0,.29a1.35,1.35,0,0,1-1,0,.67.67,0,0,0-.31,0l.29.15a.42.42,0,0,0,.33.47.5.5,0,0,0,.24,0l-.24-.16,0-.05.6.1-.11-.23a2.75,2.75,0,0,1,.36-.15l.4-.06a.72.72,0,0,1-.09-.2,1.67,1.67,0,0,1,0-.32l.46.09v.09l-.23.08c.17.27.24.24.46.06a3.32,3.32,0,0,1,.63-.3l.27-.05c.18.29.44,0,.67,0s.22-.16.31,0a2.29,2.29,0,0,0,.28-.09l-.51-.34c.33.05.66.11,1,.18a2,2,0,0,0,.81.25.65.65,0,0,1-.33-.56,2.23,2.23,0,0,1,.35-.4.9.9,0,0,1,.4-.09,1.46,1.46,0,0,1,.3.07l-.14.22.11.76.11,0-.47.46a.53.53,0,0,0,.66-.37.42.42,0,0,0,0-.16c.16,0,.36-.07.37.2.18-.15.14-.29-.08-.3h-.44c0-.18,0-.37,0-.59l.31-.19v.26l.26,0-.2-.17.33,0,0,0-.15-.12v-.05l.62.19.24,0,0-.07-.27-.11-.07-.23,1.06-.09-.16-.17a3.11,3.11,0,0,1,1.56-.29,2.16,2.16,0,0,0,.56-.08l0,0a.94.94,0,0,0,.47-.2c.19-.14.43-.3.64,0,0,.06.18.06.27.08a4.83,4.83,0,0,1,.85,0c.11,0,.18.19.27.31l-1.19.42v.05H-70a.61.61,0,0,0,.27,0c.26-.2.53-.08.81-.05a2,2,0,0,1,.34,0,.88.88,0,0,1,.35.17.54.54,0,0,0,.71-.14.25.25,0,0,1,.19-.05l.8.13c0,.31,0,.56.38.57l.11-.17h1.26l-.13-.22a3.09,3.09,0,0,1,.91,0c.26.08.63,0,.93.25a1.59,1.59,0,0,0,.83.14c.29,0,.58-.06.79.26,0,.07.21.06.33.07h.53l.39-.07H-60l.05.08-.16.05,0,.05.43.13-.08-.33a5.38,5.38,0,0,1,1.36.2c.42.15.89.2,1.14.63.14-.18.26-.17.75.14-.16.13-.42.14-.47.39l-.52-.15-.26-.11-.2-.07a.53.53,0,0,1-.1-.12.88.88,0,0,0,0,.15c0,.06,0,.05,0,.09l-.47.16a.55.55,0,0,1,.25.51,2,2,0,0,0-1.54.54.38.38,0,0,0-.53-.06h0a.41.41,0,0,1-.22,0c-.35,0-.4.29-.62.48l.21,0c0,.14,0,.27.05.4-.23,0-.31.13-.17.34-.12.12-.45,0-.34.37-.39-.06-.26.43-.57.51-.09-.54-.4-1.08,0-1.55a4,4,0,0,0,1.29-1.12l-.05-.07s-.15,0-.15.06c0,.18-.13.2-.25.26s-.28.33-.36-.06a1.24,1.24,0,0,0-.47.05.79.79,0,0,0-.31.26c0,.05,0,.15,0,.27l-.6.08.12-.18a4,4,0,0,1-.85,0c-.6-.13-.92.26-1.3.57-.19.15-.37.31-.53.45a2,2,0,0,0,.24.26.28.28,0,0,0,.22,0c.09,0,.2-.12.24-.1s.24.19.22.27a3.12,3.12,0,0,1-.28,1.24l-.7,1a.39.39,0,0,1-.55.1c-.12.18-.36.24-.37.52,0,.12-.24.22-.27.34s.19.49.27.74-.3.37-.55.53c0-.27,0-.48,0-.71,0-.06-.07-.18-.09-.17-.32,0-.16-.15-.13-.27a.42.42,0,0,1,0-.1.39.39,0,0,0-.53.06l0,.06-.08,0,.12-.4c-.25-.05-.32.19-.46.29s-.07.07-.11.1l-.15.05c0,.06.07.12.11.17l.11.15h.65l-.59.51c.16.38.28.69.41,1l-.2.18.29,0c-.13.25-.26.5-.38.75a2.77,2.77,0,0,1-.31.56c-.16.19-.26.43-.58.46a1.45,1.45,0,0,0-.57.24c-.09,0-.15.14-.24.24l0-.24a.58.58,0,0,0-.63.44c-.08.4.23.64.45.88l.36-.09,0,.06a2.56,2.56,0,0,0-.2.26.26.26,0,0,0-.07.17c0,.36,0,.7-.4.88-.12.05-.17.27-.32.39v-.27l-.73-.86a.94.94,0,0,0-.09.12,1.06,1.06,0,0,1,0,.31c-.17.37.07.68.13,1,0,.14.25.22.33.36a2.6,2.6,0,0,1,.16.47,2.05,2.05,0,0,1,.07.6,1.77,1.77,0,0,1-.42-.4,2.65,2.65,0,0,1-.15-.57.83.83,0,0,0-.13-.34,1,1,0,0,1-.18-.91,4.76,4.76,0,0,0-.22-1.49c-.17.14-.22.4-.51.26.18-.4,0-.72-.26-1a1.23,1.23,0,0,1-.14-.42l-.58.13c-.07,0-.18.06-.19.11-.07.38-.44.53-.62.82s-.33.32-.45.51a.71.71,0,0,0,0,.38A2,2,0,0,1-75.1-245a8.71,8.71,0,0,1-.53-1.64c-.14-.56-.22-1.13-.31-1.62l-.2.25-.4-.34.17-.07-.6-.68c-.33,0-.69,0-1.06,0s-.38-.06-.5-.37a.67.67,0,0,1-.9-.3.25.25,0,0,1,0-.07.94.94,0,0,0-.06-.15c-.17-.32-.22-.33-.46-.06l.45,1,.1-.25c0,.14,0,.2.06.25l0,.28c.14,0,.32.11.44-.11a1.82,1.82,0,0,1,.29-.38,1.32,1.32,0,0,0,0,.34.39.39,0,0,0,.17.21c.4.2.45.48.15.8a.67.67,0,0,0-.12.2c0,.06-.07.13-.12.2a1.8,1.8,0,0,1-.6.49c-.26.15-.46.37-.71.53s-.48.27-.72.39-.21,0-.23-.14a3,3,0,0,0-.33-1.25,2.7,2.7,0,0,1-.27-.39,2.78,2.78,0,0,1-.12-.38c-.07-.17-.14-.35-.2-.53a5.79,5.79,0,0,0-.3-.62,2.45,2.45,0,0,0-.18-.33l-.38.11,0-.07.2-.15-.41-.42s.15-.13.25-.14c.25,0,.33-.15.37-.36s.14-.62.23-1l-.43.2h0c-.17,0-.42-.17-.49-.1-.24.21-.36,0-.5-.1s-.16-.22-.24-.34l0-.48c-.17-.1-.16-.1-.36.08,0,0-.15,0-.27,0a1.94,1.94,0,0,1,.2.33.34.34,0,0,1,0,.24,2.64,2.64,0,0,1-.2.37c-.18-.4-.53-.72-.53-1.23,0-.12-.16-.27-.29-.33s-.41-.2-.47-.45c0,0-.1,0-.12-.05a.56.56,0,0,1-.09-.17c-.27.07-.29.19-.11.42s.13.2.21.3a.41.41,0,0,0,.17.15c.24,0,.35.26.53.4,0,0,0,0,0,.1l-.32-.14.09.32-.2.26c.12-.44-.2-.59-.48-.79a2.61,2.61,0,0,1-.42-.46l-.22-.26a1.57,1.57,0,0,0-.3.2.31.31,0,0,1-.4.07c-.15-.06-.32-.08-.3.2,0,.09-.12.19-.19.26s-.25.24-.34.37,0,.16,0,.3c-.13.37-.53.43-1,.53l-.17-.22-.28,0c-.28-.46.11-1-.12-1.43.4-.25.83-.05,1.26-.08,0-.24.2-.49,0-.72a4,4,0,0,1-.47-.53l.5,0,0-.24a.42.42,0,0,0,.56-.19v0c0-.06.1-.08.14-.13l.45-.44.56-.23a1,1,0,0,0,0-.24C-86.57-256.46-86.57-256.45-86.19-256.66Z" transform="translate(472.89 338.02)"/><path class="cls-1" d="M-108.33-253.44h.3a.92.92,0,0,0-.53-.48,1.41,1.41,0,0,1-.73-.84c0-.09-.18-.13-.27-.2l-.06.19c-.1-.24-.4-.33-.17-.62,0,0-.15-.24-.2-.23a.85.85,0,0,1-.62-.19,1.19,1.19,0,0,0-.4-.14c-.32-.07-.63-.12-1-.18l0,.15-.67.17.05-.35-.4.33c.08.15-.56.69-1,.79l.13.13v.08c-.3-.26-.56,0-.86,0l.43-.23a2.17,2.17,0,0,0,.45-.24,3.33,3.33,0,0,0,.36-.39h-.77l-.06-.31c-.42.3-.4-.2-.6-.29.11-.42.5-.36.8-.46l0-.23c-.46,0-.56.18-1.07-.2l.3-.1.26-.14c.17.2.3.21.53.05l-1-.39.32-.13.34-.17.67-.25a2.05,2.05,0,0,1,1.1.05,6.88,6.88,0,0,0,.9.1,5.15,5.15,0,0,1,1.34.27,1.15,1.15,0,0,0,.31,0c0-.35.27-.06.39-.16a.83.83,0,0,1,.51-.1l-.55.22,0,.08.86-.37.28.25.2-.16.1.18c.13-.22.31-.15.5-.1s.51.09.77.14l.27.08-.17.13v.06a4.3,4.3,0,0,1,.62,0,3.46,3.46,0,0,1,.53.14l0-.2h.55c.33,0,.66.17,1,0,.07,0,.24.09.4.15l.3-.23-.44-.34a.26.26,0,0,1,.26-.34c.19,0,.42.27.4.46l.29.05,0,.29.24-.29.27.56.43-.6.45.08v.44l.06.07-.43.1.14.22-.49-.26c.05.23-.07.28-.22.26a1.59,1.59,0,0,0-.43-.06l.58.18-.43.2a.45.45,0,0,0-.17.11c-.22.26-.67.38-.65.84a.31.31,0,0,0,.11.2c.22.05.24.2.23.4.28-.16.49,0,.72.13a7.2,7.2,0,0,0,.88.33c0,.18,0,.47.25.64,0,0,.15.1.16.08s.17-.15.16-.23a1.65,1.65,0,0,0-.11-.45c.15-.13.4-.25.43-.41s-.14-.35-.24-.56c.25-.17,0-.44,0-.71a1.84,1.84,0,0,1,1.33.33.35.35,0,0,0,.17.47h0l.09,0c.32.08.35-.25.48-.43.14.2.28.36.4.55s0,.3.13.38a2.93,2.93,0,0,0,.56.35l-.15.1a1.3,1.3,0,0,1,.34.08.4.4,0,0,1,.14.24.26.26,0,0,1-.13.19,1.82,1.82,0,0,1-1.25.32c-.31-.07-.53.21-.74.42a2.78,2.78,0,0,1,.4-.16.77.77,0,0,1,.3,0s.07.14,0,.16c-.2.18-.12.33.06.46s.33.16.5-.08a.11.11,0,0,1,.1-.06l-.07.21.12-.06,0,.07-.91.48h-.07l.19-.4a7.71,7.71,0,0,0-.86.44c-.07,0,0,.25-.05.38l.07,0a1.22,1.22,0,0,1-.26.06c-.22,0-.35.06-.38.32a1.39,1.39,0,0,1-.24.45l-.11-.38a3.38,3.38,0,0,0,0,.45c.11.46.08.53-.32.76-.23.13-.51.55-.46.72s.14.49.2.74a1.35,1.35,0,0,1,0,.4l-.12,0-.41-1.06-.22.09c-.2-.33-.48-.12-.73-.13l.11.24c-.23,0-.42-.07-.61-.12a.23.23,0,0,0-.32.11c0,.06-.14.1-.2.16s-.15.11-.16.18c0,.44,0,.88,0,1.32a.79.79,0,0,0,.16.4c.09.11.25.25.36.23s.47,0,.53-.31.18-.4.57-.34l-.28,1.2a2.55,2.55,0,0,0,.39,0c.34,0,.47.11.43.44s-.13.83.34,1.08c.38-.18.38-.18.68.14l.27.17c.09-.53.53-.66.92-.9,0,.21-.16.42,0,.63l.2-.54.56.27a1,1,0,0,0,.59,0c.18,0,.28.16.42.27l.13.13a2.23,2.23,0,0,0,.26.27,1.05,1.05,0,0,0,.4.19c.5,0,.74.17.86.64a1,1,0,0,0,.83.73c.17,0,.27.1.23.27.4,0,.79-.08,1.08.3,0,0,.07.08.11.08a.43.43,0,0,1,.42.47v0a1.12,1.12,0,0,1-.31.6c-.12.19-.26.33-.38.49a.36.36,0,0,0,0,.1,6,6,0,0,1-.11.95,2.56,2.56,0,0,1-.3.65s-.09.07-.14.09c-.25.09-.5.17-.74.27a.5.5,0,0,0-.3.5,2.7,2.7,0,0,1-.27.66c0,.08-.08.15-.13.26l0-.25c-.26.51-.46,1.08-1.19.6a4.37,4.37,0,0,1,.22.38.31.31,0,0,1-.11.43h0a.21.21,0,0,1-.11,0,5.6,5.6,0,0,1-.59.12c0,.37-.06.43-.49.3.2.48-.06.76-.44,1l.17.15c.21.11.21.14,0,.3s-.31.24-.34.38a.81.81,0,0,0,.13.55c.08.12.27.17.44.28a2.68,2.68,0,0,1-.8.06,1.57,1.57,0,0,1-.71-.42,1.26,1.26,0,0,1-.11-.6c0-.21-.06-.42.2-.53l-.2,0,.23-.57h0l0,.23h0l.1-.6c-.25,0-.25-.17-.16-.35,0,0,.06-.07,0-.08-.17-.38.17-.64.22-1s.06-.62.1-.94.13-.79.18-1.21a1.83,1.83,0,0,0,0-.7.62.62,0,0,0-.36-.4c-.53-.19-.66-.66-.86-1.06a2.83,2.83,0,0,0-.53-1,.3.3,0,0,1,0-.41l0,0a.75.75,0,0,0,.15-.2c-.19-.06-.24-.19-.15-.35a4.93,4.93,0,0,1,.4-.61.46.46,0,0,0,0-.74,1.17,1.17,0,0,1-.22-.37l-.1-.19h-.08l-.15.37-.15-.11a.46.46,0,0,0-.15-.09c-.12,0-.23,0-.22-.19l0,0c-.27-.07-.29-.31-.37-.51a.73.73,0,0,0-.55-.43,1,1,0,0,1-.53-.4c-.11-.14-.22-.22-.4-.1a.3.3,0,0,1-.26,0q-.59-.33-1.14-.69a.34.34,0,0,1-.13-.27.85.85,0,0,0-.2-.7c-.19-.26-.4-.53-.57-.8s-.26-.5-.4-.74c0-.08-.17-.13-.26-.2l-.08.06.25.51.46.89.1.18c0,.07.06.17.09.25l-.11.05a5.58,5.58,0,0,0-.35-.69,1.21,1.21,0,0,0-.35-.29c0-.16,0-.28,0-.32a2.74,2.74,0,0,1-.46-.9c0-.07-.1-.17-.16-.19-.4-.1-.46-.47-.63-.75a1.44,1.44,0,0,1-.2-.39,2.52,2.52,0,0,1-.08-1.06A5.5,5.5,0,0,0-108.33-253.44Z" transform="translate(472.89 338.02)"/><path class="cls-1" d="M-84.64-236.78a.43.43,0,0,1-.25-.47.86.86,0,0,0-.27-.59,1.35,1.35,0,0,1-.33-.92,1.8,1.8,0,0,0-.34-.89,1.2,1.2,0,0,1,.1-1.23c.09-.18.17-.3,0-.47a.28.28,0,0,1,0-.15,1.38,1.38,0,0,0-.38-1.06.94.94,0,0,1-.19-1,.56.56,0,0,0-.08-.38.35.35,0,0,0-.26-.1c-.2,0-.32,0-.4-.19s-.32-.16-.5-.12-.34.13-.51.18a1.09,1.09,0,0,1-.25,0,3.68,3.68,0,0,0-.66.06.39.39,0,0,1-.4,0,7.34,7.34,0,0,1-.6-.51,5.29,5.29,0,0,1-.46-.67,1.5,1.5,0,0,0-.13-.11c0-.05-.1-.11-.1-.17a2.09,2.09,0,0,1,.06-.79.83.83,0,0,0,0-.62c-.17-.26,0-.41.09-.6a7.89,7.89,0,0,1,.43-.74.21.21,0,0,1,.15-.11c.27-.08.43-.2.43-.52a.53.53,0,0,1,.3-.48,2.28,2.28,0,0,0,.4-.42c.28.23.6.11.91,0a2.69,2.69,0,0,1,.62-.16,6.8,6.8,0,0,1,.9-.06,2.09,2.09,0,0,1,.35,0l-.19.56c.14.26.48.12.73.23h.09c.06.31.37.24.55.37s.24,0,.25-.15a.3.3,0,0,1,.3-.29h0a.42.42,0,0,1,.15,0,7.41,7.41,0,0,0,.79.28,1,1,0,0,0,.42,0c.18,0,.31-.07.39.16a7.82,7.82,0,0,0,.36.91c.11.24.34.46.36.7a4.38,4.38,0,0,0,.42,1,.68.68,0,0,0,.18.26c.14.14.3.27.43.41s.06.23.12.32a.19.19,0,0,0,.18.09c.35-.07.69-.16,1.07-.26a1.72,1.72,0,0,1-.11.5,4.19,4.19,0,0,1-1,1.47,5.81,5.81,0,0,0-.91,1.21s0,.13,0,.14c.19.16.07.35.1.53s.13.3.16.46a2.29,2.29,0,0,1,0,.69,1,1,0,0,1-.33.4c-.2.19-.4.35-.6.53,0,0,0,.11,0,.16a2.14,2.14,0,0,0,.09.27.41.41,0,0,1-.21.53h0l-.2.11a.91.91,0,0,1,0,.4,2.26,2.26,0,0,1-1.18,1.16,4.17,4.17,0,0,1-.71.07A1.1,1.1,0,0,0-84.64-236.78Z" transform="translate(472.89 338.02)"/><path class="cls-1" d="M-97.17-257.86l-.28-.22.62-.32v-.27l-.53-.2v-.08l.55.08-.43-.3c-.26.15-.33.09-.34-.29h.18a5.59,5.59,0,0,0-.33-.47A1.16,1.16,0,0,0-99-260.4a.81.81,0,0,1-.31,0c-.1,0-.3.1-.31-.16,0,0-.2-.05-.32-.08v-.09l.53,0-.9-.27.2-.11c.27,0,.53-.06.78-.11s.35,0,.35-.29h-.38v-.09l.87-.23V-262s0,0,.05,0c.25.09.45-.1.69-.1a.46.46,0,0,1,.37.15c.07.06.2-.22.38-.06s.12,0,.2,0l-.1-.17.91.23,0-.08a.79.79,0,0,1-.22-.06.15.15,0,0,1-.1-.12.13.13,0,0,1,.1-.1l.69,0a3.93,3.93,0,0,1,.48-.06c.64,0,1.27,0,1.91.06a4,4,0,0,1,.84.22L-93-262v.11h.19l.34,0-.14.22a6.25,6.25,0,0,0,.86-.18,1.18,1.18,0,0,1,1,.07,3.2,3.2,0,0,0-1.5.95,1.2,1.2,0,0,1,.38,0c.08,0,.12.16.18.26l-.37,0c0,.15.37.26.07.46l.17.18-.39.06.18.2h-.6c-.12.16-.1.28.13.37a.38.38,0,0,1,.26.47h0l-.53-.22-.17.22.66.06a3.43,3.43,0,0,1-1.52.57c-.09,0-.2.12-.26.2a1,1,0,0,1-.92.49c-.06,0-.18.14-.18.21a.5.5,0,0,1-.27.53s0,.06,0,.09c0,.2-.1.39-.14.58s-.14.15-.26.09a2.28,2.28,0,0,1-.45-.2.58.58,0,0,1-.25-.24c-.22-.4-.42-.8-.62-1.2A.55.55,0,0,1-97.17-257.86Z" transform="translate(472.89 338.02)"/><path class="cls-1" d="M-64.14-240.66a1,1,0,0,1,.24.23.74.74,0,0,1,.12.36c0,.29.2.4.38.55l.09.08a.94.94,0,0,0,.29.37,1.58,1.58,0,0,1,.43.68,1.24,1.24,0,0,1-.11,1.11,3.3,3.3,0,0,0-.42,1,1.5,1.5,0,0,1-.74.23l-.13-.08a.55.55,0,0,1-.77-.17h0a.34.34,0,0,1-.06-.12,2.33,2.33,0,0,0-.27-.37l-.09.07.07-.39-.35.4c-.11-.18-.18-.4-.33-.49a1,1,0,0,0-.61-.13,2.24,2.24,0,0,0-.84.23,1,1,0,0,1-.62.2.82.82,0,0,0-.46.16.35.35,0,0,1-.47-.05.26.26,0,0,1,0-.21,2,2,0,0,0,0-.34A5.16,5.16,0,0,0-69-238c0-.12-.13-.23,0-.35s0-.1,0-.16-.11-.42,0-.53.35-.21.53-.32.68,0,.79-.44c0-.06,0-.12,0-.18l.1-.14.1.08a4.07,4.07,0,0,1,.43-.49c.18-.16.29-.06.36.22a3.17,3.17,0,0,1,.29-.4,3.53,3.53,0,0,1,.34-.24.46.46,0,0,0,.12-.12l.68.17h0c-.26.4-.26.4.14.7l.22.15.29.18.13-.69c0-.21.06-.43.1-.65h.09Z" transform="translate(472.89 338.02)"/><path class="cls-1" d="M-100.74-258.38c0-.3-.26-.29-.4-.43-.07.16-.11.33-.31.15,0,0-.13,0-.2,0l-1-.12c-.06,0-.12-.07-.2-.11l.29-.1c-.27-.05-.51-.07-.39-.37a.56.56,0,0,1,.69-.35c0,.13-.16.27-.15.37a.85.85,0,0,0,.22.35c-.09-.56,0-.65.36-.71.2,0,.29.09.31.44a1,1,0,0,1,1.06.06.68.68,0,0,0,.27.07h.08a3.92,3.92,0,0,1,.53.29,2.35,2.35,0,0,1,.33.37l-.24.05,0,.05,1.06.57-.4.51-.53-.46-.1.25c.2.18.56.32.49.79l-.3,0,.13.31c-.38-.15-.74-.16-1-.49a.56.56,0,0,0-.6-.21.7.7,0,0,1-.29,0c0-.09,0-.17,0-.25a.35.35,0,0,1,.06-.14.85.85,0,0,1,.17-.16s.1.06.14.09l-.17.23.38,0v-.09l-.13,0c.06-.2.44-.22.31-.51A.49.49,0,0,0-100.74-258.38Z" transform="translate(472.89 338.02)"/><path class="cls-1" d="M-102.44-261.66c-.24.14-.47-.1-.74-.29a7.1,7.1,0,0,1,1.13-.12,3.39,3.39,0,0,0,1-.18,3.23,3.23,0,0,1,.76,0c.46,0,.93,0,1.39.07a2.13,2.13,0,0,1,.43.13l-.27.15c-.4.18-.81.35-1.22.51a1.38,1.38,0,0,1-.27.08.48.48,0,0,0-.43.42l-.58.24.25.15c-.22,0-.39.22-.59,0,0,0-.1,0-.15,0a2.48,2.48,0,0,1-1.21-.05l.4-.11,0-.14.37,0,0-.06-.31-.15c.18-.29.45,0,.68-.1l-.56-.34.07-.06c.34.14.65-.07,1-.07C-101.65-261.79-102-261.5-102.44-261.66Z" transform="translate(472.89 338.02)"/><path class="cls-1" d="M-107.2-258.75l.73-.05v-.05l-.45,0h-.44V-259l.3-.11-.41-.1c.14-.34.44-.38.76-.43v.18h.08a.25.25,0,0,1,.38,0c.12.11.18-.2.31,0a1,1,0,0,0,.26.27l-.09-.42h.38a2.17,2.17,0,0,0,.27.6c.12.15.34.22.5.37l-.24,0,.11.2a1.55,1.55,0,0,1-.43,0,1.31,1.31,0,0,0-.91.1c-.16,0-.4.13-.53-.14,0,0-.11,0-.16-.05l-.42-.12Z" transform="translate(472.89 338.02)"/><path class="cls-1" d="M-63.47-242.06l-.2.14.6.62a.82.82,0,0,1-.67-.36.27.27,0,0,0-.36-.13.24.24,0,0,0-.13.15.22.22,0,0,1-.28.13l-.08-.05c-.16-.19-.34-.18-.6-.1l.21-.3a.49.49,0,0,0-.38-.4,3.62,3.62,0,0,1-.56-.17c-.06,0-.09-.11-.14-.18l.2-.09-.51-.24.32-.13a.24.24,0,0,1,.3.15h0v0a2.53,2.53,0,0,0,.12.36h.08a1,1,0,0,1,.13-.16c.16-.14.29-.27.53-.08s.49.14.7.27A6,6,0,0,1-63.47-242.06Z" transform="translate(472.89 338.02)"/><path class="cls-1" d="M-69.85-243.64l.25.09,1.06-1,.32.32c-.31.3-.33.5,0,.8a1,1,0,0,0-.4.92l-1-.2C-69.71-243-70-243.26-69.85-243.64Z" transform="translate(472.89 338.02)"/><path class="cls-1" d="M-80.58-240.26c.53,0,.55-.45.85-.67a.46.46,0,0,1,.08.6s0,.08,0,.12c-.14.5-.26,1-.43,1.5a.29.29,0,0,1-.37.19l-.1-.06a.72.72,0,0,1-.09-.72,1.5,1.5,0,0,0,.08-.47A3.92,3.92,0,0,0-80.58-240.26Z" transform="translate(472.89 338.02)"/><path class="cls-1" d="M-88.43-255.23l-.22-.06v-.31a.17.17,0,0,1,.06-.1c.14.06.21,0,.19-.13s-.14-.13-.23-.2h-.09l0-.16c-.23-.22-.32-.38-.26-.46s.42-.3.54-.22.21.23.06.51l.57.79a.27.27,0,0,1,.14.07s0,.12-.06.18l-.09.24-1,.17Z" transform="translate(472.89 338.02)"/><path class="cls-1" d="M-70.42-242.17l-.29,0-.74-1.06c-.26-.37-.5-.69-.77-1.06.55.06.75.49,1.09.73a2,2,0,0,1,.55.68c0,.06.16.08.23.12l-.07.62Z" transform="translate(472.89 338.02)"/><path class="cls-1" d="M-78.37-259.7a1.31,1.31,0,0,1-1.06-.29q.33-.28.63-.6A1.44,1.44,0,0,1-78-261c.32-.06.64-.11,1-.14a3,3,0,0,0,.43-.12l0,.1a1,1,0,0,1-.23.13,4.49,4.49,0,0,0-.9.18,2.24,2.24,0,0,0-1,.68c0,.05,0,.2,0,.26A.91.91,0,0,0-78.37-259.7Z" transform="translate(472.89 338.02)"/><path class="cls-1" d="M-92.21-257l-.38-.1.34-.18h-.38l0-.05.35-.2,0-.08.2.26.79-.2,0-.08a1.63,1.63,0,0,1,.38.36c.11.2-.12.27-.22.34a1.32,1.32,0,0,1-.45.21.58.58,0,0,1-.32,0,4,4,0,0,1-.46-.14Z" transform="translate(472.89 338.02)"/><path class="cls-1" d="M-65.59-251.33l-.64.16c.19-.32.29-.36.78-.36l.12-.22,0-.14a.65.65,0,0,0,.24,0c.09-.2.17-.41.25-.6s0-.33.24-.32a.59.59,0,0,1,0,.67.8.8,0,0,0-.08.5c0,.28-.22.28-.34.32s-.4.11-.46.36h-.08Z" transform="translate(472.89 338.02)"/><path class="cls-1" d="M-108.37-259.95a4.08,4.08,0,0,1,1.43.22l-.65.41-.47.32-.45-.29C-108.47-259.46-108.2-259.63-108.37-259.95Z" transform="translate(472.89 338.02)"/><path class="cls-1" d="M-103.5-261.11l.14-.12-.56-.11c.1-.29.24-.45.51-.4l.2.07a.53.53,0,0,0,.24.06c.11.11.2.28.38.13l.25.2C-102.64-260.89-103-260.84-103.5-261.11Z" transform="translate(472.89 338.02)"/><path class="cls-1" d="M-86.07-261.85l.85.08-.09-.21,1.43.58v.09h-.5c0-.07-.05-.15-.09-.18a.19.19,0,0,0-.18,0c-.15.1-.29.22-.46.36l-.4-.11.17-.09-.26,0v0l.32-.12v-.06a1.21,1.21,0,0,1-.42.05,1.27,1.27,0,0,1-.37-.25Z" transform="translate(472.89 338.02)"/><path class="cls-1" d="M-103.33-260.46l.21-.06v.14c.58.4,1.22,0,1.83.2a.38.38,0,0,1-.49.25h0l0,0h-.24c-.36,0-.71,0-1.06,0-.06,0-.13-.12-.16-.2A2.7,2.7,0,0,1-103.33-260.46Z" transform="translate(472.89 338.02)"/><path class="cls-1" d="M-107-260.24h-.15s0,0,0,0c.26-.33.53-.13.79,0l.4.15-.14-.32.17-.11s0,0,.06,0,.1.3.31.18c0,0,.14.05.16.09a.21.21,0,0,1-.08.17l-1.21.2-.09-.08.4-.11v-.06l-.89.08v0l.27-.1Z" transform="translate(472.89 338.02)"/><path class="cls-1" d="M-60.43-234.72l1.1-.95a.35.35,0,0,1,.13.08.21.21,0,0,1,.07.14c-.12.12-.13.34-.34.4a.26.26,0,0,0-.13.08C-59.91-234.54-59.91-234.54-60.43-234.72Z" transform="translate(472.89 338.02)"/><path class="cls-1" d="M-67.79-242.89l.2.43-.17.12-.2-.4c0,.44,0,.47-.15.56,0-.16-.07-.32-.1-.48h-.06c.09-.26.17-.55.27-.84.26,0,.56.25.79-.12-.08.28-.11.29-.33.28a1.15,1.15,0,0,0-.37,0c-.23.08-.08.2,0,.31l.42-.15,0,.06Z" transform="translate(472.89 338.02)"/><path class="cls-1" d="M-89.55-255.4v-.4a2.23,2.23,0,0,0,.27-.26c.14-.16.28-.05.4,0s.1.16,0,.23a.16.16,0,0,0,0,.09c0,.1,0,.26,0,.28a2.13,2.13,0,0,1-.55.2s-.09-.06-.13-.1Z" transform="translate(472.89 338.02)"/><path class="cls-1" d="M-104-259.7l-.18.14.27.11c.08.27-.2.27-.31.37s-.14-.07-.22-.12l-.44-.26,0-.08.39.06-.2-.21A.5.5,0,0,1-104-259.7Z" transform="translate(472.89 338.02)"/><path class="cls-1" d="M-64.09-254.71h-.21c0,.22,0,.44.07.65h-.22c.14-.6-.19-1.25.15-1.91C-64.22-255.52-64.16-255.12-64.09-254.71Z" transform="translate(472.89 338.02)"/><path class="cls-1" d="M-70.42-242.16A2.32,2.32,0,0,0-70-242l.75,0a.27.27,0,0,1,.18,0l-.15.08.39.16v.07a3.9,3.9,0,0,1-.59,0,7.06,7.06,0,0,1-.89-.19.2.2,0,0,1-.15-.24h0l0,0Z" transform="translate(472.89 338.02)"/><path class="cls-1" d="M-64.6-253.13l-.11.26c-.11-.33-.06-.43.16-.44l.08-.55c.2.12.24.44.55.34l.05.23-.43.25Z" transform="translate(472.89 338.02)"/><path class="cls-1" d="M-64.71-260.69a2.58,2.58,0,0,1-.4,0s-.11-.1-.1-.14.08-.09.13-.13a.12.12,0,0,1,.1,0c.3.12.6,0,.9,0,0,0,.11.08.16.11s-.09.13-.14.14Z" transform="translate(472.89 338.02)"/><path class="cls-1" d="M-58.39-236.24a1.24,1.24,0,0,1-.1.2c-.12.17-.27.33-.39.49a0,0,0,0,1-.06,0v0l-.18-.37.16-.44c.18-.08.3.41.57.07Z" transform="translate(472.89 338.02)"/><path class="cls-1" d="M-104.79-260.33l0-.16.3.16-.07-.17a1.09,1.09,0,0,1,.36,0s.09.13.08.2-.07.23-.12.24a1.21,1.21,0,0,1-.3-.09l-.22-.05-.22-.07a1.33,1.33,0,0,1-.19-.14s.07-.11.09-.1l.21.14,0,.06Z" transform="translate(472.89 338.02)"/><path class="cls-1" d="M-101.93-247.25a.63.63,0,0,1,.79-.26c.32.15.63.34,1,.53l-.49,0c-.1-.12-.17-.26-.26-.3a1.47,1.47,0,0,0-.6-.2C-101.65-247.45-101.77-247.33-101.93-247.25Z" transform="translate(472.89 338.02)"/><path class="cls-1" d="M-68-246.74c.37.11.42.27.29.48s-.09.3.16.35l.22.07-.08.19c-.17-.16-.44-.12-.6-.34S-67.85-246.45-68-246.74Z" transform="translate(472.89 338.02)"/><path class="cls-1" d="M-103-259.77a.35.35,0,0,1-.37.32h0l-.09,0c0,.2-.19.14-.23.06s-.09-.3,0-.37a.62.62,0,0,1,.38-.1A2.17,2.17,0,0,1-103-259.77Z" transform="translate(472.89 338.02)"/><path class="cls-1" d="M-67.17-244.53l0,.18-.07,0-.29-.37-.21,0,0-.05.68-.38,0,.53Z" transform="translate(472.89 338.02)"/><path class="cls-1" d="M-71.74-262l-1.12.27c0-.07,0-.17,0-.2A.93.93,0,0,1-71.74-262Z" transform="translate(472.89 338.02)"/><path class="cls-1" d="M-108-260.41a3.26,3.26,0,0,1,.53-.26,3.33,3.33,0,0,1,.55-.1l0,.1a3,3,0,0,1-.27.23l-.14-.1C-107.51-260.33-108-260.24-108-260.41Z" transform="translate(472.89 338.02)"/><path class="cls-1" d="M-100.2-246.72l.41,0-.2-.23c.38-.1.8,0,.78.28C-99.55-246.66-99.89-246.5-100.2-246.72Z" transform="translate(472.89 338.02)"/><path class="cls-1" d="M-101.36-256.75c-.14,0-.26.05-.32,0s-.23,0-.35,0a1.41,1.41,0,0,1-.41,0c.27-.43.35-.46.69-.27l.07,0Z" transform="translate(472.89 338.02)"/><path class="cls-1" d="M-71.37-261.93l-.07.26c-.53.09-.69.07-1-.16Z" transform="translate(472.89 338.02)"/><path class="cls-1" d="M-83.46-261.81a5.1,5.1,0,0,1-.78,0,1.75,1.75,0,0,1-.56-.18h1.34Z" transform="translate(472.89 338.02)"/><path class="cls-1" d="M-104.37-260.84l-.88-.17.2-.09-.29-.07v-.09a2.23,2.23,0,0,1,.36.05,1.5,1.5,0,0,1,.34.11,2,2,0,0,1,.31.2Z" transform="translate(472.89 338.02)"/><path class="cls-1" d="M-70.48-261.51l-1,.08,0,0a1.37,1.37,0,0,1,.48-.27,1.72,1.72,0,0,1,.56.15Z" transform="translate(472.89 338.02)"/><path class="cls-1" d="M-74.62-245.09a2.77,2.77,0,0,1,.26.48c0,.05-.08.2-.16.23s-.2-.05-.19-.19,0-.32,0-.48Z" transform="translate(472.89 338.02)"/><path class="cls-1" d="M-63.71-235.1l-.27-.56h.46s.11.17.09.22A2.3,2.3,0,0,1-63.71-235.1Z" transform="translate(472.89 338.02)"/><path class="cls-1" d="M-66.34-251.13c.28.23.26.51,0,.67v-.4l-.11-.07Z" transform="translate(472.89 338.02)"/><path class="cls-1" d="M-78.79-262.15l.66-.22,0,0c-.06.09-.11.23-.18.25a3.13,3.13,0,0,1-.53,0Z" transform="translate(472.89 338.02)"/><path class="cls-1" d="M-86.5-252.75l.17-.07s.06.11,0,.14.07.37-.22.38Z" transform="translate(472.89 338.02)"/><path class="cls-1" d="M-85.43-251.77l-.43-.26v-.06h.48Z" transform="translate(472.89 338.02)"/><path class="cls-1" d="M-101.48-259.75l.65.12,0,.1C-101.06-259.6-101.35-259.31-101.48-259.75Z" transform="translate(472.89 338.02)"/><path class="cls-1" d="M-104.27-261.15l.5.11a.09.09,0,0,1,0,.08s0,.07-.08.08S-104.14-260.89-104.27-261.15Z" transform="translate(472.89 338.02)"/><path class="cls-1" d="M-67.71-248l-.21.64C-68.11-247.62-68.06-247.79-67.71-248Z" transform="translate(472.89 338.02)"/><path class="cls-1" d="M-63.33-242.24a.91.91,0,0,0,.33,0c.09,0,.14-.14.27-.2a.79.79,0,0,1-.14.23.28.28,0,0,1-.4,0A.13.13,0,0,1-63.33-242.24Z" transform="translate(472.89 338.02)"/><path class="cls-1" d="M-104-260.13l.43-.14,0,.27h-.27l-.2-.07Z" transform="translate(472.89 338.02)"/><path class="cls-1" d="M-66.89-241.69l-.67.46A.6.6,0,0,1-66.89-241.69Z" transform="translate(472.89 338.02)"/><path class="cls-1" d="M-104.16-258.09l.37.22,0,.05-.58-.05Z" transform="translate(472.89 338.02)"/><path class="cls-1" d="M-104-260.62l.53,0c-.2.24-.36.09-.53,0Z" transform="translate(472.89 338.02)"/><path class="cls-1" d="M-106.61-260.84l.53-.09C-106.15-260.68-106.35-260.64-106.61-260.84Z" transform="translate(472.89 338.02)"/><path class="cls-1" d="M-65.71-251.24c.15.34-.25.2-.27.38C-66.1-251.13-65.82-251.11-65.71-251.24Z" transform="translate(472.89 338.02)"/><rect class="cls-4" x="420.83" y="84.3" width="4.5" height="15.84"/><path class="cls-1" d="M-66.28-242.58h-.5s0-.15.06-.15C-66.55-242.74-66.36-242.78-66.28-242.58Z" transform="translate(472.89 338.02)"/><path class="cls-1" d="M-78.09-262.11l.4,0,0,.12-.41,0Z" transform="translate(472.89 338.02)"/><rect class="cls-10" x="348.41" y="64.53" width="78.17" height="3.05"/><polygon class="cls-4" points="358.53 91.24 361.35 91.24 361.35 110.09 349.76 110.09 349.76 91.35 358.53 91.24"/><rect class="cls-10" x="348.41" y="114.19" width="78.17" height="3.05"/><rect class="cls-9" x="344.08" y="87.86" width="14.45" height="19.65"/><rect class="cls-9" x="420.83" y="81.3" width="14.45" height="15.84"/><polygon class="cls-2" points="349.76 98.78 351.3 93.66 352.7 98.78 351.23 104.23 349.76 98.78"/><polygon class="cls-2" points="351.4 97.48 356.52 99.02 351.4 100.41 345.94 98.94 351.4 97.48"/><polygon class="cls-14" points="350.05 97.84 351.23 98.94 351.3 93.66 350.05 97.84"/><polygon class="cls-14" points="351.23 98.94 345.94 98.94 350.11 100.06 351.23 98.94"/><polygon class="cls-14" points="351.23 98.94 351.23 104.23 352.35 100.06 351.23 98.94"/><polygon class="cls-14" points="351.23 98.94 356.52 99.02 352.43 97.79 351.23 98.94"/><circle class="cls-1" cx="387.16" cy="55.41" r="1.48"/><circle class="cls-1" cx="424.13" cy="85.78" r="0.96"/><circle class="cls-2" cx="424.13" cy="89.48" r="0.96"/><circle class="cls-10" cx="424.13" cy="93.17" r="0.96"/><rect class="cls-15" x="427.06" y="84.95" width="5.83" height="1.36"/><rect class="cls-15" x="427.06" y="88.8" width="5.83" height="1.36"/><rect class="cls-15" x="427.06" y="92.57" width="5.83" height="1.36"/><rect class="cls-1" x="348.18" y="89.84" width="6.32" height="1.41"/><rect class="cls-6" x="728.78" y="54.45" width="21.84" height="27.62"/><path class="cls-16" d="M256.82-277.78s4-.38,4.09,3c0,0-.29,6.2,2.32,9.09s9.12-3.58,10.94,9.7h-6.44l-8.84-6.88-2.53-9.52Z" transform="translate(472.89 338.02)"/><circle class="cls-2" cx="743.49" cy="65.86" r="4.16"/><polyline class="cls-17" points="741.66 65.45 742.8 67.21 744.98 64.51"/><rect class="cls-18" x="738.93" y="57.06" width="8.31" height="2.04"/><rect class="cls-6" x="682.13" y="54.45" width="21.84" height="27.62"/><path class="cls-16" d="M230.15-277.78s-4-.38-4.09,3c0,0,.29,6.21-2.31,9.09s-9.13-3.58-10.95,9.7h6.44l8.84-6.88,2.55-9.52Z" transform="translate(472.89 338.02)"/><path class="cls-19" d="M235.4-266a66.62,66.62,0,0,1,4.83,6.46c1.43,2.43,6.4,3,9.66-3.08,1.93-3.63,2.4-5.56,4-4.4s-2.09,6.09-2.09,6.09-1.65,11.33-16.42,7.86C216.21-257.61,235.4-266,235.4-266Z" transform="translate(472.89 338.02)"/><ellipse class="cls-5" cx="715.21" cy="120.05" rx="37.16" ry="5.34"/><path class="cls-1" d="M264.76-265.08c1.74,6.56,4.07,23.58-19.66,21.56v-2.36s10.84-1.64,12.26-6.34c1.21-4-2.38-14.51,2.86-15.71A3.88,3.88,0,0,1,264.76-265.08Z" transform="translate(472.89 338.02)"/><path class="cls-4" d="M264.76-265.08c1.74,6.56,4.07,23.58-19.66,21.56v-2.36s10.84-1.64,12.26-6.34c1.21-4-2.38-14.51,2.86-15.71A3.88,3.88,0,0,1,264.76-265.08Z" transform="translate(472.89 338.02)"/><path class="cls-7" d="M234.05-276.12a13.92,13.92,0,0,1-.17,3.65,1.11,1.11,0,0,1-1.35.8h0a2.42,2.42,0,0,1-1.91-1.84l-.66-1.92a2,2,0,0,1,.87-2.11A2.11,2.11,0,0,1,234.05-276.12Z" transform="translate(472.89 338.02)"/><polygon class="cls-7" points="703.17 63.09 700.67 68.62 703.93 71.04 704.58 65.84 703.17 63.09"/><path class="cls-9" d="M233.51-276a8.61,8.61,0,0,1-2-.15,1.83,1.83,0,0,1,0,2,1.49,1.49,0,0,1-1.81.6l0-2.83a2.25,2.25,0,0,1,1.14-2,10.22,10.22,0,0,1,.94-.46c.82-.32,2,.22,2.74-.33a.52.52,0,0,1,.74.11.51.51,0,0,1,.1.24,2.4,2.4,0,0,1-1.19,2.68A2,2,0,0,1,233.51-276Z" transform="translate(472.89 338.02)"/><path class="cls-7" d="M231.71-274.23s0-.86-.65-.79-.62,1.29.24,1.41Z" transform="translate(472.89 338.02)"/><path class="cls-7" d="M234.1-274.73l.61.85a.36.36,0,0,1-.07.5l-.15.06-.84.16Z" transform="translate(472.89 338.02)"/><path class="cls-8" d="M231.67-272a2.77,2.77,0,0,1-1-1,1.92,1.92,0,0,0,.82,2.52Z" transform="translate(472.89 338.02)"/><path class="cls-7" d="M252.55-275.43a13.65,13.65,0,0,0,.18,3.65,1.1,1.1,0,0,0,1.34.8h0a2.45,2.45,0,0,0,1.91-1.84l.65-1.92a2,2,0,0,0-.87-2.11A2.11,2.11,0,0,0,252.55-275.43Z" transform="translate(472.89 338.02)"/><polygon class="cls-7" points="729.21 63.78 731.71 69.31 728.45 71.73 727.8 66.53 729.21 63.78"/><path class="cls-7" d="M254.89-273.54s0-.86.65-.79.62,1.3-.24,1.41Z" transform="translate(472.89 338.02)"/><path class="cls-7" d="M252.5-274l-.61.86a.35.35,0,0,0,.07.49l.15.06.84.16Z" transform="translate(472.89 338.02)"/><path class="cls-8" d="M254.93-271.33a2.77,2.77,0,0,0,1-1,1.92,1.92,0,0,1-.82,2.52Z" transform="translate(472.89 338.02)"/><path class="cls-1" d="M240-259.91l-2.26,7.26-4.61-.73,2.06-12.9A39.43,39.43,0,0,1,240-259.91Z" transform="translate(472.89 338.02)"/><path class="cls-4" d="M240-259.91l-2.26,7.26-4.61-.73,2.06-12.9A39.43,39.43,0,0,1,240-259.91Z" transform="translate(472.89 338.02)"/><polygon class="cls-9" points="741.67 94.77 739.23 118.38 736.72 118.38 734.78 99.87 730.34 96.49 741.67 94.77"/><polygon class="cls-9" points="730.34 96.49 730.34 118.39 733.29 118.39 736 99.1 730.34 96.49"/><path class="cls-1" d="M233.88-267.7a8.76,8.76,0,0,0-5.25-1.83c-3.07,0-8.23,2.3-9.31,10a70.84,70.84,0,0,0,0,16.25l11.33,1.72S243.18-259.57,233.88-267.7Z" transform="translate(472.89 338.02)"/><path class="cls-4" d="M231.71-243.2l-1,1.67-11.33-1.71s-2.28-16.65,2.6-22.14l3.88,5.93Z" transform="translate(472.89 338.02)"/><path class="cls-1" d="M253.91-267a8.79,8.79,0,0,1,5.24-1.91c3.08,0,8.27,2.19,9.46,9.89a70.56,70.56,0,0,1,.2,16.26l-11.31,1.89S244.74-258.8,253.91-267Z" transform="translate(472.89 338.02)"/><path class="cls-7" d="M221.45-263.3c-1.23,6.67-2.24,23.82,21.26,20l-.18-2.35s-10.93-.8-12.72-5.39c-1.51-3.88,1.26-14.65-4-15.45A3.92,3.92,0,0,0,221.45-263.3Z" transform="translate(472.89 338.02)"/><path class="cls-1" d="M220.9-263.23a16.41,16.41,0,0,0,.1,7.28l8.27-.07s1.36-8.49-2.23-10.67a2.9,2.9,0,0,0-2.57-.3A5,5,0,0,0,220.9-263.23Z" transform="translate(472.89 338.02)"/><path class="cls-15" d="M220.9-263.23a16.41,16.41,0,0,0,.1,7.28l8.27-.07s1.36-8.49-2.23-10.67a2.9,2.9,0,0,0-2.57-.3A5,5,0,0,0,220.9-263.23Z" transform="translate(472.89 338.02)"/><path class="cls-1" d="M229.76-219.62a1.87,1.87,0,0,0,1.24,1.38c1,.22,1.11,1.23.18,1.37s-3.1-1.34-3.1-1.34l.26-1.42Z" transform="translate(472.89 338.02)"/><path class="cls-1" d="M216-219.62a1.87,1.87,0,0,1-1.24,1.38c-1,.22-1.12,1.23-.18,1.37s3.09-1.34,3.09-1.34l-.26-1.42Z" transform="translate(472.89 338.02)"/><path class="cls-4" d="M258-262a8.12,8.12,0,0,0,2.91,8.08c4.2,3.49,3.45,9.66-4.59,11.17l1.17,1.8L269.6-243l.57-8.46-4.34-8.73Z" transform="translate(472.89 338.02)"/><rect class="cls-10" x="241.46" y="-246.35" width="1.52" height="3.23" transform="translate(492.38 355.88) rotate(-4.4)"/><path class="cls-10" d="M251.41-276.86s-.56,1.54,1.54,1.55,1.22,1.95,2.87,2.05,1.93-.57,1.86-1.8.1-3.59-1.69-4S251.12-279.93,251.41-276.86Z" transform="translate(472.89 338.02)"/><path class="cls-1" d="M257.64-263.29a3.81,3.81,0,0,1,5.35-3.63c3.65,1.58,9.64,4.56,10.69,10.86,1.66,9.94-3.13,13.63-8.58,17.91l-1.22-2.5s6.64-7.17,2.85-13.77C263.81-259.47,257.87-259.44,257.64-263.29Z" transform="translate(472.89 338.02)"/><path class="cls-15" d="M257.64-263.29a3.81,3.81,0,0,1,5.35-3.63c3.65,1.58,9.64,4.56,10.69,10.86,1.66,9.94-3.13,13.63-8.58,17.91l-1.22-2.5s6.64-7.17,2.85-13.77C263.81-259.47,257.87-259.44,257.64-263.29Z" transform="translate(472.89 338.02)"/><polygon class="cls-7" points="736.91 97.66 735.45 98.37 736.72 100.56 737.99 99.87 736.91 97.66"/><polygon class="cls-9" points="703.57 96.49 703.57 118.39 700.62 118.39 697.91 99.1 703.57 96.49"/><path class="cls-19" d="M247.29-246.31l.28,3s-2.28,1-3.62.24S244.32-247.22,247.29-246.31Z" transform="translate(472.89 338.02)"/><path class="cls-1" d="M258.14-219.62a1.84,1.84,0,0,1-1.23,1.38c-1,.22-1.12,1.23-.19,1.37s3.1-1.34,3.1-1.34l-.26-1.42Z" transform="translate(472.89 338.02)"/><path class="cls-1" d="M264.39-219.62a1.89,1.89,0,0,1-1.24,1.38c-1,.22-1.12,1.23-.19,1.37s3.1-1.34,3.1-1.34l-.26-1.42Z" transform="translate(472.89 338.02)"/><polygon class="cls-9" points="692.24 94.77 688.12 118.38 691.26 118.39 698.01 99.87 703.57 96.49 692.24 94.77"/><path class="cls-7" d="M242.91-245.71s.9-1,1.88-.57.23.49,1.09,1,2.1,2.68-2.78,2.13Z" transform="translate(472.89 338.02)"/><circle class="cls-2" cx="689.26" cy="65.86" r="4.16"/><polyline class="cls-17" points="687.77 65.46 688.9 67.21 691.08 64.52"/><rect class="cls-18" x="685.51" y="57.06" width="8.31" height="2.04"/><ellipse class="cls-5" cx="241.1" cy="123.18" rx="24.27" ry="2.28"/><rect class="cls-6" x="184.4" y="61.23" width="63.75" height="43.96"/><path class="cls-4" d="M-230.82-269.76s-2.21.37-1.31,2.89,1.74,6-.56,6.93-10.21-1.1-13.28,9.6l-5.62-9.91s-1.79,2.16,0,6.89c1.63,4.33,3,15.8,8.14,17a2.13,2.13,0,0,1,1.68,1.85l.17,1.69,4.57-.1,7.38-27.65,1.87-5.7Z" transform="translate(472.89 338.02)"/><path class="cls-1" d="M-238-259.58s-4.54,6.3-5.46,11.61L-249-258.28l-2,1.24s4.9,16.17,9,16.76,7.51-10.9,7.51-10.9Z" transform="translate(472.89 338.02)"/><path class="cls-12" d="M-238-259.58s-4.54,6.3-5.46,11.61L-249-258.28l-2,1.24s4.9,16.17,9,16.76,7.51-10.9,7.51-10.9Z" transform="translate(472.89 338.02)"/><circle class="cls-9" cx="189.55" cy="65.26" r="1.23"/><circle class="cls-1" cx="193.19" cy="65.26" r="1.23"/><circle class="cls-10" cx="196.63" cy="65.26" r="1.23"/><path class="cls-7" d="M-230.06-268.21a9.12,9.12,0,0,0,.28,2.38.72.72,0,0,0,.91.46h0a1.6,1.6,0,0,0,1.17-1.28l.34-1.29a1.31,1.31,0,0,0-.67-1.34A1.37,1.37,0,0,0-230.06-268.21Z" transform="translate(472.89 338.02)"/><polygon class="cls-7" points="245.58 70.81 246.16 75.5 243.55 75.64 244.18 72.17 245.58 70.81"/><path class="cls-9" d="M-227.08-266.85h0a.14.14,0,0,1-.1.14.94.94,0,0,1-1.1-.34,1.22,1.22,0,0,1-.1-1.32,5.33,5.33,0,0,1-1.32.19,1.3,1.3,0,0,1-.44-.05l-.45-1s-.67-1,0-1.32,1,.42,1.45-.14.58-.77,1.13-.53,0,.72.86.65.92.28,1,.68a.73.73,0,0,1-.14.38A4.4,4.4,0,0,0-227.08-266.85Z" transform="translate(472.89 338.02)"/><path class="cls-7" d="M-228.44-267.09s0-.56.39-.54.47.82-.09.93Z" transform="translate(472.89 338.02)"/><path class="cls-7" d="M-230-267.3l-.36.58a.23.23,0,0,0,.08.32l.09,0,.56.06Z" transform="translate(472.89 338.02)"/><path class="cls-8" d="M-228.78-265.39a2,2,0,0,0,1-.47,1.89,1.89,0,0,1-1.19,1.49Z" transform="translate(472.89 338.02)"/><path class="cls-1" d="M-216.76-254.5c.51-4.05.61-6-6.48-8.21-3.37-1.06-8.14-.28-12.54,1.72-8.73,4,1.55,14.18.63,21.13l11.25,1.61S-217.87-245.66-216.76-254.5Z" transform="translate(472.89 338.02)"/><path class="cls-1" d="M-224.16-262.94s-.13-1.6-3.28-1.3-4.69.08-4.69,1.9C-232.13-262.34-230.27-260.11-224.16-262.94Z" transform="translate(472.89 338.02)"/><path class="cls-12" d="M-224.16-262.94s-.13-1.6-3.28-1.3-4.69.08-4.69,1.9C-232.13-262.34-230.27-260.11-224.16-262.94Z" transform="translate(472.89 338.02)"/><path class="cls-4" d="M-221.25-258.68s-3.06,1.65-2.91,6.71-1.44,6.72-4.42,7,7.33-.76,7.33-.76l2.48-6.06Z" transform="translate(472.89 338.02)"/><path class="cls-1" d="M-221.39-257.87a2.36,2.36,0,0,1,4.27-1.4,13,13,0,0,1,2.24,7c.45,8.51-.39,11.83-3.77,11.83C-221-240.42-221.38-251.35-221.39-257.87Z" transform="translate(472.89 338.02)"/><path class="cls-1" d="M-221.39-257.87a2.36,2.36,0,0,1,4.27-1.4,13,13,0,0,1,2.24,7c.45,8.51-.39,11.83-3.77,11.83C-221-240.42-221.38-251.35-221.39-257.87Z" transform="translate(472.89 338.02)"/><path class="cls-12" d="M-221.39-257.87a2.36,2.36,0,0,1,4.27-1.4,13,13,0,0,1,2.24,7c.45,8.51-.39,11.83-3.77,11.83C-221-240.42-221.38-251.35-221.39-257.87Z" transform="translate(472.89 338.02)"/><path class="cls-20" d="M-249.12-218.35a4.29,4.29,0,0,1-2.9-2.86s3.69-.75,3.8,3.06Z" transform="translate(472.89 338.02)"/><path class="cls-21" d="M-248.83-218.58a5.23,5.23,0,0,1-.19-5.1,4.25,4.25,0,0,1,1.56,5.1Z" transform="translate(472.89 338.02)"/><path class="cls-1" d="M-248.41-218.58a5.12,5.12,0,0,1,3.54-3.31s.5,1.81-1.72,3.32Z" transform="translate(472.89 338.02)"/><polygon class="cls-9" points="222.76 119.37 223.25 122.68 226.29 122.69 226.74 119.39 222.76 119.37"/><rect class="cls-9" x="234.09" y="87.68" width="21.43" height="33.39"/><rect class="cls-9" x="231.92" y="119.12" width="25.97" height="3.58"/><rect class="cls-22" x="231.92" y="119.12" width="25.97" height="3.58"/><path class="cls-3" d="M-231.61-248.7s-.95-5.71,1.57-7.66" transform="translate(472.89 338.02)"/><circle class="cls-9" cx="242.95" cy="81.59" r="0.96"/><path class="cls-9" d="M-234.41-250.34s2.85-3.67,6.28,0Z" transform="translate(472.89 338.02)"/><ellipse class="cls-22" cx="244.95" cy="103.02" rx="5.75" ry="7.66"/><path class="cls-7" d="M-249.38-258s-1.3-2.84-2.32-2.92.75,3.92.75,3.92Z" transform="translate(472.89 338.02)"/><circle class="cls-2" cx="203.23" cy="80.98" r="9.83"/><path class="cls-10" d="M-269.66-266.87V-257l9.62-2S-261.38-266.93-269.66-266.87Z" transform="translate(472.89 338.02)"/><path class="cls-9" d="M-269.66-257l-5.46,8.17s5.51,4.2,11.88-.74A9.54,9.54,0,0,0-260-259Z" transform="translate(472.89 338.02)"/><rect class="cls-23" x="197.18" y="96.54" width="12.09" height="4.01"/><rect class="cls-10" x="177.07" y="96.1" width="16.12" height="13.85"/><path class="cls-2" d="M-287.5-239c.2,0,.28.07.28.28v.43a2,2,0,0,1,1.63,1.24c.11.21.07.33-.18.43l-.43.2c-.21.1-.3,0-.42-.16a1.1,1.1,0,0,0-1.15-.68c-.76,0-1.1.22-1.1.73a.65.65,0,0,0,.61.59,4.49,4.49,0,0,0,.64.1,4.33,4.33,0,0,1,1.18.23,1.8,1.8,0,0,1,.53.28,1.72,1.72,0,0,1,.47,1.25c0,1-.65,1.62-1.8,1.79v.47c0,.2-.06.28-.28.28H-288c-.21,0-.28-.07-.28-.28v-.46a2,2,0,0,1-1.78-1.37.27.27,0,0,1,.11-.38l.09,0,.44-.16c.22-.08.32,0,.41.2a1.16,1.16,0,0,0,1.21.74c.81,0,1.22-.25,1.22-.78a.54.54,0,0,0-.38-.56,2.92,2.92,0,0,0-.88-.17A3.73,3.73,0,0,1-289-235a1.55,1.55,0,0,1-.52-.28,1.64,1.64,0,0,1-.48-1.21c0-1,.61-1.6,1.75-1.75v-.43c0-.21.07-.28.28-.28Z" transform="translate(472.89 338.02)"/><rect class="cls-23" x="219.31" y="71.15" width="14.26" height="2.71"/><ellipse class="cls-5" cx="548.45" cy="115.75" rx="45.58" ry="3.58"/><path class="cls-1" d="M50.22-226.26a1.68,1.68,0,0,0,.84,1.42c.82.36.76,1.26-.07,1.22s-2.47-1.71-2.47-1.71l.62-1.52Z" transform="translate(472.89 338.02)"/><path class="cls-9" d="M47-237.32s4.91.21,4.37,3.54a23.11,23.11,0,0,1-2.7,6.93l1.89.79s3.74-4.3,4.11-9.6S47.51-239.78,47-237.32Z" transform="translate(472.89 338.02)"/><path class="cls-4" d="M47-237.32s4.91.21,4.37,3.54a23.11,23.11,0,0,1-2.7,6.93l1.89.79s3.74-4.3,4.11-9.6S47.51-239.78,47-237.32Z" transform="translate(472.89 338.02)"/><path class="cls-1" d="M43.61-257.45A3.36,3.36,0,0,0,38.4-256a3.2,3.2,0,0,0,0,2.05c.84,2.72,2.18,6.41,7.17,7.75s9.18,2.34,9.58.59-.72-4-4.81-5.35C47.41-251.95,45.87-255.7,43.61-257.45Z" transform="translate(472.89 338.02)"/><path class="cls-4" d="M43.61-257.45A3.36,3.36,0,0,0,38.4-256a3.2,3.2,0,0,0,0,2.05c.84,2.72,2.18,6.41,7.17,7.75s9.18,2.34,9.58.59-.72-4-4.81-5.35C47.41-251.95,45.87-255.7,43.61-257.45Z" transform="translate(472.89 338.02)"/><path class="cls-1" d="M54.17-226a1.63,1.63,0,0,0,.83,1.42c.84.36.76,1.26-.07,1.22s-2.47-1.71-2.47-1.71l.61-1.52Z" transform="translate(472.89 338.02)"/><path class="cls-7" d="M105.74-244l-8.35-6.17s-2.62-1.87-3-.27,2.59,1.87,2.59,1.87,5.11,8.17,7.67,7.2S105.74-244,105.74-244Z" transform="translate(472.89 338.02)"/><path class="cls-4" d="M105.74-244l-8.35-6.17s-2.62-1.87-3-.27,2.59,1.87,2.59,1.87,5.11,8.17,7.67,7.2S105.74-244,105.74-244Z" transform="translate(472.89 338.02)"/><polygon class="cls-7" points="570.72 103.89 578.16 111.98 579.18 111.54 573.58 101.57 570.72 103.89"/><path class="cls-1" d="M105.13-226.24a2,2,0,0,1-.66,1.47c-.67.45-.06,1.42.88.53a7.39,7.39,0,0,0,.8-.88,2.08,2.08,0,0,1,.89-.63.35.35,0,0,0,.2-.34c0-.56-1.29-.8-1.29-.8Z" transform="translate(472.89 338.02)"/><path class="cls-9" d="M102.65-241.35s-10.38-.08-8.88,6.07a12.23,12.23,0,0,0,6.52,8.22l3.74-6.86-2.06-6Z" transform="translate(472.89 338.02)"/><path class="cls-4" d="M102.65-241.35s-10.38-.08-8.88,6.07a12.23,12.23,0,0,0,6.52,8.22l3.74-6.86-2.06-6Z" transform="translate(472.89 338.02)"/><rect class="cls-13" x="580.28" y="102.18" width="1.11" height="9.55"/><path class="cls-6" d="M111.61-259s1-5.45,5.92-3c3.61,1.82.08,16.33-2,23.84a6.11,6.11,0,0,1-5.89,4.46h-6.91a1.79,1.79,0,0,1-.45-3.53l.12,0c1.19-.27,2.59-.49,3.87-.66a4.72,4.72,0,0,0,4.1-4.32Z" transform="translate(472.89 338.02)"/><path class="cls-7" d="M106.7-264.16a6.91,6.91,0,0,0,.23,1.81.55.55,0,0,0,.7.35h0a1.23,1.23,0,0,0,.88-1l.26-1a1,1,0,0,0-.52-1A1.05,1.05,0,0,0,106.7-264.16Z" transform="translate(472.89 338.02)"/><polygon class="cls-7" points="581.82 74.62 582.13 78.21 580.14 78.24 580.7 75.69 581.82 74.62"/><path class="cls-7" d="M106.73-263.47l-.27.45a.18.18,0,0,0,.06.24l.08,0,.42,0Z" transform="translate(472.89 338.02)"/><path class="cls-8" d="M107.79-262.26a1.22,1.22,0,0,0,.64-.32.94.94,0,0,1-.8,1.05Z" transform="translate(472.89 338.02)"/><polygon class="cls-7" points="568.98 102.18 568.98 113.17 570.04 113.53 572.64 102.4 568.98 102.18"/><path class="cls-1" d="M96.13-225.09a2,2,0,0,1-1.49.63c-.79-.11-1,1,.29,1a6.94,6.94,0,0,0,1.2-.1,2,2,0,0,1,1.06.13.36.36,0,0,0,.38-.11c.4-.4-.41-1.46-.41-1.46Z" transform="translate(472.89 338.02)"/><path class="cls-7" d="M108.85-263.38s0-.42.3-.42.36.62-.07.71Z" transform="translate(472.89 338.02)"/><path class="cls-9" d="M106.93-264.22a3.08,3.08,0,0,0,1,0,2.11,2.11,0,0,0,1.19,1.53s.92-1.82-.2-2.53c-.94-.59-1.65-1.12-2.42-.41a.82.82,0,0,0-.06,1.16A.79.79,0,0,0,106.93-264.22Z" transform="translate(472.89 338.02)"/><circle class="cls-9" cx="582.48" cy="72.27" r="1.09"/><path class="cls-7" d="M108-263.59s.05-.49.44-.41.39.65-.1.87Z" transform="translate(472.89 338.02)"/><path class="cls-1" d="M107.11-259.2l1.94-.56s5.19.56,5.14,4.72c0,3.08-3.64,14.61-3.64,14.61h-7.9v-4.06a11.82,11.82,0,0,0-1.31-5.53C100.12-252.33,99.48-256.36,107.11-259.2Z" transform="translate(472.89 338.02)"/><path class="cls-1" d="M105.64-254.26a3.31,3.31,0,0,1,6.49-.58,19.11,19.11,0,0,1,.19,8.37c-1.47,9.16-19.11,3.21-19.11,3.21v-2.17s10.42,2,12.93-.71C107.61-247.71,105.38-251.3,105.64-254.26Z" transform="translate(472.89 338.02)"/><path class="cls-9" d="M102.65-242.33l7.9,1.9s.38,3.41-2.37,3.68-11.16-.67-7.89,9.69H93.78s-4-11.13,5.72-13.37c1.17-.27,3.14-.49,3.16-1.7Z" transform="translate(472.89 338.02)"/><path class="cls-1" d="M67.32-262.48a11.39,11.39,0,0,0-5.48,9.15c-.33,6.07.22,12.58,7.91,11.85S67.32-262.48,67.32-262.48Z" transform="translate(472.89 338.02)"/><path class="cls-4" d="M67.32-262.48a11.39,11.39,0,0,0-5.48,9.15c-.33,6.07.22,12.58,7.91,11.85S67.32-262.48,67.32-262.48Z" transform="translate(472.89 338.02)"/><path class="cls-7" d="M72-268.82a7.6,7.6,0,0,0,0,2.13.63.63,0,0,0,.76.5h0a1.41,1.41,0,0,0,1.16-1l.43-1.1a1.13,1.13,0,0,0-.44-1.25A1.22,1.22,0,0,0,72-268.82Z" transform="translate(472.89 338.02)"/><polygon class="cls-7" points="547.16 69.9 547.63 74.07 545.32 74.17 545.9 71.09 547.16 69.9"/><path class="cls-7" d="M71.92-268l-.38.48a.21.21,0,0,0,0,.29l.08,0,.49.11Z" transform="translate(472.89 338.02)"/><path class="cls-8" d="M72.85-266.25a1.54,1.54,0,0,0,.77-.42,2.43,2.43,0,0,1-.94,1.49Z" transform="translate(472.89 338.02)"/><path class="cls-1" d="M69.85-263.48s9.94-2.23,13.5-.23-3.42,20.81-3.42,20.81l-11-.35S59.34-261.57,69.85-263.48Z" transform="translate(472.89 338.02)"/><path class="cls-1" d="M72.07-225.23a1.65,1.65,0,0,1-1.41.85c-.89-.07-1.26.75-.51,1.11s3-.33,3-.33l.19-1.63Z" transform="translate(472.89 338.02)"/><path class="cls-1" d="M80.11-225.44a1.67,1.67,0,0,0,1.27,1.06c.89.06,1.13.94.33,1.18s-2.9-.79-2.9-.79l.06-1.64Z" transform="translate(472.89 338.02)"/><path class="cls-4" d="M78.48-262s-3.15,2-1.54,6.68,1.86,8-1.92,6.81-3.49-6.37-3.49-6.37l-3.85.6-.36,7.38L69-243.25l9.53-.6,3.89-1,1.45-4.87L81.18-258Z" transform="translate(472.89 338.02)"/><path class="cls-9" d="M69-243.25l2.81,18h1.83s-1.7-13.55,1.27-15.19,3.55,15.19,3.55,15.19l2-.16,0-18.57Z" transform="translate(472.89 338.02)"/><path class="cls-1" d="M80.41-264.3s6.19-1,6.19,8.69-1.49,18.39-15.77,9.71l1.08-1.65s7.7,3.38,9.35.41S74.83-262.65,80.41-264.3Z" transform="translate(472.89 338.02)"/><path class="cls-12" d="M80.41-264.3s6.19-1,6.19,8.69-1.49,18.39-15.77,9.71l1.08-1.65s7.7,3.38,9.35.41S74.83-262.65,80.41-264.3Z" transform="translate(472.89 338.02)"/><rect class="cls-10" x="64.78" y="-255.11" width="5.4" height="8.08" transform="translate(536.18 346.89) rotate(-14.12)"/><path class="cls-7" d="M71.93-247.55s-2.58-2-3-.49,2.27,1.57,2.27,1.57Z" transform="translate(472.89 338.02)"/><ellipse class="cls-9" cx="557.42" cy="60.04" rx="6.34" ry="5.27"/><polygon class="cls-9" points="553 62.45 550.75 66.29 554.46 63.53 553 62.45"/><circle class="cls-2" cx="554.93" cy="60.04" r="0.78"/><circle class="cls-2" cx="557.44" cy="60.04" r="0.78"/><circle class="cls-2" cx="559.92" cy="60.04" r="0.78"/><path class="cls-9" d="M72.23-268.76l.29.08a1.87,1.87,0,0,1,.4.13l.1,0a.41.41,0,0,1,.25.38,1.14,1.14,0,0,0,1.12,1.25s1-1.51.2-2.67a2.65,2.65,0,0,0-2-1.07A1,1,0,0,0,72.23-268.76Z" transform="translate(472.89 338.02)"/><rect class="cls-13" x="516.08" y="102.17" width="1.11" height="9.55"/><path class="cls-6" d="M40.07-259s-1-5.45-5.9-3c-3.61,1.82-.08,16.33,2,23.84a6.11,6.11,0,0,0,5.89,4.46H49a1.79,1.79,0,0,0,.45-3.53l-.12,0c-1.19-.27-2.59-.49-3.86-.66a4.72,4.72,0,0,1-4.1-4.32Z" transform="translate(472.89 338.02)"/><polygon class="cls-13" points="517.18 111.72 521.15 114.85 512.33 114.85 516.08 111.72 517.18 111.72"/><path class="cls-7" d="M43.65-266.12A8.15,8.15,0,0,1,43.8-264a.63.63,0,0,1-.72.54,1.4,1.4,0,0,1-1.21-.92l-.51-1a1.14,1.14,0,0,1,.36-1.27A1.21,1.21,0,0,1,43.65-266.12Z" transform="translate(472.89 338.02)"/><polygon class="cls-7" points="514.34 72.75 514.18 76.89 516.47 76.82 515.67 73.84 514.34 72.75"/><path class="cls-9" d="M43.35-266a5,5,0,0,1-1.16,0,1.06,1.06,0,0,1,.14,1.14.86.86,0,0,1-1,.47L41.17-266a1.27,1.27,0,0,1,.51-1.21,3.48,3.48,0,0,1,.51-.34c.44-.24,1.16,0,1.54-.38a.3.3,0,0,1,.43,0,.29.29,0,0,1,.07.12,1.37,1.37,0,0,1-.5,1.61A1.32,1.32,0,0,1,43.35-266Z" transform="translate(472.89 338.02)"/><path class="cls-7" d="M42.46-264.89s-.07-.48-.43-.4-.27.78.24.78Z" transform="translate(472.89 338.02)"/><path class="cls-7" d="M43.77-265.33l.41.44a.21.21,0,0,1,0,.29.2.2,0,0,1-.08,0l-.47.15Z" transform="translate(472.89 338.02)"/><path class="cls-8" d="M43-263.53a1.57,1.57,0,0,1-.8-.35,2.34,2.34,0,0,0,1,1.39Z" transform="translate(472.89 338.02)"/><path class="cls-1" d="M41.29-261.12l2.29-.07s5,1.06,6.24,7.43-2.29,12.07-2.29,12.07l-7.21.06S30.75-260,41.29-261.12Z" transform="translate(472.89 338.02)"/><path class="cls-9" d="M40.32-241.63s.09,4.14,2.9,4.5,9.21-1.8,10,1.69-.8,9.05-.8,9.05l2,.54s4.39-8.4,1.8-12.39-8.65-3.47-8.65-3.47Z" transform="translate(472.89 338.02)"/><path class="cls-4" d="M39.52-256.53s-1.84,5.12,1.33,7.91,5,3.11,3.38,7l3.3-.06a21.24,21.24,0,0,0,2.09-5.39C50-249.31,39.52-256.53,39.52-256.53Z" transform="translate(472.89 338.02)"/><path class="cls-1" d="M44.9-259a3.36,3.36,0,0,0-5.21,1.45,3.27,3.27,0,0,0,0,2.05c.84,2.72,2.18,6.41,7.17,7.75s9.18,2.34,9.58.59-.72-4-4.81-5.35C48.7-253.55,47.16-257.3,44.9-259Z" transform="translate(472.89 338.02)"/><path class="cls-12" d="M44.9-259a3.36,3.36,0,0,0-5.21,1.45,3.27,3.27,0,0,0,0,2.05c.84,2.72,2.18,6.41,7.17,7.75s9.18,2.34,9.58.59-.72-4-4.81-5.35C48.7-253.55,47.16-257.3,44.9-259Z" transform="translate(472.89 338.02)"/><path class="cls-7" d="M50.78-252.94a2,2,0,0,1,2.45,0C54.3-251.92,52.18-250.45,50.78-252.94Z" transform="translate(472.89 338.02)"/><path class="cls-4" d="M106.56-256.3s-3.85,1.39-2.53,6.07-1.38,5.39-1.38,5.39l3.49,3.41,4.41,1,1.38-4.65Z" transform="translate(472.89 338.02)"/><rect class="cls-24" x="528.59" y="96.98" width="1.8" height="17.98"/><rect class="cls-24" x="565.76" y="96.98" width="1.8" height="17.98"/><rect class="cls-6" x="526.78" y="94.17" width="42.44" height="4.73"/><path class="cls-7" d="M73.29-267.43a.29.29,0,0,1,0-.31c.07-.17.21-.4.44-.37s.29.42.12.67a.31.31,0,0,1-.44.08l-.08-.08Z" transform="translate(472.89 338.02)"/><path class="cls-7" d="M105.64-254.26a3.31,3.31,0,0,1,6.49-.58,19.11,19.11,0,0,1,.19,8.37c-1.47,9.16-19.11,3.21-19.11,3.21v-2.17s10.42,2,12.93-.71C107.61-247.71,105.38-251.3,105.64-254.26Z" transform="translate(472.89 338.02)"/><polygon class="cls-10" points="556.72 94.17 554.43 85.65 555.54 85.41 557.7 92.86 563.93 93.4 563.93 94.17 556.72 94.17"/><path class="cls-7" d="M93.21-245.42s-2.29-1.11-3-.22.11,2.23,3,2.39Z" transform="translate(472.89 338.02)"/><rect class="cls-1" x="91.93" y="-244.87" width="2.91" height="1.03" transform="translate(800.14 210.86) rotate(-84.3)"/><polygon class="cls-13" points="580.28 111.72 576.32 114.85 585.14 114.85 581.39 111.72 580.28 111.72"/><path class="cls-1" d="M106.14-258.82a1.26,1.26,0,0,1,.74-1.43c1-.49,3.32-1.07,3.67.84A5.46,5.46,0,0,1,106.14-258.82Z" transform="translate(472.89 338.02)"/><path class="cls-12" d="M106.14-258.82a1.26,1.26,0,0,1,.74-1.43c1-.49,3.32-1.07,3.67.84A5.46,5.46,0,0,1,106.14-258.82Z" transform="translate(472.89 338.02)"/></svg>