<svg id="图层_1" data-name="图层 1" xmlns="http://www.w3.org/2000/svg" viewBox="0 0 150 150"><defs><style></style></defs><title>采购icon</title><path class="cls-1" d="M177.16-154h0a2.39,2.39,0,0,0,2.4-2.39,2.39,2.39,0,0,0-2.4-2.4,2.39,2.39,0,0,0-2.39,2.4A2.39,2.39,0,0,0,177.16-154Z" transform="translate(-102.34 184.67)"/><path class="cls-1" d="M157.16-113.75a4.71,4.71,0,0,0-4.71,4.71v25.89a4.72,4.72,0,0,0,4.71,4.72,4.72,4.72,0,0,0,4.72-4.72h0V-109A4.71,4.71,0,0,0,157.16-113.75Z" transform="translate(-102.34 184.67)"/><path class="cls-1" d="M181.54-109.2a4.71,4.71,0,0,0-3.5-4.55H175.6a4.7,4.7,0,0,0-3.49,4.55v25.89a4.72,4.72,0,0,0,4.71,4.72,4.73,4.73,0,0,0,4.72-4.72h0Z" transform="translate(-102.34 184.67)"/><path class="cls-1" d="M239.84-184.67h-125a12.49,12.49,0,0,0-12.5,12.5v125a12.5,12.5,0,0,0,12.5,12.5h125a12.5,12.5,0,0,0,12.5-12.5v-125A12.5,12.5,0,0,0,239.84-184.67Zm-95.16,55.43,30.11-30.11a3.32,3.32,0,0,1,4.7-.07l0,0,0,0,30.1,30.09h0a3.33,3.33,0,0,1,.06,4.7,3.32,3.32,0,0,1-4.7-.07l-27.86-27.86-27.86,27.86a3.32,3.32,0,0,1-4.7.07A3.32,3.32,0,0,1,144.68-129.24Zm71.9,15.47c-.89,8.22-3.88,23.46-5.41,31.39-1.46,7.58-6.56,13.95-14.65,13.95H157.09c-8.09,0-13.12-6.39-14.65-13.95-1.6-8-4.52-23.17-5.4-31.39a7.27,7.27,0,0,1-6.8-7.25,7.28,7.28,0,0,1,7.27-7.28h4.77a5,5,0,0,0-.22,1.37,4.73,4.73,0,0,0,1.39,3.42,4.67,4.67,0,0,0,3.35,1.39,4.9,4.9,0,0,0,3.48-1.45L155-128.3h44.12l4.73,4.73a4.88,4.88,0,0,0,3.47,1.45,4.68,4.68,0,0,0,3.36-1.39,4.68,4.68,0,0,0,1.38-3.42,5,5,0,0,0-.21-1.37h4.29a7.27,7.27,0,0,1,7.27,7.28A7.26,7.26,0,0,1,216.58-113.77Z" transform="translate(-102.34 184.67)"/><path class="cls-1" d="M198.33-113.75H195.9a4.71,4.71,0,0,0-3.5,4.55v25.89a4.72,4.72,0,0,0,4.72,4.72,4.72,4.72,0,0,0,4.71-4.72h0V-109.2A4.7,4.7,0,0,0,198.33-113.75Z" transform="translate(-102.34 184.67)"/></svg>
