<?xml version="1.0" standalone="no"?><!DOCTYPE svg PUBLIC "-//W3C//DTD SVG 1.1//EN" "http://www.w3.org/Graphics/SVG/1.1/DTD/svg11.dtd"><svg class="icon" width="36px" height="36.00px" viewBox="0 0 1024 1024" version="1.1" xmlns="http://www.w3.org/2000/svg"><path d="M17.1008 348.5184h994.2016v326.9632H17.1008V348.5184z" fill="#F95F5D" /><path d="M1006.8992 348.5184V87.808c0-35.328-26.5216-61.8496-61.8496-61.8496H78.9504c-35.328 0-61.8496 26.5216-61.8496 61.8496v260.7104h989.7984z" fill="#55C7F7" /><path d="M17.1008 675.4816v260.7104c0 35.328 26.5216 61.8496 61.8496 61.8496h870.5024c35.328 0 61.8496-26.5216 61.8496-61.8496v-260.7104H17.1008z" fill="#7ECF3B" /><path d="M405.9648 25.9584h220.928v972.1344H405.9648V25.9584z" fill="#FDAF42" /><path d="M626.8928 445.696v136.96H397.1072V445.696h229.7856m39.7824-52.992H357.3248c-4.4032 0-13.2608 4.4032-13.2608 13.2608v216.5248c0 4.4032 4.4032 13.2608 13.2608 13.2608h309.2992c4.4032 0 13.2608-4.4032 13.2608-13.2608V405.9648c-4.4032-8.8576-8.8064-13.2608-13.2096-13.2608z" fill="#FFFFFF" /></svg>