<svg id="图层_1" data-name="图层 1" xmlns="http://www.w3.org/2000/svg" viewBox="0 0 160 177.78"><defs><style></style></defs><title>诚信查阅 -正常状态</title><path class="cls-1" d="M1779.14-293.65h0v-15.9h-4.77v11.76q0,2-1.08,1.53l-2-17H1775q4.11.44,3.9-4.36V-323h-5.85v1.74c.14.73-.15,1-.87.87h-1.51l-.43-3.49h-8.45l.44,3.49h-15.81v38.11h0c0,1.6-.36,2.25-1.08,2h-.65v6.53h4.11c3.32,0,5-1.88,5-5.66v-21.11h3.46v19.82c0,.72-.21,1-.65.87h-1.08v6.1h4.54q4.11,0,4.11-5.89v-25.92l3.25,25.91c.29,3.78,1.88,5.66,4.77,5.67h6.93v-6.1h-2.6a1.1,1.1,0,0,1-.54,0,1,1,0,0,1-.76-1.14l-1.08-7.62h1.3C1777.91-288.71,1779.13-290.31,1779.14-293.65Zm-25.34-14.6v-5h9.31l.65,5Z" transform="translate(-1676 389.26)"/><rect class="cls-1" x="54.65" y="65.99" width="13.64" height="7.62"/><path class="cls-1" d="M1741.25-281.68v-28.74h-11v7.62H1733v23.74q-.23,5.22,4.33,5.22h6.06v-7h-1.51C1741.47-280.66,1741.25-280.95,1741.25-281.68Z" transform="translate(-1676 389.26)"/><path class="cls-1" d="M1827.11-389.26H1684.89a8.89,8.89,0,0,0-8.89,8.89v160a8.89,8.89,0,0,0,8.89,8.89h142.22a8.89,8.89,0,0,0,8.89-8.89v-160A8.89,8.89,0,0,0,1827.11-389.26Zm-18.89,96.51c0,24.43-34,50.28-52.22,50.28s-52.22-25.84-52.22-50.26v-48.69l5.19-.08a79.48,79.48,0,0,0,23.67-4.72,108.26,108.26,0,0,0,20.27-9.95l3.09-2.1,3.11,2.1a108.26,108.26,0,0,0,20.27,9.95,79.55,79.55,0,0,0,23.68,4.72l5.16.08Z" transform="translate(-1676 389.26)"/></svg>
