<svg id="图层_1" data-name="图层 1" xmlns="http://www.w3.org/2000/svg" viewBox="0 0 150 166.67"><defs><style></style></defs><title>诚信报告icon</title><path class="cls-1" d="M30.44-99.38H-102.89A8.33,8.33,0,0,0-111.22-91V59a8.33,8.33,0,0,0,8.33,8.33H30.44A8.33,8.33,0,0,0,38.78,59V-91A8.33,8.33,0,0,0,30.44-99.38ZM-36.22-77A40.33,40.33,0,0,1,4.11-36.68,40.34,40.34,0,0,1-36.22,3.66,40.35,40.35,0,0,1-76.56-36.68,40.34,40.34,0,0,1-36.22-77ZM5.8,40.12h-84a4,4,0,0,1-4-4,4,4,0,0,1,4-4h84a4,4,0,1,1,0,8Zm0-17.25h-84a4,4,0,0,1-4-4,4,4,0,0,1,4-4h84a4,4,0,1,1,0,8Z" transform="translate(111.22 99.38)"/><path class="cls-1" d="M-11.46-41A61,61,0,0,1-19-22.55c.88,3.92,1.93,6.19,2.87,6.19.72,0,1.21-2.49,1.32-7.9a15.2,15.2,0,0,0,4.48,3.42c-.83,8.18-2.49,10.44-6.63,10.44-2.6,0-4.7-2.43-6.3-6.4a38.47,38.47,0,0,1-7.45,6.68A18.85,18.85,0,0,0-34.82-14a35.32,35.32,0,0,0,9.66-9.55,157,157,0,0,1-2.71-24H-38.41v6.07h9.72v2.21c-.23,12.76-.45,17.78-1.55,19.33a4.52,4.52,0,0,1-3.09,2,25.38,25.38,0,0,1-4.86.22A15.21,15.21,0,0,0-39.46-23a46.19,46.19,0,0,1-4,13.48,28.51,28.51,0,0,0-5.13-4.15,26.11,26.11,0,0,0,1.87-5c-7,5.86-8.45,7.24-9.27,8.45a17.87,17.87,0,0,0-3.21-4.36,7.93,7.93,0,0,0,2.65-5.91V-38.29h-6v-6.29h11.87v21.65l3.54-2.82c.27,1,.77,2.32,1.16,3.48a88.81,88.81,0,0,0,1.16-16.18v-15h16.67c-.05-2.59-.11-5.19-.11-7.84h6.08c-.06,2.65-.06,5.25,0,7.84h4.86a36.66,36.66,0,0,0-4.14-5.85l4.3-2.16a28,28,0,0,1,4.53,5.91l-4,2.1h5.41v5.86H-21.9c.27,5.63.72,10.93,1.32,15.51a59.62,59.62,0,0,0,3.37-11.26Zm-39.49-6.29a76.19,76.19,0,0,0-9.28-9.17l4.26-4.2c3.09,2.54,7.45,6.19,9.49,8.67Zm12.54,11.15a114.75,114.75,0,0,1-1.05,13c1.32.11,2.32.11,3,.11a1.14,1.14,0,0,0,1.32-.66c.5-.83.67-3.92.83-12.48Z" transform="translate(111.22 99.38)"/></svg>
