<svg id="图层_1" data-name="图层 1" xmlns="http://www.w3.org/2000/svg" viewBox="0 0 150 166.67"><defs><style></style></defs><title>诚信查阅icon</title><path class="cls-1" d="M-205.53-49A41.12,41.12,0,0,0-246.65-7.87a41.12,41.12,0,0,0,41.12,41.12A41.12,41.12,0,0,0-164.4-7.87,41.12,41.12,0,0,0-205.53-49ZM-179.2-2.4c0,12.5-17.36,25.72-26.71,25.72S-232.62,10.1-232.62-2.39V-27.3l2.65,0a40.72,40.72,0,0,0,12.11-2.41,54.84,54.84,0,0,0,10.37-5.1l1.58-1.07,1.59,1.07a55.14,55.14,0,0,0,10.37,5.1,40.79,40.79,0,0,0,12.11,2.41l2.64,0Z" transform="translate(275.04 85.73)"/><path class="cls-1" d="M-133.38-85.73H-266.71A8.34,8.34,0,0,0-275-77.39v150a8.33,8.33,0,0,0,8.33,8.33h133.33A8.34,8.34,0,0,0-125,72.61v-150A8.35,8.35,0,0,0-133.38-85.73ZM-147.22,50.43a6.84,6.84,0,0,1-9.69,0l-18.91-18.9a49.35,49.35,0,0,1-67-7,49.35,49.35,0,0,1,2.35-67.28,49.34,49.34,0,0,1,67.27-2.35,49.36,49.36,0,0,1,7,67h0l18.9,18.9A6.84,6.84,0,0,1-147.22,50.43Z" transform="translate(275.04 85.73)"/><path class="cls-1" d="M-211.82-22.51a55.56,55.56,0,0,1-2.57,6.14V8.77h-3.74V-9.89c-.83,1.18-1.7,2.33-2.53,3.3a26.83,26.83,0,0,0-2.12-4.06,37.22,37.22,0,0,0,7.28-13Zm21.33,4.12V-15h-22.3v-3.37h9.92A31.8,31.8,0,0,0-205-22.51l3.5-1.32A26.31,26.31,0,0,1-199-19.25l-2,.86ZM-210.88-3h18.34V8.49h-3.64v-1h-11.2V8.6h-3.5ZM-193-10h-17.37v-3.22H-193Zm-17.37,1.81H-193v3.22h-17.37Zm3,8.46V4.23h11.2V.31Z" transform="translate(275.04 85.73)"/></svg>
