<svg id="图层_1" data-name="图层 1" xmlns="http://www.w3.org/2000/svg" viewBox="0 0 14 14"><title>数据接收</title><path d="M12.08,0H2A2,2,0,0,0,0,2v10.1A2,2,0,0,0,2,14h10.1A2,2,0,0,0,14,12.05V2A2,2,0,0,0,12.08,0ZM3.88,2h6.24a.25.25,0,0,1,.25.26.24.24,0,0,1-.25.24H3.87a.25.25,0,0,1-.25-.24A.26.26,0,0,1,3.88,2Zm-1,1.21h8.35a.25.25,0,0,1,0,.5H2.83a.25.25,0,0,1-.25-.25A.24.24,0,0,1,2.83,3.18Zm9.3,7.74a1.22,1.22,0,0,1-1.2,1.2H3.08a1.2,1.2,0,0,1-1.2-1.2V5.85a1.2,1.2,0,0,1,1.2-1.2h7.85a1.2,1.2,0,0,1,1.2,1.2Z"/><path d="M10.92,5.15H3.07a.7.7,0,0,0-.7.7v5.07a.7.7,0,0,0,.7.7h7.85a.7.7,0,0,0,.7-.7V5.85A.7.7,0,0,0,10.92,5.15ZM9,9.43a.59.59,0,0,1-.43-1L8,7.53h0L7.08,9.35a.8.8,0,0,1,.17.43.58.58,0,0,1-1.15,0,.54.54,0,0,1,.08-.28l-1-1.07L5,8.45a.58.58,0,1,1,.57-.57.71.71,0,0,1-.1.3l1,1.05a.64.64,0,0,1,.23-.05h.05l.85-1.83A.6.6,0,0,1,7.4,7,.58.58,0,0,1,8.55,7a.54.54,0,0,1-.2.45l.57.9H9a.55.55,0,0,1,.57.55A.57.57,0,0,1,9,9.43Z"/></svg>