<svg id="图层_1" data-name="图层 1" xmlns="http://www.w3.org/2000/svg" viewBox="0 0 150 150"><defs><style></style></defs><title>电商icon</title><path class="cls-1" d="M4.67-62.76a4.19,4.19,0,0,0-3.14,1.45,6.88,6.88,0,0,0-1.7,3.84H9Q9-62.76,4.67-62.76Z" transform="translate(70.65 136.64)"/><path class="cls-1" d="M66.85-136.64h-125a12.5,12.5,0,0,0-12.5,12.5V.86a12.49,12.49,0,0,0,12.5,12.5h125A12.5,12.5,0,0,0,79.35.86v-125A12.5,12.5,0,0,0,66.85-136.64ZM-33.64-104.29a3.61,3.61,0,0,1,3.61-3.6h68.8a3.6,3.6,0,0,1,3.59,3.6v3.77h-76ZM43.83-19a3.6,3.6,0,0,1-3.6,3.61h-72A3.61,3.61,0,0,1-35.34-19V-63.14a14.71,14.71,0,0,0,7.21-3.26v29.21H36.63V-66.57a14.76,14.76,0,0,0,7.2,3.41ZM6.46-47.69a12.43,12.43,0,0,0,6.88-1.92v5A17.1,17.1,0,0,1,4.9-42.75c-3.75,0-6.67-1-8.75-3.17S-7-51-7-54.77a12.85,12.85,0,0,1,3.32-9.17,11,11,0,0,1,8.36-3.53,10.14,10.14,0,0,1,7.83,3q2.84,3,2.83,8.34v2.92H-.15Q.21-47.7,6.46-47.69Zm39.86-22.5a10.71,10.71,0,0,1-2.47-.31,9.28,9.28,0,0,1-1.17-.35s0,0,0,0a10.37,10.37,0,0,1-3.14-1.85l0,0a10.57,10.57,0,0,1-.77-.73l-.17-.2a7.22,7.22,0,0,1-.56-.68l-.19-.24c-.18-.25-.34-.51-.5-.77-.05-.07-.08-.13-.13-.21a10.54,10.54,0,0,1-1.32-5.1,10.51,10.51,0,0,1-10.49,10.5,10.5,10.5,0,0,1-10.5-10.5,10.51,10.51,0,0,1-10.5,10.5,10.51,10.51,0,0,1-10.5-10.5,10.51,10.51,0,0,1-10.5,10.5,10.5,10.5,0,0,1-10.49-10.5,10.37,10.37,0,0,1-1,4.41,8.5,8.5,0,0,1-.55,1s0,0,0,0A10.91,10.91,0,0,1-32-71.85l0,0c-.3.19-.63.36-1,.53l-.13.07a7.59,7.59,0,0,1-1,.4l-.11,0a10.31,10.31,0,0,1-3.44.59,10.5,10.5,0,0,1-10.48-10.5L-33.68-96.2h76L56.82-80.69A10.51,10.51,0,0,1,46.32-70.19Z" transform="translate(70.65 136.64)"/></svg>
