<svg id="图层_1" data-name="图层 1" xmlns="http://www.w3.org/2000/svg" viewBox="0 0 150 150"><defs><style></style></defs><title>店铺icon</title><polygon class="cls-1" points="54.34 37.6 50.6 37.6 48.07 60.04 51.81 60.04 54.34 37.6"/><polygon class="cls-1" points="101.93 60.04 99.4 37.6 95.66 37.6 98.19 60.04 101.93 60.04"/><polygon class="cls-1" points="85.19 60.04 84.35 37.6 80.61 37.6 81.45 60.04 85.19 60.04"/><polygon class="cls-1" points="69.39 37.6 65.65 37.6 64.81 60.04 68.55 60.04 69.39 37.6"/><path class="cls-1" d="M-65.8-158.34h-125a12.5,12.5,0,0,0-12.5,12.5v125a12.5,12.5,0,0,0,12.5,12.5h125a12.5,12.5,0,0,0,12.5-12.5v-125A12.5,12.5,0,0,0-65.8-158.34ZM-90.89-87.73v47.4a1.88,1.88,0,0,1-1.87,1.87h-71.07a1.88,1.88,0,0,1-1.87-1.87v-47.4a11.15,11.15,0,0,1-7.48-10.57c0-.56,3.56-28.24,3.56-28.24a1.91,1.91,0,0,1,1.87-1.68h78.91A1.91,1.91,0,0,1-87-126.54s3.56,27.59,3.56,28.24A11.15,11.15,0,0,1-90.89-87.73Z" transform="translate(203.3 158.34)"/><path class="cls-1" d="M-103-90.91a11.21,11.21,0,0,1-8.42,3.83,11.2,11.2,0,0,1-8.41-3.83,11.21,11.21,0,0,1-8.42,3.83,11.2,11.2,0,0,1-8.41-3.83,11.21,11.21,0,0,1-8.42,3.83,11.2,11.2,0,0,1-8.41-3.83,11.69,11.69,0,0,1-4.68,3.18v8.13h59.85v-8.13A11.69,11.69,0,0,1-103-90.91Z" transform="translate(203.3 158.34)"/><rect class="cls-1" x="63.78" y="93.7" width="22.44" height="18.7"/></svg>
