<svg id="图层_1" data-name="图层 1" xmlns="http://www.w3.org/2000/svg" viewBox="0 0 150 150"><defs><style></style></defs><title>订单icon</title><polygon class="cls-1" points="58.67 91.71 59.85 95.83 99.81 89.97 98.63 85.85 58.67 91.71"/><polygon class="cls-1" points="85.35 63.62 52.88 68.44 53.84 72.05 86.31 67.24 85.35 63.62"/><path class="cls-1" d="M-45-166.63H-170a12.5,12.5,0,0,0-12.5,12.5v125A12.5,12.5,0,0,0-170-16.63H-45a12.5,12.5,0,0,0,12.5-12.5v-125A12.5,12.5,0,0,0-45-166.63Zm-60.36,20.27a7.67,7.67,0,0,1,7.56,7.79,7.68,7.68,0,0,1-7.56,7.79,7.68,7.68,0,0,1-7.56-7.79A7.68,7.68,0,0,1-105.32-146.36Zm-7.32,10.21a8.18,8.18,0,0,0-.24,1.87,7.87,7.87,0,0,0,7.75,8,7.87,7.87,0,0,0,7.75-8,8.33,8.33,0,0,0-.36-2.31,11.81,11.81,0,0,1,4.13,9A11.53,11.53,0,0,1-105-115.87a11.53,11.53,0,0,1-11.34-11.7A11.8,11.8,0,0,1-112.64-136.15ZM-158.73-60.9l10.9-41.61s5.9,45.86,7.37,48.9Zm74.25,24-39.77-13.67,41-4.25Zm-48-17S-143.11-101-144-124.68l24.51-3.73a16.05,16.05,0,0,0-.35,3.27A15.12,15.12,0,0,0-105-109.8a15.12,15.12,0,0,0,14.88-15.34A15.51,15.51,0,0,0-92-132.59l19.86-3s10.6,62.87,15.91,68.33Z" transform="translate(182.46 166.63)"/><polygon class="cls-1" points="55.85 79.88 57.43 83.97 108.9 76.99 107.33 72.9 55.85 79.88"/></svg>
