<svg id="图层_1" data-name="图层 1" xmlns="http://www.w3.org/2000/svg" viewBox="0 0 14.54 13.48"><title>档案柜</title><path d="M5.58,2.23H2.38a.7.7,0,0,0-.7.71V15a.7.7,0,0,0,.7.71h3.2A.71.71,0,0,0,6.29,15V2.94A.71.71,0,0,0,5.58,2.23ZM4,14.29a1.24,1.24,0,1,1,1.24-1.24A1.24,1.24,0,0,1,4,14.29Zm1.6-5a.71.71,0,0,1-.71.71H3.09a.71.71,0,0,1-.71-.71V3.65a.71.71,0,0,1,.71-.71H4.87a.71.71,0,0,1,.71.71Zm-2.49-5H4.87V3.65H3.09Zm0,2.84H4.87V6.49H3.09Zm0-1.42H4.87V5.07H3.09Zm5,0H9.83V5.07H8.06Zm5-1.42H14.8V3.65H13Zm0,1.42H14.8V5.07H13Zm2.48-3.55H12.32a.71.71,0,0,0-.71.71V15a.71.71,0,0,0,.71.71h3.19a.71.71,0,0,0,.71-.71V2.94A.71.71,0,0,0,15.51,2.23Zm-1.6,12.06a1.24,1.24,0,1,1,1.24-1.24A1.24,1.24,0,0,1,13.91,14.29Zm1.6-5a.71.71,0,0,1-.71.71H13a.71.71,0,0,1-.71-.71V3.65A.71.71,0,0,1,13,2.94H14.8a.71.71,0,0,1,.71.71ZM8.06,7.2H9.83V6.49H8.06Zm0-2.84H9.83V3.65H8.06Zm2.48-2.13H7.35a.71.71,0,0,0-.71.71V15a.71.71,0,0,0,.71.71h3.19a.71.71,0,0,0,.71-.71V2.94A.71.71,0,0,0,10.54,2.23ZM9,14.29a1.24,1.24,0,0,1,0-2.48,1.24,1.24,0,0,1,0,2.48Zm1.59-5a.71.71,0,0,1-.71.71H8.06a.71.71,0,0,1-.71-.71V3.65a.71.71,0,0,1,.71-.71H9.83a.71.71,0,0,1,.71.71ZM13,7.2H14.8V6.49H13Z" transform="translate(-1.68 -2.23)"/></svg>