<svg id="图层_1" data-name="图层 1" xmlns="http://www.w3.org/2000/svg" viewBox="0 0 150 150"><defs><style></style></defs><title>独立站icon</title><circle class="cls-1" cx="42.25" cy="42.25" r="3.39"/><path class="cls-1" d="M-162.59-96.34h33.88a4.53,4.53,0,0,0,4.52-4.52v-9a4.53,4.53,0,0,0-4.52-4.52h-33.88a4.53,4.53,0,0,0-4.52,4.52v9A4.53,4.53,0,0,0-162.59-96.34Zm23.26-12.42a1,1,0,0,1,.9-.91,1.2,1.2,0,0,1,1.13,1.13l1.13,5.65,1.81-5.87a1.24,1.24,0,0,1,1.13-.68c.45,0,.9,0,.9.68l1.81,5.87,1.13-5.65c.23-.68.68-1.13,1.13-1.13a.83.83,0,0,1,.9.91c.45,0,.23.45.23.45l-1.81,7.45a1.24,1.24,0,0,1-1.35.91,1.25,1.25,0,0,1-1.36-.91l-1.58-5.19-1.58,5.19a1.54,1.54,0,0,1-1.36.91c-.9,0-1.13-.23-1.35-.91l-1.81-7.45Zm-24.39,0c0-.46,0-.91.45-.91a1.21,1.21,0,0,1,1.13,1.13l1.13,5.65,1.8-5.87c.46-.46.68-.68,1.13-.68.68,0,1.13,0,1.13.68l1.58,5.87,1.13-5.65c.23-.68.45-1.13,1.13-1.13s.91.23.91.91a.38.38,0,0,1,.22.06v-.06c.23-.46.45-.91.91-.91a1.2,1.2,0,0,1,1.12,1.13l1.13,5.65,1.81-5.87a1.24,1.24,0,0,1,1.13-.68c.68,0,.9,0,1.13.68l1.81,5.87,1.13-5.65a1,1,0,0,1,.9-1.13.83.83,0,0,1,.9.91.44.44,0,0,1,.46.45l-1.81,7.45a1.25,1.25,0,0,1-1.36.91,1.24,1.24,0,0,1-1.35-.91l-1.58-5.19-1.58,5.19a1.54,1.54,0,0,1-1.36.91,1.7,1.7,0,0,1-1.58-.91l-1.7-7-1.69,7a1.24,1.24,0,0,1-1.35.91,1.25,1.25,0,0,1-1.36-.91l-1.58-5.19-1.58,5.19a1.54,1.54,0,0,1-1.36.91c-.68,0-1.13-.23-1.13-.91l-1.8-7.45Z" transform="translate(220.65 191.67)"/><path class="cls-1" d="M-162.37-117.8h33.88c.68,0,1.13-.68.68-1.13a21.69,21.69,0,0,0-17.62-9,21.4,21.4,0,0,0-17.62,9C-163.5-118.48-163-117.8-162.37-117.8Z" transform="translate(220.65 191.67)"/><path class="cls-1" d="M-130.52-92.95h-30.27a.68.68,0,0,0-.45,1.13A21.68,21.68,0,0,0-145.65-85a21.66,21.66,0,0,0,15.58-6.77A.63.63,0,0,0-130.52-92.95Z" transform="translate(220.65 191.67)"/><circle class="cls-1" cx="64.84" cy="42.25" r="3.39"/><circle class="cls-1" cx="53.54" cy="42.25" r="3.39"/><path class="cls-1" d="M-83.15-191.67h-125a12.5,12.5,0,0,0-12.5,12.5v125a12.5,12.5,0,0,0,12.5,12.5h125a12.5,12.5,0,0,0,12.5-12.5v-125A12.5,12.5,0,0,0-83.15-191.67ZM-102.74-82.79a9.06,9.06,0,0,1-9,9h-67.77a9.06,9.06,0,0,1-9-9v-51.95h85.83Zm0-58.73h-85.83v-9a9.06,9.06,0,0,1,9-9h67.77a9.06,9.06,0,0,1,9,9Z" transform="translate(220.65 191.67)"/></svg>
