<svg id="图层_1" data-name="图层 1" xmlns="http://www.w3.org/2000/svg" viewBox="0 0 24 24"><defs><style>.cls-1{fill:#f7f8fa;}.cls-2{fill:#616161;}</style></defs><title>邮箱</title><circle class="cls-1" cx="12" cy="12" r="12"/><path class="cls-2" d="M138.16-251.94a3,3,0,0,0,1.32.3,3.18,3.18,0,0,0,.62-.06h0V-245a.59.59,0,0,1-.6.59h-10.8a.59.59,0,0,1-.6-.59h0v-9.6a.6.6,0,0,1,.6-.6h7.86a2.91,2.91,0,0,0-.06.6h0a3,3,0,0,0,.72,1.94h0L134.12-250l-3.85-3.27-.78.91,4.64,3.94,4-3.5Zm1.32-.9a1.8,1.8,0,0,1-1.8-1.8,1.81,1.81,0,0,1,1.8-1.8h0a1.8,1.8,0,0,1,1.8,1.8,1.79,1.79,0,0,1-1.8,1.8Z" transform="translate(-122.24 262.44)"/></svg>