<svg id="图层_1" data-name="图层 1" xmlns="http://www.w3.org/2000/svg" viewBox="0 0 130 130"><defs><style>.cls-1{}.cls-2{fill:#fff;}</style></defs><circle class="cls-1" cx="65" cy="65" r="65"/><path class="cls-2" d="M712.87,551.77c-.06-.9.51-1.86,1.69-2.87s2.51-2.14,4-3.38a31.62,31.62,0,0,0,4.06-4.19,9.25,9.25,0,0,0,2-5.37,18.62,18.62,0,0,0-.68-6.18,12.25,12.25,0,0,0-2.79-4.94,13.57,13.57,0,0,0-5-3.3,19.41,19.41,0,0,0-7.23-1.23,18.17,18.17,0,0,0-8.58,1.82,17.77,17.77,0,0,0-5.54,4.4,15.59,15.59,0,0,0-3,5.33,13.74,13.74,0,0,0-.76,4.61,4,4,0,0,0,1.39,3.21,4.75,4.75,0,0,0,2.83,1.06,4.63,4.63,0,0,0,2.8-.85,3,3,0,0,0,1.26-2.58,6.61,6.61,0,0,1,.64-2.49A11.89,11.89,0,0,1,701.7,532a10,10,0,0,1,2.67-2.28,6.72,6.72,0,0,1,3.51-.93,9.19,9.19,0,0,1,6.09,1.9,5.49,5.49,0,0,1,2.11,4.78,4.59,4.59,0,0,1-.84,2.66,13.11,13.11,0,0,1-2.16,2.37c-.87.76-1.8,1.53-2.79,2.29a36.21,36.21,0,0,0-2.79,2.37,12.51,12.51,0,0,0-2.2,2.66,6.55,6.55,0,0,0-1,3.13l.09,3.21a3.33,3.33,0,0,0,1.18,2.41,4.67,4.67,0,0,0,3.13,1.23,4.38,4.38,0,0,0,3.09-1.27,3.52,3.52,0,0,0,1.06-2.71v-2Zm-4.32,20.81a5,5,0,0,0,3.68-1.48,4.88,4.88,0,0,0,1.48-3.59,5.16,5.16,0,1,0-10.32,0,4.88,4.88,0,0,0,1.49,3.59A5,5,0,0,0,708.55,572.58Zm-.08-63.77a36.61,36.61,0,0,1,14.76,3,39.06,39.06,0,0,1,12,8.12,37.53,37.53,0,0,1,8.12,12,38.18,38.18,0,0,1,0,29.48,38.1,38.1,0,0,1-20.17,20.13,38.18,38.18,0,0,1-29.48,0,38.2,38.2,0,0,1-20.13-20.13,38.18,38.18,0,0,1,0-29.48,37.53,37.53,0,0,1,8.12-12,39.24,39.24,0,0,1,12-8.12A36.32,36.32,0,0,1,708.47,508.81Z" transform="translate(-643.51 -481.66)"/></svg>
