<svg xmlns="http://www.w3.org/2000/svg" viewBox="0 0 32 32" width="16" height="16" style="border-color: rgba(187,187,187,1);border-width: 0px;border-style: solid" filter="none">
    
    <g>
    <path d="M1.575 16c1.253-6.827 7.236-12 14.425-12s13.171 5.173 14.425 12c-1.253 6.827-7.236 12-14.425 12s-13.171-5.173-14.425-12zM16 22.667c3.682 0 6.667-2.985 6.667-6.667s-2.985-6.667-6.667-6.667v0c-3.682 0-6.667 2.985-6.667 6.667s2.985 6.667 6.667 6.667v0zM16 20c-2.209 0-4-1.791-4-4s1.791-4 4-4v0c2.209 0 4 1.791 4 4s-1.791 4-4 4v0z" fill="rgba(16.065,16.065,16.065,1)"></path>
    </g>
  </svg>