<svg xmlns="http://www.w3.org/2000/svg" viewBox="0 0 32 32" width="16" height="16" style="border-color: rgba(187,187,187,1);border-width: 0px;border-style: solid" filter="none">
    
    <g>
    <path d="M6.027 7.912l-4.169-4.168 1.887-1.887 26.399 26.4-1.887 1.885-4.413-4.413c-2.214 1.424-4.918 2.271-7.819 2.271-0.008 0-0.016 0-0.025-0h0.001c-7.189 0-13.171-5.173-14.425-12 0.609-3.221 2.2-5.998 4.444-8.079l0.009-0.009zM19.676 21.563l-1.952-1.952c-0.505 0.247-1.099 0.392-1.726 0.392-2.209 0-4-1.791-4-4 0-0.628 0.145-1.222 0.402-1.75l-0.010 0.024-1.952-1.952c-0.694 1.035-1.107 2.309-1.107 3.679 0 3.682 2.985 6.667 6.667 6.667 1.37 0 2.644-0.413 3.703-1.122l-0.024 0.015zM10.632 5.013c1.663-0.653 3.475-1.013 5.368-1.013 7.189 0 13.171 5.173 14.425 12-0.44 2.338-1.381 4.404-2.709 6.159l0.027-0.037-5.147-5.147c0.046-0.294 0.072-0.634 0.072-0.979 0-3.682-2.985-6.667-6.667-6.667-0.345 0-0.685 0.026-1.016 0.077l0.037-0.005-4.391-4.388z" fill="rgba(16.065,16.065,16.065,1)"></path>
    </g>
  </svg>