<svg id="图层_1" data-name="图层 1" xmlns="http://www.w3.org/2000/svg" viewBox="0 0 18 18"><defs><style>.cls-1{}</style></defs><title>分享-未点击</title><path class="cls-1" d="M1.94,1.82a1.51,1.51,0,0,0-.43.37c-.17.22-.17.39-.2,7,0,7.53,0,7.25.52,7.6.28.16.42.17,4.5.17h4.2L10,16.45a4.19,4.19,0,0,1-.73-4.95A4.9,4.9,0,0,1,12.36,9a5.72,5.72,0,0,1,3.41.48c.14.06.15-.14.15-3.44s0-3.51-.16-3.79c-.34-.63,0-.6-7.15-.6C3.06,1.69,2.17,1.7,1.94,1.82ZM12.56,5.73a.46.46,0,0,1,0,.66c-.12.12-.6.14-4,.14s-3.88,0-4-.15a.43.43,0,0,1,0-.64c.13-.15.37-.16,4-.16S12.41,5.6,12.56,5.73Zm-3.89,4a.5.5,0,0,1,0,.68c-.11.16-.26.16-1.93.19s-1.82,0-2-.16a.41.41,0,0,1-.06-.69c.16-.16.28-.17,2-.17C8.26,9.56,8.53,9.58,8.67,9.71Z"/><path class="cls-1" d="M12.27,10a3.56,3.56,0,0,0-2.33,2.19,2.91,2.91,0,0,0-.15,1.3,3.07,3.07,0,0,0,.89,2.17,3.13,3.13,0,0,0,1.78,1,3.42,3.42,0,0,0,4-2.5,3.38,3.38,0,0,0-.8-3.17,3.45,3.45,0,0,0-3.42-1Zm.44,2,.47.85.48-.87c.47-.85.49-.86.8-.86h.31l-.59,1.05-.6,1.07.5,0c.46,0,.5.06.5.26s0,.22-.54.24-.55.05-.55.19.08.17.55.19.54.05.54.2-.07.17-.54.2l-.55,0v.51c0,.47,0,.52-.2.57s-.4,0-.4-.58v-.51h-.56c-.55,0-.57,0-.57-.22s0-.22.57-.22.56,0,.56-.17-.06-.17-.57-.17h-.57l0-.24c0-.22.05-.24.52-.26l.49,0-.24-.41c-.13-.22-.41-.71-.6-1.08l-.38-.67.33,0C12.23,11.16,12.25,11.19,12.71,12Z"/></svg>
