<svg id="图层_1" data-name="图层 1" xmlns="http://www.w3.org/2000/svg" viewBox="0 0 510.24 510.24"><defs><style>.cls-1{}</style></defs><title>企业设置-正常状态</title><path class="cls-1" d="M310.13,100a69.86,69.86,0,0,1,45-65.2,262,262,0,0,0-28.59-69.08,69.75,69.75,0,0,1-77.9-14.35,69.86,69.86,0,0,1-14.29-77.9,263.22,263.22,0,0,0-69.14-28.59,70,70,0,0,1-65.2,45,69.86,69.86,0,0,1-65.2-45,262,262,0,0,0-69.08,28.59,69.84,69.84,0,0,1-14.29,77.9,70,70,0,0,1-77.9,14.35A260.14,260.14,0,0,0-155.12,34.8a70,70,0,0,1,45,65.2,69.86,69.86,0,0,1-45,65.2,262,262,0,0,0,28.59,69.08,69.75,69.75,0,0,1,77.9,14.35,69.86,69.86,0,0,1,14.29,77.9A263.22,263.22,0,0,0,34.8,355.12a69.74,69.74,0,0,1,130.4,0,262,262,0,0,0,69.08-28.59,69.77,69.77,0,0,1,92.19-92.25,260.14,260.14,0,0,0,28.65-69.08A69.86,69.86,0,0,1,310.13,100ZM100,170a70,70,0,1,1,70-70A70.06,70.06,0,0,1,100,170Z" transform="translate(155.12 155.12)"/></svg>
