<svg id="图层_1" data-name="图层 1" xmlns="http://www.w3.org/2000/svg" viewBox="0 0 150 150"><defs><style></style></defs><title>服务icon</title><path class="cls-1" d="M-95.12-170h-125a12.5,12.5,0,0,0-12.5,12.5v125A12.5,12.5,0,0,0-220.12-20h125a12.5,12.5,0,0,0,12.5-12.5v-125A12.5,12.5,0,0,0-95.12-170Zm-65.77,99.49a21.22,21.22,0,0,1-21.22,21.21,21.22,21.22,0,0,1-21.21-21.21,21.21,21.21,0,0,1,21.21-21.22h21.22Zm0-27.76h-21.23a21.22,21.22,0,0,1-21.21-21.21,21.21,21.21,0,0,1,21.21-21.22h0a21.23,21.23,0,0,1,21.22,21.22Zm27.74,49a21.22,21.22,0,0,1-21.22-21.22V-91.71h21.24a21.22,21.22,0,0,1,21.2,21.22A21.22,21.22,0,0,1-133.14-49.27Zm0-49h-21.22v-21.21a21.22,21.22,0,0,1,21.22-21.22,21.22,21.22,0,0,1,21.22,21.22A21.22,21.22,0,0,1-133.13-98.25Z" transform="translate(232.62 169.98)"/></svg>
