<svg id="图层_1" data-name="图层 1" xmlns="http://www.w3.org/2000/svg" viewBox="0 0 18 18"><defs><style>.cls-1{}</style></defs><title>概况-未点击</title><path class="cls-1" d="M15.22,0H2.78a1,1,0,0,0-1,1V17a1,1,0,0,0,1,1h7.44l1-1,4-4,1-1V1a1,1,0,0,0-1-1Zm-4,15.59V13h2.59ZM11.05,12a.83.83,0,0,0-.83.83V17H2.78V1H15.22V12Z"/><path class="cls-1" d="M13,4.72H5a.5.5,0,0,1,0-1h8a.5.5,0,1,1,0,1Z"/><path class="cls-1" d="M13,7.21H5a.5.5,0,0,1,0-1h8a.5.5,0,0,1,0,1Z"/><path class="cls-1" d="M9,10.23H5a.5.5,0,0,1,0-1H9a.5.5,0,0,1,0,1Z"/></svg>