<svg id="图层_1" data-name="图层 1" xmlns="http://www.w3.org/2000/svg" viewBox="0 0 182.42 147.91"><defs><style>.cls-1{fill:#3d5afe;}</style></defs><title>排序</title><path class="cls-1" d="M119.91,138.75c3.89,0,7,4,7,8.83s-3.15,8.82-7,8.82H17.38c-3.88,0-7-3.94-7-8.82s3.15-8.83,7-8.83Zm22.2,11.09-.07-1.18V19.78a8.83,8.83,0,0,1,17.65,0V127.35l18-18a8.8,8.8,0,0,1,12.46,0h0a8.8,8.8,0,0,1,0,12.46l0,0-33.08,33.1a9.49,9.49,0,0,1-2.29,1.64,9,9,0,0,1-2.36.79l-.73.1-.86,0h-.22a8.8,8.8,0,0,1-1.45-.15l-.32-.07A6.9,6.9,0,0,1,148,157l-.3-.11-.15-.06-.15-.06-.72-.35-.09,0a8.77,8.77,0,0,1-2.88-2.54l-.13-.19a8.65,8.65,0,0,1-1.41-3.37l-.06-.35,0-.12ZM119.92,73c3.89,0,7,4,7,8.82s-3.14,8.83-7,8.83H17.38c-3.88,0-7-4-7-8.83s3.15-8.82,7-8.82H119.92ZM121,9.56c3.88,0,7,3.95,7,8.82s-3.15,8.83-7,8.83H18.5c-3.88,0-7-3.94-7-8.83s3.14-8.82,7-8.82H121Z" transform="translate(-10.36 -9.56)"/></svg>