<svg id="图层_1" data-name="图层 1" xmlns="http://www.w3.org/2000/svg" viewBox="0 0 150 166.67"><defs></defs><title>互查申请-正常状态</title><path class="cls-1" d="M1746-657.59a3.48,3.48,0,0,0-3.48,3.49,3.48,3.48,0,0,0,3.48,3.48,3.48,3.48,0,0,0,3.48-3.48A3.48,3.48,0,0,0,1746-657.59Z" transform="translate(-1671 776.91)"/><path class="cls-1" d="M1768.79-720.4,1750-702.86a10.57,10.57,0,0,0-7.86,0l-12.94-11.7a4.1,4.1,0,0,0-5.83,0,4.12,4.12,0,0,0,0,5.83L1736.33-697a10.5,10.5,0,0,0,2.33,11.33,10.49,10.49,0,0,0,14.84,0,10.51,10.51,0,0,0,2.34-11.29l18.79-17.56a4.13,4.13,0,0,0,0-5.84A4.13,4.13,0,0,0,1768.79-720.4Z" transform="translate(-1671 776.91)"/><path class="cls-1" d="M1706.85-697.09a3.48,3.48,0,0,0-3.48,3.48,3.48,3.48,0,0,0,3.48,3.49,3.49,3.49,0,0,0,3.49-3.49A3.48,3.48,0,0,0,1706.85-697.09Z" transform="translate(-1671 776.91)"/><path class="cls-1" d="M1746-729.24a3.48,3.48,0,0,0,3.48-3.49,3.48,3.48,0,0,0-3.48-3.48,3.48,3.48,0,0,0-3.48,3.48A3.48,3.48,0,0,0,1746-729.24Z" transform="translate(-1671 776.91)"/><path class="cls-1" d="M1785.15-690.1a3.48,3.48,0,0,0,3.48-3.48,3.48,3.48,0,0,0-3.48-3.48,3.48,3.48,0,0,0-3.49,3.48A3.48,3.48,0,0,0,1785.15-690.1Z" transform="translate(-1671 776.91)"/><path class="cls-1" d="M1812.67-776.91H1679.33a8.33,8.33,0,0,0-8.33,8.33v150a8.33,8.33,0,0,0,8.33,8.33h133.34a8.33,8.33,0,0,0,8.33-8.33v-150A8.33,8.33,0,0,0,1812.67-776.91ZM1746-644.8a48.78,48.78,0,0,1-48.78-48.78A48.78,48.78,0,0,1,1746-742.36a48.78,48.78,0,0,1,48.78,48.78A48.78,48.78,0,0,1,1746-644.8Z" transform="translate(-1671 776.91)"/></svg>
