<svg id="图层_1" data-name="图层 1" xmlns="http://www.w3.org/2000/svg" viewBox="0 0 150 166.67"><defs><style></style></defs><title>111111</title><path class="cls-1" d="M308-162.59a3.48,3.48,0,0,0-3.48,3.49,3.48,3.48,0,0,0,3.48,3.48,3.48,3.48,0,0,0,3.48-3.48A3.48,3.48,0,0,0,308-162.59Z" transform="translate(-233 281.91)"/><path class="cls-1" d="M330.79-225.4,312-207.86a10.57,10.57,0,0,0-7.86,0l-12.94-11.7a4.1,4.1,0,0,0-5.83,0,4.12,4.12,0,0,0,0,5.83L298.33-202a10.5,10.5,0,0,0,2.33,11.33,10.49,10.49,0,0,0,14.84,0A10.51,10.51,0,0,0,317.84-202l18.79-17.56a4.13,4.13,0,0,0,0-5.84A4.13,4.13,0,0,0,330.79-225.4Z" transform="translate(-233 281.91)"/><path class="cls-1" d="M268.85-202.09a3.48,3.48,0,0,0-3.48,3.48,3.48,3.48,0,0,0,3.48,3.49,3.49,3.49,0,0,0,3.49-3.49A3.48,3.48,0,0,0,268.85-202.09Z" transform="translate(-233 281.91)"/><path class="cls-1" d="M308-234.24a3.48,3.48,0,0,0,3.48-3.49,3.48,3.48,0,0,0-3.48-3.48,3.48,3.48,0,0,0-3.48,3.48A3.48,3.48,0,0,0,308-234.24Z" transform="translate(-233 281.91)"/><path class="cls-1" d="M347.15-195.1a3.48,3.48,0,0,0,3.48-3.48,3.48,3.48,0,0,0-3.48-3.48,3.48,3.48,0,0,0-3.49,3.48A3.48,3.48,0,0,0,347.15-195.1Z" transform="translate(-233 281.91)"/><path class="cls-1" d="M374.67-281.91H241.33a8.33,8.33,0,0,0-8.33,8.33v150a8.33,8.33,0,0,0,8.33,8.33H374.67a8.33,8.33,0,0,0,8.33-8.33v-150A8.33,8.33,0,0,0,374.67-281.91ZM308-149.8a48.78,48.78,0,0,1-48.78-48.78A48.78,48.78,0,0,1,308-247.36a48.78,48.78,0,0,1,48.78,48.78A48.78,48.78,0,0,1,308-149.8Z" transform="translate(-233 281.91)"/></svg>
