<svg id="图层_1" data-name="图层 1" xmlns="http://www.w3.org/2000/svg" viewBox="0 0 133.16 133.16"><defs><style>.cls-1{}</style></defs><title>查看我发起的或我加入的合约-icon </title><path class="cls-1" d="M-336.32,29.1H-442.55A11.75,11.75,0,0,0-454.3,40.85V150.52a11.75,11.75,0,0,0,11.75,11.75h109.66a11.75,11.75,0,0,0,11.75-11.75V44.28c0-8.38-1-15.18-15.18-15.18ZM-421.4,59.88H-354a4.33,4.33,0,0,1,4.39,6,2.2,2.2,0,0,1-.15.31A4.4,4.4,0,0,1-354,68.42H-421.4a4.29,4.29,0,0,1-3.87-4.67A4.3,4.3,0,0,1-421.4,59.88Zm25.31,78.52h-27.28a.73.73,0,0,1-.49-.19c-3.6-3.4-1.25-7.59,2.08-7.59h25.69Zm0-23.65h-27.28a.69.69,0,0,1-.49-.19c-3.6-3.39-1.25-7.58,2.08-7.58h25.69Zm0-23.6h-27.28a.73.73,0,0,1-.49-.19c-3.6-3.4-1.25-7.59,2.08-7.59h25.69Zm44.59,48.73a3.19,3.19,0,0,1-1.33.3,3.09,3.09,0,0,1-2.77-1.74l-4.44-9.15,5.55-2.69,4.44,9.18a3,3,0,0,1-1.38,4.07l-.07,0ZM-370,124.93c-14.69,0-25.78-15.5-17.68-31.06a16.38,16.38,0,0,1,6.91-6.93c15.52-8.15,31.09,2.88,31.11,17.57v0A20.39,20.39,0,0,1-370,124.93Zm0-35.41c-11.08,0-19.39,11.88-12.89,23.6a11.53,11.53,0,0,0,4.48,4.47c11.72,6.5,23.59-1.81,23.59-12.89h0A15.17,15.17,0,0,0-370,89.52Z" transform="translate(454.3 -29.1)"/></svg>
