<svg id="图层_1" data-name="图层 1" xmlns="http://www.w3.org/2000/svg" viewBox="0 0 133.16 133.16"><defs><style>.cls-1{}</style></defs><title>追踪协作日坠-icon</title><path class="cls-1" d="M-632.79,29.1H-745.12a10.42,10.42,0,0,0-10.42,10.42V151.85a10.41,10.41,0,0,0,10.42,10.42h112.33a10.42,10.42,0,0,0,10.42-10.42V39.52A10.43,10.43,0,0,0-632.79,29.1Zm-95.47,25.73h44.18a4,4,0,0,1,3.94,3.94,4,4,0,0,1-3.94,3.93h-44.18a4,4,0,0,1-3.94-3.93A4,4,0,0,1-728.26,54.83Zm-3.94,17.54a4,4,0,0,1,3.94-3.93h19.49a4,4,0,0,1,3.94,3.93,4,4,0,0,1-3.94,3.94h-19.49A4,4,0,0,1-732.2,72.37Zm38.74,66.44v-17l10.41,6.47Zm31.21-2.33-31.43-20.13L-665.59,86l-33.16,27.73-24.36-14.84L-649.33,70Z" transform="translate(755.54 -29.1)"/></svg>
