<svg id="图层_1" data-name="图层 1" xmlns="http://www.w3.org/2000/svg" viewBox="0 0 133.16 133.16"><defs><style>.cls-1{}</style></defs><title>启用合约</title><path class="cls-1" d="M-224.63,97.54l-32.75,25.16a2.53,2.53,0,0,1-3.6,0,3,3,0,0,1-.69-2.29V71a2.89,2.89,0,0,1,.69-2.29,3.17,3.17,0,0,1,.35-.29,2.49,2.49,0,0,1,1.48-.48,2.52,2.52,0,0,1,1.9.86l32.62,25.07a2.55,2.55,0,0,1,.75,1.85A2.55,2.55,0,0,1-224.63,97.54Z" transform="translate(314.36 -29.1)"/><path class="cls-1" d="M-191.61,29.1H-303.95a10.42,10.42,0,0,0-10.41,10.42V151.85a10.41,10.41,0,0,0,10.41,10.42h112.34a10.41,10.41,0,0,0,10.41-10.42V39.52A10.42,10.42,0,0,0-191.61,29.1Zm-56.17,111.31a44.73,44.73,0,0,1-44.73-44.72A44.73,44.73,0,0,1-247.78,51a44.72,44.72,0,0,1,44.72,44.73A44.72,44.72,0,0,1-247.78,140.41Z" transform="translate(314.36 -29.1)"/></svg>
