<svg id="图层_1" data-name="图层 1" xmlns="http://www.w3.org/2000/svg" viewBox="0 0 11.25 12.5"><defs><style>.cls-1{}</style></defs><title>帮助文档小icon</title><path class="cls-1" d="M11.88,1.87H9.26a1.86,1.86,0,0,0-3.52,0H3.12A1.25,1.25,0,0,0,1.88,3.12v8.75a1.25,1.25,0,0,0,1.24,1.25h8.76a1.25,1.25,0,0,0,1.24-1.25V3.12A1.25,1.25,0,0,0,11.88,1.87Zm-4.38,0a.63.63,0,0,1,.62.63.62.62,0,1,1-1.24,0A.63.63,0,0,1,7.5,1.87Zm1.25,8.75H4.38V9.37H8.75Zm1.87-2.5H4.38V6.87h6.24Zm0-2.5H4.38V4.37h6.24Z" transform="translate(-1.88 -0.62)"/></svg>
