<svg id="图层_1" data-name="图层 1" xmlns="http://www.w3.org/2000/svg" viewBox="0 0 132.67 132.67"><defs><style>.cls-1{}</style></defs><title>其他应用-icon</title><path class="cls-1" d="M63.49-235.18H23a6.32,6.32,0,0,0-6.32,6.32v44.22h0A12.68,12.68,0,0,0,29.32-172H73.54a6.32,6.32,0,0,0,6.32-6.32v-40.49A16.37,16.37,0,0,0,63.49-235.18Zm-13.9,42.3a10.74,10.74,0,0,1-10.71-10.71A10.74,10.74,0,0,1,49.59-214.3,10.74,10.74,0,0,1,60.3-203.59,10.74,10.74,0,0,1,49.59-192.88Z" transform="translate(-16.68 304.67)"/><path class="cls-1" d="M73.54-304.67H29.32A12.67,12.67,0,0,0,16.68-292h0v44.23A6.31,6.31,0,0,0,23-241.5H66.42a13.43,13.43,0,0,0,13.44-13.43v-43.42A6.32,6.32,0,0,0,73.54-304.67ZM60.3-272.86a10.74,10.74,0,0,1-10.71,10.72,10.74,10.74,0,0,1-10.71-10.72h0a10.74,10.74,0,0,1,10.71-10.71A10.74,10.74,0,0,1,60.3-272.86Z" transform="translate(-16.68 304.67)"/><path class="cls-1" d="M143-235.18H101a14.77,14.77,0,0,0-14.77,14.77v42.09A6.31,6.31,0,0,0,92.49-172h44.22a12.68,12.68,0,0,0,12.64-12.64v-44.22A6.32,6.32,0,0,0,143-235.18Zm-24,42.3h0a10.74,10.74,0,0,1-10.71-10.71A10.74,10.74,0,0,1,119-214.3h0a10.74,10.74,0,0,1,10.72,10.71A10.74,10.74,0,0,1,119-192.88Z" transform="translate(-16.68 304.67)"/><path class="cls-1" d="M136.71-304.67H92.49a6.31,6.31,0,0,0-6.31,6.32v43.28A13.56,13.56,0,0,0,99.75-241.5H143a6.31,6.31,0,0,0,6.32-6.31V-292A12.67,12.67,0,0,0,136.71-304.67Zm-7,31.81A10.75,10.75,0,0,1,119-262.14h0a10.74,10.74,0,0,1-10.71-10.72h0A10.74,10.74,0,0,1,119-283.57h0a10.74,10.74,0,0,1,10.72,10.71Z" transform="translate(-16.68 304.67)"/></svg>
