<svg id="图层_1" data-name="图层 1" xmlns="http://www.w3.org/2000/svg" viewBox="0 0 135.3 133.12"><defs><style>.cls-1,.cls-2{}.cls-1{opacity:0.45;isolation:isolate;}</style></defs><title>BI工具-icon</title><path class="cls-1" d="M197.14-72.5H168.77a2.11,2.11,0,0,1-1.28-2.42,1.92,1.92,0,0,1,1.28-1.68h28.37a2.19,2.19,0,0,1,1.23,2.5A1.91,1.91,0,0,1,197.14-72.5Z" transform="translate(-115.3 187.65)"/><path class="cls-2" d="M221.07-54.53H144.82A4.83,4.83,0,0,1,140-59.36a4.85,4.85,0,0,1,4.83-4.83h76.23a4.85,4.85,0,0,1,4.83,4.83A4.83,4.83,0,0,1,221.07-54.53Zm19.86-133.12H125A9.66,9.66,0,0,0,115.3-178v84.41A9.65,9.65,0,0,0,125-83.91h116a9.66,9.66,0,0,0,9.67-9.66V-178a9.67,9.67,0,0,0-9.67-9.67Zm-39.19,36.29a4.85,4.85,0,0,1,4.84-4.83,4.85,4.85,0,0,1,4.83,4.83v26.84a4.85,4.85,0,0,1-4.83,4.84,4.86,4.86,0,0,1-4.84-4.84Zm-13.16-10.73a4.84,4.84,0,0,1,4.83-4.83,4.85,4.85,0,0,1,4.83,4.83v37.6a4.85,4.85,0,0,1-4.83,4.83,4.84,4.84,0,0,1-4.83-4.83ZM175.43-140.6a4.86,4.86,0,0,1,4.84-4.84,4.85,4.85,0,0,1,4.83,4.84v16.11a4.85,4.85,0,0,1-4.83,4.83,4.84,4.84,0,0,1-4.84-4.83Zm-13.15,10.72a4.83,4.83,0,0,1,4.83-4.83,4.85,4.85,0,0,1,4.83,4.83v5.36a4.85,4.85,0,0,1-4.83,4.84,4.84,4.84,0,0,1-4.83-4.84Zm54.5,20.95H154a4.85,4.85,0,0,1-4.83-4.83v-48.33a4.85,4.85,0,0,1,4.83-4.83,4.84,4.84,0,0,1,4.83,4.83v43.5h58a4.83,4.83,0,0,1,4.83,4.83,4.84,4.84,0,0,1-4.83,4.83Z" transform="translate(-115.3 187.65)"/></svg>
