<svg id="图层_1" data-name="图层 1" xmlns="http://www.w3.org/2000/svg" viewBox="0 0 132.33 133.12"><defs><style>.cls-1{}</style></defs><title>数据资产保管箱-icon</title><path class="cls-1" d="M-29.91-226.52h18.39a4.18,4.18,0,0,0,3.8-4.16v-6.5h0A4.17,4.17,0,0,0-11.52-241H-30a4.16,4.16,0,0,0-3.84,4.17v6.42A4.17,4.17,0,0,0-29.91-226.52Zm1.13-7.91a1.57,1.57,0,0,1,1.47-1.49h13.1a1.56,1.56,0,0,1,1.51,1.42v1.7a1.62,1.62,0,0,1-1.44,1.44v-.09H-27.42a1.57,1.57,0,0,1-1.36-1.33Z" transform="translate(119.78 304.9)"/><path class="cls-1" d="M-9.91-212.4H-31.26a2.49,2.49,0,0,0-2.49,2.5l-.06,0a2.5,2.5,0,0,0,2.48,2.51h21.14a2.54,2.54,0,0,0,2.64-2.39A2.52,2.52,0,0,0-9.91-212.4Z" transform="translate(119.78 304.9)"/><path class="cls-1" d="M2.72-275.4H-20.63v-20.12A9.4,9.4,0,0,0-30-304.9H-77.15a9.42,9.42,0,0,0-9.39,9.39v20.12h-23.24a9.64,9.64,0,0,0-10,9.27v85a9.68,9.68,0,0,0,10,9.37H2.61a9.67,9.67,0,0,0,9.94-9.37v-84.74A9.68,9.68,0,0,0,2.72-275.4Zm-81.61-19.36a3.32,3.32,0,0,1,3.31-3.32H-31.7a3.32,3.32,0,0,1,3.31,3.32v19.37h-50.5ZM-66.07-225v6.53H-79.51v4.66h13.39v6.43H-79.51v12.68H-93l-.09-12.81h-13.39v-6.42h13.39v-4.54h-13.39v-6.46H-96l-12.56-25.25h14l4.13,11.07c1.38,3.86,2.76,7.72,4.19,11.47h.4c1.38-3.81,2.82-7.7,4.29-11.47l4-11.14h13.69L-76.57-225ZM1.26-198.52a4.29,4.29,0,0,1-3.81,3.89H-46.31a4.29,4.29,0,0,1-3.81-4V-235.7a4.3,4.3,0,0,1,4-4.28h.4a2.53,2.53,0,0,1,2.51,1.87A2.53,2.53,0,0,1-45-235v33.78a1.67,1.67,0,0,0,1.28,1.35h1.51v-47.91a4.27,4.27,0,0,1,3.93-3.86H-2.94a4.32,4.32,0,0,1,4.2,3.95Z" transform="translate(119.78 304.9)"/><path class="cls-1" d="M-9.86-221.91h-21.4a2.51,2.51,0,0,0-2.55,2.48v0a2.5,2.5,0,0,0,2.48,2.51h21.21a2.52,2.52,0,0,0,2.64-2.38h0A2.53,2.53,0,0,0-9.86-221.91Z" transform="translate(119.78 304.9)"/><path class="cls-1" d="M-34.87-284.66H-72.35a2.12,2.12,0,0,1-1.7-2.45,2.12,2.12,0,0,1,1.7-1.7h37.48a2.12,2.12,0,0,1,1.62,2.52A2.14,2.14,0,0,1-34.87-284.66Z" transform="translate(119.78 304.9)"/></svg>
