<svg id="图层_1" data-name="图层 1" xmlns="http://www.w3.org/2000/svg" viewBox="0 0 147.66 133.39"><defs><style>.cls-1{}</style></defs><title>编辑合约icon</title><path class="cls-1" d="M-25.38,96.58l-70.11,67.48h-65a8.76,8.76,0,0,1-8.61-8.89h0V39.71a8.76,8.76,0,0,1,8.61-8.89H-38.74c10.26-.63,13.36,4.09,13.36,9h0V96.58Zm-99.41-34.67a4.36,4.36,0,0,0-4.44,4.3,4.39,4.39,0,0,0,4.17,4.58h51.91a4.37,4.37,0,0,0,4.44-4.3,4.39,4.39,0,0,0-4.17-4.58h-51.91Zm0,26.65a4.35,4.35,0,0,0-4.44,4.3,4.39,4.39,0,0,0,4.17,4.58h34.69a4.36,4.36,0,0,0,4.44-4.3,4.38,4.38,0,0,0-4.17-4.58,1.22,1.22,0,0,0-.27,0Zm96,25.35,6.08,6.27a4.56,4.56,0,0,1,0,6.29l-30.43,31.4-12.16-12.56,30.42-31.4a4.21,4.21,0,0,1,6.09,0Zm-42.61,50.24,3-15.7L-56.16,161Z" transform="translate(169.09 -30.76)"/></svg>
