<?xml version="1.0" standalone="no"?><!DOCTYPE svg PUBLIC "-//W3C//DTD SVG 1.1//EN" "http://www.w3.org/Graphics/SVG/1.1/DTD/svg11.dtd"><svg t="1700443969920" class="icon" viewBox="0 0 1024 1024" version="1.1" xmlns="http://www.w3.org/2000/svg" p-id="4923" xmlns:xlink="http://www.w3.org/1999/xlink" width="200" height="200"><path d="M683.06624 316.672c13.952 8.576 21.504 20.736 21.12 37.12-0.512 21.504 0 43.2-0.256 64.832-0.064 5.312 1.536 7.04 7.232 6.656 7.936-0.448 16-0.064 24 0 20.928 0.064 38.784 7.488 50.88 23.488 59.136 78.08 113.664 158.72 151.232 248.384 15.232 36.416 24.384 73.856 23.04 113.472 1.536 30.528-0.256 62.08-0.256 93.12 0 37.312-27.392 63.168-67.072 63.232H132.34624c-41.216 0-68.16-25.344-68.16-64 0-28.544-0.384-51.84-0.384-85.568-2.624-42.432 8.256-81.728 25.856-120.192 34.88-76.16 80.32-146.624 127.232-216.32 6.4-9.6 12.928-19.008 19.712-28.352 13.184-18.048 31.36-27.328 54.848-27.328 9.216-0.064 21.44 2.752 26.88-1.664 5.632-4.544 1.6-16.448 1.728-25.152 0.192-13.44 0-26.944 0-40.448 0-25.728 12.16-41.6 38.336-49.344 21.952-6.528 43.456-5.312 63.744 5.12 17.024 8.832 26.624 22.016 26.048 41.152-0.512 20.352 0.192 40.768-0.192 61.12-0.192 6.848 1.024 9.6 9.408 9.408a4004.096 4004.096 0 0 1 109.888 0c8.064 0.064 9.088-2.496 8.96-8.96-0.448-19.456-0.256-38.848-0.192-58.24 0.064-26.432 11.968-41.792 39.104-49.728 23.872-6.976 46.784-4.8 67.84 8.192zM515.13024 545.6c-107.776-0.64-194.56 79.488-195.008 180.288-0.448 98.624 85.568 180.288 190.464 180.864 106.24 0.64 192.896-80 193.472-179.84 0.64-98.432-85.12-180.608-188.928-181.312z m-2.56 60.16c69.696 0 127.488 53.952 127.488 119.296 0 67.648-56.768 121.472-128.256 121.536-70.144 0-127.744-54.272-127.616-120.32 0.064-66.816 57.152-120.384 128.32-120.512zM511.86624 64c80.128 0.32 159.616 5.888 237.632 24.448 92.928 22.144 170.56 68.544 237.952 131.392 25.152 23.424 37.376 51.84 36.48 85.376-0.512 19.712 0.064 39.488-0.128 59.264-0.384 35.84-26.88 60.672-64.96 60.8-41.664 0.064-83.264 0.128-124.928 0-33.92-0.064-63.552-25.728-63.808-56.704-0.576-74.432-42.88-122.752-109.504-155.2-37.248-18.176-78.08-24.448-119.616-25.984-51.84-1.92-103.232-0.448-152.896 16.128-46.336 15.488-83.52 42.048-109.504 81.792-14.848 22.656-22.4 47.232-22.528 73.856-0.256 41.792-26.624 66.176-71.232 66.048H68.98624C26.93824 425.216 0.25024 400.064 0.25024 360.768 0.18624 341.632 0.44224 322.56 0.05824 303.424a104.96 104.96 0 0 1 33.728-80.768c71.552-68.672 155.52-116.608 256-137.92 73.216-15.488 147.392-20.608 222.08-20.736z" fill="var(--el-color-primary)" p-id="4924"></path></svg>