<svg id="图层_1" data-name="图层 1" xmlns="http://www.w3.org/2000/svg" viewBox="0 0 150 150"><defs><style></style></defs><title>伙伴icon</title><path class="cls-1" d="M204.84-194.22h-125a12.5,12.5,0,0,0-12.5,12.5v125a12.5,12.5,0,0,0,12.5,12.5h125a12.5,12.5,0,0,0,12.5-12.5v-125A12.5,12.5,0,0,0,204.84-194.22ZM166.77-156.7a13.38,13.38,0,0,1,13.38,13.37,13.38,13.38,0,0,1-13.38,13.39A13.26,13.26,0,0,1,161.5-131a21.37,21.37,0,0,0,2.26-9.53,21.37,21.37,0,0,0-4.83-13.56A13.25,13.25,0,0,1,166.77-156.7Zm-24.51-1.45a17.58,17.58,0,0,1,17.59,17.59A17.58,17.58,0,0,1,142.26-123a17.58,17.58,0,0,1-17.59-17.59A17.6,17.6,0,0,1,142.26-158.15Zm-24.48,1.44a13.25,13.25,0,0,1,7.83,2.57,21.38,21.38,0,0,0-4.84,13.58A21.29,21.29,0,0,0,123-131a13.26,13.26,0,0,1-5.24,1.06,13.37,13.37,0,0,1-13.38-13.38A13.39,13.39,0,0,1,117.78-156.71ZM100.61-97.48a2.64,2.64,0,0,1-2.68-3.45,10,10,0,0,1,.28-1.29c1.2-5.14,4.06-15.37,5.91-18,3.46-5,9.5-4.76,9.5-4.76h6.49s8.17-.24,11,5l.27.39a18.2,18.2,0,0,0-10.33,7.15c-1.9,2.74-4.06,9.28-5.71,15ZM165-80.29H119.69a3.48,3.48,0,0,1-3.54-4.54s.1-.64.37-1.7c1.59-6.75,5.36-20.2,7.78-23.69,4.55-6.54,12.49-6.26,12.49-6.26h8.52s10.75-.32,14.52,6.58c2.78,3.53,7.07,18,8.49,24.13l.19,1h0A3.43,3.43,0,0,1,165-80.29Zm19.07-17.19h-15c-1.75-5.61-4-11.77-6-14.56-2.46-4.26-6.7-6.34-10.49-7.37a7.52,7.52,0,0,1,.49-.84c3.46-5,9.5-4.76,9.5-4.76h6.49s8.17-.24,11,5c2.12,2.68,5.38,13.7,6.46,18.35l.14.73A2.61,2.61,0,0,1,184.09-97.48Z" transform="translate(-67.34 194.22)"/></svg>
