<svg xmlns="http://www.w3.org/2000/svg" viewBox="0 0 1024 1024" width="18" height="18" style="border-color: rgba(187,187,187,1);border-width: 0px;border-style: solid" filter="none">
    <path d="M512.003 0.347C229.42 0.347 0.347 229.42 0.347 512.003c0 282.576 229.073 511.65 511.656 511.65 282.577 0 511.65-229.074 511.65-511.65C1023.653 229.42 794.58 0.347 512.003 0.347zM444.47 766.41c-51.512 51.508-135.328 51.508-186.875-0.04-51.52-51.512-51.52-135.332 0-186.841l132.37-132.376c51.515-51.508 135.334-51.508 186.882 0.04 1.39 1.39 2.732 2.815 4.05 4.255a31.6 31.6 0 0 1 7.426 8.866c0.171 0.215 0.347 0.429 0.513 0.649-0.034 0.03-0.068 0.063-0.097 0.087 6.338 11.96 4.47 27.13-5.597 37.197-10.144 10.149-25.462 11.96-37.464 5.445-0.83 0.883-9.135-7.382-13.54-11.794l-0.035-0.035c-26.906-26.905-70.308-27.118-97.214-0.219l-132.582 132.59c-26.906 26.906-26.906 70.523 0 97.424l0.035 0.04c26.9 26.9 70.523 26.9 97.429 0l79.814-79.82c27.706 13.6 60.282 14.038 88.236 1.182L444.47 766.41z m321.94-321.94L634.04 576.847c-51.513 51.512-135.329 51.512-186.882-0.04a136.154 136.154 0 0 1-4.054-4.255 31.582 31.582 0 0 1-2.235-2.04 31.428 31.428 0 0 1-5.191-6.82c-0.16-0.22-0.341-0.435-0.503-0.654 0.024-0.024 0.059-0.058 0.092-0.087-6.338-11.96-4.475-27.13 5.602-37.197 10.144-10.144 25.462-11.954 37.456-5.445 0.838-0.883 9.134 7.387 13.54 11.794l0.04 0.035c26.905 26.905 70.302 27.125 97.208 0.22L721.7 399.77c26.906-26.906 26.906-70.528 0-97.429l-0.03-0.035c-26.905-26.906-70.523-26.906-97.429 0l-79.823 79.815c-27.619-13.51-60.282-14.033-88.231-1.18L579.53 257.595c51.512-51.512 135.328-51.512 186.881 0.04 51.512 51.506 51.512 135.326-0.002 186.834z m0 0" stroke="none"></path>
  </svg>
