<svg xmlns="http://www.w3.org/2000/svg" viewBox="0 0 1024 1024" width="20" height="20" style="border-color: rgba(187,187,187,1);border-width: 0px;border-style: solid" filter="none">
    <path d="M509.885338 65.008596c-247.671823 0-448.444499 200.76449-448.444499 448.444499 0 247.664659 200.773699 448.444499 448.444499 448.444499 247.663636 0 448.443475-200.779839 448.443475-448.444499C958.329836 265.773086 757.549997 65.008596 509.885338 65.008596zM791.183002 586.835406c-34.098609 0-62.426795-24.641213-68.207451-57.074903l-115.981525 0c-5.564739 46.503127-42.445718 83.391269-88.954985 88.956008l0 107.825774c32.438806 5.77861 57.07388 34.101679 57.07388 68.208475 0 38.267559-31.029714 69.304436-69.305459 69.304436-38.275745 0-69.305459-31.036877-69.305459-69.304436 0-34.107819 24.636097-62.430888 57.074903-68.208475l0-107.825774c-46.508243-5.564739-83.391269-42.451858-88.954985-88.956008L296.795125 529.760502c-5.780657 32.43369-34.107819 57.074903-68.206428 57.074903-38.275745 0-69.305459-31.0379-69.305459-69.306482 0-38.281885 31.029714-69.304436 69.305459-69.304436 34.100656 0 62.428841 24.63098 68.207451 57.074903l107.826797 0c5.562692-46.514383 42.445718-83.393315 88.956008-88.956008L493.578953 300.362882c-32.43983-5.780657-57.074903-34.113959-57.074903-68.206428 0-38.282908 31.029714-69.305459 69.305459-69.305459 38.274722 0 69.305459 31.022551 69.305459 69.305459 0 34.092469-24.635073 62.425771-57.07388 68.206428l0 115.980501c46.509267 5.562692 83.392292 42.441625 88.956008 88.956008l115.979478 0c5.77861-32.443923 34.107819-57.074903 68.208475-57.074903 38.273698 0 69.304436 31.022551 69.304436 69.304436C860.487438 555.797505 829.4567 586.835406 791.183002 586.835406z"></path>
  </svg>
