<svg id="图层_1" data-name="图层 1" xmlns="http://www.w3.org/2000/svg" viewBox="0 0 150 150"><defs><style></style></defs><title>接单icon</title><path class="cls-1" d="M-51-12.76H-6.24a3.45,3.45,0,0,0,3.45-3.45,3.44,3.44,0,0,0-3.45-3.44H-51a3.45,3.45,0,0,0-3.45,3.44A3.46,3.46,0,0,0-51-12.76Z" transform="translate(103.62 60.21)"/><path class="cls-1" d="M-6.24-5.88H-51a3.44,3.44,0,0,0-3.44,3.45A3.44,3.44,0,0,0-51,1H-6.24A3.44,3.44,0,0,0-2.79-2.43,3.45,3.45,0,0,0-6.24-5.88Z" transform="translate(103.62 60.21)"/><path class="cls-1" d="M-13.12,11.34A3.45,3.45,0,0,0-16.57,7.9H-51a3.43,3.43,0,0,0-3.44,3.44A3.45,3.45,0,0,0-51,14.79h34.43A3.45,3.45,0,0,0-13.12,11.34Z" transform="translate(103.62 60.21)"/><path class="cls-1" d="M-24.72,27.46c0-1.9-1.11-3.44-2.48-3.44H-52c-1.37,0-2.48,1.55-2.47,3.45s1.1,3.44,2.47,3.44H-27.2C-25.83,30.91-24.72,29.37-24.72,27.46Z" transform="translate(103.62 60.21)"/><path class="cls-1" d="M-32.08,43.61c0-1.9-.83-3.44-1.86-3.45H-52.58c-1,0-1.87,1.55-1.86,3.45s.83,3.44,1.86,3.44h18.64C-32.91,47.05-32.08,45.51-32.08,43.61Z" transform="translate(103.62 60.21)"/><path class="cls-1" d="M-8,28.56a15.49,15.49,0,0,0-15.49,15.5A15.48,15.48,0,0,0-8,59.55,15.49,15.49,0,0,0,7.54,44.06,15.5,15.5,0,0,0-8,28.56Zm7.3,13.78L-8,49.64a1.73,1.73,0,0,1-2.42,0l-4.88-4.86a1.72,1.72,0,0,1,0-2.43h0a1.72,1.72,0,0,1,2.43,0L-9.17,46l6.09-6.08a1.71,1.71,0,0,1,2.42,0A1.72,1.72,0,0,1-.66,42.34Z" transform="translate(103.62 60.21)"/><path class="cls-1" d="M33.88-60.21h-125a12.5,12.5,0,0,0-12.5,12.5v125a12.5,12.5,0,0,0,12.5,12.5h125a12.5,12.5,0,0,0,12.5-12.5v-125A12.5,12.5,0,0,0,33.88-60.21ZM11,56.11A6.89,6.89,0,0,1,4.1,63H-61.33a6.89,6.89,0,0,1-6.89-6.89V-26.54a6.89,6.89,0,0,1,6.89-6.89H4.1A6.89,6.89,0,0,1,11-26.54Z" transform="translate(103.62 60.21)"/></svg>
