<svg xmlns="http://www.w3.org/2000/svg" viewBox="0 0 1024 1024" width="20" height="20" style="fill: rgba(255, 255, 255, 1);border-color: rgba(187,187,187,1);border-width: 0px;border-style: solid" filter="none"><path d="M707.173225 201.323353c-21.811069-12.595124-44.953329-22.425465-68.914785-29.286224-10.444737-3.174381-21.094273-5.631966-31.846208-7.270356-9.113545-0.819195-17.305496 6.143963-18.431889 15.769505-1.228793 9.625542 4.91517 18.636688 13.926316 20.377477 5.222369 0.716796 14.847911 2.764783 27.340635 6.348762 20.991874 6.041564 41.881348 14.643112 61.337231 26.009443C767.79366 278.532488 799.025472 352.567242 759.908908 468.995341c-3.174381 9.523143 1.433591 19.96788 10.444737 23.34706 8.908746 3.37918 18.739087-1.535991 22.015867-11.059134 45.055729-134.245592 6.143963-226.405037-85.196287-279.959914zM518.143963 310.685894c3.071982 0 8.908746 0.409598 16.793499 1.843189 13.31192 2.252786 26.214242 6.65596 38.297369 12.902322 43.007741 22.835063 63.282819 67.481194 48.537308 146.123921-1.228793 6.451161 0.921594 13.004722 5.529567 17.305496 4.607972 4.300774 11.059133 5.631966 16.895898 3.583978 5.836765-2.047988 10.137539-7.372756 11.366332-13.721517 17.817493-94.71943-9.830341-155.749462-66.866798-185.957281-21.811069-11.775929-45.874924-18.124691-70.348376-18.534288-9.523143 0-17.203096 8.191951-17.203097 18.22709-0.204799 10.03514 7.475155 18.22709 16.998298 18.22709z m43.622137 354.097068c-10.444737 3.891177-20.787075 9.011146-32.870202 15.974304-5.631966 3.27678-23.654258 14.233514-28.467028 17.203097-0.204799 0.204799-0.614396 0.409598-1.126394 0.716795-0.409598 0.204799 0.102399-0.102399 1.126394-0.716795 0.511997-0.409598 0-0.819195-2.457586-2.150387-8.191951-4.403173-19.148685-14.233514-31.743808-28.876626-24.473453-28.467029-52.530884-72.191565-83.045901-127.589632-30.515016-55.295667-52.530884-102.706582-63.897215-139.160763-5.836765-18.739087-8.396749-33.586998-7.987152-43.314939 0.102399-2.969582 0-3.481579-0.614396-3.27678-0.409598 0.307198-0.819195 0.511997-1.023994 0.614396 0.409598-0.307198 0.819195-0.511997 1.023994-0.614396 4.505573-2.662384 18.739087-11.161533 23.142261-13.926316 80.281117-49.254103 97.791411-108.440947 46.48932-230.705811C346.112999 27.449199 295.732502-6.137799 234.60007 6.866923c-25.087849 5.324768-46.796518 16.281502-79.66672 37.170976L141.314232 52.844246c-5.01757 3.174381-8.806347 5.631966-12.390326 7.782354-105.983362 64.204413-80.383516 335.665179 62.361225 594.940418S545.484598 1073.970899 651.46796 1009.664086c5.939164-3.583978 29.593422-17.100697 33.177401-19.251084 97.177015-57.036457 127.384833-126.053641 52.428484-233.470594-61.030033-87.346674-114.072913-114.789709-175.307745-92.159446zM781.822376 60.5242c-37.887772-22.425465-78.540327-39.116565-120.728874-49.8685-13.20952-3.37918-26.419041-6.246362-39.83336-8.396749-5.222369-0.921594-10.444737-1.535991-15.667105-2.150387-6.246362-0.716796-12.390325 2.150387-15.974304 7.577554-3.583978 5.427167-4.198375 12.492725-1.433592 18.534289 2.764783 6.041564 8.29435 9.93274 14.540713 10.342337 2.252786 0.204799 6.860759 0.716796 13.414319 1.843189 11.059133 1.74079 23.449459 4.300774 36.863778 7.782353C691.198921 56.018627 729.393891 71.071337 764.926477 92.370408c126.872836 75.877943 188.107668 207.973148 149.093503 415.741498-1.433591 6.451161 0.511997 13.31192 5.222368 17.817492 4.710372 4.505573 11.263932 5.836765 17.203097 3.686378 5.939164-2.252786 10.239938-7.679954 11.263932-14.233514 42.188546-223.845052-26.419041-371.402564-165.887001-454.858062z" fill="#5D5D5D"></path></svg>