<svg xmlns="http://www.w3.org/2000/svg" viewBox="0 0 1024 1024" width="20" height="20" style="fill: rgba(255, 255, 255, 1);border-color: rgba(187,187,187,1);border-width: 0px;border-style: solid" filter="none"><path d="M512.512 436.224c-28.16 0-50.688 22.528-50.688 50.688s22.528 50.688 50.688 50.688c27.648 0 50.688-22.528 50.688-50.688s-22.528-50.688-50.688-50.688z"></path><path d="M511.488 0C228.864 0 0 228.864 0 511.488c0 145.408 60.416 276.48 158.208 369.664v-257.536C158.208 585.728 179.2 552.448 209.92 535.552c4.096-3.072 9.728-5.12 15.36-5.12 6.656 0 12.288 2.56 16.896 6.656l1.536 1.536 217.6 217.6c13.824 13.824 32.256 20.992 50.176 20.48 18.432 0 36.352-6.656 50.176-20.48l217.6-217.6 1.536-1.536c4.608-4.096 10.24-6.656 16.896-6.656 5.632 0 10.752 2.048 15.36 5.12 30.72 17.408 51.712 50.176 52.224 88.064v257.536c97.28-93.184 158.208-224.256 158.208-369.664-0.512-282.624-229.376-511.488-512-511.488zM689.664 583.168c-11.776 24.064-36.352 40.96-65.536 40.96-31.232 0-57.856-18.944-69.632-45.568-12.8 5.632-27.136 9.216-41.984 9.216-55.808 0-100.864-45.056-100.864-100.864 0-55.808 45.056-100.864 100.864-100.864 19.456 0 37.376 5.632 52.736 14.848 4.096-8.704 12.8-14.848 23.04-14.848 13.824 0 25.088 11.264 25.088 25.088v75.776c0 17.408-4.096 33.28-11.776 47.616-1.536 3.584-2.56 7.168-2.56 11.264 0 13.824 11.264 25.088 25.088 25.088 9.728 0 17.92-5.12 22.016-12.8 11.264-20.992 17.408-45.568 17.408-71.168 0-83.456-67.584-151.552-151.552-151.552h-10.752H496.64c-1.024 0-1.536 0-2.56 0.512h-1.024c-1.024 0-1.536 0-2.56 0.512h-1.024c-1.024 0-1.536 0.512-2.56 0.512h-1.536c-1.024 0-1.536 0.512-2.56 0.512-0.512 0-1.024 0-1.536 0.512-0.512 0-1.536 0.512-2.048 0.512-0.512 0-1.024 0-1.536 0.512-1.024 0-1.536 0.512-2.048 0.512-0.512 0-1.024 0-1.536 0.512-0.512 0-1.536 0.512-2.048 0.512-0.512 0-1.024 0.512-1.536 0.512-0.512 0-1.536 0.512-2.048 0.512-0.512 0-1.024 0.512-1.536 0.512-0.512 0-1.536 0.512-2.048 0.512-0.512 0-1.024 0.512-1.536 0.512-0.512 0-1.536 0.512-2.048 0.512-0.512 0-1.024 0.512-1.536 0.512-0.512 0-1.536 0.512-2.048 0.512-0.512 0-1.024 0.512-1.536 0.512-0.512 0.512-1.536 0.512-2.048 1.024-0.512 0-1.024 0.512-1.536 0.512-0.512 0.512-1.536 0.512-2.048 1.024-0.512 0-1.024 0.512-1.536 0.512-0.512 0-1.536 0.512-2.048 1.024-0.512 0.512-1.024 0.512-1.536 0.512-0.512 0.512-1.024 0.512-2.048 1.024-0.512 0-1.024 0.512-1.536 0.512-0.512 0.512-1.024 0.512-2.048 1.024-0.512 0-1.024 0.512-1.536 0.512-0.512 0.512-1.024 0.512-2.048 1.024-0.512 0.512-1.024 0.512-1.536 1.024-0.512 0.512-1.024 0.512-1.536 1.024-0.512 0.512-1.024 0.512-1.536 1.024-0.512 0.512-1.024 0.512-1.536 1.024-0.512 0-1.024 0.512-1.536 1.024-0.512 0.512-1.024 0.512-1.536 1.024-0.512 0.512-1.024 0.512-1.536 1.024-0.512 0.512-1.024 0.512-1.536 1.024-0.512 0.512-1.024 0.512-1.536 1.024-0.512 0.512-1.024 0.512-1.536 1.024-0.512 0.512-1.024 0.512-1.536 1.024-0.512 0.512-1.024 1.024-1.536 1.024-0.512 0.512-1.024 0.512-1.024 1.024-0.512 0.512-1.024 1.024-1.536 1.024-0.512 0.512-1.024 0.512-1.024 1.024-0.512 0.512-1.024 1.024-1.536 1.024-0.512 0.512-1.024 0.512-1.024 1.024l-1.536 1.536-1.024 1.024-1.536 1.536-1.024 1.024-1.536 1.536c0 0.512-0.512 0.512-1.024 1.024l-3.072 3.072-1.024 1.024-1.536 1.536c-0.512 0.512-0.512 1.024-1.024 1.024-0.512 0.512-1.024 1.024-1.024 1.536-0.512 0.512-1.024 1.024-1.024 1.536-0.512 0.512-0.512 1.024-1.024 1.536-0.512 0.512-0.512 1.024-1.024 1.536-0.512 0.512-0.512 1.024-1.024 1.536-0.512 0.512-0.512 1.024-1.024 1.536-0.512 0.512-0.512 1.024-1.024 1.536-0.512 0.512-0.512 1.024-1.024 1.536-0.512 0.512-0.512 1.024-1.024 1.536-0.512 0.512-0.512 1.024-1.024 1.536-0.512 0.512-0.512 1.024-1.024 1.536-0.512 0.512-0.512 1.024-1.024 1.536-0.512 0.512-0.512 1.024-1.024 1.536-0.512 0.512-0.512 1.024-1.024 1.536-0.512 0.512-0.512 1.024-1.024 1.536-0.512 0.512-0.512 1.024-1.024 1.536-0.512 0.512-0.512 1.024-1.024 1.536-0.512 0.512-0.512 1.024-1.024 1.536-0.512 0.512-0.512 1.024-1.024 1.536-0.512 0.512-0.512 1.024-1.024 1.536 2.048-2.048 2.048-1.536 1.536-1.024-0.512 0.512-0.512 1.024-1.024 1.536-0.512 0.512-0.512 1.024-1.024 1.536 0 0.512-0.512 1.024-1.024 1.536 0 0.512-0.512 1.024-0.512 1.536-0.512 0.512-0.512 1.024-1.024 1.536 0 0.512-0.512 1.024-0.512 1.536 0 0.512-0.512 1.024-0.512 1.536-0.512 0.512-0.512 1.024-0.512 1.536 0 0.512-0.512 1.024-0.512 1.536 0 0.512-0.512 1.024-0.512 1.536-0.512 0.512-0.512 1.024-0.512 2.048 0 0.512-0.512 1.024-0.512 1.536 0 0.512-0.512 1.024-0.512 2.048 0 0.512-0.512 1.024-0.512 1.536 0 0.512-0.512 1.024-0.512 2.048 0 0.512-0.512 1.024-0.512 1.536 0 0.512-0.512 1.024-0.512 2.048 0 0.512-0.512 1.024-0.512 1.536 0 0.512-0.512 1.536-0.512 2.048 0 0.512-0.512 1.024-0.512 1.536 0 0.512-0.512 1.536-0.512 2.048s-0.512 1.024-0.512 1.536c0 0.512-0.512 1.536-0.512 2.048 0 0.512-0.512 1.024-0.512 1.536 0 0.512-0.512 1.536-0.512 2.048 0 0.512 0 1.024-0.512 1.536 0 0.512 0 1.536-0.512 2.048 0 0.512 0 1.024-0.512 1.536 0 0.512 0 1.536-0.512 2.048V504.832c0 0.512 0 1.536 0.512 2.048v1.536c0 0.512 0 1.536 0.512 2.048 0 0.512 0 1.024 0.512 1.536 0 0.512 0 1.536 0.512 2.048 0 0.512 0 1.024 0.512 1.536 0 0.512 0.512 1.536 0.512 2.048 0 1.024 0.512 2.048 0.512 3.072 0 0.512 0.512 1.024 0.512 1.536 0 0.512 0.512 1.024 0.512 2.048 0 0.512 0.512 1.024 0.512 1.536 0 0.512 0.512 1.536 0.512 2.048 0 0.512 0.512 1.024 0.512 1.536 0 0.512 0.512 1.536 0.512 2.048 0 0.512 0.512 1.024 0.512 1.536 0 0.512 0.512 1.536 0.512 2.048 0 0.512 0.512 1.024 0.512 1.024 0 0.512 0.512 1.536 0.512 2.048 0 0.512 0.512 0.512 0.512 1.024 0.512 0.512 0.512 1.536 1.024 2.048 0 0 0 0.512 0.512 1.024 0.512 1.024 0.512 1.536 1.024 2.56v0.512c2.048 4.608 4.096 9.728 6.656 13.824 0.512 1.024 1.024 1.536 1.536 2.56v0.512c0.512 1.024 1.024 1.536 1.536 2.56v0.512c0.512 1.024 1.024 1.536 1.536 2.56 3.584 5.632 7.168 10.752 11.264 15.36 26.112 31.744 65.536 52.736 109.568 55.296h7.68c13.824 0 25.088 11.264 25.088 25.088s-11.264 25.088-25.088 25.088c-76.288 0-142.848-42.496-177.152-104.448-0.512-1.024-1.024-2.56-2.048-3.584 0 0 0-0.512-0.512-0.512l-1.536-3.072c0-0.512-0.512-0.512-0.512-1.024l-1.536-3.072c0-0.512-0.512-0.512-0.512-1.024l-1.536-3.072s-0.512-0.512-0.512-1.024c-0.512-1.024-1.024-2.048-1.536-3.584-1.536-3.584-3.072-7.168-4.096-10.752 0-0.512-0.512-1.024-0.512-1.536-0.512-1.024-0.512-2.048-1.024-2.56 0-0.512-0.512-1.024-0.512-1.536-0.512-1.024-0.512-1.536-1.024-2.56 0-0.512-0.512-1.536-0.512-2.048 0-1.024-0.512-1.536-0.512-2.56 0-0.512-0.512-1.536-0.512-2.048 0-1.024-0.512-1.536-0.512-2.56 0-0.512-0.512-1.536-0.512-2.048 0-1.024-0.512-1.536-0.512-2.56s-0.512-1.536-0.512-2.56c0-0.512-0.512-1.536-0.512-2.048-0.512-1.536-0.512-3.072-1.024-4.608 0-0.512 0-1.024-0.512-1.536 0-1.024-0.512-2.048-0.512-3.072 0-0.512 0-1.536-0.512-2.048 0-1.024-0.512-2.048-0.512-3.072 0-0.512 0-1.536-0.512-2.048 0-1.024 0-2.048-0.512-2.56v-2.048-3.072-2.048-3.072-2.048-3.072-1.536-5.12-5.12-1.536-3.584-2.048-3.072-2.048-3.072c0-1.024 0-1.536 0.512-2.56 0-1.024 0-2.048 0.512-2.56 0-0.512 0-1.536 0.512-2.56 0-1.024 0.512-1.536 0.512-2.56s0.512-1.536 0.512-2.56 0.512-1.536 0.512-2.56 0.512-1.536 0.512-2.56 0.512-1.536 0.512-2.56 0.512-1.536 0.512-2.56 0.512-1.536 0.512-2.56 0.512-1.536 0.512-2.56c0-0.512 0.512-1.536 0.512-2.56s0.512-1.536 0.512-2.56 0.512-1.536 0.512-2.56 0.512-1.536 0.512-2.56c0.512-0.512 0.512-1.536 0.512-2.048 0.512-1.024 0.512-1.536 1.024-2.56 0-0.512 0.512-1.536 0.512-2.048 0-1.024 0.512-1.536 1.024-2.56 0-0.512 0.512-1.536 0.512-2.048 0.512-1.024 0.512-1.536 1.024-2.56 0.512-0.512 0.512-1.536 1.024-2.048 0.512-1.024 0.512-1.536 1.024-2.56 0-0.512 0.512-1.536 1.024-2.048 0.512-1.024 0.512-1.536 1.024-2.56 0.512-0.512 0.512-1.536 1.024-2.048 0.512-1.024 0.512-1.536 1.024-2.56 0.512-0.512 0.512-1.536 1.024-2.048 0.512-1.024 1.024-1.536 1.024-2.56 0.512-0.512 0.512-1.024 1.024-2.048s1.024-1.536 1.536-2.56c0.512-0.512 0.512-1.024 1.024-1.536 0.512-1.024 1.024-1.536 1.536-2.56 0.512-0.512 0.512-1.024 1.024-1.536 0.512-1.024 1.024-1.536 1.536-2.56 0.512-0.512 0.512-1.024 1.024-1.536 0.512-1.024 1.024-1.536 1.536-2.56 0.512-0.512 0.512-1.024 1.024-1.536 0.512-1.024 1.024-1.536 1.536-2.56 0.512-0.512 0.512-1.024 1.024-1.536 0.512-1.024 1.024-1.536 1.536-2.56 0.512-0.512 0.512-1.024 1.024-1.536 0.512-1.024 1.024-2.048 2.048-2.56 0.512-0.512 0.512-1.024 1.024-1.536 0.512-1.024 1.536-1.536 2.048-2.56 0.512-0.512 0.512-1.024 1.024-1.024 0.512-1.024 1.536-1.536 2.048-2.56l1.024-1.024c1.024-1.024 1.536-1.536 2.048-2.56l1.024-1.024c1.024-1.024 1.536-2.048 2.56-2.56 0 0 0.512-0.512 0.512-1.024 1.024-1.024 1.536-2.048 2.56-2.56 0.512 0 0.512-0.512 0.512-0.512 1.024-1.024 1.536-2.048 2.56-3.072l0.512-0.512 3.072-3.072 0.512-0.512 3.072-3.072 0.512-0.512 3.072-3.072c35.84-32.256 82.944-51.712 135.168-51.712 111.616 0 202.24 90.624 202.24 202.24-2.048 38.4-11.264 71.168-26.624 99.84z"></path></svg>