<svg id="图层_1" data-name="图层 1" xmlns="http://www.w3.org/2000/svg" viewBox="0 0 150 150"><defs><style></style></defs><title>跨境icon</title><path class="cls-1" d="M-181.84-9.15a70.6,70.6,0,0,1-.66-9.34,76.2,76.2,0,0,1,.63-9.35l.07-.59h-16.89l-.1.39A38.53,38.53,0,0,0-200-18.49a38.39,38.39,0,0,0,1.24,9.54l.1.4h16.92Z" transform="translate(235.62 93.49)"/><path class="cls-1" d="M-143.68-37.18l.1.4h15.21l-.46-.8a38.24,38.24,0,0,0-20.66-17l-1.29-.44.65,1.2A74.68,74.68,0,0,1-143.68-37.18Z" transform="translate(235.62 93.49)"/><path class="cls-1" d="M-152.36-37.46a65.56,65.56,0,0,0-9.06-18.82l-.43-.62-.44.62a65.56,65.56,0,0,0-9.06,18.82l-.2.68h19.39Z" transform="translate(235.62 93.49)"/><path class="cls-1" d="M-180,.2l-.1-.4h-15.21l.46.8a38.3,38.3,0,0,0,20.66,17l1.28.44-.64-1.19A75.4,75.4,0,0,1-180,.2Z" transform="translate(235.62 93.49)"/><path class="cls-1" d="M-180-37.18a75.4,75.4,0,0,1,6.45-16.66L-173-55l-1.28.44a38.21,38.21,0,0,0-20.66,17l-.46.8h15.21Z" transform="translate(235.62 93.49)"/><path class="cls-1" d="M-98.12-93.49h-125A12.5,12.5,0,0,0-235.62-81V44a12.5,12.5,0,0,0,12.5,12.5h125A12.5,12.5,0,0,0-85.62,44V-81A12.5,12.5,0,0,0-98.12-93.49ZM-161.88,28a46.18,46.18,0,0,1-32.89-13.63,46.22,46.22,0,0,1-13.61-32.9A46.26,46.26,0,0,1-194.77-51.4,46.21,46.21,0,0,1-161.88-65,46.41,46.41,0,0,1-130.21-52.6a46.36,46.36,0,0,1,14.59,28.87,29.72,29.72,0,0,0-21.07-8.78,29.65,29.65,0,0,0-15,4.08h-21.6l-.07.45a64.77,64.77,0,0,0-.76,9.49A64.88,64.88,0,0,0-173.39-9l.07.45h7.49a29.75,29.75,0,0,0-.55,5.73c0,.87,0,1.74.11,2.62h-5.28l.2.69a66.78,66.78,0,0,0,9.06,18.8l.44.63.43-.63c.69-1,1.35-2,2-3a29.45,29.45,0,0,0,13.27,9.07A46.39,46.39,0,0,1-161.88,28Zm25.19-7A23.83,23.83,0,0,1-160.53-2.82a23.84,23.84,0,0,1,23.84-23.84A23.83,23.83,0,0,1-112.86-2.82,23.82,23.82,0,0,1-136.69,21Z" transform="translate(235.62 93.49)"/><path class="cls-1" d="M-125.28.73a2.28,2.28,0,0,0,1.65-.8,2.93,2.93,0,0,0,.69-1.75,2.62,2.62,0,0,0-.67-1.63,2.44,2.44,0,0,0-1.63-.71h-5.87l6.2-10.06a3.45,3.45,0,0,0,.79-2.19,4.35,4.35,0,0,0-.38-1.35,2.08,2.08,0,0,0-.64-.8A2.62,2.62,0,0,0-126-19a8.36,8.36,0,0,0-1.1-.15,3.74,3.74,0,0,0-1.71.64,4.54,4.54,0,0,0-1.23,1.2L-136.74-6.1l-6.08-11.09A5.58,5.58,0,0,0-144-18.44a3.28,3.28,0,0,0-1.72-.66,3.44,3.44,0,0,0-2.23.91,3.77,3.77,0,0,0-.8,1.82,3.08,3.08,0,0,0,.31,1.61,6.51,6.51,0,0,0,.76,1.21l5.35,9.43h-5.75a2.26,2.26,0,0,0-1.64.71,2.93,2.93,0,0,0-.7,1.63,3.08,3.08,0,0,0,.7,1.71,2.27,2.27,0,0,0,1.64.77l7.71,0V3.25h-7.71a2.3,2.3,0,0,0-1.64.71,3,3,0,0,0-.7,1.63,3.84,3.84,0,0,0,.7,1.82,2,2,0,0,0,1.64.9h7.71v4.15A3.35,3.35,0,0,0-139.36,15a4.17,4.17,0,0,0,2.74.83c2.37,0,3.6-1.13,3.71-3.38V8.23l7.67,0a2.25,2.25,0,0,0,1.63-.78,2.9,2.9,0,0,0,.67-1.73A3,3,0,0,0-123.61,4a2.2,2.2,0,0,0-1.63-.8h0v0h-7.65V.77Z" transform="translate(235.62 93.49)"/></svg>
