<svg id="图层_1" data-name="图层 1" xmlns="http://www.w3.org/2000/svg" viewBox="0 0 150 150"><defs><style></style></defs><title>库存icon</title><rect class="cls-1" x="67.36" y="72.86" width="15.48" height="15.48" rx="3.87"/><rect class="cls-1" x="67.36" y="96.32" width="15.48" height="15.48" rx="3.87"/><rect class="cls-1" x="40.9" y="96.32" width="15.48" height="15.48" rx="3.87"/><rect class="cls-1" x="40.9" y="72.86" width="15.48" height="15.48" rx="3.87"/><rect class="cls-1" x="93.82" y="96.32" width="15.48" height="15.48" rx="3.87"/><path class="cls-1" d="M47-94.08H-78a12.5,12.5,0,0,0-12.5,12.5v125A12.5,12.5,0,0,0-78,55.92H47a12.5,12.5,0,0,0,12.5-12.5v-125A12.5,12.5,0,0,0,47-94.08ZM28.91,23a2.33,2.33,0,0,1-2.33,2.33H-58A2.33,2.33,0,0,1-60.29,23V-29.46A2.33,2.33,0,0,1-58-31.8H26.58a2.35,2.35,0,0,1,2.33,2.34Zm-.38-58.24h-87.9a.85.85,0,0,1-.44-1.57l44-26.46a.85.85,0,0,1,.87,0L29-36.86A.85.85,0,0,1,28.53-35.29Z" transform="translate(90.46 94.08)"/></svg>
