<svg xmlns="http://www.w3.org/2000/svg" viewBox="0 0 32 32" width="20" height="20" style="border-color: rgba(187,187,187,1);border-width: 0px;border-style: solid" filter="none">

    <g>
    <path d="M22 12h-4v-4h-16v18h2c0-2.2 1.8-4 4-4s4 1.8 4 4h6c0-2.2 1.8-4 4-4s4 1.8 4 4h2v-8l-6-6zM20 18v-2h4l2 2h-6z" ></path><path d="M10 26c0 0.013 0.001 0.029 0.001 0.045 0 1.105-0.895 2-2 2s-2-0.895-2-2c0-0.016 0-0.031 0.001-0.047l-0 0.002c0.025-1.085 0.91-1.956 2-1.956s1.974 0.87 1.999 1.952l0 0.002zM24 26c0 0.013 0 0.029 0 0.045 0 1.105-0.895 2-2 2s-2-0.895-2-2c0-0.016 0-0.031 0.001-0.047l-0 0.002c0.025-1.085 0.91-1.956 2-1.956s1.974 0.87 1.999 1.952l0 0.002z" ></path>
    </g>
  </svg>
