<svg id="图层_1" data-name="图层 1" xmlns="http://www.w3.org/2000/svg" viewBox="0 0 149.32 119.15"><defs><style>.cls-1{fill:#333;}.cls-2{fill:#ffc102;}</style></defs><title>慧贸天下</title><path class="cls-1" d="M8.74,86.06h6.47v.66h4v2h-4v.67h4v1.73h-4v1.2h4v2.13H4.3V92.32H8.74v-1.2H4.3V89.39H8.74v-.67H4.3v-2H8.74ZM4.3,97.38V95.25H35.42v5.46c.09,1.86-.77,2.75-2.56,2.66H4.3v-2.13H27.47c.72.09,1-.18.81-.8v-.27H4.3V98.44h24V97.38Zm2.55,14H4.43V103.9H9.55v5.2C9.64,110.69,8.74,111.45,6.85,111.36ZM29,109.1v2.26H14.67q-2.84.27-2.56-2.4V103.9h6.47v3.86c-.18,1.07.27,1.52,1.34,1.34Zm-9-16.78h4.72v-1.2H19.92V89.39h4.72v-.67H19.92v-2h4.72v-.66h6.47v.66h4.31v2H31.11v.67h4.31v1.73H31.11v1.2h4.31v2.13H19.92Zm1.22,11.58h5.25v3.86H21.14Zm14.28,0v5.2c.09,1.59-.77,2.35-2.56,2.26H30.3V103.9Z"/><path class="cls-1" d="M55.62,91.79c.08,1.86-.76,2.75-2.54,2.66H40.93V86.06H55.62a2.32,2.32,0,0,1-2.54,2.53H47.34v3.2h2.8c.71.18,1-.13.94-.93v-.94h4.54Zm-14.69,14.8V95H71.64v9.06c.08,1.78-.76,2.63-2.54,2.54H66.7l4.94,4.79H64.56L56.28,103l-8.41,8.39H40.93l4.81-4.79Zm6.94-8.94v6.67l5.34-5.47h6.95l-2.41,2.54h4l2.8,2.93V97.65Zm8.41-9.06V86.06H71.64v5.73c.17,1.86-.67,2.75-2.54,2.66H65.23V88.59H62.56l-1.2,5.86H56.28l1.21-5.86Z"/><path class="cls-1" d="M84.63,111.38H77l6.18-15.73H77V93h7.12l1.61-4.4H77V86.06h31v2.53H93.35L91.61,93H108v2.66h-4.43L108,111.38h-7L96.58,95.65H90.67Z"/><path class="cls-1" d="M113.48,88.59V86.06H144.4v2.53H126.93v22.79h-7.67V88.59Zm14.12,2.8h7.79l9,11.33h-7.66Z"/><polygon class="cls-2" points="59.81 32.62 59.81 52.44 66.4 52.44 66.4 41.34 74.13 49.07 82.21 40.99 82.21 52.44 88.61 52.44 88.61 32.62 82.18 32.62 74.19 40.62 66.22 32.65 59.81 32.62"/><path class="cls-2" d="M82,5.6V22.42l-7.73-7.73-8.08,8.07V5.71A33.55,33.55,0,1,0,82,5.6ZM93.16,57.08a26.52,26.52,0,0,1-8.46,5.7,26,26,0,0,1-2.84,1l0-4.29h4.9l4.78-5.57H75.9V64.83c-.52,0-1,0-1.55,0s-1,0-1.55,0V53.94H57.12l4.79,5.57h4.9l0,4.29a26.67,26.67,0,0,1-17-15.18,26.6,26.6,0,0,1,5.7-29.17A26.71,26.71,0,0,1,59.81,16V31.13h6.43l8-8,8,8,6.4,0V15.79a26.08,26.08,0,0,1,4.55,3.66,26.57,26.57,0,0,1,0,37.63Z"/><path class="cls-2" d="M77.47,11.17,76,11a15.85,15.85,0,0,0-3.23,0l-1.5.16v-6L73.07,5a15.51,15.51,0,0,1,2.55,0l1.85.15Z"/></svg>