<svg id="图层_1" data-name="图层 1" xmlns="http://www.w3.org/2000/svg" viewBox="0 0 108.87 95.32"><defs><style>.cls-1{fill:#ffc102;}.cls-2{fill:#fff;}</style></defs><title>慧贸贸logo</title><polygon class="cls-1" points="46.73 21.71 46.73 33.31 50.53 33.31 50.53 26.81 55.03 31.31 59.73 26.61 59.73 33.31 63.53 33.31 63.53 21.71 59.73 21.71 55.13 26.41 50.44 21.81 46.73 21.71"/><path class="cls-1" d="M59.63,6v9.8l-4.5-4.5L50.43,16V6.11a19.46,19.46,0,1,0,9.2-.1m6.5,30a15.28,15.28,0,0,1-6.6,3.9v-2.5h2.9l2.8-3.2h-9.1v6.4h-1.8v-6.4h-9.1l2.8,3.2h2.9v2.5A15.51,15.51,0,0,1,46.73,12v8.8h3.7l4.7-4.7,4.6,4.6h3.7v-8.8a15.53,15.53,0,0,1,4.8,21.4,10.91,10.91,0,0,1-2.1,2.7"/><path class="cls-1" d="M57,9.21l-.9-.1a6,6,0,0,0-1.9,0l-.9.1V5.71l1.1-.1h1.5l1.1.1Z"/><path class="cls-2" d="M19,73v-3.3h-5.5v4.4c-.1,1.5.6,2.2,2.2,2.1h12.1v-1.9h-7.7C19.08,74.17,19,73.77,19,73Z"/><path class="cls-2" d="M7,76.07H7l2.1.1c1.6.1,2.4-.6,2.3-1.9v-4.5H7Z"/><path class="cls-2" d="M29,76.17h2.1c1.5.1,2.2-.6,2.2-1.9v-4.5H29Z"/><rect class="cls-2" x="21.18" y="69.67" width="4.5" height="3.3"/><path class="cls-2" d="M6.88,64.07l20.3-.1v1H6.88v1.5h20.3v.2c0,.7,0,.7-.7.7H6.88v1.8h24.2c1.5.1,2.2-.7,2.2-2.3v-4.7H6.88Z"/><polygon class="cls-2" points="24.09 62.07 29.59 62.07 29.59 61.57 33.28 61.57 33.28 59.77 29.59 59.77 29.59 58.77 33.28 58.77 33.28 57.27 29.59 57.27 29.59 56.67 33.28 56.67 33.28 54.97 29.59 54.97 29.59 54.37 24.09 54.37 24.09 54.97 20.09 54.97 20.09 56.67 24.09 56.67 24.09 57.27 20.09 57.27 20.09 58.77 24.09 58.77 24.09 59.77 20.09 59.77 20.09 61.57 24.09 61.57 24.09 62.07"/><polygon class="cls-2" points="10.69 62.07 16.18 62.07 16.18 61.57 19.59 61.57 19.59 59.77 16.18 59.77 16.18 58.77 19.59 58.77 19.59 57.27 16.18 57.27 16.18 56.67 19.59 56.67 19.59 54.97 16.18 54.97 16.18 54.37 10.69 54.37 10.69 54.97 6.88 54.97 6.88 56.67 10.69 56.67 10.69 57.27 6.88 57.27 6.88 58.77 10.69 58.77 10.69 59.77 6.88 59.77 6.88 61.57 10.69 61.57 10.69 62.07"/><polygon class="cls-2" points="96.28 73.67 101.08 73.67 101.08 68.47 103.08 68.47 103.08 66.27 101.08 66.27 101.08 63.47 103.08 63.47 103.08 61.27 101.08 61.27 101.08 58.67 96.28 58.67 96.28 61.27 94.39 61.27 94.69 57.77 102.98 57.77 102.98 55.57 94.98 55.57 95.08 54.47 90.89 54.37 90.78 55.57 89.69 55.57 89.69 57.67 90.48 57.67 89.98 63.37 96.39 63.37 96.39 66.27 89.69 66.27 89.69 68.47 96.28 68.47 96.28 73.67"/><polygon class="cls-2" points="83.98 55.57 81.89 55.57 81.98 54.47 77.08 54.47 76.78 57.77 83.98 57.77 83.98 55.57"/><path class="cls-2" d="M82.28,73.07v-7.2H84v-2.2h-1.7V61H84v-2.2h-7.2V61h.7v2.7h-.7v2.1h.7v8.4c-.2,1.4.6,2.1,2.2,1.9H84v-1.9h-.7C82.38,74.27,82.28,74.07,82.28,73.07Z"/><path class="cls-2" d="M68.38,54.37H55.28v2.2h1l-1,5h4.3l1-5h2.3v5h3.3c1.7,0,2.2-.3,2.2-2.3Z"/><path class="cls-2" d="M42.08,72h4.1l-4.1,4.1h6l7.2-7.2,7.1,7.2h6.1L64.28,72h2c1.5.1,2.2-.7,2.2-2.2V62H42.08Zm6-7.7h14.3V70L60,67.47h-3.4l2.1-2.2h-6L48.08,70Z"/><path class="cls-2" d="M54.68,59.27v-1.5h-3.9v.7c0,.7,0,.8-.8.8h-2.4v-2.8h4.9a2,2,0,0,0,2.2-2.2H42v7.2h10.4C54,61.57,54.68,60.87,54.68,59.27Z"/><path class="cls-2" d="M103.48,74.17H89.08V55.47l-.7-1h-3.6l.6,1.2h-.9v2.2h.9v18.4h18.1v-2.1Z"/><path class="cls-2" d="M11.73,86.87H8.93l-.7,2.2H6.93l2.7-7.7H11l2.7,7.7h-1.4Zm-.3-.9-.3-1c-.3-.8-.5-1.7-.8-2.6h0a25.82,25.82,0,0,1-.8,2.6l-.3,1Z"/><path class="cls-2" d="M14.83,81.37h4.8v1h-3.5v2.2h3v1h-3v2.5h3.6v1h-4.9Z"/><path class="cls-2" d="M21,85.17c0-2.5,1.4-4,3.5-4s3.5,1.5,3.5,4-1.5,4-3.5,4S21,87.67,21,85.17Zm5.7,0c0-1.8-.9-2.9-2.2-2.9s-2.2,1.1-2.2,2.9.9,3,2.2,3S26.73,87,26.73,85.17Z"/><path class="cls-2" d="M31.13,82.37h-2.4v-1h6.1v1h-2.4v6.7h-1.3Z"/><path class="cls-2" d="M40.63,89.07,38.73,86h-1.3v3.1h-1.3v-7.7h2.7c1.7,0,2.9.6,2.9,2.2a2.17,2.17,0,0,1-1.7,2.2l2,3.3ZM37.43,85h1.2c1.2,0,1.8-.5,1.8-1.4s-.6-1.3-1.8-1.3h-1.2Z"/><path class="cls-2" d="M47.13,86.87h-2.8l-.7,2.2h-1.3l2.7-7.7h1.5l2.7,7.7h-1.4Zm-.3-.9-.3-1c-.3-.8-.5-1.7-.8-2.6h0a25.82,25.82,0,0,1-.8,2.6l-.3,1Z"/><path class="cls-2" d="M50.23,81.37h2.1c2.5,0,3.9,1.3,3.9,3.8s-1.4,3.9-3.8,3.9h-2.2Zm2,6.7c1.7,0,2.7-1,2.7-2.9s-.9-2.9-2.7-2.9h-.7v5.8Z"/><path class="cls-2" d="M57.93,81.37h4.8v1h-3.5v2.2h3v1h-3v2.5h3.6v1h-4.9Z"/><path class="cls-2" d="M71.53,85.27a3.66,3.66,0,0,1,3.7-4,3.29,3.29,0,0,1,2.3,1l-.7.8a2.18,2.18,0,0,0-1.6-.7c-1.4,0-2.4,1.1-2.4,2.9s.9,3,2.3,3a2.5,2.5,0,0,0,1.8-.8l.7.8a3.41,3.41,0,0,1-2.5,1.1A3.78,3.78,0,0,1,71.53,85.27Z"/><path class="cls-2" d="M79.13,81.37h1.3v3.2h3.5v-3.2h1.3v7.7h-1.3v-3.5h-3.5v3.5h-1.3Z"/><path class="cls-2" d="M91,86.87h-2.8l-.7,2.2h-1.3l2.7-7.7h1.5l2.7,7.7h-1.4Zm-.3-.9-.3-1c-.3-.8-.5-1.7-.8-2.6h0a25.82,25.82,0,0,1-.8,2.6l-.3,1Z"/><path class="cls-2" d="M94.13,81.37h1.3v7.7h-1.3Z"/><path class="cls-2" d="M97.53,81.37h1.3l2.7,4.5.8,1.6h.1a21.12,21.12,0,0,1-.2-2.6v-3.6h1.2V89h-1.3l-2.7-4.6-.8-1.6h-.1a21.05,21.05,0,0,1,.2,2.5V89h-1.2Z"/></svg>
