<svg id="图层_1" data-name="图层 1" xmlns="http://www.w3.org/2000/svg" viewBox="0 0 18 18"><defs><style>.cls-1{}</style></defs><title>分享-未点击</title><path class="cls-1" d="M12,12.39a6.38,6.38,0,0,1,.8,1,1.46,1.46,0,1,0-.69-1.94A1.45,1.45,0,0,0,12,12.39ZM9.08,11.28A4.49,4.49,0,0,0,9.13,13l1.21.76.06,1.43a4.36,4.36,0,0,0,1.22.82,2.08,2.08,0,0,1-.66.11H3.17A2,2,0,0,1,1.22,14.2v-.59a6.87,6.87,0,0,1,3.17-2.76,4.33,4.33,0,0,0,2.68.92A4.39,4.39,0,0,0,9.08,11.28ZM7.07,3a3.41,3.41,0,0,1,3.41,3.41h0v1a3.41,3.41,0,0,1-6.82,0v-1A3.41,3.41,0,0,1,7.07,3Zm5.22,12.3a3.62,3.62,0,0,1-1.14-.66L11.1,13.4l-1-.67a3.66,3.66,0,0,1,0-1.32l1-.66.05-1.25a3.62,3.62,0,0,1,1.14-.66l1.11.58,1.1-.58a3.51,3.51,0,0,1,1.14.66l0,1.25,1,.66a3.26,3.26,0,0,1,0,1.32l-1,.67,0,1.24a3.51,3.51,0,0,1-1.14.66l-1.1-.58-1.11.58Z"/></svg>
