<svg xmlns="http://www.w3.org/2000/svg" viewBox="0 0 188 188.09" width="30" height="30" style="fill: unset;border-color: rgba(187,187,187,1);border-width: 0px;border-style: solid" filter="none"><defs><style>.cls-1{fill:#fff;}.cls-2{fill:#ff9f00;}</style></defs><title>renzheng</title><rect class="cls-1" x="41.83" y="42.19" width="99.19" height="105.05"></rect><path class="cls-2" d="M184.75,85.93,166.27,67.46V38.94A14.32,14.32,0,0,0,152,24.66H123.41L105,6.19a14.26,14.26,0,0,0-20.17,0h0L66.35,24.66H37.84a14.32,14.32,0,0,0-14.3,14.28V67.51L5.08,85.93a14.26,14.26,0,0,0,0,20.16v0l18.47,18.47v28.57a14.33,14.33,0,0,0,14.3,14.29H66.41l18.47,18.47a14.26,14.26,0,0,0,20.18,0l18.48-18.47h28.57a14.31,14.31,0,0,0,14.28-14.29V124.59l18.48-18.48A14.49,14.49,0,0,0,184.75,85.93Zm-89.83,60L52.12,67.45H73.53L95,110.24l21.42-42.79h21.43L94.93,145.94Z" transform="translate(-0.9 -2.01)"></path></svg>