<svg id="图层_1" data-name="图层 1" xmlns="http://www.w3.org/2000/svg" viewBox="0 0 214.09 175.86"><defs><style>.cls-1,.cls-2{}.cls-2{stroke:#fff;stroke-linecap:round;stroke-miterlimit:10;stroke-width:9px;}</style></defs><title>会员</title><path class="cls-1" d="M144.46,28.65H26.61a12.67,12.67,0,0,0-9,3.73L-17.8,67.81a12.7,12.7,0,0,0,0,18L76.54,180.1a12.71,12.71,0,0,0,18,0l94.34-94.33a12.7,12.7,0,0,0,0-18L153.44,32.38A12.67,12.67,0,0,0,144.46,28.65Zm14.23,52.42c-5.44.18-18.33,1.37-25.4,8.43-7.44,7.45-8.37,21.39-8.47,26.23,0,1.08,0,1.73,0,1.73s0-.64,0-1.73c-.09-5-1-19.54-8.63-27.18C109.13,81.49,95.86,80.9,90.63,81c-1.36.08-2.22.07-2.22.07s.84-.06,2.22-.07c5-.29,17.33-1.68,24.32-8.67,9.29-9.3,9.88-27.67,9.88-27.67s-1,19.22,8.09,28.33c6.94,6.94,19.72,8,25.42,8.11h.71c1.36,0,2.2,0,2.2,0s-1,0-2.56,0ZM172.72,8s-.39,7.54,3.17,11.11S187,22.24,187,22.24,179.6,22,176,25.55s-3.31,11-3.31,11,.25-7.69-3.4-11.33c-3.48-3.49-10.87-2.94-10.87-2.94s6.9.07,10.39-3.43S172.72,8,172.72,8Z" transform="translate(21.52 -7.96)"/><line class="cls-2" x1="46.32" y1="71.64" x2="104.74" y2="71.64"/><line class="cls-2" x1="72" y1="106.44" x2="103.88" y2="106.44"/><line class="cls-2" x1="92.87" y1="137.13" x2="109.04" y2="137.13"/></svg>