<svg id="图层_1" data-name="图层 1" xmlns="http://www.w3.org/2000/svg" viewBox="0 0 214.16 175.84"><defs><style>.cls-1,.cls-2{}.cls-2{stroke:#fff;stroke-linecap:round;stroke-miterlimit:10;stroke-width:9px;}</style></defs><title>123123</title><path class="cls-1" d="M166,20.69H48.13a12.66,12.66,0,0,0-9,3.73L3.72,59.85a12.7,12.7,0,0,0,0,18l0,0,94.34,94.29a12.71,12.71,0,0,0,18,0l0,0L210.4,77.81a12.7,12.7,0,0,0,0-18l0,0L175,24.42A12.67,12.67,0,0,0,166,20.69Zm14.23,52.42c-5.44.18-18.33,1.37-25.4,8.43-7.44,7.45-8.37,21.39-8.47,26.23v0c-.09-5-1-19.54-8.63-27.18-7.06-7.06-20.33-7.65-25.56-7.55-1.36.08-2.22.07-2.22.07s.84-.06,2.22-.07c5-.29,17.33-1.68,24.32-8.67,9.29-9.3,9.88-27.67,9.88-27.67s-1,19.22,8.09,28.33c6.94,6.94,19.72,8,25.42,8.11h.35ZM194.24,0s-.39,7.54,3.17,11.11,11.11,3.13,11.11,3.13-7.4-.24-11,3.31-3.31,11-3.31,11,.25-7.69-3.4-11.33c-3.48-3.49-10.87-2.94-10.87-2.94s6.9.07,10.39-3.43S194.24,0,194.24,0Z" transform="translate(0.02 -0.04)"/><line class="cls-2" x1="46.34" y1="71.6" x2="104.76" y2="71.6"/><line class="cls-2" x1="72.02" y1="106.4" x2="103.9" y2="106.4"/><line class="cls-2" x1="92.89" y1="137.09" x2="109.06" y2="137.09"/></svg>