<svg id="图层_1" data-name="图层 1" xmlns="http://www.w3.org/2000/svg" viewBox="0 0 18 18"><defs><style>.cls-1{}</style></defs><title>单证网盘新版iocn</title><path class="cls-1" d="M16,11.93v3.72H2V11.93H16m0-1H2a1,1,0,0,0-1,1v3.72a1,1,0,0,0,1,1H16a1,1,0,0,0,1-1V11.93A1,1,0,0,0,16,10.93Z"/><path class="cls-1" d="M13.28,2.35l2.44,8.55H2.36L4.8,2.35h8.48m.76-1H4L1,11.9H17Z"/><path class="cls-1" d="M12.54,7.13h-7a.5.5,0,0,1-.5-.5.51.51,0,0,1,.5-.5h7a.5.5,0,0,1,.5.5A.5.5,0,0,1,12.54,7.13Z"/><path class="cls-1" d="M12.54,9.08h-7a.51.51,0,0,1-.5-.5.5.5,0,0,1,.5-.5h7a.5.5,0,0,1,.5.5A.5.5,0,0,1,12.54,9.08Z"/><path class="cls-1" d="M10.34,14.29h-7a.51.51,0,0,1-.5-.5.5.5,0,0,1,.5-.5h7a.5.5,0,0,1,.5.5A.5.5,0,0,1,10.34,14.29Z"/><path class="cls-1" d="M14.54,14.29h-2a.51.51,0,0,1-.5-.5.5.5,0,0,1,.5-.5h2a.5.5,0,0,1,.5.5A.5.5,0,0,1,14.54,14.29Z"/></svg>