<svg id="图层_1" data-name="图层 1" xmlns="http://www.w3.org/2000/svg" viewBox="0 0 160.15 149.02">
  <defs>
    <style>
      .cls-1 {
        fill: #3d5afe;
      }
    </style>
  </defs>
  <title>组织信息</title>
  <path class="cls-1" d="M100.17,167H20.71c0-1.24-.3-2.17-.3-3.4V21.64a13.09,13.09,0,0,1,.3-3.4h79.46Zm-21-72h7.11c2.47,0,3.4-.93,3.4-3.4V78.84c0-2.47-1.23-3.4-3.71-3.4H78.53c-10.2,0-9.58-.93-9.58,9.28C69,96.47,68,94.92,79.15,94.92Zm.31-57.2H77.91c-9.58,0-9-.93-9,9C69,58.13,67.71,57.2,79.46,57.2c11.44,0,9.89.93,9.89-9.28C89.66,36.18,90.9,37.72,79.46,37.72Zm-.31,95.54h6.18c2.79,0,4-.93,4-4V117.49c0-2.47-.92-3.71-3.4-3.71h-8c-9.58,0-9-.93-9,9,0,11.74-1.24,10.51,10.2,10.51Zm-38-38.34H47.3c2.79.31,4-.93,4-4V79.15c0-2.47-.92-3.71-3.4-3.71H34.63c-2.48,0-3.71.93-3.71,3.71V91.52c0,2.47.93,3.71,3.4,3.71A52.25,52.25,0,0,1,41.12,94.92Zm0,38.34h6.8c2.48,0,3.71-1.24,3.71-3.71V118.73c0-4.33-.31-4.64-4.94-4.64H40.5c-10.51,0-9.27-1.24-9.27,9.27-.31,11.13-1.86,9.9,9.89,9.9Zm.31-95.54H39.88c-9.89,0-9-.93-9,9,0,11.75-1.55,10.51,10.82,10.51,11.13,0,9.58.62,9.58-9.28C51.32,36.18,52.87,37.72,41.43,37.72ZM111.92,167c0-11.44-.31-22.57-.31-34V87.5c1.55,0,2.48-.31,3.4-.31h61.84a9.11,9.11,0,0,1,3.09.62V167H160.77V134.49h-30.3V167Zm68.33-91.21h-68V64.93a1.14,1.14,0,0,1,.93-.31h67.09Z" transform="translate(-20.1 -18.24)"/>
  <path class="cls-1" d="M20.71,18.55c0,1.24-.3,2.17-.3,3.4V163.87a13.09,13.09,0,0,0,.3,3.4A1.64,1.64,0,0,1,20.1,166V19.79A1.64,1.64,0,0,1,20.71,18.55Z" transform="translate(-20.1 -18.24)"/>
</svg>
