<svg id="图层_1" data-name="图层 1" xmlns="http://www.w3.org/2000/svg" viewBox="0 0 400 357"><defs><style>.cls-1{fill:#f3f2f2;}.cls-2{fill:#fff;}.cls-3{fill:#e6e6e6;}.cls-4{fill:#3f3d56;}.cls-5{fill:var(--el-color-primary);}.cls-6{fill:#ffb8b8;}.cls-7{fill:#2f2e41;}.cls-8{fill:#cbcaca;}</style></defs><title>暂无权限</title><path class="cls-1" d="M211.12,260.07a10.33,10.33,0,0,1,.14,1.59v7.14a10,10,0,0,1-10,10h0a10,10,0,0,1-10-10v-7.14a10.33,10.33,0,0,1,.14-1.59H154.83v79.15h92.94V260.07Z"/><rect class="cls-2" x="16.11" y="7.13" width="370.38" height="255.49" rx="5.04"/><path class="cls-3" d="M381.45,11.13a1,1,0,0,1,1,1v245.4a1,1,0,0,1-1,1H21.15a1,1,0,0,1-1-1V12.18a1,1,0,0,1,1-1h360.3m0-8H21.15a9,9,0,0,0-9,9.05v245.4a9,9,0,0,0,9,9h360.3a9,9,0,0,0,9-9V12.18a9,9,0,0,0-9-9Z"/><path class="cls-4" d="M227.47,25.19h-48a2,2,0,0,1,0-4h48a2,2,0,0,1,0,4Z"/><path class="cls-3" d="M363.72,40.78H34.59a1,1,0,0,1,0-2H363.72a1,1,0,0,1,0,2Z"/><circle class="cls-4" cx="85.43" cy="24.29" r="4.51"/><circle class="cls-4" cx="100.74" cy="24.29" r="4.51"/><circle class="cls-4" cx="116.32" cy="24.29" r="4.51"/><path class="cls-4" d="M134.28,28.28a.49.49,0,0,1-.37-.16l-3.56-3.83,3.57-3.66a.5.5,0,0,1,.71,0,.49.49,0,0,1,0,.7l-2.9,3,2.91,3.14a.49.49,0,0,1-.36.84Z"/><path class="cls-4" d="M139.1,28.28a.49.49,0,0,1-.35-.84l2.9-3-2.91-3.14a.5.5,0,0,1,0-.71.5.5,0,0,1,.71,0L143,24.47l-3.57,3.66A.51.51,0,0,1,139.1,28.28Z"/><rect class="cls-4" x="277.89" y="20.34" width="7.66" height="7.66" rx="1.09"/><rect class="cls-4" x="291.6" y="20.34" width="7.66" height="7.66" rx="1.09"/><rect class="cls-4" x="304.66" y="20.34" width="7.66" height="7.66" rx="1.09"/><path class="cls-3" d="M145,126.4s-4.79,1.21-4.09,7.09,7.28,6.19,9.71,7.78,9.25,4.61,11.74,19.73c1.15,6.95.45,27.7.7,29.68s.45,4.21,5.3,4.34,33.19,0,33.19,0,8.17-1.31,8.11-7.12-5.09-10.67-11.55-13-20.21-5.18-20.77-11.83c-.43-5,4.13-8,5.53-9.36s2.86-3.46,5-10.3c1.11-3.49,3.7-1.55,6.26-6.81,1.66-3.4.81-7.45-.68-8.85-1.28-1.19-3.15.9-3.83-6.34a22.19,22.19,0,0,0-22.43-19.17A23.55,23.55,0,0,0,150,111,27.14,27.14,0,0,0,145,126.4Z"/><path class="cls-3" d="M154,169.1h-4.79v-8.65a13,13,0,0,0-13-13h0a13,13,0,0,0-13,13v8.65h-4.79a1.89,1.89,0,0,0-1.88,1.89v21.83a1.88,1.88,0,0,0,1.88,1.88H154a1.88,1.88,0,0,0,1.88-1.88V171A1.89,1.89,0,0,0,154,169.1Zm-25.77-8.65a8,8,0,0,1,16,0v8.65h-16Z"/><path class="cls-5" d="M128.1,332.41,117,331.8a113.34,113.34,0,0,0-12.77,0l-11.13.61c-2.69,0-4.63-2.34-3.86-4.66l.12-.34a20.18,20.18,0,0,0,0-12.67l-.12-.34c-.77-2.32,1.17-4.65,3.86-4.65l10.61.46q6.9.3,13.81,0l10.61-.46c2.73,0,4.67,2.39,3.83,4.72h0a19.7,19.7,0,0,0,0,13.21h0C132.77,330,130.83,332.41,128.1,332.41Z"/><path class="cls-5" d="M119.93,354l-11.13-.61a118.26,118.26,0,0,0-12.77,0L84.9,354c-2.69,0-4.63-2.34-3.86-4.66l.12-.34a20.15,20.15,0,0,0,0-12.66L81,336c-.77-2.33,1.17-4.66,3.86-4.66l10.61.46q6.9.32,13.81,0l10.61-.46c2.73,0,4.67,2.39,3.83,4.73h0a19.68,19.68,0,0,0,0,13.2h0C124.6,351.59,122.66,354,119.93,354Z"/><path class="cls-5" d="M88.7,323.33l-6.58,9a117.53,117.53,0,0,0-7,10.7l-5.57,9.65c-1.47,2.26-4.48,2.61-6,.69l-.22-.28a20.09,20.09,0,0,0-10.61-6.92l-.34-.09c-2.37-.62-3.27-3.52-1.8-5.78l6.19-8.63q4-5.61,7.54-11.56l5.4-9.14c1.5-2.29,4.56-2.61,6.06-.63h0a19.58,19.58,0,0,0,11.06,7.21h0C89.25,318.11,90.2,321,88.7,323.33Z"/><path class="cls-1" d="M26.4,319.8l-8.68-6.25s-.63-7.53,5.37-8.43,15.63,6.51,21.82,18.51.58,21.32.58,21.32l-.19,9.9a38.88,38.88,0,0,1-21.83-17.56c-7.92-13.91-5.77-18.89-5.77-18.89Z"/><rect class="cls-3" x="154.83" y="339.22" width="92.94" height="16.13"/><path class="cls-5" d="M154.89,312.31l1.74,11a115.42,115.42,0,0,0,2.67,12.48l2.92,10.76c.57,2.63-1.31,5-3.74,4.75l-.36,0a20,20,0,0,0-12.39,2.65l-.31.18c-2.1,1.24-4.79-.16-5.36-2.8l-1.76-10.47c-.77-4.54-1.73-9.05-2.89-13.5l-2.67-10.28c-.58-2.67,1.36-5.07,3.82-4.74h0a19.64,19.64,0,0,0,12.91-2.76h0C151.58,308.24,154.32,309.64,154.89,312.31Z"/><path class="cls-6" d="M253.45,116.94s-4,6.39-1.54,12.71S261,140.82,268,137.88s4.15-16.21,4.15-16.21Z"/><path class="cls-7" d="M260.6,125.75c1.18.49,2.55-1.08,3.31-.57s3.39,1.78,2.88,6.19-.77,6.13-3.39,7c0,0,9.83,2,14.75-5.81s1-17.81-1-18.51-4.66-2.3-5.74-3.89-6.19-2.05-7.92-1-5.93,2.55-7,1.6-7.79,1.72-7.72,6.06,4.4,3.57,6.51,4.21c1.05.32,2.25.19,3,1.15S259.35,125.24,260.6,125.75Z"/><path class="cls-6" d="M220.61,134.88l-6-8.55s-5.94-3.45-1.6-7.54,7.89.87,7.57,2.56l6.92,7.37Z"/><path class="cls-6" d="M228.55,190.41c-.19-.06-10.78,7.53-10.78,7.53s-5.94,1.47-4.09,6.45,7.85,2,8.81-.32l13.15-7Z"/><polyline class="cls-6" points="250.15 333.38 251.38 344.06 258.96 347.04 258.96 330.95"/><path class="cls-6" d="M297.36,310l11.17,4.66,5.87-5.29-12.19-6.9Z"/><path class="cls-7" d="M250.15,342.9s6.3,2.55,6.55,3.11,2.68,0,2.68,0v8.85H236.91s-.12-7.6,6.3-8.68a18.05,18.05,0,0,1,3.25,0S247.9,343.6,250.15,342.9Z"/><path class="cls-7" d="M306.25,314.44s5.49-4,6.09-3.93,1.42-2.28,1.42-2.28l7.52,4.67L309.43,332s-6.52-3.89-4.05-9.93a18.07,18.07,0,0,1,1.72-2.75S305.66,316.72,306.25,314.44Z"/><path class="cls-7" d="M245.72,215.88s-6.63,51.57-7,54.64,3.32,13.15,3.51,14.42-1.47,4.64-1.21,7.58,8.26,43.06,8.26,43.06h11.31s3.83-7.23,2.56-39.15l36.68,16.26,3.32-10.3s-31.66-23.32-40.43-23.49a22.89,22.89,0,0,1,1.73-9.4c1.51-3.34,5.34-6.12,5.68-6.9.76-1.78.11-2.9.44-3.13s2.92-1.29,2.71-3.76,1.19-1.92,1.91-4.51S282.28,231.92,282,229,245.72,215.88,245.72,215.88Z"/><path class="cls-4" d="M228.49,127l-9.06,7.79s12.51,18.63,15.44,22,11.87,9.45,14.94,10.09c0,0-3.36,7.91-9.19,13.15-4.34,3.89-14.36,9.7-14.11,10.78l7.66,7.86s13.85-7,14.81-8.05-1.53,8.68-1,19.09c0,0-5.94,4.47-2.49,10.47s37.59,12.06,38.17,11-.7-5.94-.51-6.83,1.49.81,1-3.92-.57-7.8-.62-8.27,2.17-1.79,1.62-6.39,4.34-11.06,2-31.14-11.9-31.41-14.5-33.45l-10.79,1.72s-6,5-6.56,6.38c-.22.54-5.08-.64-9.51-5.1C238.13,136.41,228.49,127,228.49,127Z"/><rect class="cls-8" x="1.89" y="354.35" width="395.57" height="1"/></svg>