<svg xmlns="http://www.w3.org/2000/svg" viewBox="0 0 1024 1024" width="16" height="16" style="border-color: rgba(187,187,187,1);border-width: 0px;border-style: solid" filter="none">
    <path d="M860.955458 364.159164c-66.409787 0-122.481055 46.097636-138.779428 108.493645h-386.782278L527.690224 279.748189c24.08267 17.39304 52.908897 26.636893 82.586531 26.636892 79.1809 0 143.644613-65.43675 143.644613-145.955576s-64.463713-145.955577-143.644613-145.955577-143.644613 65.43675-143.644613 145.955577c0 22.014966 4.865186 42.935265 13.50089 61.666231l-201.297066 201.905214C252.685592 387.755315 210.480105 364.159164 163.044542 364.159164c-79.1809 0-143.644613 65.43675-143.644613 145.955576s64.463713 145.955577 143.644613 145.955577c48.043711 0 90.614087-24.08267 116.764461-61.058083l202.756622 203.36477c-10.46015 20.55541-15.811854 43.421784-15.811854 66.409788 0 80.518826 64.463713 145.955577 143.644614 145.955576s143.644613-65.43675 143.644613-145.955576-64.463713-145.955577-143.644613-145.955577c-28.947856 0-55.828008 8.757335-78.451123 23.717781L337.461456 547.576672h384.714574c16.298373 62.396009 72.36964 108.493645 138.779428 108.493645 79.1809 0 143.644613-65.43675 143.644613-145.955577s-64.463713-145.955577-143.644613-145.955576z" fill="" stroke="none"></path>
  </svg>
