<svg id="图层_1" data-name="图层 1" xmlns="http://www.w3.org/2000/svg" viewBox="0 0 12.25 11.96"><defs><style>.cls-1{}</style></defs><title>在线客服小icon</title><path class="cls-1" d="M11.3,2.46A6.84,6.84,0,0,0,7,1,6.84,6.84,0,0,0,2.7,2.46,4.64,4.64,0,0,0,.88,6.05,4.57,4.57,0,0,0,2.55,9.51L4.76,12.8A.4.4,0,0,0,5.1,13h0a.38.38,0,0,0,.35-.2l1-1.72H7a6.78,6.78,0,0,0,4.3-1.44,4.61,4.61,0,0,0,1.83-3.58A4.65,4.65,0,0,0,11.3,2.46ZM6.86,7.7s0,0,0,0H3.43s0,0,0,0V7.21s0,0,0,0H6.82s0,0,0,0Zm0-1.12s0,0,0,0H3.43s0,0,0,0v-.5s0,0,0,0H6.82s0,0,0,0Zm0-1.13a0,0,0,0,1,0,0H3.43a0,0,0,0,1,0,0V5s0,0,0,0H6.82s0,0,0,0Zm2.74,3a4.38,4.38,0,0,1-.5,0,3.74,3.74,0,0,1-.49,0,2.56,2.56,0,0,1,0-.49h0a2.92,2.92,0,0,1,0-.51,3.45,3.45,0,0,1,.48,0h0a3,3,0,0,1,.5,0,4.29,4.29,0,0,1,0,.49A4.36,4.36,0,0,1,9.6,8.46Zm.9-2.94a1.47,1.47,0,0,1-.29.39,1.83,1.83,0,0,1-.36.26h0a1.49,1.49,0,0,1-.29.14v.62A2.15,2.15,0,0,1,9.1,7h0a2,2,0,0,1-.43,0V5.77A1.28,1.28,0,0,0,9,5.68a.83.83,0,0,0,.32-.14.63.63,0,0,0,.22-.21A.5.5,0,0,0,9.63,5a.5.5,0,0,0-.21-.44,1,1,0,0,0-.56-.15H8.61l-.21,0a1,1,0,0,0-.18.06A.86.86,0,0,0,8,4.58a3,3,0,0,1-.16-.37,1.69,1.69,0,0,1-.08-.39l.34-.11a1.43,1.43,0,0,1,.28-.07l.29,0H9A1.8,1.8,0,0,1,10.21,4a1.35,1.35,0,0,1,.4,1A1,1,0,0,1,10.5,5.52Z" transform="translate(-0.88 -1.02)"/></svg>
