<svg id="图层_1" data-name="图层 1" xmlns="http://www.w3.org/2000/svg" viewBox="0 0 1011.22 159.79"><defs><style>.cls-1{fill:#f4a28c;}.cls-2{opacity:0.1;}.cls-12,.cls-13,.cls-14,.cls-15,.cls-16,.cls-18,.cls-2,.cls-20,.cls-6{isolation:isolate;}.cls-3{fill:#24285b;}.cls-12,.cls-13,.cls-15,.cls-20,.cls-4{fill:#fff;}.cls-5{fill:#ffd200;}.cls-6{fill:#a8a8a8;opacity:0.21;}.cls-14,.cls-7{fill:#3d5afe;}.cls-21,.cls-8,.cls-9{fill:none;}.cls-8{stroke:#fff;stroke-linecap:round;stroke-linejoin:round;stroke-width:4px;}.cls-9{stroke:#ffd200;stroke-width:5px;}.cls-21,.cls-9{stroke-miterlimit:10;}.cls-10{fill:#dddbdb;}.cls-11{fill:#c9c9c9;}.cls-12{opacity:0.56;}.cls-13,.cls-18{opacity:0.28;}.cls-14{opacity:0.32;}.cls-15{opacity:0.46;}.cls-16{opacity:0.08;}.cls-17{fill:#e6e6e6;}.cls-18,.cls-19{fill:#878787;}.cls-20{opacity:0.63;}.cls-21{stroke:#3d5afe;stroke-width:2px;stroke-dasharray:2 5;}</style></defs><title>意见反馈</title><path class="cls-1" d="M-447.11-159.79s6.54-30.8,23-30.8,25.24,48.43-14.84,53.69Z" transform="translate(473.25 231.48)"/><path class="cls-2" d="M-447.11-159.79s6.54-30.8,23-30.8,25.24,48.43-14.84,53.69Z" transform="translate(473.25 231.48)"/><rect class="cls-3" x="39.98" y="7.64" width="102.51" height="127.12"/><rect class="cls-4" x="49.9" y="15.35" width="82.3" height="108.75"/><rect class="cls-5" x="69.37" width="44.83" height="19.03"/><rect class="cls-6" x="86.76" y="64.14" width="20.33" height="4.48"/><rect class="cls-6" x="86.76" y="73.04" width="32.21" height="4.48"/><rect class="cls-6" x="86.76" y="92.96" width="20.33" height="4.48"/><rect class="cls-6" x="86.76" y="101.88" width="32.21" height="4.48"/><rect class="cls-7" x="60.37" y="32.81" width="18.37" height="18.37"/><rect class="cls-7" x="60.37" y="61.47" width="18.37" height="18.37"/><rect class="cls-7" x="60.37" y="90.13" width="18.37" height="18.37"/><polyline class="cls-8" points="66.55 41.97 68.71 45.13 73.2 39.31"/><polyline class="cls-8" points="66.55 70.58 68.71 73.74 73.2 67.92"/><path class="cls-2" d="M-380-140l-2.71,4.71,9.11-1.16,9.66-3.51a41.66,41.66,0,0,0,13.22,12.6A43.21,43.21,0,0,1-331-104.46l.23.64v-43.89L-343.43-161Z" transform="translate(473.25 231.48)"/><polyline class="cls-8" points="66.55 99.41 68.71 102.57 73.2 96.75"/><path class="cls-1" d="M-332.14-163.38s-10.35-9.28-25.67-2.88c-12,5-6.32,11,.13,10.71s17.27-4.65,16.51,6.05c-.68,9.44-12.38-4.13-19.08-3.59s-5.94,8.15,2.32,12.33,19.86,13.23,28.89,6.12S-322.6-154.37-332.14-163.38Z" transform="translate(473.25 231.48)"/><rect class="cls-7" x="-378.35" y="-161.54" width="64.22" height="7.35" transform="translate(507.46 65.91) rotate(-25.67)"/><polygon class="cls-7" points="138.41 99.49 174.63 158.47 204.19 133.23 152.21 82.13 138.41 99.49"/><polygon class="cls-3" points="96.48 84.22 88.75 92.19 99.67 90.84 96.48 84.22"/><path class="cls-1" d="M-434.21-171.26s12.73-13,18.22-11.85c4.53,1,4.54,10-5.34,17.48a17.54,17.54,0,0,0-6.95,12.78,18.43,18.43,0,0,1-5.93,12.95c-9,7.92-15.6,1-14.74-9.68S-447.5-163.45-434.21-171.26Z" transform="translate(473.25 231.48)"/><polygon class="cls-7" points="44 89.88 39.21 156.04 0 148.52 19.72 82.52 44 89.88"/><rect class="cls-6" x="86.76" y="34.83" width="20.33" height="4.48"/><rect class="cls-6" x="86.76" y="43.74" width="32.21" height="4.48"/><polygon class="cls-2" points="23.91 153.1 32.41 86.37 44 89.88 39.21 156.04 23.91 153.1"/><polygon class="cls-2" points="138.41 99.49 144.79 91.45 187.71 147.31 174.63 158.47 138.41 99.49"/><path class="cls-9" d="M495.44-117.9s39,5.38,40-9.75-28.18-14.42-10.57-40,4.38-45.73,4.38-45.73" transform="translate(473.25 231.48)"/><rect class="cls-10" x="845.2" y="13.86" width="134.59" height="92.29"/><rect class="cls-4" x="851.49" y="20.15" width="121.31" height="79.05"/><polygon class="cls-10" points="845.2 106.15 819.15 139.36 1002.51 139.36 979.79 106.15 845.2 106.15"/><rect class="cls-11" x="819.15" y="139.36" width="183.36" height="5.71"/><polygon class="cls-12" points="849.75 110.81 841.36 122.75 981.42 122.75 974.19 110.81 849.75 110.81"/><polygon class="cls-13" points="887.04 125.96 932.94 125.96 937.14 135.75 883.31 135.75 887.04 125.96"/><rect class="cls-14" x="884.15" y="77.49" width="58.27" height="8.39"/><rect class="cls-7" x="923.92" y="77.49" width="18.5" height="8.39"/><polygon class="cls-7" points="927.7 45.1 914.18 37.29 900.65 45.1 900.65 60.72 914.18 68.53 927.7 60.72 927.7 45.1"/><polygon class="cls-15" points="900.65 45.1 914.18 37.29 927.7 45.1 914.18 52.91 900.65 45.1"/><polygon class="cls-16" points="914.18 52.91 914.18 68.53 927.7 60.72 927.7 45.1 914.18 52.91"/><circle class="cls-3" cx="858.27" cy="26.82" r="2.19"/><circle class="cls-7" cx="865.57" cy="26.82" r="2.19"/><circle class="cls-5" cx="873.09" cy="26.82" r="2.19"/><path class="cls-1" d="M-35.28-169.92s-26.81,15-20.53,34.41,25.09,25.7,25.09,25.7l5.34-11.06Z" transform="translate(473.25 231.48)"/><path class="cls-2" d="M-35.28-169.92s-26.81,15-20.53,34.41,25.09,25.7,25.09,25.7l5.34-11.06Z" transform="translate(473.25 231.48)"/><rect class="cls-17" x="502.45" y="12.33" width="96.53" height="123.61"/><path class="cls-2" d="M69.3-153.12l1.7,3.37H67.16l-4.28-2.63s-5.21,33.62-33.68,38.66v-14.55l30.31-31.14,9.21,5.06Z" transform="translate(473.25 231.48)"/><polygon class="cls-1" points="467.38 31.9 467.46 40.02 460.47 41.82 462.49 28.45 467.38 31.9"/><rect class="cls-17" x="-57" y="-125.55" width="40.05" height="29.25" transform="translate(515 207.01) rotate(-23.88)"/><path class="cls-1" d="M-2.64-210.29a4.8,4.8,0,0,1,6,3.19,5,5,0,0,1,.18,2c-.41,3.78-1.72,9-5.84,7.9-6.31-1.72-4.35-10-4.35-10A8.8,8.8,0,0,1-2.64-210.29Z" transform="translate(473.25 231.48)"/><path class="cls-7" d="M14-178.72a40.36,40.36,0,0,0-45-11.55c-6.92,2.65-12.94,7.61-12.93,16.88,0,21.73,12.57,39,8.77,57.23l37.89,6.35,5.54-23.28a16.37,16.37,0,0,1,7.87-10.53c4-2.24,8.35-6.35,7.74-13.58C23.34-163.62,19.9-171.74,14-178.72Z" transform="translate(473.25 231.48)"/><path class="cls-1" d="M-3.64-204.21s0-1.81-1.69-1.21-.67,3,.44,3S-3.64-204.21-3.64-204.21Z" transform="translate(473.25 231.48)"/><rect class="cls-18" x="518.83" y="56.83" width="65.93" height="64.66"/><path class="cls-2" d="M-4.93-159.92S2.28-149.45-10-143.74s-8,30-8,30l-17.13-3.38s3-9.16-3.82-29.3,32.72-34.85,32.72-34.85Z" transform="translate(473.25 231.48)"/><path class="cls-5" d="M5.35-215.35s.83,6-4.93,8,7.31,16.71-6.21,26.92,4.51,25.06-11.4,30.63S-45-143-49.68-157.69s2.39-26,13.66-33.92,17.13-9.42,19.89-20.56S4.82-223.87,5.35-215.35Z" transform="translate(473.25 231.48)"/><path class="cls-1" d="M-12.67-181.38c2.82-9.2,15.19-11.25,20.6-3.29a21.48,21.48,0,0,1,3.28,9.09c2.48,17,2.3,39.58,12.74,39s28.77-20.07,28.77-20.07l4.86,4.24S35.4-109.87,9.28-126.09C-11.68-139.12-18-163.92-12.67-181.38Z" transform="translate(473.25 231.48)"/><circle class="cls-19" cx="550.5" cy="13.78" r="6.25"/><circle class="cls-3" cx="123.65" cy="-108.36" r="32.29" transform="translate(684.06 262.52) rotate(-80.78)"/><path class="cls-3" d="M-35.11-117.11l-3.17,45.42H15.34L2.76-109.79S-16.27-113.3-35.11-117.11Z" transform="translate(473.25 231.48)"/><path class="cls-7" d="M52.4-165l.15-.23a1.58,1.58,0,0,1,2.19-.48h0l14.95,9.61h0l-1.85,2.88h0l-15-9.61A1.57,1.57,0,0,1,52.4-165Z" transform="translate(473.25 231.48)"/><polygon class="cls-3" points="541.34 78.15 545.85 79.01 543.2 75.26 541.34 78.15"/><path class="cls-1" d="M52.31-154.74s1.92-8.94,7.7-9.9,1.74,10.77-2.43,12.26Z" transform="translate(473.25 231.48)"/><rect class="cls-18" x="518.83" y="32.71" width="65.93" height="11.65"/><path class="cls-5" d="M124-125.62h1.83a11,11,0,0,1,11,11h0v12.82H113v-12.82a11,11,0,0,1,11-11Z" transform="translate(473.25 231.48)"/><circle class="cls-5" cx="598.35" cy="135.93" r="4.9"/><circle class="cls-2" cx="598.35" cy="135.93" r="4.9"/><rect class="cls-5" x="582.81" y="126.64" width="30.52" height="8.2" rx="3.78"/><rect class="cls-20" x="582.81" y="126.64" width="30.52" height="8.2" rx="3.78"/><circle class="cls-5" cx="598.35" cy="104.02" r="3.4"/><circle class="cls-2" cx="598.35" cy="104.02" r="3.4"/><polygon class="cls-2" points="455.26 117.75 459.83 159.77 434.98 159.77 438.14 114.36 455.26 117.75"/><line class="cls-21" x1="226.21" y1="72.62" x2="375.24" y2="72.62"/><line class="cls-21" x1="649.84" y1="72.62" x2="798.86" y2="72.62"/></svg>