<svg id="图层_1" data-name="图层 1" xmlns="http://www.w3.org/2000/svg" viewBox="0 0 18 18"><defs></defs><title>单证网盘新版iocn</title><path class="cls-1" d="M16.6,13.66H1.4V4.48A1.5,1.5,0,0,1,2.9,3H15.1a1.5,1.5,0,0,1,1.5,1.5Zm-14.2-1H15.6V4.48a.5.5,0,0,0-.5-.5H2.9a.5.5,0,0,0-.5.5Z"/><path class="cls-1" d="M14.24,15.93H3.76a.51.51,0,0,1-.5-.5.5.5,0,0,1,.5-.5H14.24a.5.5,0,0,1,.5.5A.51.51,0,0,1,14.24,15.93Z"/><path class="cls-1" d="M14.66,10.65H9a.5.5,0,0,1-.46-.29L7.21,7.44l-1.1,2.89a.51.51,0,0,1-.47.32H3.34a.5.5,0,0,1,0-1h2L6.7,6a.51.51,0,0,1,.45-.32.5.5,0,0,1,.48.29L9.32,9.65h5.34a.5.5,0,0,1,0,1Z"/></svg>