<svg id="图层_1" data-name="图层 1" xmlns="http://www.w3.org/2000/svg" viewBox="0 0 150 150"><defs><style></style></defs><title>产品icon</title><path class="cls-1" d="M43.87-164h-125a12.5,12.5,0,0,0-12.5,12.5v125A12.5,12.5,0,0,0-81.13-14h125a12.5,12.5,0,0,0,12.5-12.5v-125A12.5,12.5,0,0,0,43.87-164Zm-65,112.81a4.48,4.48,0,0,1-4.59,4.43h0a9.65,9.65,0,0,1-3.06-.68L-55.13-59.68c-3.06-1.38-5.74-4.44-5.74-6.82v-33.73c0-2.39,1.91-4.09,4.6-4.09a7.79,7.79,0,0,1,2.67.68l26.75,12.26c3.07,1.36,5.74,4.43,5.74,6.82Zm-3.83-44.28-29.81-13.29c-2.3-.67-3.45-2-3.45-3.75s1.15-3.06,3.07-4.08l30.2-13.62a15.17,15.17,0,0,1,5.72-1,13.26,13.26,0,0,1,5.35,1L16-117.26c1.91,1,3.06,2.38,3.06,4.09s-1.15,3.06-3.06,4.08l-30.2,13.63a12.23,12.23,0,0,1-5.35,1h0A13.54,13.54,0,0,1-24.94-95.46ZM23.62-66.84c0,2.72-2.3,5.44-5.74,6.81L-8.88-47.43a6.12,6.12,0,0,1-2.68.68h0c-2.67,0-4.58-1.7-4.58-4.08V-84.22c0-2.72,2.29-5.44,5.73-6.81l26.76-12.61a8,8,0,0,1,2.67-.67c2.68,0,4.6,1.7,4.6,4.08Z" transform="translate(93.63 163.99)"/></svg>
