<svg id="图层_1" data-name="图层 1" xmlns="http://www.w3.org/2000/svg" viewBox="0 0 150 150"><defs><style></style></defs><title>配置icon</title><path class="cls-1" d="M124.9,0a14,14,0,0,0-13.83,13.83A13.84,13.84,0,1,0,124.9,0Z" transform="translate(-47.65 61.13)"/><path class="cls-1" d="M181-61.13H64.32A16.7,16.7,0,0,0,47.65-44.47V72.2A16.71,16.71,0,0,0,64.32,88.87H181A16.71,16.71,0,0,0,197.65,72.2V-44.47A16.71,16.71,0,0,0,181-61.13ZM169.45,18.5a4.14,4.14,0,0,1-4.13,4.12h-9.94a31.65,31.65,0,0,1-2.72,6.54l7,7a4.12,4.12,0,0,1,0,5.83l-6.6,6.6a4.12,4.12,0,0,1-5.83,0l-7-7a31.12,31.12,0,0,1-6.54,2.72v10a4.14,4.14,0,0,1-4.12,4.12h-9.33a4.14,4.14,0,0,1-4.12-4.12v-10a31.88,31.88,0,0,1-6.54-2.72l-7,7a4.12,4.12,0,0,1-5.83,0L90.12,42a4.12,4.12,0,0,1,0-5.83l7-7a30.9,30.9,0,0,1-2.72-6.54H84.5a4.14,4.14,0,0,1-4.13-4.12V9.18A4.14,4.14,0,0,1,84.5,5.05h9.94a32.39,32.39,0,0,1,2.7-6.54l-7-7a4.12,4.12,0,0,1,0-5.83l6.6-6.6a4.12,4.12,0,0,1,5.83,0l7,7a30.57,30.57,0,0,1,6.54-2.71v-9.95a4.13,4.13,0,0,1,4.12-4.12h9.33a4.13,4.13,0,0,1,4.12,4.12v10a31.06,31.06,0,0,1,6.54,2.7l7-7a4.12,4.12,0,0,1,5.83,0l6.6,6.6a4.12,4.12,0,0,1,0,5.83l-7,7a31.34,31.34,0,0,1,2.72,6.54h9.94a4.16,4.16,0,0,1,4.14,4.13Z" transform="translate(-47.65 61.13)"/></svg>
