<svg id="图层_1" data-name="图层 1" xmlns="http://www.w3.org/2000/svg" viewBox="0 0 18 18"><defs><style>.cls-1{}</style></defs><title>档案-未点击</title><path class="cls-1" d="M15.61,11.16h-5a.5.5,0,0,1,0-1h5a.5.5,0,0,1,0,1Z"/><path class="cls-1" d="M15.61,13.49h-5a.5.5,0,0,1,0-1h5a.5.5,0,0,1,0,1Z"/><path class="cls-1" d="M15.61,15.88h-5a.5.5,0,0,1,0-1h5a.5.5,0,0,1,0,1Z"/><path class="cls-1" d="M6.89,3V7h-4V3h4m0-1h-4a1,1,0,0,0-1,1V7a1,1,0,0,0,1,1h4a1,1,0,0,0,1-1V3A1,1,0,0,0,6.89,2Z"/><path class="cls-1" d="M6.89,11v4h-4V11h4m0-1h-4a1,1,0,0,0-1,1v4a1,1,0,0,0,1,1h4a1,1,0,0,0,1-1V11A1,1,0,0,0,6.89,10Z"/><path class="cls-1" d="M15.11,3V7h-4V3h4m0-1h-4a1,1,0,0,0-1,1V7a1,1,0,0,0,1,1h4a1,1,0,0,0,1-1h0V3A1,1,0,0,0,15.11,2Z"/></svg>