<svg xmlns="http://www.w3.org/2000/svg" viewBox="0 0 32 32" width="20" height="20" style="border-color: rgba(187,187,187,1);border-width: 0px;border-style: solid" filter="none">

    <g>
    <path d="M8.667 2.667h14.667c0.435 0 0.821 0.208 1.064 0.53l0.002 0.003 3.6 4.8v20c0 0.736-0.597 1.333-1.333 1.333v0h-21.333c-0.736 0-1.333-0.597-1.333-1.333v0-20l3.6-4.8c0.246-0.325 0.632-0.533 1.067-0.533v0zM24.667 8l-2-2.667h-13.333l-2 2.667h17.333zM12 13.333h-2.667v2.667c0 3.682 2.985 6.667 6.667 6.667s6.667-2.985 6.667-6.667v0-2.667h-2.667v2.667c0 2.209-1.791 4-4 4s-4-1.791-4-4v0-2.667z"></path>
    </g>
  </svg>
