<svg id="图层_1" data-name="图层 1" xmlns="http://www.w3.org/2000/svg" viewBox="0 0 175.78 175.78"><defs><style>.cls-1{}.cls-2{fill:#fff;}</style></defs><title>在线客服</title><path class="cls-1" d="M12.11,100A87.89,87.89,0,1,0,100,12.11,87.89,87.89,0,0,0,12.11,100Z" transform="translate(-12.11 -12.11)"/><path class="cls-2" d="M132,154a8.62,8.62,0,0,1-4.52-1.4l-4.5-2.83c-.28,0-.56-.29-.84-.57l-2.53-1.67A43.94,43.94,0,0,1,92,142.71a3.34,3.34,0,0,1-1.4-4.21,2.13,2.13,0,0,1,1.91-1.45c.85,0,1.67-.28,2.54.29a40,40,0,0,0,25,3.93,3,3,0,0,1,2.25.57l3.94,2.53.28.28,4.52,2.83a2.08,2.08,0,0,0,2.25,0,2,2,0,0,0,.84-1.67V137.6a2.94,2.94,0,0,1,1.41-2.53c8.74-5.91,14.1-15.22,14.1-24.8a24,24,0,0,0-.85-6.49,44.23,44.23,0,0,0-2-5.64,3.21,3.21,0,1,1,5.76-2.82,33.08,33.08,0,0,1,2.53,6.77,38.12,38.12,0,0,1,.81,8.19,35.71,35.71,0,0,1-15.5,29v6.49a8.39,8.39,0,0,1-4.22,7.33c-.28,0-.28.28-.56.28A18.13,18.13,0,0,1,132,154Z" transform="translate(-12.11 -12.11)"/><path class="cls-2" d="M44.06,88c0-23.12,21.71-42,48.42-42s48.43,18.89,48.43,42-21.71,42-48.43,42a51.53,51.53,0,0,1-9.29-.84,3,3,0,0,0-2.25.56l-6.16,3.94a1,1,0,0,1-.56.28l-3.11,1.67c-2.83,1.4-5.36,0-5.36-3.11l-.56-8.18a3,3,0,0,0-1.41-2.53C51.39,113.94,44.06,101.27,44.06,88Zm32.69-.26a5,5,0,1,0-5,5A5,5,0,0,0,76.75,87.77Zm19.72,0a5,5,0,1,0-5,5A5,5,0,0,0,96.47,87.77Zm19.74,0a5,5,0,1,0-5,5A5,5,0,0,0,116.21,87.77Z" transform="translate(-12.11 -12.11)"/></svg>