<svg id="图层_1" data-name="图层 1" xmlns="http://www.w3.org/2000/svg" viewBox="0 0 34 35.63"><defs><style>.cls-1{fill:var(--el-color-primary);}</style></defs><title>客服电话</title><path class="cls-1" d="M108.49,99.17a4.89,4.89,0,0,0-4.67-5.11,1.22,1.22,0,1,1,.12-2.43,7.35,7.35,0,0,1,7,7.66,1.16,1.16,0,0,1-1.3,1.16,1.14,1.14,0,0,1-1.16-1.28Zm4.93.24a9.79,9.79,0,0,0-9.36-10.22,1.22,1.22,0,1,1,.12-2.43,12.24,12.24,0,0,1,11.69,12.77,1.23,1.23,0,0,1-2.45-.12ZM97,94.36l-2.08,2.1a28.61,28.61,0,0,0,9.94,10.86l2.19-2a3.67,3.67,0,0,1,5,0l4.61,4,.24.26a3.49,3.49,0,0,1-.28,5.11l-3.51,3.13c-3.37,2.9-11.63-1.89-19.46-10.45S81.65,90.09,85,87.08L88.53,84c0-.12.12-.12.26-.24a3.75,3.75,0,0,1,5.15.85l3.57,4.93A3.56,3.56,0,0,1,97,94.36Z" transform="translate(-83.83 -83.05)"/></svg>