<svg xmlns="http://www.w3.org/2000/svg" viewBox="0 0 32 32" width="20" height="20" style="border-color: rgba(187,187,187,1);border-width: 0px;border-style: solid" filter="none">

    <g>
    <path d="M12.36 19.559c-0.117 0.061-0.255 0.096-0.401 0.096-0.331 0-0.619-0.182-0.77-0.451l-0.002-0.004-0.057-0.127-2.424-5.331c-0.005-0.029-0.007-0.063-0.007-0.097s0.003-0.068 0.008-0.1l-0 0.004c0-0 0-0.001 0-0.001 0-0.241 0.195-0.436 0.436-0.436 0.004 0 0.008 0 0.011 0h-0.001c0.003-0 0.006-0 0.009-0 0.096 0 0.184 0.033 0.254 0.089l-0.001-0.001 2.907 2.036c0.204 0.139 0.456 0.222 0.728 0.223h0c0.002 0 0.004 0 0.006 0 0.162 0 0.317-0.032 0.457-0.091l-0.008 0.003 13.396-6c-2.628-2.894-6.405-4.704-10.605-4.704-0.102 0-0.203 0.001-0.304 0.003l0.015-0c-7.368 0-13.339 4.973-13.339 11.157 0.093 3.49 1.886 6.543 4.577 8.371l0.036 0.023c0.219 0.163 0.359 0.42 0.359 0.71 0 0.092-0.014 0.181-0.041 0.265l0.002-0.006-0.6 2.268c-0.034 0.094-0.058 0.203-0.068 0.316l-0 0.005c-0 0.003-0 0.006-0 0.009 0 0.241 0.195 0.436 0.436 0.436 0.003 0 0.007-0 0.010-0h-0c0.094-0.005 0.181-0.033 0.256-0.079l-0.002 0.001 2.907-1.687c0.213-0.131 0.457-0.201 0.708-0.203 0.132 0 0.263 0.019 0.387 0.057 1.417 0.4 2.881 0.603 4.353 0.6 7.367 0 13.347-4.972 13.347-11.107 0-0.022 0-0.048 0-0.073 0-1.891-0.545-3.655-1.486-5.143l0.023 0.040-15.509 8.928z"></path>
    </g>
  </svg>
