<svg id="图层_1" data-name="图层 1" xmlns="http://www.w3.org/2000/svg" viewBox="0 0 150 150"><defs><style></style></defs><title>商机icon</title><polygon class="cls-1" points="79.35 47.29 59.06 74.46 70.29 74.46 70.29 92.57 90.58 65.4 79.35 65.4 79.35 47.29"/><path class="cls-1" d="M90.68-187.2H-26a16.7,16.7,0,0,0-16.67,16.66V-53.87A16.72,16.72,0,0,0-26-37.2H90.68a16.72,16.72,0,0,0,16.66-16.67V-170.54A16.71,16.71,0,0,0,90.68-187.2ZM50.45-75.8a9,9,0,0,1-9.06,9.06H23.28a9,9,0,0,1-9-9.06v-4.35H50.45ZM60.59-98.62c-2.54,3.26-8.69,8-9.78,13.4H13.86v-.36c-1.45-5.8-7.24-10.5-9.78-13.4a35.43,35.43,0,0,1-8-22.46,36.33,36.33,0,0,1,36.23-36.22,36.33,36.33,0,0,1,36.22,36.22A35.69,35.69,0,0,1,60.59-98.62Z" transform="translate(42.66 187.2)"/></svg>
