<svg id="图层_1" data-name="图层 1" xmlns="http://www.w3.org/2000/svg" viewBox="0 0 150 150"><defs><style></style></defs><title>商品icon</title><path class="cls-1" d="M-4-192.46H-129a12.5,12.5,0,0,0-12.5,12.5V-55A12.5,12.5,0,0,0-129-42.46H-4A12.5,12.5,0,0,0,8.54-55V-180A12.5,12.5,0,0,0-4-192.46ZM-69.51-73.18H-97.39A7.7,7.7,0,0,1-105-80.94v-34.12a7.69,7.69,0,0,1,7.63-7.75h27.88Zm0-53.44h-36.22a3.9,3.9,0,0,1-3.87-3.94v-11.21a3.9,3.9,0,0,1,3.87-3.94h36.22Zm-.9-22.83H-83.95c-3.68,0-3.68-3.73-3.35-6.61s1.4-7.08,4.92-5.12c4,2.24,10.79,5.78,12.86,7C-66.72-152.44-66.72-149.45-70.41-149.45Zm6.95-4.75c2.07-1.26,8.84-4.8,12.87-7,3.52-2,4.58,2.24,4.92,5.11s.33,6.62-3.36,6.62H-62.56C-66.25-149.51-66.25-152.5-63.46-154.2ZM-27.9-80.94a7.7,7.7,0,0,1-7.63,7.76H-63.41v-49.63h27.88a7.69,7.69,0,0,1,7.63,7.75Zm4.58-49.62a3.9,3.9,0,0,1-3.87,3.94H-63.41v-19.09h36.22a3.9,3.9,0,0,1,3.87,3.94Z" transform="translate(141.46 192.46)"/></svg>
