<svg id="图层_1" data-name="图层 1" xmlns="http://www.w3.org/2000/svg" viewBox="0 0 160 177.78"><defs></defs><title>我的分享-选中状态</title><path class="cls-1" d="M2182.32-802.82H2040.1a8.89,8.89,0,0,0-8.89,8.89v160a8.89,8.89,0,0,0,8.89,8.89h142.22a8.89,8.89,0,0,0,8.89-8.89v-160A8.89,8.89,0,0,0,2182.32-802.82Zm-87.46,63.48s15.09-5.95,30.6-6.5l-9.58-11.46s-2.92-4.27.75-7.29a6.47,6.47,0,0,1,8.12,0l28.37,24.34a3.29,3.29,0,0,1,1.31,2.55,3.91,3.91,0,0,1-1.07,2.65l-29.68,26s-3.71,3.32-7.48.73c0,0-3.44-2.84-1.6-5.77,0,0,6.59-9.21,10.63-12.64,0,0-20.95-5.93-37.09,7.5,0,0-11.8,9.53-12.41,20.65,0,0,.54,3.58-4,3.08,0,0-2.73-.35-3.79-5.84C2068-701.32,2063.3-726.52,2094.86-739.34Zm-23.34,66.86a4.81,4.81,0,0,1-4.8-4.8,4.81,4.81,0,0,1,4.8-4.8h74v-15a4.81,4.81,0,0,1,4.8-4.8h.27a4.82,4.82,0,0,1,4.81,4.8v24.62Z" transform="translate(-2031.21 802.82)"/></svg>
