<svg id="图层_1" data-name="图层 1" xmlns="http://www.w3.org/2000/svg" viewBox="0 0 18 18"><defs><style></style></defs><title>分享-点击</title><path class="cls-1" d="M3.24,13A2.86,2.86,0,1,1,6.1,10.15,2.86,2.86,0,0,1,3.24,13Zm0-4.47a1.61,1.61,0,1,0,1.61,1.61A1.61,1.61,0,0,0,3.24,8.54Z"/><path class="cls-1" d="M15.2,16.75a2.5,2.5,0,1,1,2.5-2.5A2.5,2.5,0,0,1,15.2,16.75Zm0-3.74a1.25,1.25,0,1,0,1.25,1.24A1.25,1.25,0,0,0,15.2,13Z"/><path class="cls-1" d="M13.22,5.39a2.23,2.23,0,1,1,2.23-2.23A2.23,2.23,0,0,1,13.22,5.39Zm0-3.21a1,1,0,1,0,1,1A1,1,0,0,0,13.22,2.18Z"/><rect class="cls-1" x="4.3" y="5.51" width="8.63" height="1.25" transform="matrix(0.84, -0.54, 0.54, 0.84, -1.95, 5.65)"/><rect class="cls-1" x="8.6" y="8.61" width="1.25" height="8.95" transform="translate(-6.32 16.9) rotate(-68.59)"/></svg>