<svg id="图层_1" data-name="图层 1" xmlns="http://www.w3.org/2000/svg" viewBox="0 0 150 150"><defs><style></style></defs><title>数据icon</title><path class="cls-1" d="M-36-168.6H-161a12.5,12.5,0,0,0-12.5,12.5v125A12.5,12.5,0,0,0-161-18.6H-36a12.5,12.5,0,0,0,12.5-12.5v-125A12.5,12.5,0,0,0-36-168.6Zm-102.86,50.92a3.17,3.17,0,0,1,4.17-1.62h0l36,16.07,26.78-26.88h0l-5,0a3.19,3.19,0,0,1-3-3.34,3.18,3.18,0,0,1,3-3l12.71-.1a3.14,3.14,0,0,1,2.95,2,3,3,0,0,1,.24,1.19v12.78a3.18,3.18,0,0,1-3.16,3.18,3.19,3.19,0,0,1-3.17-3.18v-5.09L-95.69-97.19a3.15,3.15,0,0,1-3.53.65l-38-16.94A3.19,3.19,0,0,1-138.82-117.68Zm21.89,26.73V-57a6.35,6.35,0,0,1-6.34,6.36h-8.44A6.34,6.34,0,0,1-138-57v-33.9a6.35,6.35,0,0,1,6.33-6.37h8.44a6.35,6.35,0,0,1,6.34,6.37Zm29.55,33.89a6.36,6.36,0,0,1-6.34,6.37h-8.43a6.35,6.35,0,0,1-6.34-6.37V-82.48a6.34,6.34,0,0,1,6.34-6.36h8.43a6.36,6.36,0,0,1,6.34,6.36Zm29.55,0a6.35,6.35,0,0,1-6.33,6.37H-72.6A6.35,6.35,0,0,1-78.94-57V-99.43a6.35,6.35,0,0,1,6.34-6.37h8.44v0a6.34,6.34,0,0,1,6.33,6.35Z" transform="translate(173.46 168.6)"/></svg>
