<svg id="图层_1" data-name="图层 1" xmlns="http://www.w3.org/2000/svg" viewBox="0 0 18 18"><defs><style></style></defs><title>icon</title><path class="cls-1" d="M15.93,11.93v3.72h-14V11.93h14m0-1h-14a1,1,0,0,0-1,1v3.72a1,1,0,0,0,1,1h14a1,1,0,0,0,1-1V11.93A1,1,0,0,0,15.93,10.93Z"/><path class="cls-1" d="M13.17,2.35l2.44,8.55H2.25L4.69,2.35h8.48m.76-1h-10L.93,11.9h16Z"/><path class="cls-1" d="M12.43,7.13h-7a.5.5,0,0,1-.5-.5.5.5,0,0,1,.5-.5h7a.5.5,0,0,1,.5.5A.5.5,0,0,1,12.43,7.13Z"/><path class="cls-1" d="M12.43,9.08h-7a.5.5,0,0,1-.5-.5.5.5,0,0,1,.5-.5h7a.5.5,0,0,1,.5.5A.5.5,0,0,1,12.43,9.08Z"/><path class="cls-1" d="M10.23,14.29h-7a.5.5,0,0,1-.5-.5.5.5,0,0,1,.5-.5h7a.5.5,0,0,1,.5.5A.5.5,0,0,1,10.23,14.29Z"/><path class="cls-1" d="M14.43,14.29h-2a.5.5,0,0,1-.5-.5.5.5,0,0,1,.5-.5h2a.5.5,0,0,1,.5.5A.5.5,0,0,1,14.43,14.29Z"/></svg>
