<svg id="图层_1" data-name="图层 1" xmlns="http://www.w3.org/2000/svg" viewBox="0 0 18 18"><defs><style></style></defs><title>icon</title><path class="cls-1" d="M15.61,11.16h-5a.51.51,0,0,1-.5-.5.5.5,0,0,1,.5-.5h5a.5.5,0,0,1,.5.5A.5.5,0,0,1,15.61,11.16Z"/><path class="cls-1" d="M15.61,13.49h-5a.5.5,0,0,1-.5-.5.51.51,0,0,1,.5-.5h5a.5.5,0,0,1,.5.5A.5.5,0,0,1,15.61,13.49Z"/><path class="cls-1" d="M15.61,15.88h-5a.5.5,0,0,1-.5-.5.51.51,0,0,1,.5-.5h5a.5.5,0,0,1,.5.5A.5.5,0,0,1,15.61,15.88Z"/><path class="cls-1" d="M6.89,3V7h-4V3h4m0-1h-4a1,1,0,0,0-1,1V7a1,1,0,0,0,1,1h4a1,1,0,0,0,1-1V3a1,1,0,0,0-1-1Z"/><path class="cls-1" d="M6.89,11v4h-4V11h4m0-1h-4a1,1,0,0,0-1,1v4a1,1,0,0,0,1,1h4a1,1,0,0,0,1-1V11a1,1,0,0,0-1-1Z"/><path class="cls-1" d="M15.11,3V7h-4V3h4m0-1h-4a1,1,0,0,0-1,1V7a1,1,0,0,0,1,1h4a1,1,0,0,0,1-1V3a1,1,0,0,0-1-1Z"/></svg>
