<svg id="图层_1" data-name="图层 1" xmlns="http://www.w3.org/2000/svg" viewBox="0 0 18 18"><defs><style></style></defs><title>icon</title><path class="cls-1" d="M16.64,12.47H1.44V3.29a1.51,1.51,0,0,1,1.5-1.5h12.2a1.5,1.5,0,0,1,1.5,1.5Zm-14.2-1h13.2V3.29a.5.5,0,0,0-.5-.5H2.94a.51.51,0,0,0-.5.5Z"/><path class="cls-1" d="M11.17,13.23a1,1,0,0,1,.12.48.93.93,0,0,1-.15.52H17a1.28,1.28,0,0,1-1.3,1.18H2.35A1.3,1.3,0,0,1,1,14.23h5.9a1,1,0,0,1-.15-.52,1.36,1.36,0,0,1,.12-.48H0v.87a2.31,2.31,0,0,0,2.31,2.31H15.73A2.3,2.3,0,0,0,18,14.1h0v-.87Z"/></svg>
