<svg id="图层_1" data-name="图层 1" xmlns="http://www.w3.org/2000/svg" viewBox="0 0 18 18"><defs><style></style></defs><title>icon</title><path class="cls-1" d="M13.34,5.92H11.86v-1A2.17,2.17,0,0,0,9.69,2.72h-5A2.17,2.17,0,0,0,2.49,4.89v5a2.17,2.17,0,0,0,2.17,2.17H6.14v1a2.17,2.17,0,0,0,2.17,2.17h5a2.17,2.17,0,0,0,2.17-2.17v-5A2.17,2.17,0,0,0,13.34,5.92Zm1.18,7.19a1.18,1.18,0,0,1-1.18,1.19h-5a1.18,1.18,0,0,1-1.18-1.19v-1H9.69a2.17,2.17,0,0,0,2.17-2.17V8.47a.5.5,0,0,0-1,0V9.91a1.18,1.18,0,0,1-1.18,1.18h-5A1.18,1.18,0,0,1,3.48,9.91v-5A1.18,1.18,0,0,1,4.66,3.7h5a1.18,1.18,0,0,1,1.18,1.19v1H8.31A2.17,2.17,0,0,0,6.14,8.09V9.51a.5.5,0,0,0,1,0V8.09A1.18,1.18,0,0,1,8.31,6.91h5a1.18,1.18,0,0,1,1.18,1.18v5Z"/></svg>
