<svg id="图层_1" data-name="图层 1" xmlns="http://www.w3.org/2000/svg" viewBox="0 0 18 18"><defs><style></style></defs><title>icon</title><path class="cls-1" d="M16.6,13.71H1.4V4.53A1.5,1.5,0,0,1,2.9,3H15.1a1.5,1.5,0,0,1,1.5,1.5Zm-14.2-1H15.6V4.53a.5.5,0,0,0-.5-.5H2.9a.5.5,0,0,0-.5.5Z"/><path class="cls-1" d="M14.24,15.47H3.76a.5.5,0,0,1-.5-.5.51.51,0,0,1,.5-.5H14.24a.51.51,0,0,1,.5.5A.5.5,0,0,1,14.24,15.47Z"/><path class="cls-1" d="M14.66,10.2H9a.51.51,0,0,1-.46-.3L7.21,7,6.1,9.88a.49.49,0,0,1-.46.32H3.34a.5.5,0,0,1-.5-.5.5.5,0,0,1,.5-.5h2L6.7,5.52a.51.51,0,0,1,.93,0L9.32,9.2h5.34a.5.5,0,0,1,.5.5A.5.5,0,0,1,14.66,10.2Z"/></svg>
