<svg id="图层_1" data-name="图层 1" xmlns="http://www.w3.org/2000/svg" viewBox="0 0 272 219.07"><defs><style>.cls-1{}.cls-2{}.cls-3{fill:#fff;}</s  tyle></defs><path class="cls-1" d="M272,80c0-10.65-9.15-19.28-20.44-19.28H20.45C9.16,60.67,0,69.3,0,80V199.79c0,10.64,9.16,19.28,20.45,19.28H251.56c11.29,0,20.44-8.64,20.44-19.28Z"/><path class="cls-2" d="M184.46,84.48H87.55A19.33,19.33,0,0,1,68.24,65.17V19.31A19.33,19.33,0,0,1,87.55,0h96.91a19.33,19.33,0,0,1,19.31,19.31V65.17A19.33,19.33,0,0,1,184.46,84.48ZM90.89,14.08a6.82,6.82,0,0,0-6.81,6.81v42.7a6.82,6.82,0,0,0,6.81,6.81h90.23a6.82,6.82,0,0,0,6.81-6.81V20.89a6.82,6.82,0,0,0-6.81-6.81Z"/><path class="cls-2" d="M174.54,40.39H97.47c-1.93,0-3.5-1.91-3.5-4.26s1.57-4.27,3.5-4.27h77.07c1.93,0,3.5,1.91,3.5,4.27S176.47,40.39,174.54,40.39Z"/><path class="cls-3" d="M74.66,164.33H53.83v-10H74.66v-7.27H53.83V137H70L50.38,97.7H72.15l6.43,17.36c2.14,6,4.29,12,6.54,17.85h.59c2.15-5.94,4.4-12,6.68-17.85l6.3-17.36H120L100.21,137h16.36v10.11H95.64v7.27h20.83v10H95.64v19.75h-21Z"/><path class="cls-3" d="M215,95.58H160a6.68,6.68,0,0,0-6.13,6v74.58h-2.33a2.56,2.56,0,0,1-2-2.08V121.47a4,4,0,0,0-1.17-7.85h-.6a6.66,6.66,0,0,0-6.24,6.65v0h0V178a6.67,6.67,0,0,0,5.92,6.22h68.25a6.66,6.66,0,0,0,5.9-6.08V101.74A6.66,6.66,0,0,0,215,95.58Z"/><path class="cls-1" d="M166.94,145.78a3.91,3.91,0,0,0,3.91,3.92h32.86a3.92,3.92,0,1,0,0-7.83H170.84A3.9,3.9,0,0,0,166.94,145.78Zm0,14.79a3.91,3.91,0,0,0,3.91,3.92h32.86a3.92,3.92,0,1,0,0-7.83H170.84A3.91,3.91,0,0,0,166.94,160.57Zm40.68-42.46a6.5,6.5,0,0,0-6.13-6H172.91a6.5,6.5,0,0,0-6,6.48v0h0v10a6.5,6.5,0,0,0,6.09,6.09h28.68a6.51,6.51,0,0,0,5.91-6.48v0h0V118.11ZM197.55,127H176.89a2.52,2.52,0,0,1-2.13-2.06v-2.57a2.5,2.5,0,0,1,2.31-2.33h20.38a2.52,2.52,0,0,1,2.36,2.21v2.51a2.53,2.53,0,0,1-2.26,2.24Z"/></svg>
