<svg id="图层_1" data-name="图层 1" xmlns="http://www.w3.org/2000/svg" viewBox="0 0 20 20"><defs><style>.cls-1{}</style></defs><title>员工</title><path class="cls-1" d="M16,0H4A4,4,0,0,0,0,4V16a4,4,0,0,0,4,4H16a4,4,0,0,0,4-4V4A4,4,0,0,0,16,0Zm.19,16a.93.93,0,0,1-.86.95,13.07,13.07,0,0,1-1.66,0c-1.21,0-2.43,0-3.63,0H5a1.16,1.16,0,0,1-.63-.13A.93.93,0,0,1,3.84,16c0-.55,0-1.11,0-1.67a1.75,1.75,0,0,1,.66-1.41,5,5,0,0,1,1.44-.8c.77-.29,1.51-.66,2.25-1a.24.24,0,0,0,.17-.23l.09-.8a.21.21,0,0,0-.07-.17A3.35,3.35,0,0,1,7.5,8.38v0c0-.08-.07-.11-.16-.12A.38.38,0,0,1,7,7.93c0-.31-.08-.61-.14-.91a.32.32,0,0,1,.2-.4c.08,0,.1-.07.08-.17A3.56,3.56,0,0,1,7.21,5,2.17,2.17,0,0,1,9.08,3.33a1.18,1.18,0,0,0,.61-.16,1.39,1.39,0,0,1,1.11-.1,3,3,0,0,1,2,2.08,3,3,0,0,1,0,1.27c0,.1,0,.15.1.18a.32.32,0,0,1,.23.39c-.05.31-.1.62-.16.94a.33.33,0,0,1-.33.3c-.09,0-.14,0-.16.12a2.73,2.73,0,0,1-.82,1.47.35.35,0,0,0-.12.35c0,.21.06.44.07.65a.32.32,0,0,0,.23.32c.81.39,1.64.77,2.48,1.1a5.31,5.31,0,0,1,1.19.7,1.82,1.82,0,0,1,.64,1.36C16.16,14.88,16.16,15.45,16.15,16Z"/></svg>
