<svg xmlns="http://www.w3.org/2000/svg" viewBox="0 0 32 32" width="18" height="18" style="border-color: rgba(187,187,187,1);border-width: 0px;border-style: solid" filter="none">
    <path d="M16 18.667v10.667h-10.667c0-5.891 4.776-10.667 10.667-10.667v0zM16 17.333c-4.42 0-8-3.58-8-8s3.58-8 8-8 8 3.58 8 8-3.58 8-8 8zM19.46 25.083c-0.081-0.325-0.127-0.698-0.127-1.082s0.046-0.757 0.133-1.114l-0.007 0.032-1.323-0.764 1.333-2.309 1.323 0.764c0.514-0.488 1.142-0.861 1.84-1.074l0.033-0.009v-1.527h2.667v1.527c0.709 0.211 1.349 0.587 1.873 1.083l1.323-0.764 1.333 2.309-1.323 0.764c0.080 0.325 0.127 0.698 0.127 1.081s-0.046 0.757-0.133 1.113l0.007-0.032 1.323 0.764-1.333 2.309-1.323-0.764c-0.514 0.488-1.142 0.861-1.84 1.074l-0.033 0.009v1.527h-2.667v-1.527c-0.731-0.222-1.359-0.595-1.875-1.085l0.002 0.002-1.323 0.764-1.333-2.309 1.323-0.763zM24 22.667c-0.736 0-1.333 0.597-1.333 1.333s0.597 1.333 1.333 1.333v0c0.736 0 1.333-0.597 1.333-1.333s-0.597-1.333-1.333-1.333v0z"></path>
  </svg>