<svg xmlns="http://www.w3.org/2000/svg" viewBox="0 0 1024 1024" width="17" height="17" style="border-color: rgba(187,187,187,1);border-width: 0px;border-style: solid" filter="none">
    <path d="M911.36 112.64a61.44 61.44 0 0 1 61.44 61.44v535.40864a61.44 61.44 0 0 1-61.44 61.44H112.64a61.44 61.44 0 0 1-61.44-61.44V174.08a61.44 61.44 0 0 1 61.44-61.44h798.72zM676.56704 507.60704H347.4432a32.91136 32.91136 0 1 0 0 65.83296H676.5568a32.91136 32.91136 0 1 0 0-65.83296z m0-164.56704H347.4432a32.91136 32.91136 0 1 0 0 65.83296H676.5568a32.91136 32.91136 0 1 0 0-65.83296z" fill="unset" stroke="none"></path><path d="M149.94432 836.75136m32.91136 0l658.28864 0q32.91136 0 32.91136 32.91136l0 0.01024q0 32.91136-32.91136 32.91136l-658.28864 0q-32.91136 0-32.91136-32.91136l0-0.01024q0-32.91136 32.91136-32.91136Z" fill="unset" stroke="none"></path>
  </svg>