<svg id="图层_1" data-name="图层 1" xmlns="http://www.w3.org/2000/svg" viewBox="0 0 150 150"><defs><style></style></defs><title>首页icon</title><path class="cls-1" d="M101-167H-24a12.5,12.5,0,0,0-12.5,12.5h0v125A12.5,12.5,0,0,0-24-17H101a12.5,12.5,0,0,0,12.5-12.5v-125A12.5,12.5,0,0,0,101-167ZM9.34-125.3A16.7,16.7,0,0,1,26-108.6,16.7,16.7,0,0,1,9.34-91.9a16.7,16.7,0,0,1-16.7-16.7A16.73,16.73,0,0,1,9.34-125.3Zm29.2,61.7c0,2.8-2.6,5-5.8,5H-14c-3.2,0-5.8-2.2-5.8-5v-5c0-8.3,7.8-15,17.5-15H-1a26.8,26.8,0,0,0,20.8,0h1.3c9.7,0,17.5,6.7,17.5,15v5Zm58.3-13.8a2.11,2.11,0,0,1-2.1,2.1H57.24a2.11,2.11,0,0,1-2.1-2.1v-4.2a2.11,2.11,0,0,1,2.1-2.1h37.5a2.11,2.11,0,0,1,2.1,2.1Zm0-16.7a2.11,2.11,0,0,1-2.1,2.1H57.24a2.11,2.11,0,0,1-2.1-2.1v-4.2a2.11,2.11,0,0,1,2.1-2.1h37.5a2.11,2.11,0,0,1,2.1,2.1Zm0-16.6a2.11,2.11,0,0,1-2.1,2.1H57.24a2.11,2.11,0,0,1-2.1-2.1v-4.2a2.11,2.11,0,0,1,2.1-2.1h37.5a2.11,2.11,0,0,1,2.1,2.1Z" transform="translate(36.46 167)"/></svg>
