<svg id="图层_1" data-name="图层 1" xmlns="http://www.w3.org/2000/svg" viewBox="0 0 150 166.67"><defs><style></style></defs><title>首页</title><polygon class="cls-1" points="60.57 96.44 66.77 96.44 66.77 96.44 66.77 80.8 66.77 77.14 57.01 77.14 57.01 77.14 57.01 96.44 60.57 96.44 60.57 96.44"/><polygon class="cls-1" points="73.58 96.44 79.78 96.44 79.78 96.44 79.78 64.24 79.78 60.48 70.02 60.48 70.02 96.44 73.58 96.44 73.58 96.44"/><polygon class="cls-1" points="92.78 96.44 92.78 74.09 92.78 70.69 83.03 70.69 83.03 96.44 92.78 96.44 92.78 96.44"/><path class="cls-1" d="M372.72-182H239.38a8.34,8.34,0,0,0-8.33,8.34v150a8.33,8.33,0,0,0,8.33,8.33H372.72a8.33,8.33,0,0,0,8.33-8.33v-150A8.34,8.34,0,0,0,372.72-182ZM306.05-48.76a50,50,0,0,1-50-49.95,50,50,0,0,1,50-50,50,50,0,0,1,50,50A50,50,0,0,1,306.05-48.76Z" transform="translate(-231.05 182.05)"/><polygon class="cls-1" points="50.71 106.19 53.92 106.19 99.29 106.19 99.29 103.04 99.29 99.84 50.71 99.84 50.71 106.19"/></svg>
