<svg id="图层_1" data-name="图层 1" xmlns="http://www.w3.org/2000/svg" viewBox="0 0 200.82 165.28"><defs><style>.cls-1{}.cls-2{fill:#fff;}</style></defs><title>慧贸盒子</title><line class="cls-1" x1="61.56" y1="88.09" x2="47.39" y2="6"/><path class="cls-1" d="M61.55,94.09a6,6,0,0,1-5.9-5L41.48,7A6,6,0,0,1,53.3,5L67.47,87.07a6,6,0,0,1-5.92,7Z"/><line class="cls-1" x1="139.25" y1="88.09" x2="153.42" y2="6"/><path class="cls-1" d="M139.26,94.09a6.06,6.06,0,0,1-1-.09,6,6,0,0,1-4.89-6.93L147.51,5a6,6,0,1,1,11.82,2L145.16,89.11A6,6,0,0,1,139.26,94.09Z"/><rect class="cls-1" y="59.67" width="200.82" height="105.62" rx="18.76"/><path class="cls-2" d="M46.18,86.62h33.7A12.22,12.22,0,0,1,92.1,98.84h0a12.22,12.22,0,0,1-12.22,12.21H46.18A12.22,12.22,0,0,1,34,98.84h0A12.22,12.22,0,0,1,46.18,86.62Z"/><rect class="cls-2" x="33.96" y="120.17" width="58.14" height="24.43" rx="12.21"/><path class="cls-2" d="M163.78,143.09H115.72a12.18,12.18,0,0,1-12.17-12.17V97.7a12.18,12.18,0,0,1,12.17-12.17h48.06A12.18,12.18,0,0,1,176,97.7v33.22A12.18,12.18,0,0,1,163.78,143.09ZM115.72,95.53a2.17,2.17,0,0,0-2.17,2.17v33.22a2.17,2.17,0,0,0,2.17,2.17h48.06a2.17,2.17,0,0,0,2.17-2.17V97.7a2.17,2.17,0,0,0-2.17-2.17Z"/><circle class="cls-2" cx="139.98" cy="115.2" r="9.53"/><path class="cls-1" d="M98,33.15A24,24,0,0,0,81.53,43a3.73,3.73,0,0,0,6.35,3.9v-.09a16.86,16.86,0,0,1,10.88-6.27c4.9-.53,9.82,1.8,14.6,6.91a3.73,3.73,0,0,0,5.45-5.09C110.74,33.77,103,32.61,98,33.15Zm.67-13.41c-14.06.65-23.49,10.68-25.23,12.69a3.73,3.73,0,0,0,5.62,4.89c.85-1,8.69-9.61,20-10.13,7.68-.35,15.42,3.14,23,10.38a3.73,3.73,0,0,0,5.14-5.39c-9.11-8.71-18.7-12.89-28.48-12.44Z"/></svg>
