<svg id="图层_1" data-name="图层 1" xmlns="http://www.w3.org/2000/svg" viewBox="0 0 18 18"><defs><style>.cls-1{}</style></defs><title>分享-未点击</title><path class="cls-1" d="M14.94,5.05H12.39V4.86A2.83,2.83,0,0,0,9.6,2H7.69A2.82,2.82,0,0,0,4.91,4.86v.19H2.35a1.07,1.07,0,0,0-1,1.09V9.51l1.23,1H7.17V9.62h3v.86h4.57l1.26-1,0,0V6.13A1.07,1.07,0,0,0,14.94,5.05Zm-3.86,0H6.21V5A1.84,1.84,0,0,1,8,3.12H9.27A1.84,1.84,0,0,1,11.08,5v.06ZM15,11.62H10.15v.65h-3v-.65H2.25l0,.05-.92-.73v3.94A1.07,1.07,0,0,0,2.35,16H14.94A1.07,1.07,0,0,0,16,14.88v-4l-1,.77Z"/></svg>
