<svg id="图层_1" data-name="图层 1" xmlns="http://www.w3.org/2000/svg" viewBox="0 0 191.67 183.33"><defs><style>.cls-1{}</style></defs><title>视频教程小icon</title><path class="cls-1" d="M87.92,41.67,59.58,8.33H27.5L55.83,41.67Zm83.33,0L142.92,8.33H110.83l28.34,33.34Zm-41.67,0L101.25,8.33H69.17L97.5,41.67ZM183.33,8.33H152.5l28.33,33.34h15V20.83A12.27,12.27,0,0,0,183.33,8.33Zm-165.41,0H16.67a12.27,12.27,0,0,0-12.5,12.5V41.67H46.25ZM4.17,179.17a12.27,12.27,0,0,0,12.5,12.5H183.33a12.27,12.27,0,0,0,12.5-12.5V50H4.17ZM70.83,87.5c0-7.08,5.84-10.42,12.5-10.42A13.19,13.19,0,0,1,90,78.75l47.5,27.5a11.81,11.81,0,0,1,0,20.83L90,154.58a12.23,12.23,0,0,1-6.67,1.67c-6.66,0-12.5-3.33-12.5-10.42Z" transform="translate(-4.17 -8.33)"/></svg>
