<svg id="图层_1" data-name="图层 1" xmlns="http://www.w3.org/2000/svg" viewBox="0 0 150 166.67"><defs><style></style></defs><title>我的分享</title><path class="cls-1" d="M694.67-318.26H561.33a8.33,8.33,0,0,0-8.33,8.33v150a8.33,8.33,0,0,0,8.33,8.33H694.67a8.33,8.33,0,0,0,8.33-8.33v-150A8.33,8.33,0,0,0,694.67-318.26Zm-82,59.51s14.15-5.58,28.69-6.09l-9-10.75s-2.74-4,.7-6.83a6.08,6.08,0,0,1,7.62,0l26.59,22.82a3.08,3.08,0,0,1,1.23,2.39,3.66,3.66,0,0,1-1,2.48L639.7-230.34s-3.49,3.12-7,.69c0,0-3.23-2.67-1.5-5.41,0,0,6.18-8.63,10-11.85,0,0-19.63-5.56-34.77,7,0,0-11.06,8.93-11.63,19.36,0,0,.5,3.35-3.72,2.89,0,0-2.56-.33-3.56-5.48C587.44-223.11,583.09-246.73,612.67-258.75ZM590.8-196.07a4.51,4.51,0,0,1-4.51-4.5,4.51,4.51,0,0,1,4.51-4.5h69.38v-14.08a4.51,4.51,0,0,1,4.5-4.5h.26a4.51,4.51,0,0,1,4.5,4.5v23.08Z" transform="translate(-553 318.26)"/></svg>
