<svg xmlns="http://www.w3.org/2000/svg" viewBox="0 0 1024 1024" width="17" height="17" style="border-color: rgba(187,187,187,1);border-width: 0px;border-style: solid" filter="none">
    <path d="M868.1472 134.2464H128.9216c-26.2144 0-47.2064 15.872-47.2064 42.2912v598.1184c0 21.0944 20.992 42.2912 41.984 42.2912h296.3456l-7.9872 84.48H354.304c-20.992 0-36.6592 26.4192-36.6592 47.5136h351.3344c5.2224-15.872-10.4448-47.5136-31.4368-47.5136h-57.6512l-7.9872-84.48h296.3456c20.992 0 41.984-21.0944 41.984-42.2912V176.5376c-0.1024-26.4192-21.0944-42.2912-42.0864-42.2912zM199.5776 257.4336a71.00416 71.00416 0 0 1 49.7664-20.7872c18.432 0 36.7616 7.68 49.7664 20.7872a72.02816 72.02816 0 0 1 20.5824 50.176c0 18.5344-7.5776 37.0688-20.5824 50.176a71.00416 71.00416 0 0 1-49.7664 20.7872c-18.432 0-36.7616-7.68-49.7664-20.7872a72.02816 72.02816 0 0 1-20.5824-50.176c-0.1024-18.5344 7.5776-37.0688 20.5824-50.176z m261.12 420.6592H163.328v-23.6544h297.3696v23.6544z m0-47.3088H163.328v-23.6544h297.3696v23.6544z m0-47.3088H163.328v-23.6544h297.3696v23.6544z m0-39.424H163.328v-23.6544h297.3696v23.6544z m0-47.3088H163.328V473.088h297.3696v23.6544z m367.8208 181.3504H531.1488V473.088h297.3696v205.0048z m0-338.944H531.1488v-23.6544h297.3696v23.6544z m0-47.3088H531.1488v-23.6544h297.3696v23.6544z" fill=""></path>
  </svg>
