<svg id="图层_1" data-name="图层 1" xmlns="http://www.w3.org/2000/svg" viewBox="0 0 150 150"><defs><style></style></defs><title>销售icon</title><path class="cls-1" d="M118.83-75.51a8,8,0,0,0-5.29-3.5s-11.39-1.88-12.23-2a3.18,3.18,0,0,0-3.41,1.92c-.81,1.64-4.32,11.62-4.32,11.62-1.4,4,.3,6.38.3,6.38l14.43,25s1.46,2.54,3.91,1.12l20-11.54a2.83,2.83,0,0,0,1.09-4ZM106.42-68.1a4.28,4.28,0,0,1-5.89-1.6,4.4,4.4,0,0,1,1.58-6,4.27,4.27,0,0,1,5.88,1.6A4.4,4.4,0,0,1,106.42-68.1Z" transform="translate(-38.37 132.78)"/><path class="cls-1" d="M175.87-132.78h-125a12.5,12.5,0,0,0-12.5,12.5v125a12.5,12.5,0,0,0,12.5,12.5h125a12.5,12.5,0,0,0,12.5-12.5v-125A12.5,12.5,0,0,0,175.87-132.78Zm-16,94.92A9,9,0,0,1,155.26-30L117.47-9.42a8.64,8.64,0,0,1-4.1,1,8.63,8.63,0,0,1-4.09-1L71.49-30a9,9,0,0,1-4.63-7.88V-77.7a8.94,8.94,0,0,1,4.62-7.88l37.8-20.56a8.64,8.64,0,0,1,4.1-1,8.63,8.63,0,0,1,4.09,1l37.79,20.55a9,9,0,0,1,4.63,7.88Z" transform="translate(-38.37 132.78)"/></svg>
