<svg id="图层_1" data-name="图层 1" xmlns="http://www.w3.org/2000/svg" viewBox="0 0 150 150"><defs><style></style></defs><title>学苑icon</title><path class="cls-1" d="M-123.7-73.15h-125a12.5,12.5,0,0,0-12.5,12.5v125a12.5,12.5,0,0,0,12.5,12.5h125a12.5,12.5,0,0,0,12.5-12.5v-125A12.49,12.49,0,0,0-123.7-73.15ZM-155.5,31.07a3,3,0,0,1-.94,2.17,43.78,43.78,0,0,1-29.3,11c-17.21,0-27.85-8.23-31-11a2.9,2.9,0,0,1-1-2.2V8.7a3,3,0,0,1,4-2.76c5.53,2.11,11.66,4.12,18.79,6.62,5.48,2,12.43,2.7,17.41,0,4.8-2,11-5.18,17.83-8.33a3,3,0,0,1,4.19,2.69Zm20.43-44.7V4.14a3,3,0,0,0,.83,2.06l1.09,1.12a3,3,0,0,1,0,4.08l-4.07,4.34a2.94,2.94,0,0,1-4.27,0l-3.94-4a3,3,0,0,1,.09-4.22l2.48-2.31a3,3,0,0,0,.94-2.16V-6.18A3,3,0,0,0-146-8.9c-20.65,8.73-27.71,11.65-32.68,14-5.3,2.45-9.1,2.44-14.35.41S-223.24-5.93-235.65-12c-8.27-4.06-8.81-6.65.15-10.1,11.68-4.55,31-11.85,41.22-15.83,6-2.51,9.23-3.88,14.73-1.07l.18.08c10,4.23,32.57,12.93,43.81,17.7C-125.74-16.85-132.34-15.4-135.07-13.63Z" transform="translate(261.2 73.15)"/></svg>
