<svg id="图层_1" data-name="图层 1" xmlns="http://www.w3.org/2000/svg" viewBox="0 0 150 150"><defs><style></style></defs><title>营销icon</title><path class="cls-1" d="M-179-71.1H-304a12.5,12.5,0,0,0-12.5,12.5v125A12.5,12.5,0,0,0-304,78.9h125a12.5,12.5,0,0,0,12.5-12.5v-125A12.5,12.5,0,0,0-179-71.1ZM-242.61,47.44A43.55,43.55,0,0,1-286.15,3.9a43.55,43.55,0,0,1,43.54-43.55,43.5,43.5,0,0,1,18.08,3.91l-6.91,6.57a6.78,6.78,0,0,0-1.78,6.49l.13.43,1,3.24a25.3,25.3,0,0,0-10.56-2.31A25.22,25.22,0,0,0-267.82,3.9a25.21,25.21,0,0,0,25.21,25.21A25.22,25.22,0,0,0-217.39,3.9,25.25,25.25,0,0,0-219-4.91l5.86,1.67c2.31.77,4.49-.82,6.26-2.53l.29-.29,4.86-5a43.51,43.51,0,0,1,2.64,15A43.55,43.55,0,0,1-242.61,47.44Zm-1.92-39.27c2.42,2.29,7.49,2.07,9.65.29l.26-.23,9.64-9.4a18.34,18.34,0,0,1-12.55,22.69A18.34,18.34,0,0,1-260.22,9a18.34,18.34,0,0,1,12.55-22.69,18.46,18.46,0,0,1,5.06-.71,18.33,18.33,0,0,1,8.17,1.91L-245.68-.73C-247.67,1.26-247,5.78-244.53,8.17Zm47.65-30.7a2.32,2.32,0,0,1-.54.87L-210.31-8.77a4.45,4.45,0,0,1-4.57,1.08L-221.71-10-236.9,5.21a3.34,3.34,0,0,1-4.73.08,3.34,3.34,0,0,1-.08-4.72l.08-.09,15.16-15.15-2.27-6.88a4.45,4.45,0,0,1,1.08-4.55l12.9-12.9a2.24,2.24,0,0,1,3.16,0h0a2.21,2.21,0,0,1,.53.88l3.19,9.59,9.58,3.18A2.23,2.23,0,0,1-196.88-22.53Z" transform="translate(316.46 71.1)"/></svg>
