<svg id="图层_1" data-name="图层 1" xmlns="http://www.w3.org/2000/svg" viewBox="0 0 150 150"><defs><style></style></defs><title>资金icon</title><path class="cls-1" d="M109.53-21.88h40.71a2,2,0,0,0,2.2-2.18c0-1.29,0-2.57,0-3.86a2,2,0,0,0-2.21-2.18H109.4a2,2,0,0,0-2.18,2.15v3.73A2.06,2.06,0,0,0,109.53-21.88Z" transform="translate(-48.54 76.33)"/><path class="cls-1" d="M148.33-11.68c0-1.3,0-2.61,0-3.91a2,2,0,0,0-2.21-2.18H127.68l.35.27a26.56,26.56,0,0,1,7.63,7.6.79.79,0,0,0,.8.36h9.75A2,2,0,0,0,148.33-11.68Z" transform="translate(-48.54 76.33)"/><path class="cls-1" d="M138.15-5.44a1.37,1.37,0,0,0,.19.71A25.52,25.52,0,0,1,140,2.17c0,.49.17.63.67.63,4.58,0,9.16,0,13.74,0A2,2,0,0,0,156.55.64c0-1.29,0-2.57,0-3.85a2,2,0,0,0-2.22-2.23H138.15Z" transform="translate(-48.54 76.33)"/><path class="cls-1" d="M150.49,6.9h-10c-.36,0-.47.13-.49.47a21.47,21.47,0,0,1-.47,3.1,29.63,29.63,0,0,1-1.43,4.66c4.22,0,8.32,0,12.43,0a2,2,0,0,0,1.93-1.94c0-1.45,0-2.91,0-4.36A2,2,0,0,0,150.49,6.9Z" transform="translate(-48.54 76.33)"/><path class="cls-1" d="M135.74,4.91a22.61,22.61,0,1,0-22.63,22.54A22.63,22.63,0,0,0,135.74,4.91ZM113.24,22A16.75,16.75,0,0,1,96.62,5.12,16.73,16.73,0,1,1,113.24,22Z" transform="translate(-48.54 76.33)"/><path class="cls-1" d="M113.39-9.64A14.91,14.91,0,0,0,98.48,5,14.88,14.88,0,1,0,113.39-9.64Zm7,15.22V8h-4.76V9.41h4.76v2.44h-4.76v3h-4.53v-3h-4.88V9.41h4.88V8h-4.88V5.58h3.46l-4-7.09h5.1l2.56,5.57,2.52-5.57H121l-3.9,7.09Z" transform="translate(-48.54 76.33)"/><path class="cls-1" d="M186-76.33H61a12.5,12.5,0,0,0-12.5,12.5v125A12.5,12.5,0,0,0,61,73.67H186a12.5,12.5,0,0,0,12.5-12.5v-125A12.5,12.5,0,0,0,186-76.33ZM123.54,47.58A48.9,48.9,0,0,1,74.64-1.33a48.9,48.9,0,0,1,48.9-48.9,48.9,48.9,0,0,1,48.9,48.9A48.9,48.9,0,0,1,123.54,47.58Z" transform="translate(-48.54 76.33)"/><path class="cls-1" d="M154.15,19.23H136.44a.85.85,0,0,0-.83.43,26.42,26.42,0,0,1-4.15,4.87,33.13,33.13,0,0,1-3.75,2.89l.34,0h26.44a2,2,0,0,0,2.06-2.07c0-1.24,0-2.48,0-3.72C156.56,20,155.83,19.23,154.15,19.23Z" transform="translate(-48.54 76.33)"/></svg>
