<svg xmlns="http://www.w3.org/2000/svg" viewBox="0 0 32 32" width="38" height="38" style="fill: rgba(41, 126, 248, 1);"><path d="M32 22v-15.8c0-3.4-2.8-6.2-6.2-6.2h-19.6c-3.4 0-6.2 2.8-6.2 6.2v19.6c0 3.4 2.8 6.2 6.2 6.2h19.6c3 0 5.6-2.2 6-5-1.6-0.8-8.8-3.8-12.4-5.6-2.8 3.4-5.8 5.4-10.2 5.4s-7.4-2.8-7-6c0.4-2.2 1.8-5.8 8.4-5.2 3.4 0.4 5 1 7.8 2 0.8-1.4 1.4-2.8 1.8-4.4h-12.4v-1.2h6.2v-2.2h-7.6v-1.4h7.6v-3.2s0-0.6 0.6-0.6h3v3.6h8v1.4h-8v2.4h6.6c-0.6 2.4-1.6 4.6-2.6 6.6 1.8 0.6 10.4 3.4 10.4 3.4zM8.8 24.8c-4.6 0-5.4-3-5.2-4.2 0.4-1.2 1.6-2.8 4.2-2.8 3 0 5.6 0.8 8.8 2.4-2 2.8-4.8 4.6-7.8 4.6z"></path></svg>