<svg id="图层_1" data-name="图层 1" xmlns="http://www.w3.org/2000/svg" viewBox="0 0 247.6 35.18"><defs><style>.cls-1{fill:#333;}.cls-2{fill:#ffc102;}</style></defs><title>慧贸贸-组织管理</title><rect class="cls-1" x="147.85" y="1.28" width="0.83" height="32.11"/><path class="cls-1" d="M166.55,18.36a9.64,9.64,0,0,0,0,1.52c-5.3,1.06-6.06,1.26-6.52,1.52a11.15,11.15,0,0,0-.54-1.6c.44-.08.94-.56,1.58-1.28a23.83,23.83,0,0,0,2-2.48,12.63,12.63,0,0,0-3.16.56c-.1-.34-.38-1.2-.58-1.68.4-.1.74-.54,1.2-1.2a28.08,28.08,0,0,0,2.76-5.54L165,9a33.85,33.85,0,0,1-3.28,5.72l2.48-.22c.44-.68.88-1.4,1.26-2.1l1.44.9a40.78,40.78,0,0,1-4.26,5.8Zm-.06,5.24c-2.34.64-4.82,1.28-6.7,1.76l-.32-1.76c1.7-.36,4.3-1,6.84-1.56Zm11.06.88v1.68H166.11V24.51H168V9.2h7.88V24.51Zm-7.78-13.61v3.35h4.28V10.88Zm0,8.44h4.28V15.88h-4.28Zm0,5.16h4.28V21h-4.28Z"/><path class="cls-1" d="M186.41,18.44a8.77,8.77,0,0,0,0,1.62c-5.28,1-6,1.24-6.54,1.52a8.35,8.35,0,0,0-.56-1.64c.48-.1.94-.58,1.56-1.28a25.44,25.44,0,0,0,1.88-2.4,10.58,10.58,0,0,0-3,.54,15.29,15.29,0,0,0-.62-1.76c.4-.1.74-.54,1.18-1.22A26.56,26.56,0,0,0,183,8.24l1.78.81a32,32,0,0,1-3.24,5.83l2.3-.22c.44-.68.88-1.44,1.26-2.16l1.52.92a38.16,38.16,0,0,1-4.08,5.7Zm0,5.4c-2.42.6-4.92,1.22-6.86,1.74l-.34-1.86c1.74-.35,4.42-.93,7-1.53Zm4-3a16.08,16.08,0,0,1-3.16,5.74,12.9,12.9,0,0,0-1.66-1.1,11.76,11.76,0,0,0,2.88-5.06Zm5.88-2.22h-9.16V9.51h9.16Zm-1.92-7.28H189v5.52h5.4Zm.3,9a27.36,27.36,0,0,1,2.7,5.38l-1.86.71A27,27,0,0,0,192.93,21Z"/><path class="cls-1" d="M202.47,11.08a12.38,12.38,0,0,1-1.62,2.32,10,10,0,0,0-1.6-.8,11.29,11.29,0,0,0,2.52-4.52l1.82.35a13,13,0,0,1-.5,1.31h5.08v1.34h-2.78a7.25,7.25,0,0,1,.86,1.6l-1.58.56a10,10,0,0,0-1.1-2.16Zm6.24,1.12a7.59,7.59,0,0,1,.8,1.52h7.24V17.1h-1.88V15.18h-12.8V17.1h-1.78V13.72h7.36c-.18-.4-.38-.82-.58-1.18Zm-4.28,9.38h10.94v5h-1.84V26h-9.1v.62h-1.88V16.22h11.76V20.4h-9.88Zm0-4V19h8.08v-1.4Zm0,5.36v1.57h9.1V23Zm12.78-13.2v1.34H214a9.07,9.07,0,0,1,1,1.52l-1.54.68a11,11,0,0,0-1.42-2.2H210.9a10.35,10.35,0,0,1-1.16,1.64,9,9,0,0,0-1.52-.84,8.63,8.63,0,0,0,2-3.76l1.8.31a10.73,10.73,0,0,1-.46,1.31Z"/><path class="cls-1" d="M225.87,22.51c-2.18.76-4.5,1.54-6.3,2.11l-.44-1.89c.72-.21,1.6-.45,2.56-.74V16.88h-2.16V15.16h2.16v-4h-2.36V9.51h6.36v1.72h-2.22v4h1.9V17h-1.9v4.52c.68-.22,1.4-.44,2.08-.68Zm11.82,1.74V26H224.91v-1.7h5.8V21.84h-4.34V20.16h4.34V18.1h-4.16v-9h10.24v9h-4.18v2.06h4.44v1.68h-4.44v2.38Zm-9.44-11.38h2.62V10.68h-2.62Zm0,3.67h2.62V14.35h-2.62ZM235,10.68h-2.56v2.16H235Zm0,3.64h-2.56v2.19H235Z"/><polygon class="cls-2" points="11.56 14.62 11.56 25.07 14.99 25.07 14.99 19.21 19.04 23.27 23.28 19.03 23.28 25.07 26.7 25.07 26.7 14.62 23.28 14.62 19.13 18.85 14.9 14.71 11.56 14.62"/><path class="cls-2" d="M23.19.47V9.3L19.13,5.25,14.9,9.48V.56A17.53,17.53,0,1,0,23.19.47M29,27.5A13.77,13.77,0,0,1,23.1,31V28.76h2.61l2.52-2.88H20v5.77H18.41V25.88h-8.2l2.52,2.88h2.62V31A14,14,0,0,1,5.8,13.63a13.79,13.79,0,0,1,5.76-7.75v7.93H14.9l4.23-4.24,4.15,4.15h3.33V5.79a14,14,0,0,1,4.32,19.28A9.82,9.82,0,0,1,29,27.5"/><path class="cls-2" d="M20.84,3.36,20,3.27a5.44,5.44,0,0,0-1.71,0l-.81.09V.2l1-.09h1.35l1,.09Z"/><rect class="cls-1" x="46.88" y="0.2" width="0.54" height="34.96"/><path class="cls-1" d="M59,3.35h4.89v.51H67V5.39H63.92V5.9H67V7.23H63.92v.92H67V9.78H63.92v.41H59V9.78H55.66V8.15H59V7.23H55.66V5.9H59V5.39H55.66V3.86H59ZM55.66,12V10.4H79.23v4.18c.07,1.43-.57,2.11-1.93,2H55.66V15H73.21c.55.07.75-.14.62-.61v-.21H55.66V12.85H73.83V12ZM57.6,22.75H55.76V17h3.88v4C59.7,22.24,59,22.81,57.6,22.75ZM74.34,21v1.74H63.52c-1.43.13-2.08-.48-1.94-1.84V17h4.9v3q-.21,1.23,1,1ZM67.5,8.15h3.57V7.23H67.5V5.9h3.57V5.39H67.5V3.86h3.57V3.35H76v.51h3.26V5.39H76V5.9h3.26V7.23H76v.92h3.26V9.78H76v.41h-4.9V9.78H67.5ZM68.42,17h4v3h-4Zm10.81,0v4c.07,1.23-.57,1.8-1.93,1.74H75.36V17Z"/><path class="cls-1" d="M98.34,7.74c.07,1.43-.58,2.11-1.94,2H87.11V3.35H98.34c-.07,1.3-.71,1.94-1.94,1.94H92V7.74h2.15c.54.14.78-.1.71-.71V6.31h3.47ZM87.11,19.07V10.19h23.48v6.94c.07,1.36-.58,2-1.94,1.94h-1.84l3.78,3.68h-5.41l-6.33-6.43-6.43,6.43H87.11l3.68-3.68Zm5.31-6.84v5.11l4.08-4.19h5.31L100,15.09H103l2.14,2.25V12.23Zm6.43-6.94V3.35h11.74V7.74c.14,1.43-.51,2.11-1.94,2h-3V5.29h-2l-.92,4.49H98.85l.92-4.49Z"/><path class="cls-1" d="M129.7,7.74c.06,1.43-.58,2.11-1.94,2h-9.29V3.35H129.7c-.07,1.3-.72,1.94-1.94,1.94h-4.39V7.74h2.14c.55.14.78-.1.72-.71V6.31h3.47ZM118.47,19.07V10.19H142v6.94c.06,1.36-.58,2-1.94,1.94h-1.84L142,22.75h-5.41l-6.33-6.43-6.43,6.43h-5.31l3.67-3.68Zm5.31-6.84v5.11l4.08-4.19h5.31l-1.84,1.94h3.06l2.15,2.25V12.23Zm6.43-6.94V3.35H142V7.74c.13,1.43-.51,2.11-1.94,2h-3V5.29h-2l-.92,4.49h-3.88l.92-4.49Z"/><path class="cls-1" d="M75,33.1l-.57-1.75H71.8l-.61,1.75H69.94l2.64-7.38h1.07l2.64,7.38Zm-2.82-3H74l-.92-2.71Z"/><path class="cls-1" d="M78.25,32H81.6v1.1H77V25.72h4.43V26.9H78.25v1.78h2.93v1.21H78.25Z"/><path class="cls-1" d="M85.53,25.54c2,.14,3.11,1.43,3.21,3.85s-1.13,3.78-3.25,3.85c-2-.12-3.11-1.37-3.21-3.78Q82.46,25.75,85.53,25.54Zm0,6.6c1.31-.07,2-1,2-2.71s-.73-2.62-2-2.71c-1.26.09-1.93,1-2,2.74S84.23,32.07,85.49,32.14Z"/><path class="cls-1" d="M94.41,26.9H92.52v6.2H91.23V26.9h-2V25.72h5.14Z"/><path class="cls-1" d="M98.22,27.82,97.69,29a.8.8,0,0,0-.54-.22c-.52,0-.78.46-.78,1.39v3H95.16V27.61h1.21v.5a1.18,1.18,0,0,1,1.85-.29Z"/><path class="cls-1" d="M103,33.1h-1.25a1.15,1.15,0,0,1-.25-.57,1.48,1.48,0,0,1-1.39.68,1.45,1.45,0,0,1-1.61-1.57,1.79,1.79,0,0,1,1.71-1.85,3.06,3.06,0,0,0,1.14-.33c0-.54-.28-.83-.78-.85s-.78.31-.93.93l-1.14-.33a2.05,2.05,0,0,1,2.07-1.74c1.28,0,1.94.81,2,2.35v1.86A2.3,2.3,0,0,0,103,33.1Zm-1.61-2.21v-.32a2.67,2.67,0,0,1-1,.36c-.55.09-.81.32-.79.67s.24.52.64.54C100.94,32.09,101.31,31.68,101.36,30.89Z"/><path class="cls-1" d="M107.07,25.68h1.24V33.1h-1.24v-.46a1.63,1.63,0,0,1-1.39.57c-1.48,0-2.22-.9-2.22-2.78s.82-2.91,2.32-3a1.54,1.54,0,0,1,1.29.6Zm0,5V30c0-.85-.42-1.29-1.18-1.32s-1.18.62-1.18,1.79.39,1.74,1.18,1.74S107.07,31.65,107.07,30.68Z"/><path class="cls-1" d="M112.42,31.18l1.17.35a2.07,2.07,0,0,1-2.21,1.71c-1.5,0-2.27-1-2.32-2.78s.85-2.9,2.32-3,2.22,1,2.25,3v.4h-3.32c.1.85.45,1.29,1.07,1.31S112.27,31.87,112.42,31.18Zm-2.07-1.47h2c0-.71-.34-1.08-1-1.1S110.44,29,110.35,29.71Z"/><path class="cls-1" d="M117.41,25.54c2,.14,3.11,1.43,3.21,3.85q-.08,3.75-3.25,3.85c-2-.12-3.11-1.37-3.21-3.78Q114.34,25.75,117.41,25.54Zm0,6.6c1.31-.07,2-1,2-2.71s-.73-2.62-2-2.71c-1.26.09-1.93,1-2,2.74S116.11,32.07,117.37,32.14Z"/><path class="cls-1" d="M126.57,27.72l-1.21.35c-.21-.88-.68-1.32-1.39-1.32s-1.26.33-1.29,1c-.07.38.41.69,1.43.92,1.78.36,2.66,1.16,2.64,2.39,0,1.41-.91,2.13-2.6,2.18a2.61,2.61,0,0,1-3-2.35l1.21-.36c.19,1.09.76,1.63,1.71,1.6s1.37-.39,1.39-1.1c0-.5-.5-.87-1.57-1.11-1.71-.4-2.54-1.13-2.49-2.17.09-1.36.92-2.07,2.49-2.14A2.39,2.39,0,0,1,126.57,27.72Z"/></svg>