<svg id="图层_1" data-name="图层 1" xmlns="http://www.w3.org/2000/svg" viewBox="0 0 143 35.18"><defs><style>.cls-1{fill:#ffc102;}.cls-2{fill:#333;}</style></defs><title>慧贸贸logo</title><polygon class="cls-1" points="11.38 14.52 11.38 24.98 14.8 24.98 14.8 19.12 18.85 23.17 23.09 18.94 23.09 24.98 26.51 24.98 26.51 14.52 23.09 14.52 18.94 18.76 14.71 14.61 11.38 14.52"/><path class="cls-1" d="M23,.38V9.21L18.94,5.15,14.71,9.39V.47A17.53,17.53,0,1,0,23,.38m5.85,27a13.75,13.75,0,0,1-5.94,3.51V28.67h2.61L28,25.79h-8.2v5.76H18.22V25.79H10l2.53,2.88h2.61v2.25A14,14,0,0,1,11.37,5.78v7.93h3.34l4.23-4.23,4.15,4.14h3.33V5.69A14,14,0,0,1,30.75,25a9.63,9.63,0,0,1-1.9,2.43"/><path class="cls-1" d="M20.66,3.26l-.82-.09a5.44,5.44,0,0,0-1.71,0l-.81.09V.11l1-.09h1.35l1,.09Z"/><rect class="cls-2" x="46.69" y="0.11" width="0.54" height="34.96"/><path class="cls-2" d="M58.84,3.26h4.9v.51H66.8V5.3H63.74v.51H66.8V7.14H63.74v.92H66.8V9.69H63.74v.41h-4.9V9.69H55.47V8.06h3.37V7.14H55.47V5.81h3.37V5.3H55.47V3.77h3.37Zm-3.37,8.67V10.3H79.05v4.19c.06,1.42-.58,2.11-1.94,2H55.47V14.89H73c.55.07.75-.13.62-.61v-.2H55.47V12.75H73.64v-.82Zm1.94,10.72H55.57V16.94h3.88v4C59.52,22.14,58.84,22.72,57.41,22.65Zm16.74-1.73v1.73H63.33c-1.43.14-2.08-.47-1.94-1.84V16.94h4.9v3q-.21,1.22,1,1ZM67.31,8.06h3.57V7.14H67.31V5.81h3.57V5.3H67.31V3.77h3.57V3.26h4.9v.51h3.27V5.3H75.78v.51h3.27V7.14H75.78v.92h3.27V9.69H75.78v.41h-4.9V9.69H67.31Zm.92,8.88h4v3h-4Zm10.82,0v4c.06,1.22-.58,1.8-1.94,1.73H75.17V16.94Z"/><path class="cls-2" d="M98.15,7.65c.07,1.43-.57,2.11-1.94,2H86.93V3.26H98.15A1.77,1.77,0,0,1,96.21,5.2H91.83V7.65H94c.54.13.78-.1.71-.72V6.22h3.47ZM86.93,19V10.1H110.4V17c.07,1.36-.58,2-1.94,1.94h-1.83l3.77,3.67H105l-6.33-6.43-6.43,6.43h-5.3L90.6,19Zm5.3-6.84v5.1l4.09-4.18h5.3L99.79,15h3.06L105,17.24v-5.1ZM98.66,5.2V3.26H110.4V7.65c.14,1.43-.51,2.11-1.94,2h-3V5.2h-2l-.92,4.49H98.66l.92-4.49Z"/><path class="cls-2" d="M129.51,7.65c.07,1.43-.58,2.11-1.94,2h-9.29V3.26h11.23c-.07,1.29-.71,1.94-1.94,1.94h-4.39V7.65h2.14c.55.13.79-.1.72-.72V6.22h3.47ZM118.28,19V10.1h23.48V17c.06,1.36-.58,2-1.94,1.94H138l3.78,3.67h-5.41L130,16.22l-6.43,6.43h-5.31L122,19Zm5.31-6.84v5.1l4.08-4.18H133L131.14,15h3.06l2.15,2.24v-5.1ZM130,5.2V3.26h11.74V7.65c.13,1.43-.51,2.11-1.94,2h-3V5.2h-2l-.92,4.49H130l.92-4.49Z"/><path class="cls-2" d="M74.82,33l-.57-1.75H71.61L71,33H69.75l2.64-7.38h1.07L76.1,33Zm-2.82-3h1.86l-.93-2.71Z"/><path class="cls-2" d="M78.06,31.9h3.36V33h-4.6V25.63h4.42V26.8H78.06v1.78H81V29.8H78.06Z"/><path class="cls-2" d="M85.34,25.45q3.06.21,3.21,3.85c0,2.49-1.13,3.78-3.25,3.85q-3.06-.18-3.21-3.78Q82.27,25.67,85.34,25.45Zm0,6.59c1.31-.07,2-1,2-2.71s-.74-2.61-2-2.71c-1.26.1-1.93,1-2,2.75S84,32,85.3,32Z"/><path class="cls-2" d="M94.22,26.8H92.33V33H91V26.8h-2V25.63h5.14Z"/><path class="cls-2" d="M98,27.73l-.53,1.14a.84.84,0,0,0-.54-.21c-.52,0-.78.46-.78,1.39v3H95V27.52h1.21V28a1.16,1.16,0,0,1,.93-.6A1.09,1.09,0,0,1,98,27.73Z"/><path class="cls-2" d="M102.78,33h-1.25a1.36,1.36,0,0,1-.25-.57,1.47,1.47,0,0,1-1.39.67,1.44,1.44,0,0,1-1.61-1.57A1.8,1.8,0,0,1,100,29.69a3.21,3.21,0,0,0,1.14-.32c0-.55-.29-.83-.79-.86s-.78.31-.93.93l-1.14-.32a2.08,2.08,0,0,1,2.07-1.75c1.29,0,1.94.81,2,2.36v1.85A2.42,2.42,0,0,0,102.78,33Zm-1.61-2.21v-.33a2.34,2.34,0,0,1-1,.36c-.55.1-.81.32-.79.68s.24.51.65.53C100.76,32,101.12,31.58,101.17,30.8Z"/><path class="cls-2" d="M106.88,25.59h1.25V33h-1.25v-.47a1.63,1.63,0,0,1-1.39.57c-1.48,0-2.21-.9-2.21-2.78s.82-2.91,2.31-3a1.52,1.52,0,0,1,1.29.61Zm0,5v-.71c0-.86-.42-1.3-1.18-1.32s-1.18.62-1.18,1.78.4,1.75,1.18,1.75S106.88,31.56,106.88,30.58Z"/><path class="cls-2" d="M112.23,31.08l1.17.36a2.09,2.09,0,0,1-2.21,1.71c-1.49,0-2.27-1-2.31-2.78s.84-2.9,2.31-3,2.23,1.05,2.25,3v.39h-3.32c.1.86.45,1.3,1.07,1.32S112.08,31.77,112.23,31.08Zm-2.07-1.46h2c0-.71-.35-1.08-1-1.11S110.25,28.91,110.16,29.62Z"/><path class="cls-2" d="M117.22,25.45q3.06.21,3.21,3.85c-.05,2.49-1.13,3.78-3.25,3.85Q114.12,33,114,29.37,114.15,25.67,117.22,25.45Zm0,6.59c1.31-.07,2-1,2-2.71s-.74-2.61-2-2.71c-1.26.1-1.93,1-2,2.75S115.92,32,117.18,32Z"/><path class="cls-2" d="M126.38,27.62l-1.21.36c-.21-.88-.68-1.32-1.39-1.32s-1.26.32-1.28,1c-.07.38.4.69,1.42.93,1.79.36,2.67,1.15,2.64,2.39,0,1.4-.91,2.13-2.6,2.17a2.61,2.61,0,0,1-3-2.35l1.21-.36c.19,1.1.76,1.63,1.71,1.61s1.37-.39,1.39-1.11c0-.5-.5-.86-1.56-1.1-1.72-.41-2.55-1.13-2.5-2.18.09-1.35.93-2.07,2.5-2.14A2.39,2.39,0,0,1,126.38,27.62Z"/></svg>