<svg id="图层_1" data-name="图层 1" xmlns="http://www.w3.org/2000/svg" viewBox="0 0 48 48"><defs><style>.cls-1{fill:#ce0606;}</style></defs><title>已认证</title><path class="cls-1" d="M18.66,42.22v-.94c1.15.2,2.26.35,3.35.58a9.1,9.1,0,0,0,4.21-.15H23.83v-.14L27.89,41v-.14l-.68-.14v-.16a3.6,3.6,0,0,1,.92,0c1.38.27,2.45-.45,3.56-1.06.68-.38,1.34-.79,2.14-1.26L33,37.82l0-.15,1.13.15,1.64-1.51L34,37.94l.21.32a2,2,0,0,0,.58-.22,16.27,16.27,0,0,0,4-5,20.82,20.82,0,0,0,1.74-4.52,8,8,0,0,0,.21-3.26c-.56.92-.28,2.05-.78,3.14l.33-3c-.74.23-1.34.41-1.93.64-.13.05-.23.32-.24.5a13.58,13.58,0,0,1-1.92,5.73s-.12,0-.35.16a15.9,15.9,0,0,0,2-6.23l-2.72.84-.06-.2,9.56-3.14.07.21-1.14.39c-.41.14-.82.3-1.24.4a.65.65,0,0,0-.57.64c-.15,1.4-.32,2.79-.49,4.18l.38-1.22h.1a1.82,1.82,0,0,1,0,.33,17.14,17.14,0,0,1-4.33,8.4,24.17,24.17,0,0,1-2.41,2.1A8.59,8.59,0,0,1,33,40.81c-3.72,1.43-7.5,2.67-11.59,2-.17,0-.31-.23-.45-.35l-.61-.54-.26.57Z"/><path class="cls-1" d="M7.67,20.31a1.91,1.91,0,0,0-.75,1.47c-.12.7-.18,1.4-.28,2.1-.15,1.05-.16,1.05-1.29,1.26a2.53,2.53,0,0,0,.53-1.89,1.79,1.79,0,0,1,0-.4,5.37,5.37,0,0,0,0-2.49A1.09,1.09,0,0,1,6.56,19a1.1,1.1,0,0,1,.3-1.67c.11-.1.15-.29.24-.44s.15-.32.21-.31c.82.09.9-.55,1.11-1.07a1.39,1.39,0,0,1,.21-.3l.18.87c.36-.56.82-1,.44-1.64,0-.08.08-.29.17-.4a16.1,16.1,0,0,1,1.48-1.7c1.35-1.22,2.71-2.43,4.15-3.55a11.37,11.37,0,0,1,2.33-1,7,7,0,0,1,2.37-.66A39,39,0,0,1,25.26,7,17.56,17.56,0,0,1,35,10.77a2.22,2.22,0,0,1,1,1.81c-.1,0-.17.05-.18,0-1-1.23-2.48-1.84-3.74-2.74a7.07,7.07,0,0,1-.83-.8,3.07,3.07,0,0,1-.07.35,16.88,16.88,0,0,0-6.93-1.66,18.28,18.28,0,0,0-7.15,1.42,16.67,16.67,0,0,0-6.2,4.35A10.94,10.94,0,0,0,8.08,18.3c-.09.42-.3.81-.42,1.23a2.94,2.94,0,0,0,0,.6Z"/><path class="cls-1" d="M7.67,20.31l0-.18.57-1.22c.47-1,.93-2,1.49-2.91a18.07,18.07,0,0,0-2.41,8.41c.83-.53,2-.17,2.3-1.49l.15.64c1.71-.57,3.4-1.12,5.07-1.71.17-.06.23-.4.35-.62l2.08-.5-1.79.69.09.23,12.1-3.95-.06-.2-.26,0c.44-.43,0-.8-.12-1.16s-.49-.32-.81-.17a3.09,3.09,0,0,1-.46.14c-.92.3-1.24.15-1.7-.73a3.65,3.65,0,0,0-.5-.59c-.86.63-1.5,1.66-2.69,1.22l.26-.19-.65-.58c1.26.77,2.11.11,2.92-.75,0-.05.11-.07.23-.14.38.44.74.91,1.16,1.32a.91.91,0,0,0,.69.19c.55-.12,1.09-.33,1.72-.52l.64,2,6.41-2.1A14.44,14.44,0,0,0,28,11.32l.07-.21c.22.06.44.09.64.16a13.94,13.94,0,0,1,5.57,3.65.84.84,0,0,0,1.06.25c.44-.14.92-.14,1.38-.24s.83-.16.54-.75-.53-1-.79-1.53a.54.54,0,0,1,.05-.48c.46.53,1,1,1.38,1.59a.7.7,0,0,0,.92.28c1.41-.5,2.85-.95,4.33-1.43l.46,1.46-.19.08-.41-.83L32,16.91l-.06-.13.68-.34,0-.1c-1.79.6-3.58,1.19-5.36,1.81-.1,0-.1.33-.19.35a7.21,7.21,0,0,1-.83.12,4.21,4.21,0,0,0-1,.23c-.74.35-1.46.77-2.18,1.16l-.11-.19.55-.38,0-.12L19,20.86l0,0c-.87.26-1.75.49-2.62.77l-9.18,3a4.05,4.05,0,0,1-.46.11,7.13,7.13,0,0,0,.32-1C7.31,22.6,7.48,21.45,7.67,20.31Z"/><path class="cls-1" d="M9.55,35.3,13,34.19l.07.18-2.85,1L12.3,38c.77-.08,1.13.86,1.85,1.21s1.52.7,1.5,1.79l.23-.11,0-.6.14-.07.47.9c.69-.71,1.25.13,1.88.32h-1l-.18.36c-.93-.55-2.12-.61-2.66-1.56a3.4,3.4,0,0,1-.9-.34c-.84-.72-1.63-1.48-2.45-2.22-.18-.15-.47-.21-.59-.39C10.26,36.65,10,36,9.55,35.3Z"/><path class="cls-1" d="M22.36,31.67c-.68.27-1.37.52-2,.82a7.32,7.32,0,0,0-.85.56,5.25,5.25,0,0,0,1-.09,24.14,24.14,0,0,1,2.36-.63l-2.57.85c-.6.2-.6.2-.22.66,0,0-.09.16-.21.36a15.18,15.18,0,0,1,1.7-.52.94.94,0,0,1,.79.23.54.54,0,0,0,.74.22,7,7,0,0,1,1.58-.39l-1.89.65.64.82a3.55,3.55,0,0,1,3.09-1.44l-.6.31.74.66a1.31,1.31,0,0,1-.23,0,1.54,1.54,0,0,0-2.43.33,3.75,3.75,0,0,1-.62.51c-.38-.45-.77-.84-1.09-1.27a.72.72,0,0,0-1-.29c-.5.21-1,.35-1.62.54L19,32.51l-1.41.38-.06-.18,4.66-1.54.07.21-2.94,1,.08.22,3-.92Z"/><path class="cls-1" d="M19.73,38.65c6.56,1.45,11.8-.43,15.87-5.7-.11,1.37-3.51,4.21-6.18,5.38C26,39.82,21.27,39.66,19.73,38.65Z"/><path class="cls-1" d="M2.51,31.69l.47.85a3.47,3.47,0,0,1,.37.6c.42,1.23.81,2.46,1.22,3.71l.78-.12c-.4.21-.78.8-1.24.06l-.18.51c-.87-2.7-2.09-5.19-2.45-7.93l1,2Z"/><path class="cls-1" d="M18.66,18.32l-4,1.8-.15-.41a15,15,0,0,0,1.64-.56,1.07,1.07,0,0,0,.51-.65,14.45,14.45,0,0,0,.16-1.7c.59,0,1.13.06,1.66.13a.7.7,0,0,0,.84-.49A5,5,0,0,1,20,15.23c-.12.66-.11,1.51-.74,1.8a6.62,6.62,0,0,1-2.2.23l-.08.85,2.19-.66c-.69.5-1.67.42-2.29,1l.11.27,1.63-.48Z"/><path class="cls-1" d="M45,21.62l.22-.06-.16-.49-.21.07Z"/><path class="cls-1" d="M44.61,20.34l.22.68L45,21l-.2-.62Z"/><path class="cls-1" d="M45.07,21.77l.35,1.07-.52.3,0,.09.77-.24-.43-1.31Z"/><path class="cls-1" d="M44.71,20c-.69-2.12-1.49-4.53-1.92-5.86l-.19.06c.42,1.3,1.2,3.7,1.88,5.78Z"/><path class="cls-1" d="M29.86,31.12l2.84-1.26.15.4a1.45,1.45,0,0,1-.28.12A2.08,2.08,0,0,0,30.51,33c0,.06,0,.13-.07.25a14.2,14.2,0,0,1-1.61-.1.74.74,0,0,0-.94.54,4.69,4.69,0,0,1-.74,1.22c.13-.67.11-1.53.74-1.84a7.86,7.86,0,0,1,2.28-.31l.11-.86L27,33l0-.11c1-.32,2-.64,2.94-1C30.39,31.7,30.41,31.56,29.86,31.12Z"/><path class="cls-1" d="M46.72,23.39l-1,.32-.06-.12.71-.41-2.68-8.29.26-.08C44.83,17.64,45.76,20.48,46.72,23.39Z"/><path class="cls-1" d="M41.81,14.07l.24.76-.09,0-.3-.51-38,12.2-.06-.19C5.64,25.69,39.69,14.76,41.81,14.07Z"/><path class="cls-1" d="M5.21,36.33,5,35.57l.09,0,.29.51,38-12.2.06.19C41.38,24.71,7.33,35.64,5.21,36.33Z"/><path class="cls-1" d="M18,9.45c.14-.12.27-.3.43-.36a16.6,16.6,0,0,1,15.08,2.24,2.12,2.12,0,0,1,.2.29C28.71,8.29,23.54,7.41,18,9.44Z"/><path class="cls-1" d="M28,37.74l-1.17-.38V36.09l1.16-.4.77,1Z"/><path class="cls-1" d="M20.56,13.37l-1.16.45-.8-1,.65-1.05,1.24.3Z"/><path class="cls-1" d="M11.61,17.2a13,13,0,0,1,6.67-5.62A41.1,41.1,0,0,0,14.66,14,41.43,41.43,0,0,0,11.61,17.2Z"/><path class="cls-1" d="M18.69,11.31a10.44,10.44,0,0,1,4.5-.74l-4.47.91Z"/><path class="cls-1" d="M9.7,21.47a9.67,9.67,0,0,1,1.81-4l-1.65,4Z"/><path class="cls-1" d="M30.73,28.91l-1.79.83-.08-.19.89-.36-.05-.11-1.59.38-.05-.21,2.57-.88.08.12-.45.49.48-.06Z"/><path class="cls-1" d="M30.11,34.68l.81-.26.52.67-.51.71-.82-.29Z"/><path class="cls-1" d="M25,37.21l-.5.71-.78-.28-.05-.85.82-.27Z"/><path class="cls-1" d="M30.74,28.92l1.13-.39-.05-.19-.84.2a4.46,4.46,0,0,1,2.88-.92l-1.62.52.09.61-1.6.16Z"/><path class="cls-1" d="M39.09,31.61a14.36,14.36,0,0,1-3,4.55Z"/><path class="cls-1" d="M22.38,31.68l5.72-1.94.07.24-5.81,1.69Z"/><path class="cls-1" d="M31.49,29.5l-5.57,1.82,0-.12,5.57-1.83Z"/><path class="cls-1" d="M18,9.44l-4.36,2.21a15,15,0,0,1,3.78-2.17,1.59,1.59,0,0,1,.58,0Z"/><path class="cls-1" d="M14,35.29l2.31,1.8-.18.22L13.79,35.5Z"/><path class="cls-1" d="M22.37,12.21l.37-.51.62.17v.66l-.61.19Z"/><path class="cls-1" d="M19,20.86l2.45-.63,0,.1-3.27,1.1,0-.06.84-.53Z"/><path class="cls-1" d="M25.32,32.72l3.92-1.29,0,.13-3.92,1.28Z"/><path class="cls-1" d="M17.41,14.7l-.57.19-.39-.48.35-.52.61.16Z"/><path class="cls-1" d="M2.51,31.69v-.28L2,29.85l.27-.08L3,31.93,2.8,32Z"/><path class="cls-1" d="M31.78,30.07l-3,1,0-.12,3-1Z"/><path class="cls-1" d="M16.74,37.33l1.67.8-.12.23-1.65-.8Z"/><path class="cls-1" d="M15,33.54l2.18-.72.07.21L15,33.74Z"/><path class="cls-1" d="M23.51,16.18,20.86,17l0-.11,2.62-.86Z"/><path class="cls-1" d="M18.15,19.2,15.59,20l0-.11,2.53-.83Z"/><path class="cls-1" d="M1.48,28.29,1,26.86l.26-.09.48,1.42Z"/><path class="cls-1" d="M3.37,30.12c-.39-1.21-.75-2.33-1-3.08l.52-.3,0-.09-.76.24c.27.84.68,2.09,1.12,3.41Z"/><path class="cls-1" d="M3.65,31l-.17.19c.58,1.77,1.17,3.56,1.52,4.64l.19-.06C4.84,34.63,4.23,32.76,3.65,31Z"/><path class="cls-1" d="M10.88,26l3.86-1.26.1-.55,1.4.25-.15.53.82,2.49-1.07.35-.07-.2-2.66.87.58,1.77a.37.37,0,0,0,.53.27l2.47-.8c.38-.07.53-.49.45-1.27l.59,0c0,.5.24.72.61.67.09.74-.18,1.18-.82,1.33L14,31.53a.87.87,0,0,1-1.24-.65l-1.19-3.62,1.07-.35.27.81,2.66-.87-.47-1.45-3.8,1.24Z"/><path class="cls-1" d="M19.63,24.93l1.1-.36.09-.52,1.28.29-.16.5.53,1.62a9.59,9.59,0,0,0,.61-.9l.48.42c-.14.39-.42,1-.83,1.94-.15.33-.27.57-.35.72L21.43,28a1.08,1.08,0,0,0,.11-1L21,25.23l-1,.32Zm.72-2.49a8.64,8.64,0,0,1,1.09.38c.17.08.23.19.17.33a1.92,1.92,0,0,1-.27.64q-.11.16-.18.15c-.05,0-.11,0-.16-.11l-.16-.2a8.34,8.34,0,0,0-.79-.83Zm6.73,5.18a7.4,7.4,0,0,1-2.24-2.16,5,5,0,0,1-1.36,3.3l-.54-.17a5.14,5.14,0,0,0,.48-4.81l-.76-2.32,1.07-.35.75,2.29c.05.13.09.26.13.38a6.22,6.22,0,0,0,3.12,2.57A5.89,5.89,0,0,0,27.08,27.62Z"/><path class="cls-1" d="M28.39,21.89l.87-.28.2-.48,1.12.4-.14.33L31.12,24a7.81,7.81,0,0,0,.42-.78l.49.42a22.38,22.38,0,0,1-1,2.5l-.93-.59a.79.79,0,0,0,.13-.88l-.77-2.34-.73.23Zm.21-2.31a4.8,4.8,0,0,1,1.25.2.25.25,0,0,1,.19.29,1.8,1.8,0,0,1-.13.78c0,.14-.14.15-.31,0A8.3,8.3,0,0,0,28.42,20Zm2.64,1.61,1-.33,1.15,3.51.5-.16-1.49-4.52-1.65.54-.37-.65,3.22-1,.16-.48,1,.37-.09.51-1.33.43.46,1.42.41-.13.19-.41,1,.35-.16.5-1.19.39.79,2.4.58-.19.17-.47,1,.38-.11.55-4.35,1.43-.38-.68.64-.21Z"/></svg>