<svg id="图层_1" data-name="图层 1" xmlns="http://www.w3.org/2000/svg" viewBox="0 0 41 40"><title>logo</title><polygon points="12.65 17.42 12.65 27.74 16.07 27.74 16.07 21.96 20.1 25.98 24.3 21.78 24.3 27.74 27.64 27.74 27.64 17.42 24.29 17.42 20.13 21.58 15.98 17.43 12.65 17.42" fill="#ffc102"/><path d="M24.2,3.35v8.76l-4-4L16,12.29V3.41a17.46,17.46,0,1,0,8.22-.06ZM30,30.15a13.84,13.84,0,0,1-4.4,3,15.32,15.32,0,0,1-1.48.53l0-2.24h2.55l2.49-2.89H21v5.66q-.4,0-.81,0t-.81,0V28.52H11.25l2.48,2.89h2.55l0,2.24a15.32,15.32,0,0,1-1.48-.53,13.84,13.84,0,0,1-4.4-3,13.52,13.52,0,0,1-3-4.4A13.87,13.87,0,0,1,7.45,15a13.67,13.67,0,0,1,3-4.41,14.17,14.17,0,0,1,2.22-1.81v7.89H16l4.16-4.16,4.15,4.15h3.33v-8A13.53,13.53,0,0,1,30,10.56a13.86,13.86,0,0,1,3,15.19A13.52,13.52,0,0,1,30,30.15Z" fill="#ffc102"/><path d="M21.83,6.26l-.78-.09a9.43,9.43,0,0,0-1.68,0l-.78.09V3.11l1-.08a7.28,7.28,0,0,1,1.32,0l1,.08Z" fill="#ffc102"/></svg>