<svg id="图层_1" data-name="图层 1" xmlns="http://www.w3.org/2000/svg" viewBox="0 0 165.93 160.91"><defs><style>.cls-1{fill:#a9afb8;}.cls-2{fill:#fff;}</style></defs><title>zaixianzixun_jihuozhuangtaix</title><path class="cls-1" d="M147.39,6.77H29A23.62,23.62,0,0,0,5.21,30.27v85.92A23.63,23.63,0,0,0,29,139.68H40.19V165.8a1.9,1.9,0,0,0,3.23,1.32l37.79-27.43H147.4a23.63,23.63,0,0,0,23.74-23.5V30.27A23.62,23.62,0,0,0,147.4,6.76Z" transform="translate(-5.21 -6.76)"/><path class="cls-2" d="M48.29,85.14a11.06,11.06,0,1,1,11-11h0A11,11,0,0,1,48.29,85.14Zm39.85,0a11.06,11.06,0,1,1,11-11.06h0A11,11,0,0,1,88.14,85.14Zm39.85,0a11.06,11.06,0,1,1,11-11.06h0A11,11,0,0,1,128,85.14Z" transform="translate(-5.21 -6.76)"/></svg>