<svg id="图层_1" data-name="图层 1" xmlns="http://www.w3.org/2000/svg" viewBox="0 0 160.37 160.37"><defs><style>.cls-1{fill:#3d5afe;}.cls-2{fill:#fff;}</style></defs><title>工作台logo</title><circle class="cls-1" cx="80.19" cy="80.19" r="80.19"/><path class="cls-2" d="M845.91,415.28a4.79,4.79,0,0,1,0-1.31,3.55,3.55,0,0,1,4.05-2.26,3,3,0,0,1,2.29,3.05v58.7a5,5,0,0,1,0,1.22,3,3,0,0,1-2.25,2.16,3.47,3.47,0,0,1-2.47-.33,2.68,2.68,0,0,1-1.47-2.26V444.51" transform="translate(-805.63 -351.36)"/><path class="cls-2" d="M881.91,444.42V415.1a4.52,4.52,0,0,1,0-1,2.87,2.87,0,0,1,2.59-2.26,3.64,3.64,0,0,1,1.79.19,2.75,2.75,0,0,1,1.83,2.5,1.29,1.29,0,0,1,0,.48V473.8a2.32,2.32,0,0,1,0,.91,2.83,2.83,0,0,1-2.25,2.29,3.67,3.67,0,0,1-2.29-.22,2.81,2.81,0,0,1-1.67-2.44Z" transform="translate(-805.63 -351.36)"/><path class="cls-2" d="M843.26,447.52v26.09a6.73,6.73,0,0,1,0,1.1,2.82,2.82,0,0,1-2.29,2.13,3.36,3.36,0,0,1-2.43-.3,2.71,2.71,0,0,1-1.5-2.38V421.37a2.68,2.68,0,0,1,1.62-3,3.53,3.53,0,0,1,2.56,0,3,3,0,0,1,2,2.83v26.3Z" transform="translate(-805.63 -351.36)"/><path class="cls-2" d="M890.77,447.52V421.44a5.35,5.35,0,0,1,0-1,2.61,2.61,0,0,1,1.77-2.07,3.27,3.27,0,0,1,3.35.36,2.6,2.6,0,0,1,1.1,2,2.08,2.08,0,0,1,0,.61V473.7a2.69,2.69,0,0,1,0,1,2.75,2.75,0,0,1-2.25,2.26,3.36,3.36,0,0,1-2.29-.28,2.74,2.74,0,0,1-1.52-2.29v-.7Z" transform="translate(-805.63 -351.36)"/><path class="cls-2" d="M854.9,436.1V420.86a7.1,7.1,0,0,1,0-1.13,2.78,2.78,0,0,1,2.41-2.26,3.06,3.06,0,0,1,2.29.34,2.82,2.82,0,0,1,1.52,2.62v30.9a3.6,3.6,0,0,1-.18,1.38,2.76,2.76,0,0,1-2.14,1.88,3.36,3.36,0,0,1-2.43-.3,2.61,2.61,0,0,1-1.56-2.16v-.8Z" transform="translate(-805.63 -351.36)"/><path class="cls-2" d="M872.88,436.13V420.89a6,6,0,0,1,0-1,2.8,2.8,0,0,1,2.44-2.25,3.29,3.29,0,0,1,2.47.42,2.65,2.65,0,0,1,1.31,2.07v32a3.05,3.05,0,0,1-2.28,2.59,3.85,3.85,0,0,1-2.41-.34,2.8,2.8,0,0,1-1.5-2.28v-.74C872.88,446.24,872.88,441.18,872.88,436.13Z" transform="translate(-805.63 -351.36)"/><path class="cls-2" d="M863.89,445.67V433.84a5.34,5.34,0,0,1,0-1.13,2.8,2.8,0,0,1,2.5-2.28,3.48,3.48,0,0,1,1.86.21,2.73,2.73,0,0,1,1.83,2.38v25.57a3,3,0,0,1-2.44,2.56,3.77,3.77,0,0,1-2.1-.22,2.83,2.83,0,0,1-1.74-2.49V445.82Z" transform="translate(-805.63 -351.36)"/><path class="cls-2" d="M914.79,388.4a14,14,0,0,0-3-.86h-.45a.38.38,0,0,1-.37-.3.4.4,0,0,1,.18-.46h.22a6.77,6.77,0,0,1,3-.85,12.58,12.58,0,0,1,5.37,1.1l1.25.58a.75.75,0,0,0,.79,0,13.54,13.54,0,0,1,3.23-1,6.86,6.86,0,0,1,3.48.18h.36a.39.39,0,0,1,0,.55h-.27a.52.52,0,0,0-.55.49v.06c0,.37.18.43.61.55a17.17,17.17,0,0,1,1.8.7,3.6,3.6,0,0,1,1.49,1l.3.33a.4.4,0,0,1,0,.56l0,0a.51.51,0,0,1-.3,0H931l-2.37-.34h-.28l.34.4a13.32,13.32,0,0,1,1.58,2c.22.37.4.83.58,1.22a.55.55,0,0,1,0,.31.32.32,0,0,1-.18.36.43.43,0,0,1-.46,0l-.27-.27a23.56,23.56,0,0,0-4-3.05,8.51,8.51,0,0,0-2.78-1.16,5.33,5.33,0,0,0-4,1,3.18,3.18,0,0,0-.58.58c-.31.39-.43.39-.85,0a6.22,6.22,0,0,0-2.29-1,4.93,4.93,0,0,0-3.38.61l-.4.27a.51.51,0,0,1-.58,0,.44.44,0,0,1,0-.51l.22-.28a9.49,9.49,0,0,1,3.5-2.68l.31-.18Z" transform="translate(-805.63 -351.36)"/><path class="cls-2" d="M854.9,469.38v-4.33a6,6,0,0,1,0-1,3,3,0,0,1,2.56-2.28,3.48,3.48,0,0,1,1.86.21,2.79,2.79,0,0,1,1.77,2.26v9.26a5.06,5.06,0,0,1,0,1.1,2.68,2.68,0,0,1-1.68,1.95,3.33,3.33,0,0,1-3,0,2.66,2.66,0,0,1-1.5-2.29V470Z" transform="translate(-805.63 -351.36)"/><path class="cls-2" d="M899.92,469.38v-4.54a3.32,3.32,0,0,1,.24-1.32,2.84,2.84,0,0,1,2.26-1.73,3.46,3.46,0,0,1,2.28.3,2.71,2.71,0,0,1,1.56,2.29v9.54a4.92,4.92,0,0,1,0,.94,2.78,2.78,0,0,1-1.65,2,3.27,3.27,0,0,1-2.83,0,2.74,2.74,0,0,1-1.74-2.5v-.51Z" transform="translate(-805.63 -351.36)"/><path class="cls-2" d="M854.2,410.68l.31.36A10.83,10.83,0,0,1,856,413a4.25,4.25,0,0,1,.21.49.36.36,0,0,1,0,.49.53.53,0,0,1-.52,0l-.27-.25a17.51,17.51,0,0,0-3.57-2.71,6.84,6.84,0,0,0-1.85-.67,4.33,4.33,0,0,0-2.78.46,2.5,2.5,0,0,0-1,.79c-.31.37-.4.37-.8,0a5.44,5.44,0,0,0-2.13-.82,4.05,4.05,0,0,0-2.25.36l-.34.19a.51.51,0,0,1-.52-.16.44.44,0,0,1,0-.51l.31-.34a8.38,8.38,0,0,1,2.25-1.71l.46-.21H843a12.78,12.78,0,0,0-2.56-.7.49.49,0,0,1-.46-.37.49.49,0,0,1,.27-.48,6.13,6.13,0,0,1,2.29-.64,10.58,10.58,0,0,1,5.09,1.12,2.38,2.38,0,0,1,.55.28,1,1,0,0,0,.82,0,9.21,9.21,0,0,1,2.41-.79,6.15,6.15,0,0,1,2.83,0h-.06a.43.43,0,0,1,.4.42.44.44,0,0,1-.28.46.46.46,0,0,0-.3.52.53.53,0,0,0,.46.46,6.38,6.38,0,0,1,1.85.82,7.08,7.08,0,0,1,.83.61.44.44,0,0,1,0,.55.57.57,0,0,1-.55.24l-2.38-.34Z" transform="translate(-805.63 -351.36)"/><path class="cls-2" d="M890,410.74l.31.33a8.64,8.64,0,0,1,1.46,1.95l.24.46a.41.41,0,0,1,0,.49.45.45,0,0,1-.54,0,1.38,1.38,0,0,1-.28-.31,19,19,0,0,0-3.47-2.5,5.61,5.61,0,0,0-2.47-.82,4,4,0,0,0-3.42,1.28c-.33.34-.39.37-.82,0a5.3,5.3,0,0,0-2.1-.82,4.19,4.19,0,0,0-2.29.39h-.3a.38.38,0,0,1-.49,0,.36.36,0,0,1,0-.48.85.85,0,0,1,.21-.25,8.6,8.6,0,0,1,2.59-1.89l.34-.18h-.31a13.09,13.09,0,0,0-2.46-.64.4.4,0,0,1-.43-.33.43.43,0,0,1,.27-.52,5,5,0,0,1,2.26-.64,9.15,9.15,0,0,1,4.14.7c.52.18,1,.43,1.56.67a.79.79,0,0,0,.73,0,10.12,10.12,0,0,1,3-.85,5.9,5.9,0,0,1,2.44,0h.24a.5.5,0,0,1,0,.61h-.15a.51.51,0,0,0-.28.54.62.62,0,0,0,.37.4l.55.18a5.94,5.94,0,0,1,1.83.92l.39.39a.42.42,0,0,1,0,.52.36.36,0,0,1-.46.21l-2-.27H890Z" transform="translate(-805.63 -351.36)"/><path class="cls-2" d="M828.48,423.29v-2.07a3,3,0,0,1,3-3.05h0a3,3,0,0,1,3,3.05v4.06a3.13,3.13,0,0,1-6.21.53v-.05a1.48,1.48,0,0,1,0-.42v-2.23Z" transform="translate(-805.63 -351.36)"/><path class="cls-2" d="M921.25,406.41a2.13,2.13,0,0,1-2.13-2h0a2.13,2.13,0,0,1,2-2.29h.18a2.3,2.3,0,0,1,2.17,2.14,2.11,2.11,0,0,1-1.92,2.25Z" transform="translate(-805.63 -351.36)"/><path class="cls-2" d="M944.51,424.54a7.49,7.49,0,0,0,.68-2.25,1.6,1.6,0,0,0,0-.4h0c0-.33,0,.58,0,.22s.06-.93.06-1.26l-.07-1.3a7.35,7.35,0,0,0-.61-2.26,13.43,13.43,0,0,0-1.5-3.32,30,30,0,0,0-4.78-5.82,56.77,56.77,0,0,0-9.84-7.84l-.34-.21h0a2.26,2.26,0,0,0,.27-2.28,5.81,5.81,0,0,0-.61-1.19,12.41,12.41,0,0,0-3-3.05,5.24,5.24,0,0,0-1.28-.73,4.12,4.12,0,0,0-3.23,0,5.63,5.63,0,0,0-2,1.43.81.81,0,0,1-.28.3l-.39-.33a7.73,7.73,0,0,0-1.89-1.22,3.06,3.06,0,0,0-3.39.58l-.82.85a9.46,9.46,0,0,0-1.13,2,5.24,5.24,0,0,1-.55,1,1.57,1.57,0,0,1-1,.7h0a.91.91,0,0,1-1.15-.59v0c0-.18-.27-.36-.27-.55-.4-.76-.83-1.55-1.25-2.28a8.84,8.84,0,0,0-1.56-1.83,3.5,3.5,0,0,0-2.25-1,4.32,4.32,0,0,0-3.91,1.65,2.37,2.37,0,0,0-.51,1.1,4.85,4.85,0,0,0,0,1.86,8.05,8.05,0,0,0,1.12,2.65,27.52,27.52,0,0,0,2.87,3c.7.92,1.49,1.83,2.25,2.78a8.49,8.49,0,0,1,1.68,3.53,14.1,14.1,0,0,1,.4,3.36c0,1.28-.19,2.59-.19,3.84q0,.94-.18,1.89c-.27,1.67-.52,3.35-.88,5l-3,14.45c-.27,1.28-.61,2.35-.79,3.54a.49.49,0,0,0,0,.24,2.53,2.53,0,0,0,2.23,2.8h.05a2.05,2.05,0,0,0,1.65-.45,7.15,7.15,0,0,0,.88-.86,12.06,12.06,0,0,0,1.59-2.34,47.87,47.87,0,0,0,2.53-5.61c.91-2.29,1.73-4.54,2.8-6.83.4-.88.79-1.8,1.25-2.65a3.12,3.12,0,0,1,5.33-.43c1.62,2.08,3.2,4.15,4.85,6.1a8.71,8.71,0,0,0,.91,1.1,6.94,6.94,0,0,0,3.3,1.89,12.82,12.82,0,0,0,4.54,0c1.28-.16,2.5-.49,3.75-.77.67-.15.73-.64.3-1.09l-1.19-1.34L929.33,423c-.13-.12-.28-.32-.21-.51s.33-.27.54-.27h0a2.69,2.69,0,0,1,1.38.39,9.29,9.29,0,0,1,2.28,1.65,20.57,20.57,0,0,1,3.17,4.24c.52.82,1.07,2,1.37,2.59s.52.64,1,.3l1.07-.79a16.21,16.21,0,0,0,4.54-6.1m-38.5-24v.21a.37.37,0,0,1-.46.24l0,0a1.72,1.72,0,0,1-.68-.33,16.57,16.57,0,0,1-1.64-1.49c-.92-1-1.77-2-2.62-3.05h0c-.25-.37-.19-.67.21-.83h.79a2.47,2.47,0,0,1,1.44.46,7.34,7.34,0,0,1,1.06,1,9.93,9.93,0,0,1,2,3.47A.9.9,0,0,1,906,400.53Zm21.34,9.6a4.41,4.41,0,0,1-.89.94,6,6,0,0,1-3.38,1.13,5.58,5.58,0,0,1-5.58-4.36,4.92,4.92,0,0,1,0-.94h0a6.07,6.07,0,0,1,1.28-4,3.35,3.35,0,0,1,.73-.68,6,6,0,0,1,4.21-1.09,5.54,5.54,0,0,1,4.82,4.87A5.89,5.89,0,0,1,927.35,410.13Z" transform="translate(-805.63 -351.36)"/></svg>