<svg id="图层_1" data-name="图层 1" xmlns="http://www.w3.org/2000/svg" viewBox="0 0 596.91 505.57"><defs><style>.cls-1,.cls-6{fill:#e6e6e6;}.cls-2{fill:#3f3d56;}.cls-3{fill:#fff;}.cls-4{fill:#6c63ff;}.cls-5{fill:none;stroke:#cecece;stroke-miterlimit:10;stroke-width:2px;}.cls-6{opacity:0.3;}.cls-7{fill:#ffb6b6;}.cls-8{fill:#2f2e41;}</style></defs><title>权限1</title><path class="cls-1" d="M575.43,413.7H21.49A21.51,21.51,0,0,1,0,392.21V325.54H596.91v66.67A21.51,21.51,0,0,1,575.43,413.7Z"/><rect class="cls-1" x="228.89" y="402.54" width="141.26" height="100.9"/><rect class="cls-1" x="220.39" y="490.7" width="158.26" height="12.75"/><path class="cls-2" d="M596.38,353.69H0V14.74A14.75,14.75,0,0,1,14.74,0h566.9a14.75,14.75,0,0,1,14.74,14.74v339Z"/><rect class="cls-3" x="13.81" y="15.4" width="568.23" height="319.7"/><path class="cls-4" d="M285.85,316.6H203.18a6.36,6.36,0,0,1,0-12.71h82.67a6.36,6.36,0,1,1,0,12.71Z"/><path class="cls-1" d="M395.85,316.6H313.18a6.36,6.36,0,0,1,0-12.71h82.67a6.36,6.36,0,1,1,0,12.71Z"/><path class="cls-2" d="M36.12,504.38a1.19,1.19,0,0,0,1.19,1.19H559.6a1.19,1.19,0,0,0,0-2.38H37.31A1.19,1.19,0,0,0,36.12,504.38Z"/><rect class="cls-1" x="27" y="40" width="45" height="262.4" rx="15"/><rect class="cls-5" x="89.38" y="95.03" width="350.62" height="55.98" rx="15"/><rect class="cls-6" x="89.38" y="161.9" width="350.62" height="103.52" rx="15"/><rect class="cls-4" x="89" y="40" width="464" height="30" rx="15"/><path id="uuid-25324785-d0f2-4f1c-ad19-f4bb5410ff47-2567" class="cls-7" d="M129.15,206c4.35-3.59,9.73-4.26,12-1.5s.61,7.93-3.74,11.52a14.14,14.14,0,0,1-6,3l-18.62,15L106,225.07l19.08-13.83A14.1,14.1,0,0,1,129.15,206Z"/><path class="cls-4" d="M21.53,239.78c0-.66,0-6.45,4.28-10.1,4.92-4.2,11.86-2.5,14.29-1.91,5.63,1.38,6.09,3.79,11.37,6.27,9.88,4.64-2.5,2.26,3.38.78,2-.52,31.31-2.55,38.6-7,14.17-8.73,23.83-14,23.83-14l6.31,12.63a112.82,112.82,0,0,1-22,22.1C88.44,258.14,81.85,263,71.83,264.83c-.86.16-22.07,3.78-39.15-9-3.9-2.91-11-8.25-11.15-16.07Z"/><circle class="cls-7" cx="41.11" cy="185.67" r="21.99"/><polygon class="cls-7" points="213.35 333.43 190.7 310.25 179.01 322.44 195.88 344.67 212.62 346.59 213.35 333.43"/><path class="cls-8" d="M84,290c1.33.11,5.54,1,9.56-1.26a12.93,12.93,0,0,0,4.63-4.47c5.9-8.86,28.55-22.68,48.88-23.53,4.61-.2,7.64.34,10.39,1.77,3.91,2,5.46,5,10.42,11.79,2.71,3.73,5.71,7.25,8.45,11,16.07,21.73,22.16,23.44,21.53,30.41-.69,7.73-9,15.06-14.57,14.22-2.27-.35-3.15-1.93-6.18-5.12-8.89-9.37-12.57-7.64-18.9-14.81-7.39-8.38-6.42-15.33-10.28-15.6-3.57-.24-5.09,5.68-12.73,13.55-3.49,3.6-6,5.26-13.55,10.51-29.52,20.48-30,21.92-35.94,23.55-2.61.71-21.1,5.78-27.69-2.29C47.73,327,72.09,289,84,290Z"/><path class="cls-8" d="M206.43,338.67c1.66-.75,3.61-1.62,4.24-3.63a4.84,4.84,0,0,0-.7-4.2c-1-1.34-2.51-1.52-2.45-1.75s3.64-.22,7.52,1.15a30,30,0,0,1,8.28,4.77c3.39,2.64,2.93,3.17,5.05,4.7,6.52,4.68,12.63,1,16.16,5.38a7,7,0,0,1,1.37,6c-1.15,3.9-6.75,5.24-9.8,5.94-7.36,1.67-12.94.3-18.75-.68-19.79-3.33-30.91-.29-32.4-4.88-.28-.87.18-.79,1.7-7.16s1.46-8,2.74-8.51c1.93-.76,3.23,2.69,8.09,3.87a13.86,13.86,0,0,0,9-1Z"/><polygon class="cls-7" points="173.09 409.27 167.36 377.37 150.84 380.9 152.32 408.77 165.09 419.75 173.09 409.27"/><path class="cls-8" d="M90.48,300.68c1,.83,4,3.89,8.62,4.32a13,13,0,0,0,6.34-1.1c9.86-4,36.37-2.74,53.67,8,3.91,2.42,6.12,4.56,7.59,7.3,2.09,3.88,1.75,7.17,2,15.6.15,4.61.65,9.21.84,13.82,1.08,27,5.16,31.84.73,37.26-4.91,6-15.93,7.39-20,3.58-1.68-1.56-1.52-3.36-2.24-7.71-2.1-12.74-6.11-13.37-7.32-22.86-1.41-11.09,3.29-16.29.25-18.68-2.82-2.21-7.4,1.84-18.14,4.06-4.91,1-7.9,1-17.12,1.09-35.92.37-37.11,1.29-43-.7-2.56-.87-20.71-7.06-21.63-17.44-1.44-16.23,40.08-34.05,49.4-26.52Z"/><path class="cls-8" d="M164.41,409.72c1.8.32,3.9.69,5.55-.62a4.82,4.82,0,0,0,1.78-3.87c-.08-1.67-1.22-2.66-1-2.82s3.13,1.86,5.57,5.17a30.33,30.33,0,0,1,4.18,8.6c1.31,4.09.64,4.27,1.54,6.72,2.76,7.53,9.89,7.92,10.35,13.53a7,7,0,0,1-2.26,5.76c-3.15,2.59-8.53.56-11.45-.58-7-2.76-10.87-7-15.14-11.09-14.5-13.87-25.4-17.6-24.06-22.23.26-.88.59-.56,5.43-5s5.7-5.81,7-5.51c2,.46,1.16,4,4.52,7.75a13.77,13.77,0,0,0,8,4.16Z"/><path class="cls-8" d="M44.11,189.88c.86-3.06-.22-4.18.88-5.55,0,0,.44-.56,4.38-2.05h0c-1.16-6.75-.29-7.89-.29-7.89a4.93,4.93,0,0,1,4.39-1.46c2.89.36,3.4,3,5.26,2.92,2.56-.08,5.63-5.21,4.67-9.65-.77-3.62-4.13-6.31-5-5.84s-3.83-1.58-5-1.17c-.78.28-4.44-.09-5.27.29s-3.49,3-3.74,2.71c-1.72-2.29-1.69-3.09-2.69-3.59-1.77-.87-3.69.75-7,2.34-6.83,3.29-8.83,1.33-12,4.09-1.59,1.4-2.44,4.07-4.09,9.36-2.3,7.39-3.45,11.08-2.34,14.61s2.8,2.82,5.27,7.89c2.74,5.66,1.79,8.94,4.38,10.23,2,1,5.22.37,6.43-1.46,2.08-3.12-3.29-7.35-1.46-12.27,1.12-3,4.59-5.32,6.72-4.68,2.41.72,2.58,5,4.09,5,1.3-.06,2.19-3.27,2.34-3.8Z"/><path class="cls-4" d="M27.45,210.92c4.5-5,22.83.18,24.55,8.19.71,3.29-1.9,4.68-1.17,8.47,1.08,5.55,7.17,5.17,11.7,10.82,6.42,8-.2,15.85,7,29.23,1.54,2.86,2.84,5.27,5.56,7.6,6.22,5.35,12,3.51,15.19,8.48,2.38,3.7,1.4,8.28,1.17,9.35-.93,4.39-3.47,5.46-5.26,9.06-3,6,.4,10.38.59,17.54.24,8.95-4.52,21.36-14,25.43-10.69,4.57-23.58-3-29.82-10.53-3.72-4.48-4.8-8.62-6.43-13.73C29.24,298,25.12,300.05,19.56,282c-6.36-20.69-7.61-44.94,0-52.61a21.86,21.86,0,0,0,5.55-7.6c2.38-5.7.33-8.56,2.34-10.82Z"/><path id="uuid-91308677-eda7-42a2-9f2e-a07e84038198-2568" class="cls-7" d="M94,328.39c3.49,4.43,4,9.83,1.21,12.05s-7.94.42-11.43-4a14.13,14.13,0,0,1-2.85-6l-14.55-19,7.52-5.73,14.91,18.5A14.1,14.1,0,0,1,94,328.39Z"/><path class="cls-4" d="M40.67,230.16c.65-.15,6.32-1.32,10.77,2.12,5.11,4,4.87,11.1,4.78,13.61-.2,5.78-2.47,6.73-3.82,12.4-2.52,10.62,2.28,20.49,4.94,25.94a56.36,56.36,0,0,0,9.75,13.88,122.81,122.81,0,0,0,21.63,18.46l-11,9.74s-17.45-5.32-29.28-16c-12.13-10.94-30.79-49.62-34.66-59-.33-.81,4.39,12.38,13.4-6.94,2.05-4.41,5.82-12.49,13.45-14.19Z"/><path class="cls-2" d="M198.15,222.3l-.43,0a68,68,0,0,1-54.1-34.15,6.74,6.74,0,0,1,.69-7.69L176,142.71a6.87,6.87,0,0,1,5.32-2.4c1.4,0,4.72.38,5.36,2.94,3.8,15.1,19.86,32.85,39.18,35.2,1.95.24,3.53,2,4.2,4.67A6.67,6.67,0,0,1,228.7,189l-25.37,30.8a6.72,6.72,0,0,1-5.18,2.46Zm-17-80.48a5.34,5.34,0,0,0-4,1.87l-31.66,37.72a5.23,5.23,0,0,0-.54,6,66.45,66.45,0,0,0,52.89,33.4,5.17,5.17,0,0,0,4.34-1.9l25.36-30.8a5.13,5.13,0,0,0,1-4.58c-.4-1.58-1.38-3.35-2.92-3.53-19.95-2.43-36.54-20.76-40.46-36.34-.32-1.26-2.24-1.75-3.92-1.79Z"/><path class="cls-1" d="M165.94,189.38l22.83-23.28c1.56-1.59-.89-4-2.45-2.44l-22.83,23.27c-1.56,1.59.89,4,2.45,2.45Z"/><path class="cls-1" d="M179.72,195.93A90,90,0,0,0,196,176.58c1.19-1.9-1.8-3.64-3-1.75a87.25,87.25,0,0,1-15.72,18.66c-1.66,1.49.79,3.93,2.45,2.44Z"/><path class="cls-1" d="M192.13,203.78a95.49,95.49,0,0,0,14.47-21.09c1-2-2-3.74-3-1.75a92.5,92.5,0,0,1-13.92,20.4c-1.49,1.65.95,4.1,2.44,2.44Z"/><circle class="cls-4" cx="200.86" cy="136.18" r="35.02"/><path class="cls-3" d="M215.37,151.44h-29a2,2,0,0,1-2-2V131.93a2,2,0,0,1,2-2h29a2,2,0,0,1,2,2v17.51A2,2,0,0,1,215.37,151.44Zm-29-19.51v17.51h29V131.93Z"/><path class="cls-3" d="M209.87,131.93h-18v-8c0-5.8,3.78-10,9-10s9,4.21,9,10Zm-16-2h14v-6c0-4.71-2.88-8-7-8s-7,3.29-7,8Z"/><circle class="cls-3" cx="200.86" cy="140.18" r="2"/></svg>