<svg id="图层_1" data-name="图层 1" xmlns="http://www.w3.org/2000/svg" viewBox="0 0 793 551.73"><defs><style>.cls-1,.cls-7{fill:#e6e6e6;}.cls-2{fill:#2f2e41;}.cls-3{fill:#3f3d56;}.cls-4{fill:#fff;}.cls-5{fill:#ffb8b8;}.cls-6{fill:#3d5afe;}.cls-7{opacity:0.44;}.cls-8{fill:#ccc;}.cls-9{fill:#999;}</style></defs><title>undraw_secure_login_pdn4</title><ellipse class="cls-1" cx="158" cy="539.73" rx="158" ry="12"/><path class="cls-2" d="M120.77,122.42c27.5-11.7,61.75-4.29,95.19.86.31-6.23,4.09-13.81.14-18.16-4.81-5.27-4.36-10.82-1.47-16.4,7.38-14.26-3.2-29.44-13.89-42.06-4.54-5.35-6.81-11-19-11.77a11.47,11.47,0,0,0-5.33,1L161.94,42.3c-9.87.7-19,4.94-21.8,14.42h0c-4.73,6.43-7.26,12.84-5.67,19.22-7.08,4.84-8.27,10.68-5.09,17.27q4.05,6.21-.12,12.1A55.74,55.74,0,0,0,121,121.82Z"/><path class="cls-2" d="M774.21,477H213.79A18.79,18.79,0,0,1,195,458.17h0q304.72-35.42,598,0h0A18.79,18.79,0,0,1,774.21,477Z"/><path class="cls-3" d="M793,459.28l-598-1.11,69.31-116.61.33-.56V84a23.75,23.75,0,0,1,23.75-23.76h407.9A23.75,23.75,0,0,1,720.05,84h0V342.77Z"/><path class="cls-4" d="M287.85,76.82a7.76,7.76,0,0,0-7.74,7.74V318.9a7.74,7.74,0,0,0,7.74,7.73h412.3a7.74,7.74,0,0,0,7.74-7.73V84.56a7.76,7.76,0,0,0-7.74-7.74Z"/><path class="cls-2" d="M289.58,357.58a3.33,3.33,0,0,0-3,1.93l-21.36,46.43a3.31,3.31,0,0,0,1.63,4.4,3.26,3.26,0,0,0,1.38.3H717.31a3.32,3.32,0,0,0,3-4.8l-23.21-46.42a3.31,3.31,0,0,0-3-1.84Z"/><circle class="cls-4" cx="492.34" cy="67.98" r="4.97"/><path class="cls-2" d="M448.2,419.48a3.33,3.33,0,0,0-3.2,2.46l-5.36,19.89A3.32,3.32,0,0,0,442,445.9a3.56,3.56,0,0,0,.86.11H544.72A3.31,3.31,0,0,0,548,442.7a3.37,3.37,0,0,0-.18-1.09L541,421.72a3.31,3.31,0,0,0-3.13-2.24Z"/><polygon class="cls-2" points="720.05 337.13 720.05 341.56 264.31 341.56 264.65 341 264.65 337.13 720.05 337.13"/><path class="cls-1" d="M493.17,191.6H358.7a2.75,2.75,0,0,1-2.49-2.95V149.13a2.75,2.75,0,0,1,2.49-2.95H493.17a2.76,2.76,0,0,1,2.5,2.95v39.52A2.76,2.76,0,0,1,493.17,191.6ZM358.7,147.36a1.65,1.65,0,0,0-1.49,1.77v39.52a1.65,1.65,0,0,0,1.49,1.77H493.17a1.65,1.65,0,0,0,1.5-1.77V149.13a1.65,1.65,0,0,0-1.5-1.77Z"/><circle class="cls-1" cx="374.33" cy="168.89" r="12.02"/><path class="cls-1" d="M394.94,160.88a2,2,0,1,0,0,4h94.44a2,2,0,0,0,0-4Z"/><path class="cls-1" d="M394.94,172.89a2,2,0,1,0,0,4h40.63a2,2,0,0,0,0-4Z"/><path class="cls-1" d="M650.2,191.6H515.72a2.75,2.75,0,0,1-2.49-2.95V149.13a2.75,2.75,0,0,1,2.49-2.95H650.2a2.76,2.76,0,0,1,2.49,2.95v39.52A2.76,2.76,0,0,1,650.2,191.6ZM515.72,147.36a1.65,1.65,0,0,0-1.49,1.77v39.52a1.65,1.65,0,0,0,1.49,1.77H650.2a1.65,1.65,0,0,0,1.49-1.77V149.13a1.65,1.65,0,0,0-1.49-1.77Z"/><circle class="cls-1" cx="531.35" cy="168.89" r="12.02"/><path class="cls-1" d="M552,160.88a2,2,0,1,0,0,4h94.44a2,2,0,0,0,0-4Z"/><path class="cls-1" d="M552,172.89a2,2,0,1,0,0,4h40.63a2,2,0,0,0,0-4Z"/><path class="cls-1" d="M493.17,253.52H358.7a2.75,2.75,0,0,1-2.49-3V211.05a2.75,2.75,0,0,1,2.49-3H493.17a2.76,2.76,0,0,1,2.5,3v39.52A2.76,2.76,0,0,1,493.17,253.52ZM358.7,209.28a1.65,1.65,0,0,0-1.49,1.77v39.52a1.65,1.65,0,0,0,1.49,1.77H493.17a1.65,1.65,0,0,0,1.5-1.77V211.05a1.65,1.65,0,0,0-1.5-1.77Z"/><circle class="cls-1" cx="374.33" cy="230.81" r="12.02"/><path class="cls-1" d="M394.94,222.8a2,2,0,1,0,0,4h94.44a2,2,0,0,0,0-4Z"/><path class="cls-1" d="M394.94,234.82a2,2,0,1,0,0,4h40.63a2,2,0,0,0,0-4Z"/><path class="cls-1" d="M650.2,253.52H515.72a2.75,2.75,0,0,1-2.49-3V211.05a2.75,2.75,0,0,1,2.49-3H650.2a2.76,2.76,0,0,1,2.49,3v39.52A2.76,2.76,0,0,1,650.2,253.52ZM515.72,209.28a1.65,1.65,0,0,0-1.49,1.77v39.52a1.65,1.65,0,0,0,1.49,1.77H650.2a1.65,1.65,0,0,0,1.49-1.77V211.05a1.65,1.65,0,0,0-1.49-1.77Z"/><circle class="cls-1" cx="531.35" cy="230.81" r="12.02"/><path class="cls-1" d="M552,222.8a2,2,0,1,0,0,4h94.44a2,2,0,0,0,0-4Z"/><path class="cls-1" d="M552,234.82a2,2,0,1,0,0,4h40.63a2,2,0,0,0,0-4Z"/><path class="cls-5" d="M263.52,208.33l-58.9,31.31-.75-26.09c19.23-3.21,37.52-8.8,54.43-17.9l6.16-15.22A10.33,10.33,0,0,1,282,177.75h0a10.32,10.32,0,0,1-.91,14.07Z"/><path class="cls-2" d="M119.6,389.13h0a11.55,11.55,0,0,1,1.47-9.36L134,359.91a22.61,22.61,0,0,1,29.33-7.74h0c-5.44,9.26-4.68,17.38,1.88,24.44a117.73,117.73,0,0,0-27.94,19,11.57,11.57,0,0,1-16.08-3A11.71,11.71,0,0,1,119.6,389.13Z"/><path class="cls-2" d="M266.2,363.17h0A22.22,22.22,0,0,1,247.33,374l-86,.65L157.65,353l38-11.19-32.06-24.6,35-41L262.3,335.5A22.19,22.19,0,0,1,266.2,363.17Z"/><path class="cls-2" d="M148,511.05H127.82c-18.07-123.9-36.47-248.15,17.9-294.52L209.84,227l-8.2,54.43-35.79,41Z"/><path class="cls-2" d="M166.77,538.34h0c-3.19.87-7.72,2.44-10.48.64L134.43,536a22.6,22.6,0,0,1-7.74-29.33h0c9.25,5.43,17.37,4.67,24.43-1.88,5,10.06,13.2,9.45,21,17.93,3.6,5.28,2.9,10.6-2.38,14.2A8.82,8.82,0,0,1,166.77,538.34Z"/><path class="cls-5" d="M195.67,133.77l-37.28-9c6.19-12.67,6.7-26.78,3.73-41.75l25.35-.75C188.26,101,190.67,118.35,195.67,133.77Z"/><path class="cls-6" d="M205.92,249.42c-27.14,18.49-46.32.63-60.95-26.93,2-16.86-1.26-37-7.36-59a40.13,40.13,0,0,1,24.51-48.4h0l32.06,13.42c27.22,22.19,32.58,46.23,22.37,71.58Z"/><path class="cls-5" d="M127.82,152.41,98,168.07l52.94,31.31,7.36,18.17A9.64,9.64,0,0,1,153,230.1l-.48.18h0a9.64,9.64,0,0,1-12.25-6,9.45,9.45,0,0,1-.51-2.57L139,209.07l-67.29-22.2a15.75,15.75,0,0,1-9.87-9.61h0a15.72,15.72,0,0,1,5.9-18.3l54.11-37.12Z"/><path class="cls-6" d="M157.65,155.39c-12.44-5.45-23.75.47-38,5.22l-2.24-39.52c14.18-7.55,27.69-9.59,40.27-3.73Z"/><circle class="cls-5" cx="172.52" cy="78.09" r="23.8"/><path class="cls-2" d="M201,75.09c-23.57,2.31-41.52-1.55-53-12.52V53.73h51Z"/><rect class="cls-1" x="289.68" y="89.79" width="44.43" height="227.74"/><rect class="cls-7" x="357.68" y="89.79" width="292.51" height="43.98"/><circle class="cls-8" cx="706.95" cy="78.09" r="77.38"/><path class="cls-9" d="M658.84,57.42l.32-.92a6.34,6.34,0,0,1,11.69-.88,6.24,6.24,0,0,1-.85,7c-.19.23-.39.45-.61.7,4.71,2.89,9.4,5.74,14.06,8.61,1.77,1.09,3.55,2.19,5.31,3.24a1.48,1.48,0,0,0,2.34-.57c5.36-9.77,10.73-19.55,16.13-29.42a6.54,6.54,0,0,1-4-5.69,6.08,6.08,0,0,1,1.9-4.81,6.36,6.36,0,0,1,9.33.52c2.68,3.28,1.71,7.12-2.53,10Q714,49,716.13,52.78C720,59.87,723.9,67,727.8,74c.89,1.64,1.46,1.79,3.07.84l18.06-11.06.87-.55a6.61,6.61,0,0,1-2.13-4.38,6.36,6.36,0,0,1,12.44-2.18,7.34,7.34,0,0,0,.27.74v2.19c-1,3.28-3.13,5.19-6.75,5.21-.13.37-.27.75-.37,1.12Q748,84.09,742.69,102.25c-.46,1.58-1,2-2.61,2H679.22c-1.71,0-2.24-.39-2.7-2-2.88-9.81-5.71-19.65-8.59-29.45-.76-2.66-1.55-5.31-2.33-8a6.33,6.33,0,0,1-6-3.4,19.07,19.07,0,0,1-.74-1.81c0-.76,0-1.48,0-2.2Z"/><path class="cls-9" d="M710,109.84H738.4a4.74,4.74,0,0,1,1.07,9.39,4.31,4.31,0,0,1-1.07.1H681.51a4.74,4.74,0,0,1-4.62-3.24,4.53,4.53,0,0,1,1.68-5.28,6.22,6.22,0,0,1,3.13-1c9.44,0,18.86,0,28.27,0Z"/></svg>