<svg xmlns="http://www.w3.org/2000/svg" viewBox="0 0 32 32" width="19" height="19" style="fill:#fff;border-color: rgba(187,187,187,1);border-width: 0px;border-style: solid" filter="none">
    <path d="M26.496 1.984h-20.992c-0.96 0-1.76 0.8-1.76 1.76v24.512c0 0.96 0.8 1.76 1.76 1.76h20.992c0.96 0 1.76-0.8 1.76-1.76v-24.512c0-0.96-0.8-1.76-1.76-1.76zM20.48 4.864h5.056v1.76h-5.056v-1.76zM6.368 4.864h5.088v1.76h-5.088v-1.76zM26.24 28.064h-20.48v-18.784h20.48v18.784zM8.576 14.176h14.976c0.512 0 0.896-0.416 0.896-0.928s-0.384-0.896-0.896-0.896h-14.976c-0.48 0-0.896 0.416-0.896 0.896s0.416 0.928 0.896 0.928zM8.576 17.888h14.976c0.512 0 0.896-0.384 0.896-0.896s-0.384-0.896-0.896-0.896h-14.976c-0.48 0-0.896 0.416-0.896 0.896s0.416 0.896 0.896 0.896zM8.576 21.632h14.976c0.512 0 0.896-0.416 0.896-0.896s-0.384-0.896-0.896-0.896h-14.976c-0.48 0-0.896 0.384-0.896 0.896s0.416 0.896 0.896 0.896zM8.576 25.376h14.976c0.512 0 0.896-0.416 0.896-0.896s-0.384-0.928-0.896-0.928h-14.976c-0.48 0-0.896 0.416-0.896 0.928s0.416 0.896 0.896 0.896z"></path>
  </svg>
