<svg id="图层_1" data-name="图层 1" xmlns="http://www.w3.org/2000/svg" viewBox="0 0 34 31.81"><defs><style>.cls-1{fill:#3d5afe;}</style></defs><title>智能客服</title><path class="cls-1" d="M113.67,96.94a11.79,11.79,0,0,0-11-7.66H97.34a11.8,11.8,0,0,0-11,7.66l-.1,0-.13-5.3A1.39,1.39,0,0,0,87,90.41v-2.7a1.38,1.38,0,0,0-2.75-.1V90.4a1.37,1.37,0,0,0,.86,1.27l-.15,6A5,5,0,0,0,83,101.63v4.13a5,5,0,0,0,3.33,4.68,11.8,11.8,0,0,0,11,7.66h5.32a11.8,11.8,0,0,0,11-7.66,5,5,0,0,0,3.33-4.68v-4.13A5,5,0,0,0,113.67,96.94Zm-1.23,8.45a5.07,5.07,0,0,1-5.06,5H92.62a5.07,5.07,0,0,1-5.05-5V102a5.07,5.07,0,0,1,5.05-5.06h14.76a5.06,5.06,0,0,1,5.05,5.06Z" transform="translate(-83 -86.29)"/><path class="cls-1" d="M103.42,100.43l-2.94,5.24-3.64-7.74L94,104l-4.37.73,5.16.21,2-3.7,3.71,7.54,3-5.75,1.47,2,4.41-.24-3.86-.68Z" transform="translate(-83 -86.29)"/></svg>