<svg id="图层_1" data-name="图层 1" xmlns="http://www.w3.org/2000/svg" viewBox="0 0 34 27.71"><defs><style>.cls-1{fill:#3d5afe;}</style></defs><title>微信</title><path class="cls-1" d="M117,104.12c0-4.71-4.71-8.55-10-8.55-5.61,0-10,3.84-10,8.55s4.41,8.54,10,8.54a15.66,15.66,0,0,0,3.54-.58l3.23,1.77-.88-2.95C115.24,109.13,117,106.77,117,104.12Zm-13.26-1.48a1.18,1.18,0,0,1,0-2.35,1.21,1.21,0,1,1,0,2.35Zm6.49,0a1.18,1.18,0,1,1,0-2.35,1.2,1.2,0,1,1,0,2.35Z" transform="translate(-83 -86.15)"/><path class="cls-1" d="M106,94.53c.38,0,.77,0,1.16.06-1-4.85-6.23-8.44-12.14-8.44-6.62,0-12,4.5-12,10.23,0,3.31,1.8,6,4.81,8.13l-1.2,3.62L90.82,106a21.25,21.25,0,0,0,4.22.6,10.65,10.65,0,0,0,1.12-.06,8.53,8.53,0,0,1-.38-2.51C95.78,98.79,100.3,94.53,106,94.53Zm-6.48-3.27a1.51,1.51,0,0,1,0,3,1.68,1.68,0,0,1-1.81-1.5A1.7,1.7,0,0,1,99.54,91.26Zm-8.42,3a1.53,1.53,0,1,1,0-3,1.51,1.51,0,0,1,0,3Z" transform="translate(-83 -86.15)"/></svg>