<svg id="图层_1" data-name="图层 1" xmlns="http://www.w3.org/2000/svg" viewBox="0 0 30 30"><defs><style>.cls-1{fill:#3d5afe;}</style></defs><title>公司</title><path class="cls-1" d="M26,0H4A4,4,0,0,0,0,4V26a4,4,0,0,0,4,4H26a4,4,0,0,0,4-4V4A4,4,0,0,0,26,0ZM24.12,11.79a2.68,2.68,0,0,1,2.7,2.64,2.71,2.71,0,0,1-2.62,2.7h-.05a2.67,2.67,0,0,1,0-5.34ZM15.26,7.46a4.26,4.26,0,0,1,4.31,4.28,4.3,4.3,0,1,1-8.59,0A4.23,4.23,0,0,1,15.26,7.46Zm-8.7,4.31a2.7,2.7,0,0,1,2.67,2.64v.07A2.62,2.62,0,0,1,6.6,17.1h0a2.61,2.61,0,0,1-2.7-2.64A2.7,2.7,0,0,1,6.56,11.77ZM1.87,21.14a2.73,2.73,0,0,1,1.3-2.23,6,6,0,0,1,6-.46,1.1,1.1,0,0,1,.24.16,6,6,0,0,0-2,2.53Zm6.06,0a5.14,5.14,0,0,1,2.35-2.56,9.51,9.51,0,0,1,10.23.16,4.7,4.7,0,0,1,2.08,2.4Zm15.3,0a5.32,5.32,0,0,0-2-2.53,5.87,5.87,0,0,1,3.18-.73,5.41,5.41,0,0,1,3.42,1.27,2.64,2.64,0,0,1,1,2Z"/></svg>