<svg id="图层_1" data-name="图层 1" xmlns="http://www.w3.org/2000/svg" xmlns:xlink="http://www.w3.org/1999/xlink" viewBox="0 0 1024 1024"><defs><style>.cls-1{fill:url(#未命名的渐变_25);}.cls-2{fill:url(#未命名的渐变_21);}.cls-3{fill:url(#未命名的渐变_15);}.cls-11,.cls-4{fill:#7aa1f8;}.cls-4{fill-opacity:0.6;}.cls-5{fill:url(#未命名的渐变_23);}.cls-6{fill:#f5986a;}.cls-10,.cls-11,.cls-12,.cls-13,.cls-6,.cls-7,.cls-8,.cls-9{fill-rule:evenodd;}.cls-7{fill:#f8ad72;}.cls-8{fill:#272b73;}.cls-9{fill:#262a71;}.cls-10{fill:#f48d67;}.cls-12{fill:#27327b;}.cls-13{fill:#2b3682;}.cls-14{fill-opacity:0.57;fill:url(#未命名的渐变_19);}.cls-15{fill:url(#未命名的渐变_17);}.cls-16{fill:url(#未命名的渐变_8);}.cls-17{fill:#4d6fff;}</style><linearGradient id="未命名的渐变_25" x1="487.6" y1="-590.26" x2="488.05" y2="-591.44" gradientTransform="matrix(742, 0, 0, -352.1, -361466, -207328.54)" gradientUnits="userSpaceOnUse"><stop offset="0" stop-color="#d0ddf8"/><stop offset="1" stop-color="#fff"/></linearGradient><linearGradient id="未命名的渐变_21" x1="487.15" y1="-592.65" x2="486.19" y2="-591.83" gradientTransform="matrix(307.9, 0, 0, -206.5, -149251.61, -121560.8)" gradientUnits="userSpaceOnUse"><stop offset="0" stop-color="#fff" stop-opacity="0"/><stop offset="1" stop-color="#9db9e0"/></linearGradient><linearGradient id="未命名的渐变_15" x1="487.35" y1="-589.96" x2="487.35" y2="-591.22" gradientTransform="matrix(433, 0, 0, -383.4, -210519.5, -226060.87)" gradientUnits="userSpaceOnUse"><stop offset="0" stop-color="#d0ddf8"/><stop offset="1" stop-color="#fff" stop-opacity="0"/></linearGradient><linearGradient id="未命名的渐变_23" x1="484.88" y1="-599.66" x2="484.1" y2="-598.68" gradientTransform="matrix(113.4, 0, 0, -64.1, -54126.61, -37713.09)" xlink:href="#未命名的渐变_21"/><linearGradient id="未命名的渐变_19" x1="486.55" y1="-591.13" x2="487.81" y2="-591.13" gradientTransform="matrix(378.8, 0, 0, -280.8, -184042.81, -165561.61)" gradientUnits="userSpaceOnUse"><stop offset="0" stop-color="#cedbf8"/><stop offset="1" stop-color="#92b2f8"/></linearGradient><linearGradient id="未命名的渐变_17" x1="487.38" y1="-591.84" x2="486.13" y2="-591.84" gradientTransform="matrix(289.2, 0, 0, -215.9, -140273.19, -127307.89)" xlink:href="#未命名的渐变_19"/><linearGradient id="未命名的渐变_8" x1="965.48" y1="-1424.05" x2="879.73" y2="-1275.52" gradientTransform="matrix(186.6, 0, 0, -140.4, -90153.09, -82806.27)" xlink:href="#未命名的渐变_19"/></defs><title>404</title><path class="cls-1" d="M968.27,709.82l-.38,8.8-1.13,8.68L965,736l-2.52,8.56-3.27,8.68-3.9,8.3-4.52,8.3L945.63,778l-6,8.3-6.92,8.31-7,7.67-7.8,7.67-8.43,7.55L900,825.18l-10.06,7.54-12.83,8.68-14,8.43L848,858.26l-16.48,8.18-16.48,7.42L797.81,881l-18.24,6.67-19.12,6.41-19,5.79-19.75,5.28-20.38,4.91-21.14,4.4-21.13,3.9-21.51,3.27-22,3L593,927.07,570.62,929l-22.77,1.26-23,.88-23.27.25-23.27-.25-23-.88L432.5,929l-22.4-1.89-22.51-2.39-22-3-21.51-3.27-21.14-3.9-21.13-4.4-20.38-4.91-19.75-5.28-19-5.79-19.13-6.41L205.3,881l-17.23-7.17-16.48-7.42-16.48-8.18L140,849.83l-14-8.43-12.83-8.68-10.07-7.54-9.43-7.68L85.29,810l-7.8-7.67-7-7.67-6.92-8.31-6-8.3-5.16-8.18-4.53-8.3-3.9-8.3-3.27-8.68L38.12,736l-1.76-8.68-1.14-8.68-.37-8.8.37-8.68,1.14-8.68,1.76-8.68,2.51-8.68,3.27-8.68,3.9-8.18,4.53-8.3,5.16-8.3,6-8.18,6.92-8.3,7-7.68,7.8-7.67,8.43-7.68,9.43-7.54L113.22,587l12.83-8.68,14-8.56,15.1-8.3,16.48-8.3,16.48-7.42,17.23-7,18.24-6.79,19.13-6.29,19-5.79,19.75-5.28,20.38-4.91,21.13-4.4,21.14-3.9,21.51-3.4,22-2.89,22.51-2.39,22.4-1.89,22.76-1.38,23-.76,23.27-.25,23.27.25,23,.76,22.77,1.38L593,492.69l22.52,2.39,22,2.89,21.51,3.4,21.13,3.9,21.14,4.4,20.38,4.91,19.75,5.28,19,5.79,19.12,6.29,18.24,6.79,17.24,7,16.48,7.42L848,561.5l15.09,8.3,14,8.56L889.9,587,900,594.59l9.44,7.54,8.43,7.68,7.8,7.67,7,7.68,6.92,8.3,6,8.18,5.16,8.3,4.52,8.3,3.9,8.18,3.27,8.68,2.52,8.68,1.76,8.68,1.13,8.68Z"/><path class="cls-2" d="M892.16,764.79,564.33,865.18l-59.5-259.77Z"/><path class="cls-3" d="M773.91,156.43V575H229.2l2.65-448.34h122v54l1.39-7.29,1.5-3.15,2-2.77L361,165l2.77-1.88,3.14-1.51,3.28-.88,3.64-.25,3.65.25,3.27.88,3,1.51,2.77,1.88,2.39,2.39,2,2.77,1.39,3.15.88,3.27.37,3.65v11.7H480.8V92.65h78.25l-.13,192.09.76,4.41,1,2,2.77,3.27,3.78,2.27,4.52.75,4.41-.75,3.77-2.27,2.77-3.27,1.51-4.15.25-39.88h72.21l.75-3v-7.29l-.75-18.75H693.9v34.22l.26,2.51,1,2.14,1.39,2,1.88,1.38,2.27,1,2.51.25,2.52-.25,2.26-1,1.89-1.38,1.39-2,1-2.14.25-2.51V156.43Z"/><path class="cls-4" d="M662.71,252.67l-.63,3.39-1.89,2.77-2.89,1.89-3.27.75-1.76-.25L649.12,260l-2.39-2.39-1.26-3.14V251l1.26-3.14,2.39-2.52,3.15-1.26h3.39l3.15,1.26,2.51,2.52,1.26,3.14Z"/><path class="cls-4" d="M871,354.69l-.25,2.14-1.51,3.65-2.9,2.89-3.64,1.51h-4.15l-3.78-1.51-2.89-2.89-1.51-3.65v-4.15l1.51-3.78L854.8,346l3.78-1.51h4.15l3.64,1.51,1.64,1.38,2.26,3.4Z"/><path class="cls-4" d="M721.83,649.81l-.75,3.65-2.14,3.27-3.15,2.14-3.77.75-2-.25L706.48,658l-2.64-2.77-1.51-3.52v-3.9l1.51-3.52,2.64-2.77,3.53-1.38h3.9l3.52,1.38,2.77,2.77,1.38,3.52Z"/><path class="cls-4" d="M427.21,721.14l-5-1-2.26-1-3.9-3.27-2.52-4.28-.88-5.16.88-5.16L416,697l3.9-3.15,4.65-1.76H430l2.39.63,4.4,2.52,3.15,3.77,1.13,2.26.88,5.16-.88,5.16-2.64,4.28-3.78,3.27-2.26,1Zm0-21.26-1.76.25-2.77,1.76-1.63,2.77-.25,1.76.88,3.27,2.26,2.39,1.51.63,1.76.25,3.27-.88,2.39-2.39.88-3.27-.25-1.76-1.63-2.77-2.9-1.76Z"/><path class="cls-4" d="M164.8,478.47H136.49l-1.76-.37-1.38-.88-.88-1.39-.38-1.76.38-1.76.88-1.38,1.38-1,1.76-.38H164.8l1.76.38,1.38,1,1,1.38.37,1.76-.37,1.76-1,1.39-1.38.88Z"/><path class="cls-4" d="M146.05,488V460.11l.38-1.89,1-1.38,1.38-1,1.89-.38,1.76.38,1.51,1,1,1.38.38,1.89V488L155,489.8l-1,1.51-1.51,1-1.76.38-1.89-.38-1.38-1-1-1.51Z"/><path class="cls-4" d="M502.31,234.68l-25.16-36.61,4.28-8,18.74,1Z"/><path class="cls-4" d="M493,240.21l-34.84-6.41-2.27-7.05,11.2-10.06Z"/><path class="cls-4" d="M508.1,228.89l2.64-31.32,5.91-2.52,9.94,8.93Z"/><path class="cls-5" d="M910.4,731.83,859,756.36l-91.2-75.85,24-4.78Z"/><path id="圆角矩形-5" class="cls-6" d="M782.84,520.74l1.51.38,1.26.88.76,1.38.37,1.64v13.21l-.37,1.63-.76,1.39-1.26.88-1.51.38-1.63-.38-1.26-.88-.75-1.39-.38-1.63V525l.38-1.64L780,522l1.26-.88Z"/><path id="Combined-shape-564" class="cls-7" d="M777.56,513.57h2.27l2.89,1,1.51,1.38.88,1.64.38,3.77,1.25-.63.88.38.38,1.64-.63,2-3,1.89-2.26,4-1.89,2L777.56,534h-2.64l-1.51-1.13-.5-1.51-.26-5.16.26-7.29.75-2.52,2-2.26Z"/><path id="形状-17" class="cls-8" d="M780.2,519.49l-5.41.25-1.25-.25-1.64-1.26-.88-2,.63-3.27,1.13-1.51,1.64-.88,1.76-.25.88.25,3.77,3h4l1.13.25,1.38,1,1,1.51,1,4L789,523l-1.64,4.27-1.25,1.39-.89.25-.5-.25-.25-.88.88-1.76,2-1.14.38-1,.13-2.14-1.14-.25-1.38.63-.63,2-.5-2.64-.76-1.39-1.13-.5Z"/><path id="形状-30" class="cls-9" d="M784.86,671.2l2.14,6.92-19,5.66v-2.64l.76-1.76,1-1,6.54-2.77,1.64-2.39Z"/><path id="形状-26-拷贝" class="cls-10" d="M748.88,551.31,745,548.8l-.63.25.25,1.26h-.38l-1-.38-2.52-2.14-1.26.25-.5.63-.13,2.89.51,1.26,5.78,5.41Z"/><path class="cls-11" d="M772.91,570.81,764.35,578l-2,.76-1.26-.38-.63-.38-15.22-19.25,4-7.67,12.45,14.47,5.91-18.5Z"/><path id="形状-26-拷贝-2" data-name="形状-26-拷贝" class="cls-10" d="M819.2,549.05l4.28-1.89.5.25-.38,1.13.38.13,1.13-.25,2.77-1.64,1.13.38.38.76-.25,2.89-.76,1.13L822,556.47Z"/><path class="cls-11" d="M821.72,557.6l-14.47,18.49-2,.63-1.89-.63-8.55-7.29,5.28-23.65L806,563.51l12.46-14.46Z"/><path id="形状-24" class="cls-11" d="M778.82,537.85l.63,2.64,1.38,1.39,3.9-3.27,2-3.27,10.07,5.4,2.39,2.4.88,1.63.5,3v50.7h-33V547.16l1.26-3.27,2.14-2.64,3.4-2.14Z"/><path class="cls-12" d="M767.75,598.23l-.63,43,11.45,33.59L785,674l-.25-8.18L784,661l-1.39-5.41-2-5.28-2-4.28,1.26-8.56,1-10.19L781,612.7h4.9l1.39,66.3h8l3-35,1.26-23.28.75-22.52Z"/><path id="形状-30-拷贝" class="cls-13" d="M794.42,674l1.51,7-19.25,4.15.13-2.51.88-1.77,1-.88,6.8-2.39,1.76-2.13Z"/><path class="cls-14" d="M739.82,365.26,499.55,605.41,263.3,369.16,272,358.59l8.93-10.07,9.56-9.56,9.81-9.31,10.32-8.8,10.69-8.3,11.07-7.93,11.32-7.3,11.83-6.91L367.58,284l12.33-5.79,12.71-5.28,12.95-4.78L418.78,264l13.59-3.52,13.71-2.9,13.84-2.39L474,253.55l14.47-1,14.71-.38,14.35.38,14.08,1,14,1.63,13.58,2.14,13.47,2.89,13.33,3.4,13,4,12.83,4.52,12.45,5,12.2,5.66,12,6.16,11.57,6.67,11.32,7.17,10.82,7.55,10.69,8L703,327l9.81,8.93,9.44,9.31,8.93,9.82Z"/><path class="cls-15" d="M500.43,605.41l183-182.92-8.17-9.93-8.68-9.44-9.19-8.8-9.68-8.43L637.67,378l-10.56-7.29-11-6.67-11.32-6L593,352.42l-12-4.78-12.45-4.15-12.83-3.39L543,337.33l-13.21-1.89-13.46-1.26-13.84-.37-11.32.25-10.95.88-10.82,1.26L458.66,338l-10.44,2.26-13,3.52L422.81,348l-12.2,4.91-11.83,5.66-11.57,6.29-11.07,6.79-10.57,7.42-10.19,8.05-9.69,8.68-9.18,9.06-8.68,9.69-8.18,10.06Z"/><path class="cls-16" d="M500.43,605.41,618.93,487l-10.69-12.71L596.16,463,583,453.06l-14.47-8.43L553.26,438l-16.35-5-8.3-1.77-8.56-1.25-8.68-.88-8.93-.26-9.18.38-8.94.76-8.68,1.38-8.55,1.76-8.43,2.39-8.05,2.89-7.92,3.28L435,445.26l-7.42,4.16-14,9.56-12.84,11.07L389.35,482.5l-5.16,6.79Z"/><path class="cls-17" d="M440.93,567.85H419.35v37.33H387.87V567.85H325.92l14-115.19h31.47l-12.5,103.2h29V452.66h31.48v103.2h21.58Z"/><path class="cls-17" d="M558.29,452.66V573.55c0,16.91-11.26,30.63-25,30.63H451.09V452.66ZM482.42,464.8V591.88h32.29c6.89,0,12.5-6.86,12.5-15.17V465Z"/><path class="cls-17" d="M683.73,567.85H662.15v37.33H630.71V567.85h-62l14-115.19H614.2l-12.5,103.2h29V452.66h31.44v103.2h21.58Z"/></svg>