<svg id="图层_1" data-name="图层 1" xmlns="http://www.w3.org/2000/svg" xmlns:xlink="http://www.w3.org/1999/xlink" viewBox="0 0 1024 1024"><defs><style>.cls-1{fill:none;}.cls-2,.cls-58{fill:#7aa1f8;}.cls-2{fill-opacity:0.6;}.cls-3{fill:url(#未命名的渐变_31);}.cls-4{fill:url(#未命名的渐变_27);}.cls-5{fill:url(#未命名的渐变_29);}.cls-6{fill:url(#未命名的渐变_33);}.cls-52,.cls-7{fill:#272b73;}.cls-8{clip-path:url(#clip-path);}.cls-9{fill:#fff;}.cls-10{fill:#fefeff;}.cls-11{fill:#fdfefe;}.cls-12{fill:#fcfdfe;}.cls-13{fill:#fbfcfd;}.cls-14{fill:#fafbfd;}.cls-15{fill:#f9fbfc;}.cls-16{fill:#f8fafc;}.cls-17{fill:#f7f9fb;}.cls-18{fill:#f6f8fb;}.cls-19{fill:#f5f8fb;}.cls-20{fill:#f4f7fa;}.cls-21{fill:#f3f6fa;}.cls-22{fill:#f2f5f9;}.cls-23{fill:#f1f5f9;}.cls-24{fill:#f0f4f8;}.cls-25{fill:#eff3f8;}.cls-26{fill:#eef2f7;}.cls-27{fill:#edf2f7;}.cls-28{fill:#ebf1f7;}.cls-29{fill:#eaf0f6;}.cls-30{fill:#e9eff6;}.cls-31{fill:#e8eff5;}.cls-32{fill:#e7eef5;}.cls-33{fill:#e6edf4;}.cls-34{fill:#e5ecf4;}.cls-35{fill:#e4ecf3;}.cls-36{fill:#e3ebf3;}.cls-37{fill:#e2eaf3;}.cls-38{fill:#e1e9f2;}.cls-39{fill:#e0e9f2;}.cls-40{fill:#dfe8f1;}.cls-41{fill:#dee7f1;}.cls-42{fill:#dde6f0;}.cls-43{fill:#dce6f0;}.cls-44{fill:#dbe5ef;}.cls-45{fill:#dae4ef;}.cls-46{fill:url(#未命名的渐变_6);}.cls-47{fill:url(#未命名的渐变_13);}.cls-48{fill:url(#未命名的渐变_10);}.cls-49{fill:url(#未命名的渐变_6-2);}.cls-50{fill:#f5986a;}.cls-50,.cls-51,.cls-52,.cls-53,.cls-54,.cls-55,.cls-56,.cls-57,.cls-58,.cls-59,.cls-60{fill-rule:evenodd;}.cls-51{fill:#f8ad72;}.cls-53{fill:#262a71;}.cls-54{fill:#151145;}.cls-55{fill:#27327b;}.cls-56{fill:#2b3682;}.cls-57{fill:#f48d67;}.cls-59{fill:#2b72d8;}.cls-60{fill:#ef8d61;}.cls-61{fill:url(#未命名的渐变_10-2);}.cls-62{fill:url(#未命名的渐变_10-3);}.cls-63{fill:url(#未命名的渐变_11);}.cls-64{fill:url(#未命名的渐变_12);}.cls-65{clip-path:url(#clip-path-39);}.cls-66{font-size:127px;fill:#4d6fff;font-family:MFLiHei_Noncommercial-Regular-GBpc-EUC-H, "MF LiHei (Noncommercial)";}</style><linearGradient id="未命名的渐变_31" x1="487.37" y1="537.41" x2="487.34" y2="536.15" gradientTransform="matrix(433.1, 0, 0, -383.4, -210569.9, 206168.41)" gradientUnits="userSpaceOnUse"><stop offset="0" stop-color="#d0ddf8"/><stop offset="1" stop-color="#fff" stop-opacity="0"/></linearGradient><linearGradient id="未命名的渐变_27" x1="487.53" y1="537.28" x2="488.12" y2="536.17" gradientTransform="matrix(741.9, 0, 0, -352.1, -361418.71, 189706.29)" gradientUnits="userSpaceOnUse"><stop offset="0" stop-color="#d0ddf8"/><stop offset="1" stop-color="#fff"/></linearGradient><linearGradient id="未命名的渐变_29" x1="487.32" y1="537.19" x2="486.57" y2="538.2" gradientTransform="matrix(328.4, 0, 0, -194.9, -159259.11, 105530.91)" gradientUnits="userSpaceOnUse"><stop offset="0" stop-color="#fff" stop-opacity="0"/><stop offset="1" stop-color="#9db9e0"/></linearGradient><linearGradient id="未命名的渐变_33" x1="483.85" y1="539.06" x2="483.3" y2="540.2" gradientTransform="matrix(109.3, 0, 0, -105.5, -52547.19, 57657)" xlink:href="#未命名的渐变_29"/><clipPath id="clip-path"><rect class="cls-1" x="512.91" y="532.61" width="33.24" height="67.86"/></clipPath><linearGradient id="未命名的渐变_6" x1="479.99" y1="-205.73" x2="479.99" y2="-67.06" gradientTransform="matrix(56, 0, 0, -110, -26272.9, 59930.58)" gradientUnits="userSpaceOnUse"><stop offset="0" stop-color="#cedbf8"/><stop offset="1" stop-color="#92b2f8"/></linearGradient><linearGradient id="未命名的渐变_13" x1="479.57" y1="-75.78" x2="479.57" y2="-205.45" gradientTransform="matrix(55, 0, 0, -103, -25839.9, 56185.58)" gradientUnits="userSpaceOnUse"><stop offset="0" stop-color="#dfe7f8"/><stop offset="1" stop-color="#709af8"/></linearGradient><linearGradient id="未命名的渐变_10" x1="816.71" y1="-34.56" x2="944.43" y2="-255.78" gradientTransform="matrix(237.6, 0, 0, -237.6, -115075.7, 128140.42)" gradientUnits="userSpaceOnUse"><stop offset="0" stop-color="#dfe7f8"/><stop offset="1" stop-color="#7aa1f8"/></linearGradient><linearGradient id="未命名的渐变_6-2" x1="816.27" y1="-34.1" x2="892.81" y2="-166.66" gradientTransform="matrix(197.6, 0, 0, -197.6, -95555.7, 106700.4)" xlink:href="#未命名的渐变_6"/><linearGradient id="未命名的渐变_10-2" x1="778.74" y1="26.39" x2="810.54" y2="-28.68" gradientTransform="matrix(60.3, 0, 0, -60.5, -28547.19, 33225.7)" xlink:href="#未命名的渐变_10"/><linearGradient id="未命名的渐变_10-3" x1="770.68" y1="42.51" x2="816.3" y2="-36.5" gradientTransform="matrix(90.3, 0, 0, -90.4, -43204.61, 49234.71)" xlink:href="#未命名的渐变_10"/><linearGradient id="未命名的渐变_11" x1="1044.61" y1="541.84" x2="1144.11" y2="541.84" gradientTransform="matrix(79, 0, 0, -78.9, -37616.7, 43144.21)" gradientUnits="userSpaceOnUse"><stop offset="0" stop-color="#becfe2"/><stop offset="1" stop-color="#e7edf5"/></linearGradient><linearGradient id="未命名的渐变_12" x1="1010.44" y1="551" x2="1051.99" y2="551" gradientTransform="matrix(33, 0, 0, -33, -15188.5, 18522)" gradientUnits="userSpaceOnUse"><stop offset="0.09" stop-color="#fff"/><stop offset="0.94" stop-color="#bbcbe0"/></linearGradient><clipPath id="clip-path-39"><path class="cls-1" d="M437.12,239,544.2,391.74s-55.71,77.33-137.9,108.17S200.94,466,200.94,466L156.75,276Z"/></clipPath></defs><title>404</title><path class="cls-2" d="M669.58,240.61l-.65,3.53L667,247l-3,2-3.4.79-1.83-.26-3.27-1.31L653,245.71l-1.3-3.27v-3.53l1.3-3.26,2.49-2.62,3.27-1.31h3.53l3.27,1.31,2.61,2.62,1.31,3.26Z"/><path class="cls-2" d="M886.12,346.66l-.27,2.22-1.56,3.79-3,3-3.79,1.57h-4.32l-3.92-1.57-3-3-1.57-3.79v-4.31l1.57-3.93,3-3,3.92-1.57h4.32l3.79,1.57,1.7,1.43,2.35,3.54Z"/><path class="cls-2" d="M731,653.42l-.79,3.79-2.22,3.4-3.27,2.22-3.92.79-2.09-.27-3.67-1.43L712.34,659l-1.57-3.66v-4.06l1.57-3.66,2.74-2.87,3.67-1.44h4l3.66,1.44,2.88,2.87,1.44,3.66Z"/><path class="cls-2" d="M424.8,727.56l-5.23-1-2.35-1-4.06-3.4-2.61-4.44-.92-5.36.92-5.36,2.61-4.45,4.06-3.27,4.84-1.83h5.62l2.48.66,4.58,2.61,3.27,3.92,1.18,2.36.91,5.36-.91,5.36-2.75,4.44-3.92,3.4-2.36,1Zm0-22.1-1.83.26-2.88,1.83-1.69,2.88-.27,1.83.92,3.4,2.35,2.48,1.57.66,1.83.26,3.4-.92,2.49-2.48.91-3.4-.26-1.83-1.7-2.88-3-1.83Z"/><path class="cls-2" d="M152,475.32H122.62l-1.83-.39-1.44-.91-.91-1.44-.4-1.83.4-1.83.91-1.44,1.44-1.05,1.83-.39H152l1.83.39,1.44,1.05,1.05,1.44.39,1.83-.39,1.83L155.31,474l-1.44.91Z"/><path class="cls-2" d="M132.56,485.26v-29l.39-2,1.05-1.44,1.44-1,2-.39,1.83.39,1.57,1,1,1.44.39,2v29l-.39,1.83-1,1.57-1.57,1-1.83.39-2-.39-1.44-1L133,487.09Z"/><path class="cls-2" d="M502.86,221.92l-26.15-38,4.45-8.37,19.48,1Z"/><path class="cls-2" d="M493.19,227.67,457,221l-2.35-7.32,11.63-10.46Z"/><path class="cls-2" d="M508.88,215.9l2.75-32.56,6.14-2.61L528.1,190Z"/><path class="cls-3" d="M773.89,170.41V589.26H228.63l2.77-448.69H353.52v54l1.39-7.3,1.51-3.15,1.89-2.77,2.39-2.26,2.77-2,3-1.38,3.4-1,3.65-.25,3.53.25,3.4,1,3,1.38,2.77,2,2.39,2.26,1.89,2.77,1.51,3.15.88,3.27.38,3.65v11.71h87.24V106.58h78.18V298.82l.76,4.41.88,2,2.9,3.28,3.77,2.26,4.41.76,4.41-.76,3.77-2.26,2.77-3.28,1.51-4.15.25-39.78h72.39l.63-3.15.13-7.18-.76-18.76h37.14v34.12l.38,2.52.88,2.27,1.51,1.88,1.89,1.39,2.27,1,2.52.37,2.51-.37,2.14-1,1.89-1.39,1.51-1.88.88-2.27.38-2.52V170.41Z"/><path class="cls-4" d="M968.27,724.35l-.38,8.81-1,8.69-1.77,8.69-2.51,8.56-3.4,8.68-3.78,8.31-4.53,8.31-5.29,8.19-6,8.3-6.8,8.31-7,7.68-7.81,7.68-8.56,7.56L900,839.8l-10.2,7.55L877.12,856l-14,8.43L848,872.91l-16.49,8.18-16.49,7.43-17.38,7.17-18.13,6.68-19.13,6.42-19.14,5.66-19.76,5.42-20.4,4.78L680,929.18,659,933l-21.53,3.4-22,2.89-22.54,2.52-22.53,1.76-22.67,1.39-23,.88-23.3.25-23.41-.25L455,944.92l-22.79-1.39-22.54-1.76-22.41-2.52-22-2.89L343.58,933l-21-3.78-21.15-4.53L281,919.87l-19.77-5.42-19.13-5.66-19-6.42-18.26-6.68-17.37-7.17L171,881.09l-16.36-8.18-15.24-8.44L125.53,856l-12.84-8.69-10.2-7.55-9.32-7.68-8.56-7.56-7.81-7.68-7-7.68L63,800.89l-6.05-8.3-5.28-8.19-4.54-8.31-3.77-8.31L40,759.1l-2.51-8.56-1.89-8.69-1-8.69-.38-8.81.38-8.69,1-8.68,1.89-8.69L40,689.6l3.28-8.68,3.77-8.31,4.54-8.19,5.28-8.31,6.05-8.3,6.79-8.31,7-7.68,7.81-7.56,8.56-7.68,9.32-7.55,10.2-7.68,12.84-8.56,13.84-8.56,15.24-8.31L171,567.61l16.5-7.43,17.37-7,18.26-6.8,19-6.42,19.13-5.66L281,529l20.39-4.91,21.15-4.41,21-3.9,21.65-3.4,22-2.89,22.41-2.4,22.54-1.88L455,503.78l22.91-.75,23.41-.26,23.3.26,23,.75,22.67,1.39,22.53,1.88,22.54,2.4,22,2.89,21.53,3.4,21,3.9,21.15,4.41,20.4,4.91,19.76,5.29,19.14,5.66,19.13,6.42,18.13,6.8,17.38,7,16.49,7.43L848,575.92l15.11,8.31,14,8.56,12.72,8.56L900,609l9.31,7.55,8.56,7.68,7.81,7.56,7,7.68,6.8,8.31,6,8.3,5.29,8.31,4.53,8.19,3.78,8.31,3.4,8.68,2.51,8.69,1.77,8.69,1,8.68Z"/><path class="cls-5" d="M915.52,791l-300.13,62.7L502.08,614.7l139.74-6.43Z"/><path class="cls-6" d="M376.69,781.38,302,797.12,239.08,664.3l31.35,13.09Z"/><path class="cls-7" d="M296.62,533.37l7.05-9.7-1.39-1.51-7.3,9.7-.5,1.25Z"/><g class="cls-8"><path class="cls-9" d="M512.91,532.61h33.23v27.57H512.91Z"/></g><g class="cls-8"><path class="cls-9" d="M512.91,560.18h33.23v1.14H512.91Z"/></g><g class="cls-8"><path class="cls-10" d="M512.91,561.32h33.23v1H512.91Z"/></g><g class="cls-8"><path class="cls-11" d="M512.91,562.32h33.23v1.14H512.91Z"/></g><g class="cls-8"><path class="cls-12" d="M512.91,563.46h33.23v1.13H512.91Z"/></g><g class="cls-8"><path class="cls-13" d="M512.91,564.59h33.23v1H512.91Z"/></g><g class="cls-8"><path class="cls-14" d="M512.91,565.6h33.23v1.13H512.91Z"/></g><g class="cls-8"><path class="cls-15" d="M512.91,566.73h33.23v1.13H512.91Z"/></g><g class="cls-8"><path class="cls-16" d="M512.91,567.86h33.23v1H512.91Z"/></g><g class="cls-8"><path class="cls-17" d="M512.91,568.87h33.23V570H512.91Z"/></g><g class="cls-8"><path class="cls-18" d="M512.91,570h33.23v1.14H512.91Z"/></g><g class="cls-8"><path class="cls-19" d="M512.91,571.14h33.23v1H512.91Z"/></g><g class="cls-8"><path class="cls-20" d="M512.91,572.14h33.23v1.14H512.91Z"/></g><g class="cls-8"><path class="cls-21" d="M512.91,573.28h33.23v1.13H512.91Z"/></g><g class="cls-8"><path class="cls-22" d="M512.91,574.41h33.23v1H512.91Z"/></g><g class="cls-8"><path class="cls-23" d="M512.91,575.42h33.23v1.13H512.91Z"/></g><g class="cls-8"><path class="cls-24" d="M512.91,576.55h33.23v1.13H512.91Z"/></g><g class="cls-8"><path class="cls-25" d="M512.91,577.68h33.23v1H512.91Z"/></g><g class="cls-8"><path class="cls-26" d="M512.91,578.69h33.23v1.13H512.91Z"/></g><g class="cls-8"><path class="cls-27" d="M512.91,579.82h33.23V581H512.91Z"/></g><g class="cls-8"><path class="cls-28" d="M512.91,580.83h33.23V582H512.91Z"/></g><g class="cls-8"><path class="cls-29" d="M512.91,582h33.23v1.14H512.91Z"/></g><g class="cls-8"><path class="cls-30" d="M512.91,583.1h33.23v1.13H512.91Z"/></g><g class="cls-8"><path class="cls-31" d="M512.91,584.1h33.23v1.14H512.91Z"/></g><g class="cls-8"><path class="cls-32" d="M512.91,585.24h33.23v1.13H512.91Z"/></g><g class="cls-8"><path class="cls-33" d="M512.91,586.37h33.23v1H512.91Z"/></g><g class="cls-8"><path class="cls-34" d="M512.91,587.38h33.23v1.13H512.91Z"/></g><g class="cls-8"><path class="cls-35" d="M512.91,588.51h33.23v1.13H512.91Z"/></g><g class="cls-8"><path class="cls-36" d="M512.91,589.64h33.23v1H512.91Z"/></g><g class="cls-8"><path class="cls-37" d="M512.91,590.65h33.23v1.13H512.91Z"/></g><g class="cls-8"><path class="cls-38" d="M512.91,591.78h33.23v1.14H512.91Z"/></g><g class="cls-8"><path class="cls-39" d="M512.91,592.92h33.23v1H512.91Z"/></g><g class="cls-8"><path class="cls-40" d="M512.91,593.92h33.23v1.14H512.91Z"/></g><g class="cls-8"><path class="cls-41" d="M512.91,595.06h33.23v1.13H512.91Z"/></g><g class="cls-8"><path class="cls-42" d="M512.91,596.19h33.23v1H512.91Z"/></g><g class="cls-8"><path class="cls-43" d="M512.91,597.2h33.23v1.13H512.91Z"/></g><g class="cls-8"><path class="cls-44" d="M512.91,598.33h33.23v1.13H512.91Z"/></g><g class="cls-8"><path class="cls-45" d="M512.91,599.46h33.23v1H512.91Z"/></g><path class="cls-46" d="M571.32,628.54l70.5-20.27-39-108-2.27-3.4-2.77-2.77L594.61,492l-3.4-1.39-2.39-.5-4.91.12-3.15.89-2.89,1.63-4.41,3.78L571.32,499Z"/><path class="cls-47" d="M561.25,506.17v83.35H515.93V544.19l-13.85,11.33V614.7l69.24,13.84V498.87Z"/><path class="cls-48" d="M593.35,278.43l7.81,8.31,6.92,8.56,6.3,8.81L620,313.3l5,9.57,4.28,9.69,3.65,9.95,3,10.07,2.27,10.32,1.76,10.33,1,10.45.25,10.45-.25,10.45-1,10.44-1.76,10.33L636,435.67l-3,10.07-3.65,9.95-4.28,9.69L620,475l-5.66,9.19-6.3,8.81-6.92,8.57-7.81,8.3-8.18,7.81-8.69,6.92-8.81,6.3-9.19,5.66-9.57,5-9.69,4.28-10,3.65-10.07,3-10.32,2.27-10.32,1.76-10.45.88-10.45.38-10.45-.38-10.45-.88-10.33-1.76-10.32-2.27-10.07-3-10-3.65-9.69-4.28-9.57-5-9.19-5.66-8.81-6.3-8.56-6.92L362,509.82,352,499l-5.16-6.55-2.14-4.53-1.51-5.16-.88-5.79-.13-6.43.38-6.29,1.13-6.92,1.77-7.43,2.51-8.19,6.42-15.86,4.16-8.43,4.91-9.07,7-11.58,8.06-12,9.19-12.34,9.69-12,10.7-12.08,11.58-12.22L432,324.63,444,313.93l12-9.69,12.34-9.19,12-8.06,11.58-7.05L501,275l8.43-4.16,15.86-6.42,8.19-2.51,7.43-1.77,6.92-1.13,6.3-.38,6.42.13,5.79.88,5.16,1.51,4.53,2.14,6.55,5.16Z"/><path class="cls-49" d="M581.9,267.73l3.27,4,2.14,3.65,1.64,4.15,1.13,4.66.76,5,.12,6.29-.63,6.92L589.07,310l-2.14,8.43L581,334.83,572,353.34l-11,18.38-6.67,9.56-7.31,10L537,404l-11.33,12.84-12.34,13-13,12.34L487.48,453.3l-12.72,10.19-9.82,7.31-9.69,6.54-18.38,11.08-18.51,8.94-16.37,6-8.31,2.14L386,506.8l-6.92.63-6.17-.12-5.16-.76-4.66-1.13-4-1.76-3.77-2L352,499l-3.14-3.53-2-3-2.14-4.53-1.51-5.16-.88-5.79-.13-6.43.38-6.29,1.13-6.92,1.77-7.43L350.88,434l7.81-16.62,4.91-9.07,6.92-11.58,8.06-12,9.19-12.34,9.69-12,10.7-12.08,11.58-12.22L432,324.63,444,313.93l12-9.69,12.34-9.19,12-8.06,11.58-7.05L501,275l16.62-7.68,15.86-5.41,7.43-1.77,6.92-1.13,6.3-.38,6.54.13,5.67.88,5.16,1.51,4.53,2.14Z"/><path id="圆角矩形-5" class="cls-50" d="M258,503.66l-1.51.37-1.26.88-.88,1.26-.25,1.77v13.21l.25,1.64.88,1.39,1.26.88,1.51.38,1.51-.38,1.26-.88.88-1.39.38-1.64V507.94l-.38-1.77-.88-1.26-1.26-.88Z"/><path id="Combined-shape-564" class="cls-51" d="M263.26,496.35l-2.27.13-3,.88-1.39,1.39-.88,1.76-.38,3.77-1.25-.62-.89.37-.5,1.64.76,1.89,3,1.89,2.14,4,2,2,2.65,1.38h2.64l1.51-1.13.5-1.51.26-5.29-.26-7.3-.75-2.52-2-2.26Z"/><path id="形状-17" class="cls-52" d="M260.61,502.27l5.29.38,1.26-.38,1.76-1.13.88-2.14-.63-3.28-1.26-1.38-1.51-1-1.88-.25-.76.38L260,496.35h-4l-1.13.38-1.38,1-1.14,1.51-1,4,.37,2.52,1.64,4.4,1.39,1.39.75.12.63-.12.25-.88-1-1.77-1.25-.5-.63-.76-.51-.88v-2.26l1.14-.26,1.25.63.76,2,.5-2.65.76-1.25,1-.51Z"/><path id="形状-30-拷贝" class="cls-53" d="M243,657.63l-3.91,6.16L255.7,674.5l.76-2.52-.25-1.89-.63-1.26L250,664.3l-.88-2.65Z"/><path id="形状-34" class="cls-54" d="M273.08,581.33l3.4,32.86-.51,3.15-23.92,46.33-7.93-5.29,6.42-22.91,3.53-10.07,2.51-4.16,4-3.65-6.42-14.48-2.77-7.93L250.29,589l-.25-7.68Z"/><path id="形状-29-拷贝" class="cls-55" d="M267.16,580.07l-1.39,25.43-1.25,14.73-2,18.39L258,670.84h-7.18l-3.27-26.94-.76-13.22.38-8.56,1.64-7.17-3.9-19.77-.89-7-.5-8.06Z"/><path id="形状-30" class="cls-56" d="M250.79,670.84v7.31h19.77l-.76-2.52-1.26-1.51-1.26-.63-7-.88L258,670.84Z"/><path id="形状-26-拷贝" class="cls-57" d="M292,534.12l2.9-3.65.63-.12.25,1.25H296l.88-.75,1.64-2.9,1.26-.12.63.38,1.13,2.64-.13,1.38-3.4,7Z"/><path id="形状-31" class="cls-58" d="M273.08,530l6,18.5,12.46-14.6,5.92,5.29-17.12,21.78-2,.63-1.38-.38-9.07-7.55Z"/><path id="形状-24" class="cls-58" d="M262,520.78l-.76,2.64L260,524.68l-4-3.27-1.88-3.28L244,523.67l-2.51,2.39-.76,1.64-.5,2.9v50.73h32.86V530l-1.14-3.15-2.14-2.77-3.4-2.14Z"/><path id="形状-33" class="cls-59" d="M248.78,537.9l-4.66,12.46,11.2,17.75L250,574l-9.82-3.9V537.9Z"/><path id="形状-26" class="cls-60" d="M255.7,568.87l3.53,3v.63l-1.26.13V573l.63.89,2.77,1.88v1.26l-.38.63-2.77.88-1.26-.12-1.89-.88-4.91-3.15Z"/><path id="形状-32" class="cls-58" d="M240.85,526.69,229,550.36l-.63,2,.25,1.51L250,574.79l6-6.68L240.22,551l8.56-13.72"/><path class="cls-61" d="M372.91,348.55l-3.15-.88-4.28-2.89-3.77-3.4-3.65-4.28-3-4.41L352.77,328l-1.64-5-1-5-.25-5.16.25-5.29,1-5,1.64-4.91,2.26-4.78,3-4.41,3.65-4.28,4.15-3.65,4.41-2.89,4.78-2.27,4.91-1.64,5.16-1,5.16-.25,5.17.25,5,1,5,1.64,4.66,2.27,4.53,3,4.15,3.65,3.4,3.78,2.9,4.28.63,1.51v3.14l-1.51,2.9-1.39,1-1.63.63-3.15.12L415.34,300l-3-4.28-5.17-5L400.86,287l-6.92-1.89-3.66-.25-7.3,1-6.67,2.77-5.79,4.4-2.52,2.9-3.52,6.29-1.14,3.53-.88,4.66v4.65l.88,4.79,2.65,6.67,4.53,5.92,6.92,5.41,1.51,2.77v3.15l-.63,1.63-2.26,2.27Z"/><path class="cls-62" d="M357.17,364.29l-1.88-.25-1.89-1-3.78-3-7.8-8.06L338.16,347,335,341.75l-2.52-5.54-2-5.79-1.38-5.79-.88-5.92L328,312.8l.25-6.05.88-5.91,1.38-5.79,2-5.79,2.52-5.42,3.14-5.29,3.66-5,4.4-4.79,4.79-4.4,5-3.65,5.29-3.15,5.41-2.52,5.79-2,5.79-1.39,5.92-.88,6-.25,5.92.25,5.92.88,5.79,1.39,5.79,2,5.54,2.52,5.29,3.15,4.91,3.65,4.91,4.4,6.17,7.18.88,1.51.25,3.15-1.26,3-1.26,1.13-3,1.26-3.15-.5-1.38-.88-6.17-7.05-3.9-3.4-8.19-5.42-8.93-3.65-9.32-1.76-4.79-.25-9.56.88-9.19,2.77L363,271.25l-7.94,6.3-6.42,7.93-4.4,8.56-2.77,9.19-.88,9.57.25,4.78,1.76,9.32,3.65,8.94,5.41,8.18,3.4,3.9,7.05,6.17.89,1.39.37,3.14-1.13,3.15-2.27,1.89Z"/><path class="cls-63" d="M520,425.6l-17,16.74L420.5,357l14-14Z"/><path class="cls-64" d="M437.12,338.86l-.38,3.77-.88,3.53-1.64,3.15-2,2.89-2.52,2.52-2.9,2-3.14,1.63-3.53.88-3.77.38-3.78-.38-3.53-.88-3.14-1.63-2.9-2-2.52-2.52-2-2.89-1.64-3.15-.88-3.53-.38-3.77.38-3.78.88-3.52,1.64-3.15,2-2.9L403,323l2.9-2,3.14-1.64,3.53-.88,3.78-.37,3.77.37,3.53.88,3.14,1.64,2.9,2,2.52,2.51,2,2.9,1.64,3.15.88,3.52Z"/><path class="cls-9" d="M583.91,267.22l-.75-.75-1.26,1.26,1.26-1.39-2.9-2.52L577,261.68l-3.78-1.88-4-1.39-4.53-1-4.91-.63h-5.41l-6.42.38-7,1.13-7.56,1.77-16.11,5.54-17,7.8-9.06,4.91-11.71,7.05-12.09,8.19-12.46,9.19-12.09,9.82-12.08,10.7L418.49,335l-11.71,12.21-10.7,12.08-9.82,12.09-9.19,12.46-8.19,12.09-7.05,11.71-9.19,17.75-6.42,16.11-2.64,8.19-1.76,7.68-1,7.05-.51,6.42.13,5.41.5,4.91,1,4.41,1.39,4.15,1.88,3.78,2.14,3.27,3.4,3.65L354,503l3.65,2.14,4.15,1.76,4.53,1.26,5.17.88,5.66.25,6-.25,6.43-.88,7.17-1.51,14.61-4.41,17-7.43,9.19-4.66,9.44-5.41,18.51-12.08,9.57-7.06,18.51-15,21-19.51,14.6-15.49,8.56-9.82,15.87-20.26,13.34-20L573,355.48l5.16-10,4.41-9.44,3.14-8.06,4.54-14.23,2.26-13.09.38-6.17-.13-5.41-.62-5-1.26-5-1.77-4.41-2.39-3.9ZM517.31,423l-17,16.61-11.46,10.08-11.2,9.19-11.08,8.43-11.46,7.93L444.17,482l-10.45,6-11,5.42-10.08,4.28L403.25,501l-7.3,2.14-13,2.14-5.66.25-9.57-.88-4-1-3.9-1.64-3.53-2-3.65-3-4.15-5.41L346.73,488l-1.26-4-1-4.41-.38-4.91v-6.55l.88-7.3,1.77-8.18,2.39-8.06,3.14-8.81,4.16-9.44,4.66-9.57,5.41-9.82,6.3-10.2,14-19.77,7.93-10.19,17.12-19.52,19-19,19.52-17.12,10.19-7.93,19.9-14L490.5,283l9.82-5.41,9.57-4.79,8.93-3.9,8.31-3,7.56-2.27,7.8-1.76,7-1,6.3-.37,5.79.37,5,.76,4.41,1.51,4,1.89,2.9,1.89,3.14,2.89,2.39,3.15,2,3.4,1.64,3.9,1.13,4.28.63,4.91.12,5.92-.5,6.54L587.44,309l-2,7.93-5.54,15.49-8.31,17.62L565,361.52l-7.68,12.09-8.81,12.58-9.45,12.09-10.32,12.34Z"/><g class="cls-65"><text class="cls-66" transform="translate(260.3 424.09) rotate(17.31) scale(0.89 1)">500</text></g></svg>