<svg id="图层_1" data-name="图层 1" xmlns="http://www.w3.org/2000/svg" viewBox="0 0 164.3 39"><defs><style>.cls-1{fill:#ffc102;}.cls-2{fill:#fff;}</style></defs><title>logo_white</title><polygon class="cls-1" points="13.1 16.1 13.1 27.7 16.9 27.7 16.9 21.2 21.4 25.7 26.1 21 26.1 27.7 29.9 27.7 29.9 16.1 26.1 16.1 21.5 20.8 16.8 16.2 13.1 16.1"/><path class="cls-1" d="M26,.4v9.8L21.5,5.7l-4.7,4.7V.5A19.46,19.46,0,1,0,26,.4m6.5,30a15.28,15.28,0,0,1-6.6,3.9V31.8h2.9l2.8-3.2H22.5V35H20.7V28.6H11.6l2.8,3.2h2.9v2.5A15.51,15.51,0,0,1,13.1,6.4v8.8h3.7l4.7-4.7,4.6,4.6h3.7V6.3a15.53,15.53,0,0,1,4.8,21.4,10.91,10.91,0,0,1-2.1,2.7"/><path class="cls-1" d="M23.4,3.6l-.9-.1a6,6,0,0,0-1.9,0l-.9.1V.1L20.8,0h1.5l1.1.1Z"/><rect class="cls-2" x="52.3" y="0.1" width="0.6" height="38.8"/><path class="cls-2" d="M76,21V17.7H70.5v4.4c-.1,1.5.6,2.2,2.2,2.1H84.8V22.3H77.1C76.1,22.2,76,21.8,76,21Z"/><path class="cls-2" d="M64,24.1h0l2.1.1c1.6.1,2.4-.6,2.3-1.9V17.8H64Z"/><path class="cls-2" d="M86,24.2h2.1c1.5.1,2.2-.6,2.2-1.9V17.8H86Z"/><rect class="cls-2" x="78.2" y="17.7" width="4.5" height="3.3"/><path class="cls-2" d="M63.9,12.1,84.2,12v1H63.9v1.5H84.2v.2c0,.7,0,.7-.7.7H63.9v1.8H88.1c1.5.1,2.2-.7,2.2-2.3V10.2H63.9Z"/><polygon class="cls-2" points="81.1 10.1 86.6 10.1 86.6 9.6 90.3 9.6 90.3 7.8 86.6 7.8 86.6 6.8 90.3 6.8 90.3 5.3 86.6 5.3 86.6 4.7 90.3 4.7 90.3 3 86.6 3 86.6 2.4 81.1 2.4 81.1 3 77.1 3 77.1 4.7 81.1 4.7 81.1 5.3 77.1 5.3 77.1 6.8 81.1 6.8 81.1 7.8 77.1 7.8 77.1 9.6 81.1 9.6 81.1 10.1"/><polygon class="cls-2" points="67.7 10.1 73.2 10.1 73.2 9.6 76.6 9.6 76.6 7.8 73.2 7.8 73.2 6.8 76.6 6.8 76.6 5.3 73.2 5.3 73.2 4.7 76.6 4.7 76.6 3 73.2 3 73.2 2.4 67.7 2.4 67.7 3 63.9 3 63.9 4.7 67.7 4.7 67.7 5.3 63.9 5.3 63.9 6.8 67.7 6.8 67.7 7.8 63.9 7.8 63.9 9.6 67.7 9.6 67.7 10.1"/><polygon class="cls-2" points="153.3 21.7 158.1 21.7 158.1 16.5 160.1 16.5 160.1 14.3 158.1 14.3 158.1 11.5 160.1 11.5 160.1 9.3 158.1 9.3 158.1 6.7 153.3 6.7 153.3 9.3 151.4 9.3 151.7 5.8 160 5.8 160 3.6 152 3.6 152.1 2.5 147.9 2.4 147.8 3.6 146.7 3.6 146.7 5.7 147.5 5.7 147 11.4 153.4 11.4 153.4 14.3 146.7 14.3 146.7 16.5 153.3 16.5 153.3 21.7"/><polygon class="cls-2" points="141 3.6 138.9 3.6 139 2.5 134.1 2.5 133.8 5.8 141 5.8 141 3.6"/><path class="cls-2" d="M139.3,21.1V13.9H141V11.7h-1.7V9H141V6.8h-7.2V9h.7v2.7h-.7v2.1h.7v8.4c-.2,1.4.6,2.1,2.2,1.9H141V22.2h-.7C139.4,22.3,139.3,22.1,139.3,21.1Z"/><path class="cls-2" d="M125.4,2.4H112.3V4.6h1l-1,5h4.3l1-5h2.3v5h3.3c1.7,0,2.2-.3,2.2-2.3Z"/><path class="cls-2" d="M99.1,20h4.1l-4.1,4.1h6l7.2-7.2,7.1,7.2h6.1L121.3,20h2c1.5.1,2.2-.7,2.2-2.2V10H99.1Zm6-7.7h14.3V18L117,15.5h-3.4l2.1-2.2h-6L105.1,18Z"/><path class="cls-2" d="M111.7,7.3V5.8h-3.9v.7c0,.7,0,.8-.8.8h-2.4V4.5h4.9a2,2,0,0,0,2.2-2.2H99V9.5h10.4C111,9.6,111.7,8.9,111.7,7.3Z"/><path class="cls-2" d="M160.5,22.2H146.1V3.5l-.7-1h-3.6l.6,1.2h-.9V5.9h.9V24.3h18.1V22.2Z"/><path class="cls-2" d="M68.7,34.9H65.9l-.7,2.2H63.9l2.7-7.7H68l2.7,7.7H69.3Zm-.3-.9-.3-1c-.3-.8-.5-1.7-.8-2.6h0a25.82,25.82,0,0,1-.8,2.6l-.3,1Z"/><path class="cls-2" d="M71.8,29.4h4.8v1H73.1v2.2h3v1h-3v2.5h3.6v1H71.8Z"/><path class="cls-2" d="M78,33.2c0-2.5,1.4-4,3.5-4s3.5,1.5,3.5,4-1.5,4-3.5,4S78,35.7,78,33.2Zm5.7,0c0-1.8-.9-2.9-2.2-2.9s-2.2,1.1-2.2,2.9.9,3,2.2,3S83.7,35,83.7,33.2Z"/><path class="cls-2" d="M88.1,30.4H85.7v-1h6.1v1H89.4v6.7H88.1Z"/><path class="cls-2" d="M97.6,37.1,95.7,34H94.4v3.1H93.1V29.4h2.7c1.7,0,2.9.6,2.9,2.2A2.17,2.17,0,0,1,97,33.8l2,3.3ZM94.4,33h1.2c1.2,0,1.8-.5,1.8-1.4s-.6-1.3-1.8-1.3H94.4Z"/><path class="cls-2" d="M104.1,34.9h-2.8l-.7,2.2H99.3l2.7-7.7h1.5l2.7,7.7h-1.4Zm-.3-.9-.3-1c-.3-.8-.5-1.7-.8-2.6h0a25.82,25.82,0,0,1-.8,2.6l-.3,1Z"/><path class="cls-2" d="M107.2,29.4h2.1c2.5,0,3.9,1.3,3.9,3.8s-1.4,3.9-3.8,3.9h-2.2Zm2,6.7c1.7,0,2.7-1,2.7-2.9s-.9-2.9-2.7-2.9h-.7v5.8Z"/><path class="cls-2" d="M114.9,29.4h4.8v1h-3.5v2.2h3v1h-3v2.5h3.6v1h-4.9Z"/><path class="cls-2" d="M128.5,33.3a3.66,3.66,0,0,1,3.7-4,3.29,3.29,0,0,1,2.3,1l-.7.8a2.18,2.18,0,0,0-1.6-.7c-1.4,0-2.4,1.1-2.4,2.9s.9,3,2.3,3a2.5,2.5,0,0,0,1.8-.8l.7.8a3.41,3.41,0,0,1-2.5,1.1A3.78,3.78,0,0,1,128.5,33.3Z"/><path class="cls-2" d="M136.1,29.4h1.3v3.2h3.5V29.4h1.3v7.7h-1.3V33.6h-3.5v3.5h-1.3Z"/><path class="cls-2" d="M148,34.9h-2.8l-.7,2.2h-1.3l2.7-7.7h1.5l2.7,7.7h-1.4Zm-.3-.9-.3-1c-.3-.8-.5-1.7-.8-2.6h0a25.82,25.82,0,0,1-.8,2.6l-.3,1Z"/><path class="cls-2" d="M151.1,29.4h1.3v7.7h-1.3Z"/><path class="cls-2" d="M154.5,29.4h1.3l2.7,4.5.8,1.6h.1a21.12,21.12,0,0,1-.2-2.6V29.3h1.2V37h-1.3l-2.7-4.6-.8-1.6h-.1a21.05,21.05,0,0,1,.2,2.5V37h-1.2Z"/></svg>