<svg id="图层_1" data-name="图层 1" xmlns="http://www.w3.org/2000/svg" viewBox="0 0 783.96 107.72"><defs><style>.cls-1{fill:#333;}.cls-2{fill:#ffc102;}.cls-3{fill:none;stroke:#333;stroke-miterlimit:10;stroke-width:2px;}</style></defs><title>未标题-1</title><path class="cls-1" d="M141.72,28.36h13.42v1.38h8.38v4.15h-8.38v1.38h8.38v3.59h-8.38v2.49h8.38v4.42h-31V41.35h9.22V38.86H132.5V35.27h9.22V33.89H132.5V29.74h9.22ZM132.5,51.85V47.43h64.56V58.75c.18,3.87-1.58,5.72-5.31,5.53H132.5V59.86h48.07c1.49.18,2.05-.37,1.68-1.66v-.55H132.5V54.06h49.75V51.85Zm5.31,29h-5V65.39H143.4V76.16C143.58,79.48,141.72,81,137.81,80.86Zm45.84-4.7v4.7H154c-3.91.36-5.69-1.29-5.31-5V65.39h13.41v8q-.56,3.31,2.8,2.76ZM164.92,41.35h9.78V38.86h-9.78V35.27h9.78V33.89h-9.78V29.74h9.78V28.36h13.42v1.38h8.94v4.15h-8.94v1.38h8.94v3.59h-8.94v2.49h8.94v4.42H164.92Zm2.51,24h10.9v8h-10.9Zm29.63,0V76.16c.18,3.32-1.58,4.88-5.31,4.7h-5.31V65.39Z"/><path class="cls-1" d="M239,40.25c.18,3.88-1.57,5.72-5.27,5.53H208.5V28.36H239c-.19,3.51-1.94,5.26-5.27,5.26H221.79v6.63h5.82c1.48.38,2.12-.27,1.94-1.93V36.38H239ZM208.5,71V46.89h63.7V65.7q.27,5.53-5.26,5.25h-5l10.25,10H257.52L240.35,63.48,222.9,80.91H208.5l10-10Zm14.4-18.53V66.25L234,54.91h14.4l-5,5.26h8.31l5.81,6.08V52.42Zm17.45-18.8V28.36H272.2V40.25q.56,5.82-5.26,5.53h-8V33.62h-5.54l-2.49,12.16H240.35l2.49-12.16Z"/><path class="cls-1" d="M299.15,80.91H283.27l12.82-32.64H283.27V42.74H298l3.34-9.12H283.27V28.36h64.35v5.26H317.26l-3.62,9.12h34v5.53h-9.19l9.19,32.64H333.13l-9.19-32.64H311.69Z"/><path class="cls-1" d="M359,33.62V28.36h64.14v5.26H386.9V80.91H371V33.62Zm29.28,5.8h16.17l18.69,23.51h-15.9Z"/><polygon class="cls-2" points="31.67 45.69 31.67 76.57 41.94 76.57 41.94 59.27 53.98 71.31 66.57 58.73 66.57 76.57 76.55 76.57 76.55 45.69 66.53 45.69 54.07 58.15 41.65 45.73 31.67 45.69"/><path class="cls-2" d="M66.27,3.58V29.79l-12-12L41.64,30.32V3.75a52.28,52.28,0,1,0,24.63-.17ZM83.64,83.8A41.27,41.27,0,0,1,66,94.27l0-6.68h7.64l7.45-8.68H56.73v17c-.8,0-1.6.06-2.41.06s-1.62,0-2.42-.06v-17H27.48l7.45,8.68h7.64l0,6.68A41.27,41.27,0,0,1,25,83.8a41.49,41.49,0,0,1,6.67-64.06V43.36h10L54.14,30.9,66.56,43.32l10,0V19.46a41.44,41.44,0,0,1,7.1,64.34Z"/><path class="cls-2" d="M59.18,12.26,56.83,12a23.49,23.49,0,0,0-5,0l-2.34.24V2.83l2.87-.23a23.92,23.92,0,0,1,4,0l2.88.23Z"/><line class="cls-3" x1="441.1" y1="23.59" x2="441.1" y2="85.68"/><path class="cls-1" d="M480.45,63.63H466.06l-3.81,12H457.2L470.57,36.3h5.53l13.37,39.36h-5.26Zm-1.23-4-1.88-6c-1.45-4.46-2.69-8.75-4-13.32h-.22c-1.23,4.62-2.52,8.86-3.92,13.32l-1.93,6Z"/><path class="cls-1" d="M495,36.3h22.71v4.19H500V52.84h14.93v4.24H500V71.41h18.31v4.25H495Z"/><path class="cls-1" d="M524.33,55.84c0-12.62,6.93-20.29,16.81-20.29s16.8,7.67,16.8,20.29S551,76.35,541.14,76.35,524.33,68.46,524.33,55.84Zm28.51,0c0-9.88-4.67-15.94-11.7-15.94S529.43,46,529.43,55.84,534.05,72,541.14,72,552.84,65.67,552.84,55.84Z"/><path class="cls-1" d="M573.2,40.49H561.28V36.3h28.83v4.19H578.19V75.66h-5Z"/><path class="cls-1" d="M593.93,46.5h4l.42,5.32h.17c2-3.71,5-6.07,8.27-6.07a6.25,6.25,0,0,1,3.11.64l-.91,4.3a6.87,6.87,0,0,0-2.85-.49c-2.41,0-5.42,1.72-7.36,6.72V75.66h-4.88Z"/><path class="cls-1" d="M611.49,68.09c0-6.34,5.53-9.51,17.93-10.9,0-3.76-1.23-7.36-6-7.36a16.12,16.12,0,0,0-8.75,3.11l-1.94-3.38c2.69-1.72,6.82-3.81,11.5-3.81,7.08,0,10.09,4.78,10.09,12V75.66h-4l-.43-3.49h-.16c-2.79,2.31-6.06,4.18-9.66,4.18C615.14,76.35,611.49,73.35,611.49,68.09Zm17.93.48V60.41c-9.82,1.18-13.15,3.59-13.15,7.35,0,3.33,2.25,4.67,5.15,4.67S626.58,71.09,629.42,68.57Z"/><path class="cls-1" d="M641.51,61.1c0-9.45,6-15.35,12.62-15.35,3.43,0,5.63,1.29,8.21,3.43l-.27-5V32.91H667V75.66h-4l-.49-3.44h-.1c-2.31,2.26-5.37,4.13-8.86,4.13C646.23,76.35,641.51,70.82,641.51,61.1Zm20.56,7.15V52.94c-2.47-2.2-4.67-3.06-7.08-3.06-4.73,0-8.43,4.51-8.43,11.17,0,7,2.9,11.22,8.05,11.22C657.3,72.27,659.66,70.93,662.07,68.25Z"/><path class="cls-1" d="M674.7,61.1c0-9.45,6.39-15.35,13.15-15.35,7.41,0,11.6,5.37,11.6,13.69a18.67,18.67,0,0,1-.22,2.79H679.58c.32,6.23,4.14,10.2,9.67,10.2a12.57,12.57,0,0,0,7.3-2.3l1.77,3.22a17.39,17.39,0,0,1-9.66,3C680.92,76.35,674.7,70.72,674.7,61.1Zm20.45-2.36c0-5.9-2.68-9.07-7.25-9.07-4.13,0-7.78,3.33-8.37,9.07Z"/><path class="cls-1" d="M704.82,55.84c0-12.62,6.93-20.29,16.81-20.29s16.81,7.67,16.81,20.29-6.93,20.51-16.81,20.51S704.82,68.46,704.82,55.84Zm28.52,0c0-9.88-4.68-15.94-11.71-15.94S709.92,46,709.92,55.84,714.54,72,721.63,72,733.34,65.67,733.34,55.84Z"/><path class="cls-1" d="M744.08,70.5,747,67.12A15.49,15.49,0,0,0,757.93,72c5.16,0,8.27-2.58,8.27-6.45,0-4-2.84-5.31-6.55-7L754,56.11c-3.65-1.56-8-4.35-8-10.09,0-6.07,5.26-10.47,12.4-10.47A16.14,16.14,0,0,1,770,40.43l-2.63,3.17a12.74,12.74,0,0,0-9-3.7c-4.46,0-7.35,2.25-7.35,5.79,0,3.82,3.43,5.27,6.49,6.56l5.64,2.41c4.56,2,8.11,4.67,8.11,10.53,0,6.22-5.16,11.16-13.37,11.16A18.78,18.78,0,0,1,744.08,70.5Z"/></svg>