<svg xmlns="http://www.w3.org/2000/svg" viewBox="0 0 1024 1024" width="12" height="12" style="border-color: rgba(187,187,187,1);border-width: 0px;border-style: solid" filter="none">
    <path d="M511.792 292.662v-179.534c0-40.626 24.81-52.192 55.264-26.024L1001.162 460.878c30.488 26.274 30.416 68.898 0 95.104L567.054 929.758c-30.558 26.274-55.264 14.208-55.264-26.062v-172.358h-219.124c-40.484 0-73.328-32.984-73.328-72.398V365.094c0-40.018 32.024-72.434 73.328-72.434H511.792z m-438.678-292.452h146.296c40.34 0 73.042 32.452 73.042 73.114 0 40.376-32.342 73.112-73.042 73.112h-73.186v731.13h73.186a72.876 72.876 0 0 1 73.042 73.114c0 40.412-32.342 73.114-73.042 73.114h-146.296c-40.376 0-73.114-32.916-73.114-73.614v-876.354c0-40.664 32.452-73.616 73.114-73.616z" fill="rgba(165, 176, 206, 1)"></path>
  </svg>