<svg id="图层_1" data-name="图层 1" xmlns="http://www.w3.org/2000/svg" viewBox="0 0 19 19">
  <defs>
    <style>
      .cls-1 {
        fill: #e0e0e0;
      }
    </style>
  </defs>
  <title>个人后台小icon</title>
  <path class="cls-1" d="M3.8,17.1H15.2a.95.95,0,0,1,0,1.9H3.8a.95.95,0,0,1,0-1.9ZM1,0h17.1A1,1,0,0,1,19,1h0v13.3a1,1,0,0,1-.95.95H1A1,1,0,0,1,0,14.25H0V1A1,1,0,0,1,1,0Zm7.6,11v1.38h1.9V11a7.2,7.2,0,0,0,.61-.47l1.13,1.13,1.34-1.34L12.4,9.16a7.2,7.2,0,0,0,.47-.61h1.38V6.65H12.87c-.15-.21-.3-.41-.47-.61l1.13-1.13L12.19,3.57,11.06,4.7c-.2-.17-.4-.32-.61-.47V2.85H8.55V4.23c-.19.14-.4.29-.61.47L6.81,3.57,5.47,4.91,6.6,6c-.17.2-.32.4-.47.61H4.75v1.9H6.13a7.2,7.2,0,0,0,.47.61L5.47,10.29l1.34,1.34L7.94,10.5Z"/>
</svg>
