<svg xmlns="http://www.w3.org/2000/svg" viewBox="0 0 1024 1024" width="19" height="19" style="fill:#fff;border-color: rgba(187,187,187,1);border-width: 0px;border-style: solid" filter="none">
    <path d="M510.282892 55.023174c-259.892145 0-470.587821 210.695676-470.587821 470.587821 0 259.891122 210.695676 470.587821 470.587821 470.587821 259.891122 0 470.587821-210.6967 470.587821-470.587821C980.870714 265.718851 770.172991 55.023174 510.282892 55.023174L510.282892 55.023174zM835.237869 527.929808l-57.348126 0c-5.259794 0-9.553587-4.340865-9.553587-9.737782l0-9.761318-0.483001 0c-5.074575-140.877541-118.278847-253.575276-257.571287-253.575276-142.531204 0-258.054287 117.888967-258.054287 263.336594 0 145.42409 115.523083 263.313058 258.054287 263.313058 61.504796 0 117.635187-22.347984 161.938206-59.071374l-67.86669-64.421218 183.090968 0 0 182.010357-60.930721-62.169945c-58.31208 50.686403-133.597741 81.669044-216.231763 81.669044-184.744631 0-334.533123-152.819524-334.533123-341.330946 0-188.533934 149.788491-341.354482 334.533123-341.354482 176.590927 0 320.476989 139.797953 332.901972 316.733735 0.942465 1.493004 1.607614 24.620747 1.607614 24.620747C844.792479 523.588943 840.520175 527.929808 835.237869 527.929808L835.237869 527.929808zM644.201951 555.605124l0 58.036811-99.745748 0 0 90.373287-66.005296 0 0-90.373287-102.041024 0 0-58.036811 102.041024 0 0-53.696969-102.041024 0 0-57.853639 80.682577 0-80.751139-96.873328 70.140477 0 63.158459 83.691097 65.500806-83.691097 67.200518 0-80.084966 96.873328 81.945337 0 0 57.853639-99.745748 0 0 53.696969L644.201951 555.605124 644.201951 555.605124zM644.201951 555.605124"></path>
  </svg>
