<svg xmlns="http://www.w3.org/2000/svg" viewBox="0 0 32 32" width="24" height="24" style="border-color: rgba(187,187,187,1);border-width: 0px;border-style: solid" filter="none">

    <g>
    <path d="M26.667 29.333h-21.333c-0.736 0-1.333-0.597-1.333-1.333v0-24c0-0.736 0.597-1.333 1.333-1.333v0h21.333c0.736 0 1.333 0.597 1.333 1.333v0 24c0 0.736-0.597 1.333-1.333 1.333v0zM25.333 26.667v-21.333h-18.667v21.333h18.667zM10.667 9.333h10.667v2.667h-10.667v-2.667zM10.667 14.667h10.667v2.667h-10.667v-2.667zM10.667 20h6.667v2.667h-6.667v-2.667z" fill=""></path>
    </g>
  </svg>
