<svg id="图层_1" data-name="图层 1" xmlns="http://www.w3.org/2000/svg" viewBox="0 0 24 24"><title>3.触发事件</title><path d="M11.78,12.86H10V8.06a.44.44,0,0,0-.44-.43.43.43,0,0,0-.43.43v4.8H7.42V8.06a2.18,2.18,0,1,1,4.36,0Z"/><path d="M13.3,21.14a5.87,5.87,0,0,1-5.88-5.87V12.42H9.17v2.84a4.1,4.1,0,0,0,1.21,2.93,4,4,0,0,0,2.93,1.21h.43a4.17,4.17,0,0,0,2.94-1.22,4.11,4.11,0,0,0,1.21-2.92V12.42h1.74v2.84a5.87,5.87,0,0,1-5.87,5.88H13.3Z"/><path d="M14.4,14.17H12.65V12a.44.44,0,0,0-.43-.44.44.44,0,0,0-.44.44v2.18H10V12a2.18,2.18,0,0,1,4.36,0Z"/><path d="M17,14.17H15.27V12a.44.44,0,0,0-.44-.44.44.44,0,0,0-.43.44v2.18H12.65V12A2.18,2.18,0,0,1,17,12Z"/><path d="M19.63,14.17H17.89V12A.44.44,0,0,0,17,12v2.18H15.27V12a2.18,2.18,0,1,1,4.36,0Z"/><path d="M14.83,8.06H13.09a3.32,3.32,0,0,0-.16-1,3.54,3.54,0,0,0-.53-1,3.5,3.5,0,0,0-4.89-.7,3.57,3.57,0,0,0-.7.7,3.34,3.34,0,0,0-.54,1,3.68,3.68,0,0,0-.15,1H4.37a5.25,5.25,0,0,1,.24-1.57,5.59,5.59,0,0,1,.81-1.55,5.39,5.39,0,0,1,1-1A5.24,5.24,0,0,1,13.79,5a5.13,5.13,0,0,1,.8,1.54A5.25,5.25,0,0,1,14.83,8.06Z"/></svg>