<svg id="图层_1" data-name="图层 1" xmlns="http://www.w3.org/2000/svg" viewBox="0 0 24 24"><title>4.执行动作</title><path d="M12,7.55h0A2.35,2.35,0,1,1,14.34,5.2,2.36,2.36,0,0,1,12,7.55Zm0-3a.68.68,0,1,0,.68.68A.68.68,0,0,0,12,4.52Z"/><path d="M12,21.14a2.35,2.35,0,1,1,2.34-2.34A2.34,2.34,0,0,1,12,21.14Zm0-3a.68.68,0,1,0,.68.68A.67.67,0,0,0,12,18.12Z"/><path d="M5.2,14.34h0A2.34,2.34,0,1,1,7.55,12,2.36,2.36,0,0,1,5.2,14.34Zm0-3a.68.68,0,0,0-.68.68.69.69,0,0,0,.69.68.68.68,0,0,0,0-1.36Z"/><path d="M18.8,14.34A2.34,2.34,0,1,1,21.14,12,2.35,2.35,0,0,1,18.8,14.34Zm0-3a.68.68,0,1,0,.68.68A.67.67,0,0,0,18.8,11.32Z"/><path d="M17.75,9.2a.84.84,0,0,1-.7-.39A6.11,6.11,0,0,0,15.19,7a.83.83,0,1,1,.88-1.4,7.51,7.51,0,0,1,2.38,2.38.82.82,0,0,1-.26,1.14A.78.78,0,0,1,17.75,9.2Z"/><path d="M15.63,18.58a.84.84,0,0,1-.7-.39.82.82,0,0,1,.26-1.14,6.11,6.11,0,0,0,1.86-1.86.83.83,0,0,1,1.14-.26.82.82,0,0,1,.26,1.14,7.51,7.51,0,0,1-2.38,2.38A.78.78,0,0,1,15.63,18.58Z"/><path d="M8.37,18.58a.78.78,0,0,1-.44-.13,7.51,7.51,0,0,1-2.38-2.38A.83.83,0,0,1,7,15.19a6.11,6.11,0,0,0,1.86,1.86.82.82,0,0,1,.26,1.14A.84.84,0,0,1,8.37,18.58Z"/><path d="M6.25,9.2a.78.78,0,0,1-.44-.13.82.82,0,0,1-.26-1.14A7.51,7.51,0,0,1,7.93,5.55.83.83,0,0,1,8.81,7,6.11,6.11,0,0,0,7,8.81.84.84,0,0,1,6.25,9.2Z"/></svg>