<svg id="图层_1" data-name="图层 1" xmlns="http://www.w3.org/2000/svg" viewBox="0 0 13 10.56"><defs><style>.cls-1{fill:;}</style></defs><title>按时间倒序排序</title><path class="cls-1" d="M10.56,6.91H12.4c.54,0,.76.32.49.72l-2.65,3.86a.56.56,0,0,1-.75.23.57.57,0,0,1-.23-.23L6.62,7.63c-.27-.4,0-.72.49-.72H8.94V1.63a.41.41,0,0,1,.41-.41h.8a.4.4,0,0,1,.41.4h0ZM6.09,2.85a.4.4,0,0,0,.41-.4h0V1.63a.41.41,0,0,0-.41-.41H.41a.4.4,0,0,0-.41.4H0v.81a.42.42,0,0,0,.41.41ZM4.48,6.91a.4.4,0,0,0,.4-.4h0V5.69a.42.42,0,0,0-.4-.41H.4a.4.4,0,0,0-.4.4H0V6.5a.42.42,0,0,0,.4.41ZM2.85,11a.4.4,0,0,0,.4-.4h0v-.8a.39.39,0,0,0-.39-.41H.4a.39.39,0,0,0-.4.39v.82A.4.4,0,0,0,.39,11H2.85Z" transform="translate(0 -1.22)"/></svg>
