<svg xmlns="http://www.w3.org/2000/svg" viewBox="0 0 235.73 202.06" width="16" height="16">

    <g>
    <path d="M220.87,1.87a15.71,15.71,0,0,1,15.71,15.72h0v137a15.71,15.71,0,0,1-15.71,15.71H16.57A15.72,15.72,0,0,1,.85,154.54h0V17.59A15.72,15.72,0,0,1,16.57,1.87h204.3Zm-60.06,101H76.62a8.42,8.42,0,0,0,0,16.84h84.19a8.42,8.42,0,0,0,0-16.84Zm0-42.1H76.62a8.42,8.42,0,0,0,0,16.84h84.19a8.42,8.42,0,0,0,0-16.84Z" transform="translate(-0.85 -1.87)"></path><path d="M34.53,187.09H202.91q8.42,0,8.41,8.42h0q0,8.42-8.41,8.42H34.53q-8.43,0-8.42-8.42h0Q26.11,187.08,34.53,187.09Z" transform="translate(-0.85 -1.87)"></path>
    </g>
  </svg>
